<svg width="161" height="160" viewBox="0 0 161 160" fill="none" xmlns="http://www.w3.org/2000/svg">
<path d="M33.1387 55.2216H68.7618V46.3254H33.1387V37.4291H80.3574L67.4122 64.1179H42.054V73.0142H72.0504L68.2486 81.9105H33.1387V55.2216Z" fill="#473388"/>
<path d="M101.838 55.2216H120.049V37.41H128.945V81.9295H120.049V64.1179H94.1392" fill="#473388"/>
<path d="M41.1798 104.379H38.4044V89.343H33.8232V117.933H38.4044V109.892H41.1798L48.0041 117.933H52.2621V115.233L45.3998 107.041L52.2621 99.0377V96.3384H48.1942L41.1798 104.379Z" fill="#473388" stroke="#473388" stroke-width="0.3812" stroke-miterlimit="10"/>
<path d="M55.5508 101.642H66.481V104.379H55.5508V118.047H71.9557V96.1674H55.5508V101.642ZM66.481 112.572H61.0064V109.835H66.481V112.572Z" fill="#473388"/>
<path d="M74.6738 118.028H80.1485V101.642H91.0787V96.1674H74.6738V118.028Z" fill="#473388"/>
<path d="M93.8159 101.642H104.746V104.379H93.8159V118.047H110.221V96.1674H93.8159V101.642ZM104.746 112.572H99.2715V109.835H104.746V112.572Z" fill="#473388"/>
<path d="M129.363 101.642V96.1673H123.889V87.9744H118.414V96.1673H112.958V101.642H118.414V118.028H123.889H128.717V112.534H123.889V101.642H129.363Z" fill="#473388"/>
<path d="M97.9028 55.1456C97.9028 55.1456 93.2645 55.1266 91.0215 55.1266H87.904C87.8659 55.1266 87.8279 55.1266 87.7899 55.1076H85.1286L89.0065 48.3213V48.3403L90.2041 46.4394C92.105 43.4359 94.0059 40.4135 95.9068 37.41H83.4558C80.2623 43.8351 77.0688 50.2602 73.8562 56.6663L70.9478 62.4641L70.8718 62.6352L70.7957 62.7872C70.7767 62.8443 70.7767 62.8633 70.7387 62.9013L70.3965 63.6427L70.1874 64.0989H70.3015L75.7191 64.1179H78.6465L75.0538 72.3489C73.1909 76.74 71.347 81.1311 69.5031 85.5222L66.3096 92.9928L67.0509 92.0613C67.0509 92.0803 67.0509 92.1184 67.0699 92.1374C67.0699 92.0994 67.108 92.0233 67.165 91.9473L67.6972 91.282C69.5982 89.0389 71.442 86.8528 73.2669 84.6858L75.491 82.0625C83.2277 72.8811 98.6251 55.2596 98.7202 55.1646C98.454 55.1646 97.9028 55.1456 97.9028 55.1456Z" fill="#FF3875"/>
</svg>
