<?xml version="1.0" encoding="UTF-8"?>
<!-- Generated by Pixelmator Pro 3.2.3 -->
<svg width="708" height="708" viewBox="0 0 708 708" xmlns="http://www.w3.org/2000/svg" xmlns:xlink="http://www.w3.org/1999/xlink">
    <path id="Path" fill="#ff3875" stroke="none" d="M -158 -139 L 866 -139 L 866 885 L -158 885 Z"/>
    <path id="path1" fill="#ffffff" stroke="none" d="M 50.888 214.417969 L 278.876007 214.417969 L 278.876007 157.481995 L 50.888 157.481995 L 50.888 100.546021 L 353.088013 100.546021 L 270.238007 271.354004 L 107.946014 271.354004 L 107.946014 328.290039 L 299.923004 328.290039 L 275.591003 385.22699 L 50.888 385.22699 L 50.888 214.417969 Z"/>
    <path id="path2" fill="#ffffff" stroke="none" d="M 490.562012 214.417969 L 607.111023 214.417969 L 607.111023 100.424011 L 664.046997 100.424011 L 664.046997 385.348022 L 607.111023 385.348022 L 607.111023 271.354004 L 441.289978 271.354004"/>
    <path id="path3" fill="#ffffff" stroke="#ffffff" stroke-width="0.3812" stroke-linecap="round" stroke-linejoin="round" d="M 102.348999 529.026978 L 84.587006 529.026978 L 84.587006 432.794983 L 55.268005 432.794983 L 55.268005 615.77002 L 84.587006 615.77002 L 84.587006 564.307983 L 102.348999 564.307983 L 146.024994 615.77002 L 173.276001 615.77002 L 173.276001 598.494019 L 129.358002 546.059021 L 173.276001 494.841003 L 173.276001 477.565979 L 147.240997 477.565979 L 102.348999 529.026978 Z"/>
    <path id="path4" fill="#ffffff" stroke="none" d="M 194.322998 511.507996 L 264.277008 511.507996 L 264.277008 529.026978 L 194.322998 529.026978 L 194.322998 616.499023 L 299.315002 616.499023 L 299.315002 476.469971 L 194.322998 476.469971 L 194.322998 511.507996 Z M 264.277008 581.461975 L 229.239014 581.461975 L 229.239014 563.942993 L 264.277008 563.942993 L 264.277008 581.461975 Z"/>
    <path id="path5" fill="#ffffff" stroke="none" d="M 316.712006 616.377991 L 351.75 616.377991 L 351.75 511.507996 L 421.703003 511.507996 L 421.703003 476.469971 L 316.712006 476.469971 L 316.712006 616.377991 Z"/>
    <path id="path6" fill="#ffffff" stroke="none" d="M 439.221985 511.507996 L 509.176025 511.507996 L 509.176025 529.026978 L 439.221985 529.026978 L 439.221985 616.499023 L 544.213013 616.499023 L 544.213013 476.469971 L 439.221985 476.469971 L 439.221985 511.507996 Z M 509.176025 581.461975 L 474.138 581.461975 L 474.138 563.942993 L 509.176025 563.942993 L 509.176025 581.461975 Z"/>
    <path id="path7" fill="#ffffff" stroke="none" d="M 666.723999 511.507996 L 666.723999 476.469971 L 631.685974 476.469971 L 631.685974 424.036011 L 596.64801 424.036011 L 596.64801 476.469971 L 561.731995 476.469971 L 561.731995 511.507996 L 596.64801 511.507996 L 596.64801 616.377991 L 631.685974 616.377991 L 662.586975 616.377991 L 662.586975 581.218994 L 631.685974 581.218994 L 631.685974 511.507996 L 666.723999 511.507996 Z"/>
    <path id="path8" fill="#ffffff" stroke="none" d="M 465.377991 213.932007 C 465.377991 213.932007 435.69397 213.809998 421.338013 213.809998 L 401.385986 213.809998 C 401.143005 213.809998 400.898987 213.809998 400.656006 213.687988 L 383.624023 213.687988 L 408.442017 170.255981 L 408.442017 170.377991 L 416.106995 158.212036 C 428.27301 138.98999 440.437988 119.645996 452.604004 100.424011 L 372.91803 100.424011 C 352.479004 141.545044 332.040985 182.665039 311.480011 223.664001 L 292.867004 260.77002 L 292.380005 261.86499 L 291.893005 262.838013 C 291.772003 263.203003 291.772003 263.325012 291.528015 263.567993 L 289.338013 268.312988 L 288 271.233032 L 288.730011 271.233032 L 323.403015 271.354004 L 342.138 271.354004 L 319.144989 324.032959 C 307.221985 352.135986 295.42099 380.239014 283.621002 408.34198 L 263.182007 456.153992 L 267.927002 450.192017 C 267.927002 450.314026 267.927002 450.557007 268.048004 450.679016 C 268.048004 450.435974 268.291992 449.948975 268.657013 449.461975 L 272.062988 445.203979 C 284.229004 430.848999 296.029999 416.857971 307.709015 402.989014 L 321.942993 386.200012 C 371.458008 327.438965 470.000977 214.661011 470.609985 214.052979 C 468.906006 214.052979 465.377991 213.932007 465.377991 213.932007 Z"/>
</svg>
