<?xml version="1.0" encoding="UTF-8"?>
<svg width="448px" height="512px" viewBox="0 0 448 512" version="1.1" xmlns="http://www.w3.org/2000/svg" xmlns:xlink="http://www.w3.org/1999/xlink">
    <title>glb</title>
    <g id="Page-1" stroke="none" stroke-width="1" fill="none" fill-rule="evenodd">
        <g id="glb" fill-rule="nonzero">
            <path d="M96,0 C78.4,0 64,14.4 64,32 L64,480 C64,497.6 78.4,512 96,512 L416,512 C433.6,512 448,497.6 448,480 L448,128 L320,0 L96,0 Z" id="Path" fill="#E2E5E7"></path>
            <path d="M352,128 L448,128 L320,0 L320,96 C320,113.6 334.4,128 352,128 Z" id="Path" fill="#B0B7BD"></path>
            <polygon id="Path" fill="#CAD1D8" points="448 224 352 128 448 128"></polygon>
            <path d="M384,416 C384,424.8 376.8,432 368,432 L16,432 C7.2,432 0,424.8 0,416 L0,256 C0,247.2 7.2,240 16,240 L368,240 C376.8,240 384,247.2 384,256 L384,416 Z" id="Path" fill="#576D7E"></path>
            <g id="Group" transform="translate(64.000000, 296.000000)" fill="#FFFFFF">
                <path d="M212.875,89.125 C222.291667,89.125 229.645833,86.9791667 234.9375,82.6875 C240.229167,78.3958333 242.875,72.3333333 242.875,64.5 C242.875,59.0833333 241.479167,54.6041667 238.6875,51.0625 C235.895833,47.5208333 232,45.0416667 227,43.625 C231.25,42.0416667 234.583333,39.5416667 237,36.125 C239.416667,32.7083333 240.625,28.625 240.625,23.875 C240.625,16.7083333 238.083333,11.1041667 233,7.0625 C227.916667,3.02083333 220.75,1 211.5,1 L211.5,1 L181.5,1 C175.833333,1 173,3.83333333 173,9.5 L173,9.5 L173,80.625 C173,86.2916667 175.833333,89.125 181.5,89.125 L181.5,89.125 L212.875,89.125 Z M208.75,38.375 L188.375,38.375 L188.375,13.125 L208.75,13.125 C219.666667,13.125 225.125,17.3333333 225.125,25.75 C225.125,34.1666667 219.666667,38.375 208.75,38.375 L208.75,38.375 Z M210.875,77 L188.375,77 L188.375,50.5 L210.875,50.5 C221.875,50.5 227.375,54.9166667 227.375,63.75 C227.375,72.5833333 221.875,77 210.875,77 L210.875,77 Z" id="B"></path>
                <path d="M148.25,89.5 C152.916667,89.5 155.25,87.2083333 155.25,82.625 C155.25,78.125 152.916667,75.875 148.25,75.875 L148.25,75.875 L112,75.875 L112,9.125 C112,3.70833333 109.333333,1 104,1 C98.6666667,1 96,3.70833333 96,9.125 L96,9.125 L96,81.25 C96,86.75 98.7083333,89.5 104.125,89.5 L104.125,89.5 L148.25,89.5 Z" id="L"></path>
                <path d="M45.25,90.625 C49.8333333,90.625 54.5,90.1875 59.25,89.3125 C64,88.4375 68.2083333,87.3333333 71.875,86 C74.875,84.9166667 76.375,82.4583333 76.375,78.625 L76.375,78.625 L76.375,48.25 C76.375,43.9166667 74.2083333,41.75 69.875,41.75 L69.875,41.75 L49.25,41.75 C44.9166667,41.75 42.75,43.7083333 42.75,47.625 C42.75,51.625 44.9166667,53.625 49.25,53.625 L49.25,53.625 L63,53.625 L63,74.125 C60.1666667,75.0416667 57.3125,75.7291667 54.4375,76.1875 C51.5625,76.6458333 48.75,76.875 46,76.875 C36.3333333,76.875 29.0416667,74.2083333 24.125,68.875 C19.2083333,63.5416667 16.75,55.75 16.75,45.5 C16.75,35.3333333 19.1458333,27.5416667 23.9375,22.125 C28.7291667,16.7083333 35.7916667,14 45.125,14 C49.125,14 52.75,14.4166667 56,15.25 C59.25,16.0833333 62.4583333,17.4166667 65.625,19.25 C67.625,20.4166667 69.4583333,20.6875 71.125,20.0625 C72.7916667,19.4375 74.0416667,18.3333333 74.875,16.75 C75.7083333,15.1666667 75.9791667,13.4791667 75.6875,11.6875 C75.3958333,9.89583333 74.3333333,8.45833333 72.5,7.375 C68.3333333,4.70833333 63.8958333,2.8125 59.1875,1.6875 C54.4791667,0.5625 49.7916667,0 45.125,0 C35.7083333,0 27.625,1.85416667 20.875,5.5625 C14.125,9.27083333 8.95833333,14.5208333 5.375,21.3125 C1.79166667,28.1041667 0,36.1666667 0,45.5 C0,54.75 1.75,62.75 5.25,69.5 C8.75,76.25 13.8541667,81.4583333 20.5625,85.125 C27.2708333,88.7916667 35.5,90.625 45.25,90.625 Z" id="G"></path>
            </g>
            <path d="M368,432 L64,432 L64,448 L368,448 C376.8,448 384,440.8 384,432 L384,416 C384,424.8 376.8,432 368,432 Z" id="Path" fill="#CAD1D8"></path>
        </g>
    </g>
</svg>