<?xml version="1.0" encoding="UTF-8"?>
<svg width="448px" height="512px" viewBox="0 0 448 512" version="1.1" xmlns="http://www.w3.org/2000/svg" xmlns:xlink="http://www.w3.org/1999/xlink">
    <title>gltf</title>
    <g id="Page-1" stroke="none" stroke-width="1" fill="none" fill-rule="evenodd">
        <g id="gltf" fill-rule="nonzero">
            <path d="M96,0 C78.4,0 64,14.4 64,32 L64,480 C64,497.6 78.4,512 96,512 L416,512 C433.6,512 448,497.6 448,480 L448,128 L320,0 L96,0 Z" id="Path" fill="#E2E5E7"></path>
            <path d="M352,128 L448,128 L320,0 L320,96 C320,113.6 334.4,128 352,128 Z" id="Path" fill="#B0B7BD"></path>
            <polygon id="Path" fill="#CAD1D8" points="448 224 352 128 448 128"></polygon>
            <path d="M384,416 C384,424.8 376.8,432 368,432 L16,432 C7.2,432 0,424.8 0,416 L0,256 C0,247.2 7.2,240 16,240 L368,240 C376.8,240 384,247.2 384,256 L384,416 Z" id="Path" fill="#576D7E"></path>
            <g id="Group" transform="translate(38.000000, 295.000000)" fill="#FFFFFF">
                <path d="M142.25,90.5 C146.916667,90.5 149.25,88.2083333 149.25,83.625 C149.25,79.125 146.916667,76.875 142.25,76.875 L142.25,76.875 L106,76.875 L106,10.125 C106,4.70833333 103.333333,2 98,2 C92.6666667,2 90,4.70833333 90,10.125 L90,10.125 L90,82.25 C90,87.75 92.7083333,90.5 98.125,90.5 L98.125,90.5 L142.25,90.5 Z" id="L"></path>
                <path d="M45.25,90.625 C49.8333333,90.625 54.5,90.1875 59.25,89.3125 C64,88.4375 68.2083333,87.3333333 71.875,86 C74.875,84.9166667 76.375,82.4583333 76.375,78.625 L76.375,78.625 L76.375,48.25 C76.375,43.9166667 74.2083333,41.75 69.875,41.75 L69.875,41.75 L49.25,41.75 C44.9166667,41.75 42.75,43.7083333 42.75,47.625 C42.75,51.625 44.9166667,53.625 49.25,53.625 L49.25,53.625 L63,53.625 L63,74.125 C60.1666667,75.0416667 57.3125,75.7291667 54.4375,76.1875 C51.5625,76.6458333 48.75,76.875 46,76.875 C36.3333333,76.875 29.0416667,74.2083333 24.125,68.875 C19.2083333,63.5416667 16.75,55.75 16.75,45.5 C16.75,35.3333333 19.1458333,27.5416667 23.9375,22.125 C28.7291667,16.7083333 35.7916667,14 45.125,14 C49.125,14 52.75,14.4166667 56,15.25 C59.25,16.0833333 62.4583333,17.4166667 65.625,19.25 C67.625,20.4166667 69.4583333,20.6875 71.125,20.0625 C72.7916667,19.4375 74.0416667,18.3333333 74.875,16.75 C75.7083333,15.1666667 75.9791667,13.4791667 75.6875,11.6875 C75.3958333,9.89583333 74.3333333,8.45833333 72.5,7.375 C68.3333333,4.70833333 63.8958333,2.8125 59.1875,1.6875 C54.4791667,0.5625 49.7916667,0 45.125,0 C35.7083333,0 27.625,1.85416667 20.875,5.5625 C14.125,9.27083333 8.95833333,14.5208333 5.375,21.3125 C1.79166667,28.1041667 0,36.1666667 0,45.5 C0,54.75 1.75,62.75 5.25,69.5 C8.75,76.25 13.8541667,81.4583333 20.5625,85.125 C27.2708333,88.7916667 35.5,90.625 45.25,90.625 Z" id="G"></path>
                <path d="M188.25,91.125 C193.583333,91.125 196.25,88.375 196.25,82.875 L196.25,82.875 L196.25,15.375 L220.625,15.375 C225.208333,15.375 227.5,13.125 227.5,8.625 C227.5,4.20833333 225.208333,2 220.625,2 L220.625,2 L155.875,2 C151.291667,2 149,4.20833333 149,8.625 C149,13.125 151.291667,15.375 155.875,15.375 L155.875,15.375 L180.25,15.375 L180.25,82.875 C180.25,88.375 182.916667,91.125 188.25,91.125 Z" id="T"></path>
                <path d="M249.25,90.125 C254.416667,90.125 257,87.2916667 257,81.625 L257,81.625 L257,51.375 L290.5,51.375 C294.833333,51.375 297,49.2083333 297,44.875 C297,40.7083333 294.833333,38.625 290.5,38.625 L290.5,38.625 L257,38.625 L257,13.75 L293.125,13.75 C297.458333,13.75 299.625,11.5833333 299.625,7.25 C299.625,3.08333333 297.458333,1 293.125,1 L293.125,1 L249.5,1 C243.833333,1 241,3.83333333 241,9.5 L241,9.5 L241,81.625 C241,87.2916667 243.75,90.125 249.25,90.125 Z" id="F"></path>
            </g>
            <path d="M368,432 L64,432 L64,448 L368,448 C376.8,448 384,440.8 384,432 L384,416 C384,424.8 376.8,432 368,432 Z" id="Path" fill="#CAD1D8"></path>
        </g>
    </g>
</svg>