<?xml version="1.0" encoding="UTF-8"?>
<svg width="448px" height="512px" viewBox="0 0 448 512" version="1.1" xmlns="http://www.w3.org/2000/svg" xmlns:xlink="http://www.w3.org/1999/xlink">
    <title>mp4</title>
    <g id="Page-1" stroke="none" stroke-width="1" fill="none" fill-rule="evenodd">
        <g id="mp4" fill-rule="nonzero">
            <path d="M96,0 C78.4,0 64,14.4 64,32 L64,480 C64,497.6 78.4,512 96,512 L416,512 C433.6,512 448,497.6 448,480 L448,128 L320,0 L96,0 Z" id="Path" fill="#E2E5E7"></path>
            <path d="M352,128 L448,128 L320,0 L320,96 C320,113.6 334.4,128 352,128 Z" id="Path" fill="#B0B7BD"></path>
            <polygon id="Path" fill="#CAD1D8" points="448 224 352 128 448 128"></polygon>
            <path d="M384,416 C384,424.8 376.8,432 368,432 L16,432 C7.2,432 0,424.8 0,416 L0,256 C0,247.2 7.2,240 16,240 L368,240 C376.8,240 384,247.2 384,256 L384,416 Z" id="Path" fill="#F15642"></path>
            <g id="Group" transform="translate(85.000000, 294.000000)" fill="#FFFFFF">
                <path d="M81.625,90.125 C86.4583333,90.125 88.875,87.625 88.875,82.625 L88.875,82.625 L88.875,7.5 C88.875,2.5 86.4583333,0 81.625,0 C79.5416667,0 77.9166667,0.395833333 76.75,1.1875 C75.5833333,1.97916667 74.5,3.33333333 73.5,5.25 L73.5,5.25 L44.625,58.625 L15.75,5.25 C14.75,3.33333333 13.6458333,1.97916667 12.4375,1.1875 C11.2291667,0.395833333 9.58333333,0 7.5,0 C2.5,0 0,2.5 0,7.5 L0,7.5 L0,82.625 C0,87.625 2.41666667,90.125 7.25,90.125 C12.0833333,90.125 14.5,87.625 14.5,82.625 L14.5,82.625 L14.5,30 L38,72.625 C38.75,73.9583333 39.625,74.9791667 40.625,75.6875 C41.625,76.3958333 42.9166667,76.75 44.5,76.75 C46.0833333,76.75 47.3333333,76.4166667 48.25,75.75 C49.1666667,75.0833333 50.0416667,74.0416667 50.875,72.625 L50.875,72.625 L74.375,29.75 L74.375,82.625 C74.375,87.625 76.7916667,90.125 81.625,90.125 Z" id="M"></path>
                <path d="M114,91.125 C119.333333,91.125 122,88.375 122,82.875 L122,82.875 L122,57.125 L144.25,57.125 C153.916667,57.125 161.375,54.6875 166.625,49.8125 C171.875,44.9375 174.5,38.1666667 174.5,29.5 C174.5,20.8333333 171.875,14.0833333 166.625,9.25 C161.375,4.41666667 153.916667,2 144.25,2 L144.25,2 L114.125,2 C108.708333,2 106,4.70833333 106,10.125 L106,10.125 L106,82.875 C106,88.375 108.666667,91.125 114,91.125 Z M141.75,44.5 L122,44.5 L122,14.625 L141.75,14.625 C153.25,14.625 159,19.5833333 159,29.5 C159,39.5 153.25,44.5 141.75,44.5 L141.75,44.5 Z" id="P"></path>
                <path d="M219.375,91.125 C221.875,91.125 223.833333,90.4375 225.25,89.0625 C226.666667,87.6875 227.375,85.7083333 227.375,83.125 L227.375,83.125 L227.375,73.375 L233.5,73.375 C238.333333,73.375 240.75,71.1666667 240.75,66.75 C240.75,62.3333333 238.333333,60.125 233.5,60.125 L233.5,60.125 L227.375,60.125 L227.375,9 C227.375,6.25 226.666667,4.22916667 225.25,2.9375 C223.833333,1.64583333 222.041667,1 219.875,1 C218.041667,1 216.416667,1.45833333 215,2.375 C213.583333,3.29166667 212.291667,4.625 211.125,6.375 L211.125,6.375 L176.875,56 C175.041667,58.5833333 173.770833,60.6666667 173.0625,62.25 C172.354167,63.8333333 172,65.3333333 172,66.75 C172,69 172.770833,70.6666667 174.3125,71.75 C175.854167,72.8333333 177.916667,73.375 180.5,73.375 L180.5,73.375 L211.375,73.375 L211.375,83.125 C211.375,85.7083333 212.083333,87.6875 213.5,89.0625 C214.916667,90.4375 216.875,91.125 219.375,91.125 Z M211.375,60.125 L188.375,60.125 L211.375,26.5 L211.375,60.125 Z" id="4"></path>
            </g>
            <path d="M368,432 L64,432 L64,448 L368,448 C376.8,448 384,440.8 384,432 L384,416 C384,424.8 376.8,432 368,432 Z" id="Path" fill="#CAD1D8"></path>
        </g>
    </g>
</svg>