<?xml version="1.0" encoding="UTF-8"?>
<svg width="448px" height="512px" viewBox="0 0 448 512" version="1.1" xmlns="http://www.w3.org/2000/svg" xmlns:xlink="http://www.w3.org/1999/xlink">
    <title>ogg</title>
    <g id="Page-1" stroke="none" stroke-width="1" fill="none" fill-rule="evenodd">
        <g id="ogg" fill-rule="nonzero">
            <path d="M96,0 C78.4,0 64,14.4 64,32 L64,480 C64,497.6 78.4,512 96,512 L416,512 C433.6,512 448,497.6 448,480 L448,128 L320,0 L96,0 Z" id="Path" fill="#E2E5E7"></path>
            <path d="M352,128 L448,128 L320,0 L320,96 C320,113.6 334.4,128 352,128 Z" id="Path" fill="#B0B7BD"></path>
            <polygon id="Path" fill="#CAD1D8" points="448 224 352 128 448 128"></polygon>
            <path d="M384,416 C384,424.8 376.8,432 368,432 L16,432 C7.2,432 0,424.8 0,416 L0,256 C0,247.2 7.2,240 16,240 L368,240 C376.8,240 384,247.2 384,256 L384,416 Z" id="Path" fill="#F7B84E"></path>
            <g id="Group" transform="translate(52.000000, 292.000000)" fill="#FFFFFF">
                <path d="M182.408,81.976 C173.32,89.512 162.184,92.728 150.936,92.728 C124.056,92.728 105,77.368 105,46.92 C105,21.08 125.096,1 152.072,1 C162.184,1 173.304,4.456 181.24,12.264 C189.032,19.928 177.784,31.32 170.12,24.552 C165.384,19.928 158.728,16.488 152.072,16.488 C136.6,16.488 121.64,28.888 121.64,46.92 C121.64,65.864 134.168,77.368 150.936,77.368 C158.728,77.368 165.384,75.064 170.12,71.608 L170.12,55.896 L150.936,55.896 C139.544,55.896 140.696,40.264 150.936,40.264 L176.52,40.264 C181.256,40.264 185.592185,43.864 185.592185,47.832 L185.592185,75.08 C185.608,77.368 184.584,79.528 182.408,81.976 Z" id="Path"></path>
                <path d="M273.728,82.16 C264.64,89.696 253.504,92.912 242.256,92.912 C215.376,92.912 196.32,77.552 196.32,47.104 C196.32,21.264 216.416,1.184 243.392,1.184 C253.504,1.184 264.624,4.64 272.56,12.448 C280.352,20.112 269.104,31.504 261.44,24.736 C256.704,20.112 250.048,16.672 243.392,16.672 C227.92,16.672 212.96,29.072 212.96,47.104 C212.96,66.048 225.488,77.552 242.256,77.552 C250.048,77.552 256.704,75.248 261.44,71.792 L261.44,56.08 L242.256,56.08 C230.864,56.08 232.016,40.448 242.256,40.448 L267.84,40.448 C272.576,40.448 276.912185,44.048 276.912185,48.016 L276.912185,75.264 C276.928,77.552 275.904,79.712 273.728,82.16 Z" id="Path"></path>
                <path d="M48.24,93.008 C24.576,94.032 0,78.288 0,46.944 C0,15.472 24.56,0 48.24,0 C70.624,1.136 94.0320082,16.624 94.0320082,46.944 C94.048,77.28 70.64,93.008 48.24,93.008 Z M46.832,16.64 C32.496,16.64 16.896,26.752 16.896,46.96 C16.896,67.056 32.512,77.296 46.832,77.296 C61.552,77.296 77.2800122,67.056 77.2800122,46.96 C77.296,26.736 61.552,16.64 46.832,16.64 Z" id="Shape"></path>
            </g>
            <path d="M368,432 L64,432 L64,448 L368,448 C376.8,448 384,440.8 384,432 L384,416 C384,424.8 376.8,432 368,432 Z" id="Path" fill="#CAD1D8"></path>
        </g>
    </g>
</svg>