<?xml version="1.0" encoding="UTF-8"?>
<svg width="448px" height="512px" viewBox="0 0 448 512" version="1.1" xmlns="http://www.w3.org/2000/svg" xmlns:xlink="http://www.w3.org/1999/xlink">
    <title>wav</title>
    <g id="Page-1" stroke="none" stroke-width="1" fill="none" fill-rule="evenodd">
        <g id="wav" fill-rule="nonzero">
            <path d="M96,0 C78.4,0 64,14.4 64,32 L64,480 C64,497.6 78.4,512 96,512 L416,512 C433.6,512 448,497.6 448,480 L448,128 L320,0 L96,0 Z" id="Path" fill="#E2E5E7"></path>
            <path d="M352,128 L448,128 L320,0 L320,96 C320,113.6 334.4,128 352,128 Z" id="Path" fill="#B0B7BD"></path>
            <polygon id="Path" fill="#CAD1D8" points="448 224 352 128 448 128"></polygon>
            <path d="M384,416 C384,424.8 376.8,432 368,432 L16,432 C7.2,432 0,424.8 0,416 L0,256 C0,247.2 7.2,240 16,240 L368,240 C376.8,240 384,247.2 384,256 L384,416 Z" id="Path" fill="#84BD5A"></path>
            <g id="Group" transform="translate(26.000000, 294.000000)" fill="#FFFFFF">
                <path d="M95.216,59.44 L114.272,6.72 C118.096,-3.616 133.584,1.216 129.744,12.352 L104.416,81.072 C102.112,88.352 99.952,90.544 95.584,90.544 C90.992,90.544 89.568,87.712 87.024,83.104 L64.768,32.56 L43.536,82.336 C41.216,87.696 39.072,90.768 34.448,90.768 C29.984,90.768 27.664,87.696 25.632,82.064 L0.816,12.336 C-3.024,0.832 13.216,-3.376 16.528,6.704 L35.472,59.424 L58.128,6.704 C61.184,-1.088 69.248,-1.488 72.56,6.336 L95.216,59.44 Z" id="Path"></path>
                <path d="M281.776,84.256 L248,13.504 C243.008,3.408 258.112,-4.896 263.728,5.712 L275.12,31.408 L289.824,65.184 L304.272,31.408 L315.664,5.712 C320.784,-4.016 335.616,2.128 331.28,12.752 L298.656,84.256 C295.712,92.32 286.64,94.224 281.776,84.256 Z" id="Path"></path>
                <path d="M145.624,90 C141.528,87.68 138.968,83.088 141.528,77.712 L178.232,5.952 C181.688,-0.832 190.904,-1.088 194.104,5.952 L230.168,77.712 C235.416,87.68 219.928,95.616 215.336,85.648 L209.688,74.384 L162.488,74.384 L156.984,85.648 C154.952,90 150.216,90.912 145.624,90 Z M200.632,57.504 L186.184,25.904 L170.456,57.504 L200.632,57.504 Z" id="Shape"></path>
            </g>
            <path d="M368,432 L64,432 L64,448 L368,448 C376.8,448 384,440.8 384,432 L384,416 C384,424.8 376.8,432 368,432 Z" id="Path" fill="#CAD1D8"></path>
        </g>
    </g>
</svg>