<?xml version="1.0" encoding="UTF-8"?>
<svg width="452px" height="520px" viewBox="0 0 452 520" version="1.1" xmlns="http://www.w3.org/2000/svg" xmlns:xlink="http://www.w3.org/1999/xlink">
    <title>ic_webm</title>
    <defs>
        <path d="M96,0 C78.4,0 64,14.4 64,32 L64,480 C64,497.6 78.4,512 96,512 L416,512 C433.6,512 448,497.6 448,480 L448,128 L320,0 L96,0 Z" id="path-1"></path>
        <filter x="-1.8%" y="-1.0%" width="103.6%" height="102.7%" filterUnits="objectBoundingBox" id="filter-2">
            <feOffset dx="0" dy="2" in="SourceAlpha" result="shadowOffsetOuter1"></feOffset>
            <feGaussianBlur stdDeviation="2" in="shadowOffsetOuter1" result="shadowBlurOuter1"></feGaussianBlur>
            <feColorMatrix values="0 0 0 0 0   0 0 0 0 0   0 0 0 0 0  0 0 0 0.5 0" type="matrix" in="shadowBlurOuter1"></feColorMatrix>
        </filter>
    </defs>
    <g id="Page-1" stroke="none" stroke-width="1" fill="none" fill-rule="evenodd">
        <g id="ic_webm" transform="translate(0.000000, 2.000000)" fill-rule="nonzero">
            <g id="Path">
                <use fill="black" fill-opacity="1" filter="url(#filter-2)" xlink:href="#path-1"></use>
                <use fill="#E2E5E7" xlink:href="#path-1"></use>
            </g>
            <path d="M352,128 L448,128 L320,0 L320,96 C320,113.6 334.4,128 352,128 Z" id="Path" fill="#B0B7BD"></path>
            <polygon id="Path" fill="#CAD1D8" points="448 224 352 128 448 128"></polygon>
            <path d="M384,416 C384,424.8 376.8,432 368,432 L16,432 C7.2,432 0,424.8 0,416 L0,256 C0,247.2 7.2,240 16,240 L368,240 C376.8,240 384,247.2 384,256 L384,416 Z" id="Path" fill="#F15642"></path>
            <g id="Group" transform="translate(7.000000, 294.000000)" fill="#FFFFFF">
                <path d="M361.625,91.125 C366.458333,91.125 368.875,88.625 368.875,83.625 L368.875,83.625 L368.875,8.5 C368.875,3.5 366.458333,1 361.625,1 C359.541667,1 357.916667,1.39583333 356.75,2.1875 C355.583333,2.97916667 354.5,4.33333333 353.5,6.25 L353.5,6.25 L324.625,59.625 L295.75,6.25 C294.75,4.33333333 293.645833,2.97916667 292.4375,2.1875 C291.229167,1.39583333 289.583333,1 287.5,1 C282.5,1 280,3.5 280,8.5 L280,8.5 L280,83.625 C280,88.625 282.416667,91.125 287.25,91.125 C292.083333,91.125 294.5,88.625 294.5,83.625 L294.5,83.625 L294.5,31 L318,73.625 C318.75,74.9583333 319.625,75.9791667 320.625,76.6875 C321.625,77.3958333 322.916667,77.75 324.5,77.75 C326.083333,77.75 327.333333,77.4166667 328.25,76.75 C329.166667,76.0833333 330.041667,75.0416667 330.875,73.625 L330.875,73.625 L354.375,30.75 L354.375,83.625 C354.375,88.625 356.791667,91.125 361.625,91.125 Z" id="M"></path>
                <path d="M93.4457547,90.125 C95.6957547,90.125 97.4874214,89.5833333 98.8207547,88.5 C100.154088,87.4166667 101.237421,85.75 102.070755,83.5 L102.070755,83.5 L128.445755,9.5 C129.362421,6.83333333 129.195755,4.58333333 127.945755,2.75 C126.695755,0.916666667 124.737421,0 122.070755,0 C119.904088,0 118.195755,0.541666667 116.945755,1.625 C115.695755,2.70833333 114.695755,4.33333333 113.945755,6.5 L113.945755,6.5 L93.3207547,66.875 L72.6957547,6.75 C71.8624214,4.41666667 70.8624214,2.70833333 69.6957547,1.625 C68.5290881,0.541666667 66.9457547,0 64.9457547,0 C61.1957547,0 58.5290881,2.20833333 56.9457547,6.625 L56.9457547,6.625 L35.9457547,66 L15.9457547,6.5 C15.1957547,4.25 14.1957547,2.60416667 12.9457547,1.5625 C11.6957547,0.520833333 9.94575472,0 7.69575472,0 C4.61242138,0 2.42492138,0.916666667 1.13325472,2.75 C-0.15841195,4.58333333 -0.34591195,6.83333333 0.570754717,9.5 L0.570754717,9.5 L26.6957547,83.375 C28.2790881,87.875 31.1957547,90.125 35.4457547,90.125 C37.6957547,90.125 39.4665881,89.5833333 40.7582547,88.5 C42.0499214,87.4166667 43.1124214,85.75 43.9457547,83.5 L43.9457547,83.5 L64.4457547,25.5 L84.8207547,83.375 C85.6540881,85.7083333 86.7374214,87.4166667 88.0707547,88.5 C89.4040881,89.5833333 91.1957547,90.125 93.4457547,90.125 Z" id="W"></path>
                <path d="M189.125,89.125 C193.458333,89.125 195.625,87 195.625,82.75 C195.625,78.5 193.458333,76.375 189.125,76.375 L189.125,76.375 L151.375,76.375 L151.375,50.75 L186.375,50.75 C190.708333,50.75 192.875,48.625 192.875,44.375 C192.875,40.125 190.708333,38 186.375,38 L186.375,38 L151.375,38 L151.375,13.75 L189.125,13.75 C193.458333,13.75 195.625,11.5833333 195.625,7.25 C195.625,3.08333333 193.458333,1 189.125,1 L189.125,1 L144.5,1 C138.833333,1 136,3.83333333 136,9.5 L136,9.5 L136,80.625 C136,86.2916667 138.833333,89.125 144.5,89.125 L144.5,89.125 L189.125,89.125 Z" id="E"></path>
                <path d="M242.875,90.125 C252.291667,90.125 259.645833,87.9791667 264.9375,83.6875 C270.229167,79.3958333 272.875,73.3333333 272.875,65.5 C272.875,60.0833333 271.479167,55.6041667 268.6875,52.0625 C265.895833,48.5208333 262,46.0416667 257,44.625 C261.25,43.0416667 264.583333,40.5416667 267,37.125 C269.416667,33.7083333 270.625,29.625 270.625,24.875 C270.625,17.7083333 268.083333,12.1041667 263,8.0625 C257.916667,4.02083333 250.75,2 241.5,2 L241.5,2 L211.5,2 C205.833333,2 203,4.83333333 203,10.5 L203,10.5 L203,81.625 C203,87.2916667 205.833333,90.125 211.5,90.125 L211.5,90.125 L242.875,90.125 Z M238.75,39.375 L218.375,39.375 L218.375,14.125 L238.75,14.125 C249.666667,14.125 255.125,18.3333333 255.125,26.75 C255.125,35.1666667 249.666667,39.375 238.75,39.375 L238.75,39.375 Z M240.875,78 L218.375,78 L218.375,51.5 L240.875,51.5 C251.875,51.5 257.375,55.9166667 257.375,64.75 C257.375,73.5833333 251.875,78 240.875,78 L240.875,78 Z" id="B"></path>
            </g>
            <path d="M368,432 L64,432 L64,448 L368,448 C376.8,448 384,440.8 384,432 L384,416 C384,424.8 376.8,432 368,432 Z" id="Path" fill="#CAD1D8"></path>
        </g>
    </g>
</svg>