<svg width="24" height="24" viewBox="0 0 24 24" fill="none" xmlns="http://www.w3.org/2000/svg">
<g id="Navigation bar/icon zap">
<path id="Vector" d="M11.9599 1C11.9431 1.01289 11.9305 1.03867 11.9137 1.04297C11.4815 1.12891 11.3514 1.47266 11.3514 1.85078C11.3514 3.18281 11.3514 4.51484 11.3514 5.84688C11.3514 6.89102 11.3514 7.93945 11.3514 8.98359C11.3514 9.06953 11.3514 9.15117 11.3514 9.27148C11.2423 9.27148 11.1584 9.27148 11.0702 9.27148C9.65184 9.27148 8.22923 9.27148 6.81083 9.27578C6.66815 9.27578 6.51288 9.29727 6.38279 9.34883C6.03868 9.48633 5.91278 9.87734 6.08064 10.2727C6.40797 11.0332 6.73529 11.7895 7.06681 12.5457C8.49781 15.8457 9.933 19.1414 11.3556 22.4414C11.4815 22.7379 11.6871 22.9012 11.9641 23.0043C11.9935 23.0043 12.0186 23.0043 12.048 23.0043C12.0648 22.9914 12.0774 22.9699 12.0984 22.9656C12.5264 22.8754 12.6607 22.5359 12.6607 22.132C12.6607 20.684 12.6607 19.2402 12.6607 17.7922C12.6607 16.8684 12.6607 15.9445 12.6607 15.0207C12.6607 14.9348 12.6607 14.8531 12.6607 14.7328C12.7698 14.7328 12.8579 14.7328 12.9461 14.7328C14.3813 14.7328 15.8123 14.7328 17.2474 14.7328C17.6797 14.7328 17.9525 14.5352 18.0028 14.1527C18.0196 14.0152 17.9818 13.852 17.9273 13.723C16.8656 11.2566 15.7955 8.79883 14.7254 6.33672C14.033 4.75547 13.3405 3.18711 12.6733 1.60586C12.5348 1.2793 12.3334 1.08164 12.0061 1C11.9893 1 11.9767 1 11.9599 1Z" fill="white"/>
</g>
</svg>
