<svg width="30" height="26" viewBox="0 0 30 26" fill="none" xmlns="http://www.w3.org/2000/svg">
<path d="M15 25.8267C14.8036 25.8261 14.6129 25.7604 14.4577 25.64C9.51552 21.8 6.11107 18.4933 3.72885 15.2311C0.688852 11.0622 -0.00448126 7.21334 1.66663 3.79112C2.85774 1.34668 6.27996 -0.653325 10.28 0.511119C12.1871 1.062 13.8511 2.24337 15 3.86223C16.1489 2.24337 17.8128 1.062 19.72 0.511119C23.7111 -0.635547 27.1422 1.34668 28.3333 3.79112C30.0044 7.21334 29.3111 11.0622 26.2711 15.2311C23.8889 18.4933 20.4844 21.8 15.5422 25.64C15.387 25.7604 15.1964 25.8261 15 25.8267ZM8.00441 1.96001C7.05263 1.92297 6.10874 2.14583 5.27405 2.60467C4.43936 3.06352 3.74539 3.74102 3.26663 4.56445C1.88885 7.39112 2.51107 10.5378 5.16885 14.1733C7.99336 17.8165 11.3008 21.0582 15 23.8089C18.6986 21.0609 22.006 17.8223 24.8311 14.1822C27.4977 10.5378 28.1111 7.39112 26.7333 4.57334C25.8444 2.79556 23.1777 1.38223 20.2089 2.21779C19.2569 2.49912 18.3744 2.97665 17.6181 3.61963C16.8618 4.26262 16.2486 5.05682 15.8177 5.95112C15.7508 6.11415 15.6368 6.25359 15.4904 6.35173C15.344 6.44986 15.1718 6.50226 14.9955 6.50226C14.8193 6.50226 14.647 6.44986 14.5006 6.35173C14.3542 6.25359 14.2403 6.11415 14.1733 5.95112C13.7457 5.05458 13.1335 4.25852 12.3768 3.61514C11.62 2.97175 10.7358 2.49556 9.78219 2.21779C9.20439 2.04997 8.60608 1.96321 8.00441 1.96001Z" fill="#828282"/>
</svg>
