<svg width="16" height="17" viewBox="0 0 16 17" fill="none" xmlns="http://www.w3.org/2000/svg">
<g id="Spot">
<g id="Group">
<path id="Vector (Stroke)" fill-rule="evenodd" clip-rule="evenodd" d="M4.21053 2.04688C3.83265 2.04688 3.52632 2.36516 3.52632 2.75781V14.2422C3.52632 14.6348 3.83265 14.9531 4.21053 14.9531H11.7895C12.1674 14.9531 12.4737 14.6348 12.4737 14.2422V2.75781C12.4737 2.36516 12.1674 2.04688 11.7895 2.04688H4.21053ZM3 2.75781C3 2.06312 3.54198 1.5 4.21053 1.5H11.7895C12.458 1.5 13 2.06312 13 2.75781V14.2422C13 14.9369 12.458 15.5 11.7895 15.5H4.21053C3.54198 15.5 3 14.9369 3 14.2422V2.75781Z" fill="#FF3875"/>
<path id="Vector (Stroke)_2" fill-rule="evenodd" clip-rule="evenodd" d="M4.05322 2.87158C4.05322 2.72057 4.17104 2.59814 4.31638 2.59814H9.57954C9.72488 2.59814 9.8427 2.72057 9.8427 2.87158V11.9319C9.8427 12.0829 9.72488 12.2053 9.57954 12.2053H4.31638C4.17104 12.2053 4.05322 12.0829 4.05322 11.9319V2.87158ZM4.57954 6.16511V8.63832H9.31638V6.16511H4.57954ZM9.31638 5.61823H4.57954V3.14502H9.31638V5.61823ZM9.31638 9.1852H4.57954V11.6584H9.31638V9.1852ZM10.369 2.87158C10.369 2.72057 10.4868 2.59814 10.6322 2.59814H11.6848C11.8301 2.59814 11.948 2.72057 11.948 2.87158V4.79346C11.948 4.94448 11.8301 5.0669 11.6848 5.0669H10.6322C10.4868 5.0669 10.369 4.94448 10.369 4.79346V2.87158ZM10.8953 3.14502V4.52003H11.4216V3.14502H10.8953ZM10.369 9.18635C10.369 9.03533 10.4868 8.91291 10.6322 8.91291H11.6848C11.8301 8.91291 11.948 9.03533 11.948 9.18635V11.9319C11.948 12.0829 11.8301 12.2053 11.6848 12.2053H10.6322C10.4868 12.2053 10.369 12.0829 10.369 11.9319V9.18635ZM10.8953 9.45978V11.6584H11.4216V9.45978H10.8953Z" fill="#FF3875"/>
</g>
</g>
</svg>
