<svg width="64" height="32" viewBox="0 0 64 32" fill="none" xmlns="http://www.w3.org/2000/svg">
<g clip-path="url(#clip0_7019_215250)">
<rect width="64" height="32" rx="4" fill="white"/>
<path d="M19.5 11H12.5C12.3674 11 12.2402 10.9473 12.1464 10.8536C12.0527 10.7598 12 10.6326 12 10.5C12 10.3674 12.0527 10.2402 12.1464 10.1464C12.2402 10.0527 12.3674 10 12.5 10H19.5C19.6326 10 19.7598 10.0527 19.8536 10.1464C19.9473 10.2402 20 10.3674 20 10.5C20 10.6326 19.9473 10.7598 19.8536 10.8536C19.7598 10.9473 19.6326 11 19.5 11Z" fill="#AAAAAA"/>
<path d="M20.5 12.5H11.5C11.3674 12.5 11.2402 12.4473 11.1464 12.3536C11.0527 12.2598 11 12.1326 11 12C11 11.8674 11.0527 11.7402 11.1464 11.6464C11.2402 11.5527 11.3674 11.5 11.5 11.5H20.5C20.6326 11.5 20.7598 11.5527 20.8536 11.6464C20.9473 11.7402 21 11.8674 21 12C21 12.1326 20.9473 12.2598 20.8536 12.3536C20.7598 12.4473 20.6326 12.5 20.5 12.5Z" fill="#AAAAAA"/>
<path d="M21.0978 22H10.9022C10.5304 21.9996 10.174 21.8517 9.91115 21.5889C9.64828 21.326 9.50041 20.9696 9.5 20.5978V14.4022C9.50041 14.0304 9.64828 13.674 9.91115 13.4111C10.174 13.1483 10.5304 13.0004 10.9022 13H21.0978C21.4696 13.0004 21.826 13.1483 22.0889 13.4111C22.3517 13.674 22.4996 14.0304 22.5 14.4022V20.5978C22.4996 20.9696 22.3517 21.326 22.0889 21.5889C21.826 21.8517 21.4696 21.9996 21.0978 22Z" fill="#AAAAAA"/>
<rect width="32" height="32" transform="translate(32)" fill="#FF3875"/>
<path d="M53 10H43C42.4697 10.0006 41.9614 10.2115 41.5864 10.5864C41.2115 10.9614 41.0006 11.4697 41 12V20C41.0006 20.5303 41.2115 21.0386 41.5864 21.4136C41.9614 21.7885 42.4697 21.9994 43 22H53C53.5303 21.9994 54.0386 21.7885 54.4136 21.4136C54.7885 21.0386 54.9994 20.5303 55 20V12C54.9994 11.4697 54.7885 10.9614 54.4136 10.5864C54.0386 10.2115 53.5303 10.0006 53 10ZM50.5 12C50.7967 12 51.0867 12.088 51.3334 12.2528C51.58 12.4176 51.7723 12.6519 51.8858 12.926C51.9994 13.2001 52.0291 13.5017 51.9712 13.7926C51.9133 14.0836 51.7704 14.3509 51.5607 14.5607C51.3509 14.7704 51.0836 14.9133 50.7926 14.9712C50.5017 15.0291 50.2001 14.9994 49.926 14.8858C49.6519 14.7723 49.4176 14.58 49.2528 14.3334C49.088 14.0867 49 13.7967 49 13.5C49.0004 13.1023 49.1586 12.721 49.4398 12.4398C49.721 12.1586 50.1023 12.0004 50.5 12ZM43 21C42.7348 21 42.4804 20.8946 42.2929 20.7071C42.1054 20.5196 42 20.2652 42 20V17.8866L44.9637 15.2522C45.2497 14.9986 45.6216 14.8635 46.0036 14.8746C46.3857 14.8856 46.7492 15.0419 47.02 15.3116L49.0497 17.3369L45.3866 21H43ZM54 20C54 20.2652 53.8946 20.5196 53.7071 20.7071C53.5196 20.8946 53.2652 21 53 21H46.8009L50.5953 17.2056C50.864 16.9772 51.2049 16.8513 51.5575 16.8504C51.9102 16.8495 52.2517 16.9736 52.5216 17.2006L54 18.4325V20Z" fill="white"/>
</g>
<rect x="0.5" y="0.5" width="63" height="31" rx="3.5" stroke="#D7D6D6"/>
<defs>
<clipPath id="clip0_7019_215250">
<rect width="64" height="32" rx="4" fill="white"/>
</clipPath>
</defs>
</svg>
