<svg width="12" height="10" viewBox="0 0 12 10" fill="none" xmlns="http://www.w3.org/2000/svg">
<path d="M9.6819 4.51429C9.7419 4.66429 9.7794 4.82857 9.7794 5C9.7794 5.78571 9.1044 6.42857 8.2719 6.42857C7.4394 6.42857 6.7569 5.78571 6.7569 5C6.7569 4.36429 7.1919 3.83571 7.7994 3.65L5.9994 0L4.2069 3.65C4.8069 3.83571 5.2419 4.36429 5.2419 5C5.2419 5.78571 4.5669 6.42857 3.7344 6.42857C2.9019 6.42857 2.2194 5.78571 2.2194 5C2.2194 4.82857 2.2569 4.66429 2.3169 4.51429L0.209398 3.67143C0.0968976 3.62857 -0.0156024 3.71429 -0.000602427 3.82857L1.0569 9.87857C1.0719 9.95 1.1319 10 1.2069 10H10.7844C10.8594 10 10.9194 9.95 10.9344 9.87857L11.9994 3.82857C12.0219 3.71429 11.9019 3.62857 11.7894 3.67143L9.6819 4.51429Z" fill="url(#paint0_linear_2262_43289)"/>
<defs>
<linearGradient id="paint0_linear_2262_43289" x1="-0.375488" y1="5.89286" x2="11.7886" y2="7.66132" gradientUnits="userSpaceOnUse">
<stop stop-color="#EDC843"/>
<stop offset="0.608147" stop-color="#FFEDAC" stop-opacity="0.87"/>
<stop offset="0.953213" stop-color="#EDC947"/>
</linearGradient>
</defs>
</svg>
