<?xml version="1.0" encoding="UTF-8"?>
<!-- Generated by Pixelmator Pro 3.4.1 -->
<svg width="75" height="75" viewBox="0 0 75 75" xmlns="http://www.w3.org/2000/svg">
    <path id="Ellipse" fill="#ffffff" fill-rule="evenodd" stroke="none" d="M 74.078163 37.891315 C 74.321785 18.010555 58.402737 1.696526 38.52198 1.452904 C 18.64122 1.209282 2.327187 17.128323 2.083565 37.009083 C 1.839944 56.889839 17.758987 73.203873 37.639748 73.447495 C 57.520504 73.691116 73.834541 57.772072 74.078163 37.891315 Z"/>
    <path id="Path" fill="#14aaff" stroke="none" d="M 39.9576 26.274399 C 35.8284 26.274399 31.7936 27.869999 28.780849 30.697498 C 25.47506 33.801399 23.382601 38.384499 22.181379 42.695999 C 21.396709 45.5186 21.001953 48.445499 21.001953 51.372398 C 21.001953 52.2575 21.038279 53.1353 21.108513 54.003399 C 21.193275 55.060699 22.220131 55.7906 23.24214 55.514198 C 24.133369 55.274101 25.07062 55.145599 26.039351 55.145599 C 28.02524 55.145599 29.887621 55.686298 31.481201 56.632099 C 31.519901 56.6539 31.558701 56.678101 31.597401 56.700001 C 34.1912 58.2495 37.25 59.098202 40.512199 58.989101 C 49.0224 58.705399 55.975498 51.772499 56.287899 43.2537 C 56.631802 33.932301 49.187099 26.269501 39.955101 26.269501 L 39.9576 26.274399 Z M 39.9576 50.116299 C 35.833202 50.116299 32.488701 46.767502 32.488701 42.637798 C 32.488701 38.508099 35.833202 35.159298 39.9576 35.159298 C 44.081902 35.159298 47.426502 38.508099 47.426502 42.637798 C 47.426502 46.767502 44.081902 50.116299 39.9576 50.116299 Z"/>
    <path id="path1" fill="#0075ff" stroke="none" d="M 33.237499 21.12294 C 33.237499 23.278709 32.108902 25.279301 30.25621 26.380199 C 29.093731 27.071301 28.00149 27.886101 27.01581 28.8148 C 24.82406 30.871201 23.189331 33.393101 21.978416 35.8932 C 21.741077 36.385399 21 36.2108 21 35.665199 L 21 21.12537 C 21 17.742592 23.73908 15 27.117531 15 C 30.49597 15 33.2351 17.742592 33.2351 21.12537 L 33.237499 21.12294 Z"/>
</svg>
