<svg width="14" height="15" viewBox="0 0 14 15" fill="none" xmlns="http://www.w3.org/2000/svg">
<g id="Linked wallet" clip-path="url(#clip0_6824_39317)">
<path id="Vector" fill-rule="evenodd" clip-rule="evenodd" d="M9.54752 1.84357C9.80701 1.79479 10.0741 1.80354 10.3298 1.86922C10.5871 1.93528 10.8266 2.0573 11.0312 2.22657C11.2358 2.39584 11.4006 2.60819 11.5137 2.84847C11.6268 3.08875 11.6855 3.35103 11.6856 3.61661V3.61675V4.02706C12.5039 4.17365 13.125 4.88908 13.125 5.74957V10.9996C13.125 11.9661 12.3415 12.7496 11.375 12.7496H2.625C1.6585 12.7496 0.875 11.9661 0.875 10.9996V5.74957L0.875 5.74851V4.84735V4.84722C0.874784 4.4271 1.02115 4.02006 1.28887 3.69628C1.55665 3.37243 1.92905 3.15217 2.34185 3.07351C2.34461 3.07298 2.34737 3.07248 2.35014 3.07201L9.54752 1.84357ZM10.8106 3.61689V3.99957H2.625C2.47678 3.99957 2.33287 4.018 2.19542 4.05269C2.28903 3.99556 2.3927 3.95503 2.50191 3.93376L9.69861 2.70543C9.70006 2.70518 9.70152 2.70493 9.70297 2.70467C9.70428 2.70443 9.70559 2.70418 9.7069 2.70394C9.84129 2.67832 9.97968 2.68269 10.1122 2.71672C10.2447 2.75075 10.3681 2.81361 10.4735 2.90081C10.5789 2.98801 10.6638 3.0974 10.7221 3.22118C10.7803 3.34492 10.8106 3.47998 10.8106 3.61675V3.61689ZM1.75 10.9996L1.75 6.18706V5.74871C1.75047 5.26586 2.14204 4.87457 2.625 4.87457H11.375C11.8582 4.87457 12.25 5.26632 12.25 5.74957V10.9996C12.25 11.4828 11.8582 11.8746 11.375 11.8746H2.625C2.14175 11.8746 1.75 11.4828 1.75 10.9996ZM9.57638 9.10211C9.72027 9.19826 9.88944 9.24957 10.0625 9.24957C10.2946 9.24957 10.5171 9.15739 10.6812 8.99329C10.8453 8.8292 10.9375 8.60664 10.9375 8.37457C10.9375 8.20151 10.8862 8.03234 10.79 7.88845C10.6939 7.74456 10.5572 7.63241 10.3973 7.56618C10.2375 7.49995 10.0615 7.48262 9.8918 7.51639C9.72206 7.55015 9.56615 7.63348 9.44378 7.75586C9.32141 7.87823 9.23808 8.03414 9.20431 8.20387C9.17055 8.3736 9.18788 8.54954 9.25411 8.70942C9.32033 8.86931 9.43248 9.00596 9.57638 9.10211Z" fill="#222222"/>
<g id="Group">
<path id="Vector_2" d="M3.5232 14.5005C5.46901 14.5005 7.0464 12.9231 7.0464 10.9773C7.0464 9.03149 5.46901 7.4541 3.5232 7.4541C1.57739 7.4541 0 9.03149 0 10.9773C0 12.9231 1.57739 14.5005 3.5232 14.5005Z" fill="white"/>
<path id="Vector (Stroke)" fill-rule="evenodd" clip-rule="evenodd" d="M7.74718 10.9771C7.74718 13.3095 5.85639 15.2003 3.52398 15.2003C1.19157 15.2003 -0.699219 13.3095 -0.699219 10.9771C-0.699219 8.6447 1.19157 6.75391 3.52398 6.75391C5.85639 6.75391 7.74718 8.6447 7.74718 10.9771ZM7.04718 10.9771C7.04718 12.9229 5.46979 14.5003 3.52398 14.5003C1.57817 14.5003 0.000781238 12.9229 0.000781238 10.9771C0.000781238 9.0313 1.57817 7.45391 3.52398 7.45391C5.46979 7.45391 7.04718 9.0313 7.04718 10.9771Z" fill="white"/>
<path id="Vector (Stroke)_2" fill-rule="evenodd" clip-rule="evenodd" d="M3.5232 13.6255C4.98576 13.6255 6.1714 12.4399 6.1714 10.9773C6.1714 9.51474 4.98576 8.3291 3.5232 8.3291C2.06064 8.3291 0.875 9.51474 0.875 10.9773C0.875 12.4399 2.06064 13.6255 3.5232 13.6255ZM7.0464 10.9773C7.0464 12.9231 5.46901 14.5005 3.5232 14.5005C1.57739 14.5005 0 12.9231 0 10.9773C0 9.03149 1.57739 7.4541 3.5232 7.4541C5.46901 7.4541 7.0464 9.03149 7.0464 10.9773Z" fill="#1F1F1F"/>
<path id="Vector_3" fill-rule="evenodd" clip-rule="evenodd" d="M3.23831 9.46998C3.73344 8.97485 4.53614 8.97485 5.03127 9.46998C5.52639 9.96511 5.52639 10.7678 5.03127 11.2629L4.82751 11.4667C4.80075 11.4935 4.76898 11.5147 4.73402 11.5292C4.69906 11.5436 4.66159 11.5511 4.62375 11.5511C4.58591 11.5511 4.54844 11.5436 4.51348 11.5292C4.47851 11.5147 4.44675 11.4935 4.41999 11.4667C4.39323 11.4399 4.37201 11.4082 4.35753 11.3732C4.34304 11.3382 4.33559 11.3008 4.33559 11.2629C4.33559 11.2251 4.34304 11.1876 4.35753 11.1527C4.37201 11.1177 4.39323 11.0859 4.41999 11.0592L4.62375 10.8554C4.74966 10.725 4.81932 10.5503 4.81771 10.369C4.81611 10.1877 4.74338 10.0143 4.61517 9.88607C4.48697 9.75787 4.31355 9.68514 4.13225 9.68353C3.95095 9.68193 3.77628 9.75158 3.64583 9.87749L3.44207 10.0811C3.41531 10.1079 3.38354 10.1291 3.34858 10.1436C3.31362 10.1581 3.27615 10.1655 3.23831 10.1655C3.20047 10.1655 3.163 10.1581 3.12804 10.1436C3.09308 10.1291 3.06131 10.1079 3.03455 10.0811C3.00779 10.0544 2.98657 10.0226 2.97209 9.98765C2.9576 9.95269 2.95015 9.91522 2.95015 9.87738C2.95015 9.83954 2.9576 9.80206 2.97209 9.7671C2.98657 9.73214 3.00779 9.70038 3.03455 9.67362L3.23831 9.46998ZM4.01259 10.4887C4.03936 10.5154 4.06059 10.5472 4.07508 10.5821C4.08957 10.6171 4.09702 10.6546 4.09702 10.6924C4.09702 10.7303 4.08957 10.7677 4.07508 10.8027C4.06059 10.8377 4.03936 10.8694 4.01259 10.8962L3.44207 11.4667C3.38803 11.5207 3.31473 11.5511 3.23831 11.5511C3.16188 11.5511 3.08859 11.5207 3.03455 11.4667C2.98051 11.4127 2.95015 11.3394 2.95015 11.2629C2.95015 11.1865 2.98051 11.1132 3.03455 11.0592L3.60507 10.4887C3.63183 10.4619 3.66359 10.4407 3.69855 10.4262C3.73352 10.4117 3.77099 10.4042 3.80883 10.4042C3.84668 10.4042 3.88415 10.4117 3.91911 10.4262C3.95407 10.4407 3.98584 10.4619 4.01259 10.4887ZM2.60672 10.5091C2.63348 10.5358 2.65472 10.5676 2.6692 10.6026C2.68369 10.6375 2.69115 10.675 2.69115 10.7128C2.69115 10.7507 2.68369 10.7882 2.6692 10.8231C2.65472 10.8581 2.63348 10.8899 2.60672 10.9166L2.42339 11.0998C2.29666 11.2301 2.22631 11.405 2.22756 11.5868C2.22881 11.7686 2.30156 11.9425 2.43008 12.071C2.5586 12.1996 2.73255 12.2724 2.9143 12.2736C3.09606 12.2749 3.27101 12.2046 3.40132 12.0779L3.58464 11.8945C3.6114 11.8678 3.64316 11.8465 3.67812 11.8321C3.71309 11.8176 3.75056 11.8101 3.7884 11.8101C3.82624 11.8101 3.86371 11.8176 3.89867 11.8321C3.93363 11.8465 3.9654 11.8678 3.99216 11.8945C4.01891 11.9213 4.04014 11.9531 4.05462 11.988C4.0691 12.023 4.07656 12.0604 4.07656 12.0983C4.07656 12.1361 4.0691 12.1736 4.05462 12.2086C4.04014 12.2435 4.01891 12.2753 3.99216 12.302L3.80883 12.4854C3.31371 12.9805 2.511 12.9805 2.01588 12.4854C1.52075 11.9902 1.52075 11.1875 2.01588 10.6924L2.1992 10.5091C2.22595 10.4823 2.25772 10.4611 2.29268 10.4466C2.32764 10.4321 2.36511 10.4247 2.40296 10.4247C2.4408 10.4247 2.47828 10.4321 2.51324 10.4466C2.5482 10.4611 2.57996 10.4823 2.60672 10.5091Z" fill="#1F1F1F"/>
</g>
</g>
<defs>
<clipPath id="clip0_6824_39317">
<rect width="14" height="14" fill="white" transform="translate(0 0.5)"/>
</clipPath>
</defs>
</svg>
