<svg width="133" height="153" viewBox="0 0 133 153" fill="none" xmlns="http://www.w3.org/2000/svg">
<path d="M24.1289 100.743C25.4496 98.3373 26.2129 96.2935 26.8255 93.8027C28.5931 94.3099 28.9145 94.4555 28.9145 94.6715C28.9145 94.8723 28.7388 94.9778 28.2617 95.0782C27.8851 95.9922 27.4231 96.876 26.8105 97.805C27.7545 98.0209 27.9554 98.1364 27.9554 98.282C27.9554 98.4578 27.8399 98.5281 27.4783 98.7038V100.08C27.4783 103.891 27.5336 106.106 27.5336 106.643C27.5336 107.035 27.0866 107.296 26.3886 107.296C26.0823 107.296 25.9266 107.15 25.9266 106.919C25.9266 106.342 26.0271 104.052 26.0271 100.035V98.8746C25.535 99.5274 24.9525 100.195 24.3047 100.873L24.1289 100.743ZM33.8809 102.073C35.3422 102.641 36.3716 103.479 37.0998 104.363C37.5065 104.87 37.6371 105.322 37.6371 105.694C37.6371 106.347 37.2755 106.708 36.8236 106.708C36.4319 106.708 36.0854 106.492 35.9398 106.01C35.8092 105.619 35.6786 105.257 35.5481 104.926C33.3335 105.478 31.3299 105.895 29.3313 106.201C29.1556 106.653 29.0551 106.738 28.8392 106.738C28.6383 106.738 28.4927 106.422 28.0156 104.639C28.6383 104.639 29.2309 104.639 29.8134 104.624C30.2904 103.148 30.6821 101.626 30.9884 100.09H29.497L28.1512 100.16V99.2914L29.497 99.3617H35.0911C35.4075 98.9399 35.7741 98.4929 36.1758 98.0711C37.7526 99.4922 37.8128 99.6077 37.8128 99.7835C37.8128 99.9592 37.7275 100.09 37.5818 100.09H33.1779C33.1076 100.235 32.9619 100.306 32.8013 100.336C32.2388 101.697 31.3801 103.319 30.5114 104.609C32.1083 104.579 33.7152 104.524 35.3221 104.418C34.9154 103.605 34.4082 102.867 33.7554 102.244L33.8859 102.068L33.8809 102.073ZM30.3607 95.2188H34.4182C34.7346 94.797 35.056 94.4053 35.4627 93.9885C36.9391 95.3494 36.9993 95.4649 36.9993 95.6406C36.9993 95.8164 36.914 95.947 36.7683 95.947H30.3658L29.02 96.0173V95.1485L30.3658 95.2188H30.3607Z" fill="#2F363F"/>
<path d="M44.4211 96.4996C44.6822 96.1833 44.9584 95.8769 45.3199 95.5003C46.726 96.6904 46.7712 96.7909 46.7712 96.9365C46.7712 97.0972 46.6858 97.2278 46.5402 97.2278H42.2819L41.1821 97.2981V96.4293L42.2819 96.4996H44.4261H44.4211ZM44.6822 102.239C44.8831 101.833 45.0588 101.672 45.1894 101.672C45.3802 101.672 45.5961 101.742 46.0581 102.109C46.5201 102.47 46.5954 102.601 46.5954 102.731C46.5954 102.907 46.495 103.033 46.1335 103.209V103.992C46.1335 104.66 46.1887 105.368 46.1887 105.699C46.1887 106.061 45.7819 106.322 45.1191 106.322C44.8128 106.322 44.6822 106.221 44.6822 105.93V105.654H43.0301V106.307C43.0301 106.598 42.6535 106.884 41.9153 106.884C41.6692 106.884 41.5387 106.769 41.5387 106.523C41.5387 106.347 41.5839 105.594 41.5839 103.927C41.5839 102.767 41.5688 102.305 41.5387 101.752C42.2367 101.968 42.6685 102.114 42.9447 102.229H44.6822V102.239ZM44.2202 94.7019C44.4813 94.3855 44.7425 94.1093 45.089 93.7578C46.3494 94.8575 46.4197 95.0032 46.4197 95.1337C46.4197 95.2944 46.3343 95.425 46.1887 95.425H42.7087L41.609 95.4953V94.6266L42.7087 94.6969H44.2152L44.2202 94.7019ZM44.0746 98.3225C44.3357 98.0061 44.5968 97.7299 44.9433 97.3784C46.2038 98.4781 46.2741 98.6238 46.2741 98.7543C46.2741 98.915 46.1887 99.0456 46.0431 99.0456H42.8694L41.7697 99.1159V98.2471L42.8694 98.3175H44.0746V98.3225ZM44.0897 100.206C44.3508 99.8892 44.6119 99.613 44.9584 99.2615C46.2188 100.361 46.2891 100.507 46.2891 100.637C46.2891 100.798 46.2038 100.929 46.0581 100.929H42.8694L41.7697 100.999V100.13L42.8694 100.201H44.0846L44.0897 100.206ZM43.0903 102.957L43.0301 103.028V104.926H44.6822V102.957H43.0853H43.0903ZM45.0739 107.045C45.5359 106.814 45.9728 106.568 46.3795 106.237C47.0022 105.699 47.4792 105.021 47.8006 104.263C48.117 103.51 48.2927 102.671 48.3229 101.843C48.1471 101.973 47.8609 102.059 47.4692 102.059C47.2081 102.059 47.0625 101.928 47.0625 101.682C47.0625 101.335 47.1328 100.637 47.1328 98.7995C47.1328 98.1065 47.1177 97.5692 47.0876 97.062C47.8107 97.278 48.2476 97.4085 48.5087 97.524H50.6529C50.9442 96.5398 51.2756 95.1739 51.5367 93.798C53.3646 94.3052 53.4952 94.4056 53.4952 94.6115C53.4952 94.7873 53.3495 94.9279 52.9026 95.0032C52.4406 95.9322 51.8581 96.8411 51.3509 97.524H52.2197C52.4356 97.062 52.5662 96.9465 52.7268 96.9465C52.9126 96.9465 53.0884 97.0168 53.5956 97.3985C54.0726 97.745 54.158 97.9057 54.158 98.0362C54.158 98.212 54.0877 98.3677 53.7111 98.5736V99.0355C53.7111 100.226 53.7814 100.919 53.7814 101.295C53.7814 101.742 53.3194 101.948 52.6214 101.948C52.3753 101.948 52.2297 101.848 52.2297 101.587V101.501H52.0389C51.9937 101.571 51.9535 101.617 51.8782 101.647V105.298C51.8782 105.513 52.0238 105.604 52.4707 105.604C52.993 105.604 53.1386 105.518 53.3546 105.167C53.5705 104.836 53.7161 104.469 53.8316 104.007L54.0475 104.052C53.9772 104.574 53.9471 105.011 53.9471 105.242C53.9471 105.518 54.5246 105.559 54.5246 106.011C54.5246 106.588 54.1178 106.955 52.295 106.955C50.6127 106.955 50.3516 106.709 50.3516 106.011C50.3516 105.388 50.4219 104.444 50.4219 102.3V101.501H48.5388C48.5237 101.546 48.5237 101.571 48.5087 101.602C50.0604 101.878 50.1759 101.963 50.1759 102.124C50.1759 102.3 50.0453 102.4 49.7289 102.5C49.3975 105.298 47.5998 106.774 45.1643 107.226L45.0638 107.05L45.0739 107.045ZM47.7856 94.1194C49.3372 94.5964 50.0302 95.5706 50.0302 96.3088C50.0302 96.9315 49.6385 97.293 49.1766 97.293C48.7999 97.293 48.4786 97.0771 48.4233 96.4695C48.353 95.6309 48.0768 94.7571 47.6399 94.2801L47.7856 94.1194ZM48.584 98.2471L48.5539 98.2923V100.773H52.2347V98.2522H48.584V98.2471Z" fill="#2F363F"/>
<path d="M62.3584 105.86C65.9539 104.54 67.2997 102.571 67.2997 100.557C67.2997 98.3831 65.6475 96.9218 63.2422 96.9218C62.9811 96.9218 62.7501 96.9368 62.5442 96.9519C63.2271 97.4591 63.4732 97.911 63.4732 98.1822C63.4732 98.4735 63.2422 98.9204 63.0112 99.4577C62.4337 100.763 61.5198 102.561 60.6209 103.761C60.1438 104.399 59.7672 104.761 59.2299 104.761C58.778 104.761 58.2607 104.399 57.869 103.847C57.407 103.194 57.1309 102.425 57.1309 101.381C57.1309 98.6442 59.7672 96.2539 63.3175 96.2539C66.8678 96.2539 68.8815 98.4433 68.8815 100.849C68.8815 103.56 66.9532 105.474 62.4186 106.096L62.3584 105.865V105.86ZM58.0398 101.11C58.0398 101.702 58.2306 102.179 58.5168 102.586C58.7077 102.847 59.0089 103.078 59.2148 103.078C59.476 103.078 59.7371 102.933 59.9831 102.556C60.7063 101.456 61.4043 100.08 61.8663 98.8049C61.9667 98.5136 62.1123 98.0667 62.1123 97.7905C62.1123 97.5746 62.0822 97.2984 61.8964 97.0373C59.4057 97.6449 58.0398 99.1966 58.0398 101.11Z" fill="#2F363F"/>
<path d="M71.9697 98.3668C72.4066 98.6982 72.7832 98.7585 73.1598 98.7585C73.4661 98.7585 73.8277 98.7434 74.1742 98.7133C74.9124 98.653 75.7962 98.5827 77.0014 98.4973C77.0014 97.6989 76.9863 97.2821 76.9712 96.8151C76.9712 96.6393 76.9411 96.4535 76.9009 96.3531C76.8608 96.2527 76.7101 96.1372 76.5394 96.107C76.3636 96.0769 76.2381 96.0618 75.9167 96.0618L75.8866 95.8158C76.3938 95.4844 76.8306 95.3789 77.0767 95.3789C77.368 95.3789 77.6843 95.4492 78.2216 95.6953C78.6585 95.8961 78.8142 96.1472 78.8142 96.3179C78.8142 96.5339 78.7439 96.6494 78.5983 96.8251C78.4978 96.9557 78.3974 97.1013 78.3673 97.3775C78.3371 97.6838 78.3221 97.9851 78.312 98.3768C79.3816 98.2915 80.0796 98.2161 80.642 98.1458C80.9182 98.1157 81.2095 98.0605 81.4254 97.945C81.5409 97.8897 81.7418 97.8144 81.8623 97.8144C82.023 97.8144 82.3996 97.8847 82.8315 98.1207C83.2382 98.3366 83.3839 98.5425 83.3839 98.8187C83.3839 99.1953 83.1529 99.356 82.7461 99.356C82.3996 99.356 82.0782 99.2958 81.7317 99.2707C81.2095 99.2255 81.1091 99.2104 80.4713 99.2104C79.8336 99.2104 79.005 99.2255 78.2668 99.2707C78.2668 100.315 78.2969 101.355 78.3271 102.329C78.3421 102.69 78.3572 102.997 78.3823 103.429C78.3974 103.705 78.4426 104.066 78.4426 104.312C78.4426 104.644 78.3823 104.965 78.1112 105.357C77.7948 105.804 77.4131 105.964 77.1821 105.964C77.0365 105.964 76.906 105.879 76.8357 105.648C76.7202 105.241 76.6197 105.025 76.3586 104.825C76.1427 104.664 75.9067 104.508 75.2137 104.217L75.2438 103.956C75.5752 104.001 76.0975 104.041 76.4892 104.056C76.6649 104.056 76.7955 104.056 76.8507 104.011C76.911 103.966 76.9813 103.881 76.9813 103.604C77.0114 102.053 77.0265 100.837 77.0265 99.3711C75.9418 99.4866 75.0429 99.6021 74.2596 99.7477C74.0286 99.7929 73.7976 99.8331 73.5766 99.9486C73.4913 99.9938 73.3155 100.049 73.2151 100.049C72.9841 100.049 72.5623 99.818 72.2158 99.3661C72.0149 99.1049 71.8843 98.8438 71.7939 98.5124L71.9848 98.3668H71.9697ZM75.0429 100.687V100.817C75.0429 101.395 74.9576 102.033 74.7818 102.585C74.4504 103.614 73.898 104.091 73.2753 104.106C72.6978 104.122 72.3212 103.79 72.3212 103.353C72.3212 102.946 72.5522 102.731 72.9439 102.57C73.4661 102.369 73.898 102.093 74.2194 101.701C74.4102 101.47 74.6563 101.063 74.7718 100.627L75.048 100.687H75.0429ZM79.477 100.471C80.1851 100.571 81.099 100.847 81.7217 101.164C82.9369 101.802 83.3738 102.339 83.3738 102.977C83.3738 103.499 83.0826 103.875 82.5603 103.875C82.1837 103.875 81.9678 103.614 81.7066 103.208C80.9233 101.992 80.5014 101.455 79.4017 100.717L79.472 100.471H79.477Z" fill="#2F363F"/>
<path d="M86.8089 99.1801C88.2853 99.5417 88.8527 100.28 88.8527 100.903C88.8527 101.525 88.5213 101.817 88.0392 101.817C87.8082 101.817 87.5622 101.656 87.4768 101.179C87.3161 100.355 87.0399 99.8631 86.6382 99.3961L86.8139 99.1801H86.8089ZM92.6491 98.7031C92.9253 98.6579 93.2015 98.6177 93.4726 98.6177C93.7438 98.6177 93.9798 98.7031 94.0652 98.7634C94.3414 98.9391 94.5573 99.1098 94.8033 99.3559C94.949 99.5015 95.0795 99.6723 95.0795 99.8782C95.0795 100.084 94.949 100.195 94.8184 100.285C94.7029 100.355 94.6025 100.461 94.5272 100.591C93.5982 102.344 92.9353 103.187 92.0515 104.066C90.7358 105.417 89.4151 106.125 87.6023 106.632L87.4718 106.356C88.923 105.588 90.0077 104.719 91.0221 103.529C91.9059 102.515 92.5436 101.445 93.1261 100.064C93.2416 99.8028 93.3019 99.602 93.3019 99.4413C93.3019 99.3408 93.2466 99.2655 93.1161 99.1801C92.9705 99.0948 92.8399 99.0195 92.639 98.9793L92.6541 98.7031H92.6491ZM89.4603 98.457C90.9819 98.8638 91.4037 99.8179 91.4037 100.385C91.4037 100.953 91.0723 101.254 90.6053 101.254C90.2136 101.254 90.0278 100.993 89.9826 100.471C89.9274 99.7627 89.7064 99.2253 89.2996 98.6579L89.4603 98.457Z" fill="#2F363F"/>
<path d="M98.0222 106.135C101.326 104.453 103.646 101.832 105.123 97.8747C105.138 97.8295 105.138 97.8044 105.138 97.7743C105.138 97.719 105.108 97.6738 105.007 97.6738C104.907 97.6738 104.731 97.6738 104.209 97.7341C103.094 97.8647 101.527 98.0655 100.181 98.3116C99.7747 98.3819 99.5739 98.4421 99.3981 98.5426C99.2675 98.6129 99.152 98.643 99.0215 98.643C98.7754 98.643 98.3536 98.412 97.977 97.935C97.6456 97.5132 97.5552 97.3424 97.4849 96.8051L97.7008 96.6896C98.208 97.0964 98.4842 97.1667 98.9462 97.1667C99.5136 97.1667 100.423 97.1064 100.945 97.0662C102.306 96.9658 103.666 96.8503 104.696 96.7448C105.042 96.7147 105.288 96.6595 105.565 96.4134C105.695 96.2979 105.871 96.2226 105.956 96.2226C106.132 96.2226 106.448 96.3532 106.915 96.7298C107.453 97.1667 107.624 97.3826 107.624 97.6286C107.624 97.7441 107.508 97.935 107.262 98.0505C107.001 98.166 106.855 98.3116 106.71 98.5878C104.274 103.484 101.854 105.357 98.1326 106.396L98.0172 106.135H98.0222ZM109.617 95.0375C109.617 95.7606 109.04 96.3582 108.296 96.3582C107.553 96.3582 106.976 95.7656 106.976 95.0375C106.976 94.3094 107.568 93.7168 108.296 93.7168C109.025 93.7168 109.617 94.2943 109.617 95.0375ZM107.458 95.0375C107.458 95.4995 107.834 95.8761 108.296 95.8761C108.758 95.8761 109.135 95.4995 109.135 95.0375C109.135 94.5755 108.758 94.1989 108.296 94.1989C107.834 94.1989 107.458 94.5755 107.458 95.0375Z" fill="#2F363F"/>
<path d="M39.0987 72.6263C39.0987 72.8121 39.0736 72.9979 39.1088 73.1736C39.1339 73.2992 39.2293 73.4147 39.2946 73.5302C39.395 73.4548 39.5406 73.3946 39.5858 73.2941C39.7164 72.9878 39.8469 72.6715 39.9072 72.345C40.1332 71.1348 40.3391 69.9196 40.5399 68.7094C40.5751 68.5035 40.56 68.2775 40.5148 68.0716C40.3591 67.4138 40.0729 66.766 40.0277 66.1032C39.9072 64.1548 39.8118 62.2014 39.8369 60.253C39.852 59.2587 40.083 58.2493 40.3441 57.2852C40.4445 56.9136 40.3441 56.8332 40.098 56.768C39.8369 56.6977 39.5607 56.6726 39.2895 56.6525C38.1647 56.5721 37.0449 56.4767 35.92 56.4315C35.4329 56.4114 35.4329 56.4566 35.6489 56.9337C35.684 57.009 35.6539 57.1094 35.6489 57.1948C35.6237 58.2544 35.5786 59.3089 35.5735 60.3685C35.5735 61.0715 35.6288 61.7796 35.6438 62.4826C35.674 63.748 35.7744 64.9432 36.6934 65.9877C37.3512 66.7359 37.783 67.685 38.3404 68.5286C39.174 69.7941 38.8878 71.2604 39.0887 72.6313L39.0987 72.6263Z" fill="white"/>
<path d="M71.6288 1.05864C71.2823 1.95751 70.9609 2.7911 70.6446 3.61967C70.3433 4.40304 70.0369 5.17637 69.7608 5.96979C69.7055 6.12044 69.7306 6.3665 69.826 6.49204C70.524 7.42606 71.2271 8.35506 71.9703 9.24891C72.1561 9.47488 72.4875 9.57531 72.8691 9.80631C72.4925 9.87661 72.1762 9.95194 71.8548 9.99713C70.8806 10.1428 69.9064 10.2834 68.9322 10.4139C68.3848 10.4842 67.8726 10.3838 67.3705 10.1277C66.1753 9.52008 64.9651 8.92752 63.7599 8.33999C63.3682 8.14917 62.9514 7.99852 62.5597 7.8077C62.4543 7.75749 62.3237 7.63195 62.3237 7.53653C62.3237 7.45117 62.4643 7.31558 62.5698 7.28545C63.2477 7.1097 63.9306 6.95403 64.6136 6.79333C64.9249 6.71801 65.0806 6.51714 65.1961 6.22087C65.869 4.44823 66.5469 2.68062 67.2499 0.923052C67.5914 0.0693751 67.8023 -0.00594927 68.7062 0.209981C69.5498 0.410846 70.3985 0.596646 71.2371 0.812576C71.4129 0.857771 71.5635 1.01846 71.6338 1.06366L71.6288 1.05864Z" fill="#CD782D"/>
<path d="M82.8573 33.1175L82.7368 33.2179C82.782 33.4288 82.782 33.6648 82.8875 33.8356C83.0984 34.1821 83.3645 34.4934 83.6056 34.8198C84.163 35.5831 84.7003 36.3715 85.2878 37.1147C85.9406 37.9483 86.6436 38.7417 87.3216 39.5552C88.4263 40.8809 89.5461 42.1966 90.6258 43.5474C91.4443 44.5718 92.1976 45.6464 93.0061 46.6759C93.4831 47.2835 93.8145 48.0417 94.7485 48.1773C95.1804 48.2426 95.5821 48.5439 95.9738 48.7699C97.3096 49.5382 98.6403 50.3115 99.966 51.0949C100.644 51.4916 101.307 51.9084 101.985 52.3152C101.934 51.8883 101.814 51.4715 101.844 51.0597C101.929 49.8194 102.065 48.5841 102.191 47.3437C102.241 46.8566 102.336 46.3746 102.376 45.8875C102.391 45.7067 102.326 45.5108 102.256 45.3401C102.201 45.2096 102.02 45.1192 102 44.9936C101.744 43.462 101.397 41.9606 101.297 40.3888C101.196 38.7216 100.775 37.0695 100.528 35.4073C100.428 34.7445 100.363 34.0615 100.393 33.3937C100.408 33.0873 100.348 32.9518 100.127 32.8011C99.4036 32.309 98.6956 31.7918 97.9724 31.3047C96.8576 30.5514 95.7479 29.7932 94.618 29.07C94.2514 28.834 94.0757 28.9545 94.0154 29.3864C94.0003 29.4868 94.0154 29.6023 93.9802 29.6927C93.7794 30.1748 93.5534 30.6468 93.3626 31.1289C92.8654 32.3893 92.3884 33.6598 91.8912 34.9253C91.7607 35.2567 91.5849 35.5781 91.3991 35.8894C91.2635 36.1104 91.138 36.2761 90.7764 36.1304C89.8926 35.7739 88.9787 35.4977 88.0698 35.2065C87.1458 34.9102 86.2168 34.629 85.2878 34.3377C85.2175 34.3176 85.1723 34.2273 85.1121 34.167C85.0417 34.0967 84.9915 33.9963 84.9062 33.9561C84.5546 33.7904 84.2031 33.6397 83.8416 33.4941C83.5152 33.3635 83.1837 33.248 82.8573 33.1225V33.1175Z" fill="#EFAE2D"/>
<path d="M90.3997 53.8214L90.1737 53.7712C89.4757 55.9455 89.1543 58.2404 88.3006 60.224C88.0345 60.1687 87.8437 60.0633 87.7131 60.1135C87.4369 60.219 87.5524 60.3997 87.6579 60.6157C87.9993 61.3086 88.3107 62.0217 88.5969 62.7398C88.8279 63.3273 89.0137 63.94 89.2096 64.5426C89.546 65.582 90.0883 66.5713 89.9979 67.7213C89.9879 67.8568 90.1386 68.0376 90.2691 68.1381C90.7612 68.5197 91.3086 68.8411 91.7756 69.2529C92.1522 69.5843 92.4435 70.0111 92.79 70.3827C92.9105 70.5133 93.0762 70.6037 93.2269 70.7091L93.2871 70.6288L92.3782 69.519L92.4736 69.4336C93.3072 70.5334 94.4622 71.2213 95.587 71.9896C95.5469 70.9 95.4213 69.8605 95.3209 68.821C95.2757 68.354 95.0095 67.8267 95.5971 67.4802C95.6322 67.4601 95.6322 67.3647 95.6473 67.3095C95.9938 66.0993 96.3252 64.8891 96.6868 63.6889C97.1287 62.2376 97.6007 60.7964 98.0476 59.3452C98.2334 58.7476 98.3891 58.14 98.5699 57.5424C98.7858 56.8344 99.1122 56.1464 99.2177 55.4233C99.3884 54.2432 99.4286 53.043 99.5089 51.8529C99.519 51.6922 99.4587 51.5265 99.4185 51.2805L98.9867 51.7525C98.0426 51.2955 97.0885 50.8687 96.1645 50.3866C95.0045 49.789 93.8998 49.1061 93.0812 48.0465C92.9657 47.8959 92.6594 47.7352 92.5288 47.7904C92.328 47.8758 92.0869 48.1269 92.0568 48.3328C91.9564 49.0458 91.9915 49.784 91.876 50.4971C91.7605 51.1951 91.5547 51.878 91.3337 52.5509C91.1479 53.1133 90.8667 53.6456 90.6508 54.203C90.4399 54.7604 90.2591 55.3279 90.0632 55.8953L89.9578 55.8552L90.3997 53.8314V53.8214Z" fill="#F4CF51"/>
<path d="M103.365 35.0715L103.611 34.9007C103.571 34.5894 103.546 34.273 103.495 33.9617C103.285 32.6008 103.084 31.245 102.481 29.9796C102.069 29.1108 101.673 28.227 101.401 27.308C100.939 25.7262 100.246 24.2549 99.5032 22.7986C99.3978 22.5877 99.1166 22.2864 98.971 22.3165C98.7299 22.3668 98.4989 22.5676 98.3633 22.8689C98.0721 23.5067 97.6603 24.0942 97.349 24.7269C96.8468 25.7463 96.2191 26.7356 96.43 27.9609C96.4451 28.0613 96.3898 28.1768 96.3647 28.3224L95.8626 28.0261L95.7471 28.1266C95.8927 28.3124 96.0132 28.5233 96.189 28.6739C96.6208 29.0405 97.0728 29.382 97.5147 29.7335C98.3232 30.3712 99.1216 31.014 99.9401 31.6367C100.929 32.3899 101.959 33.098 102.662 34.1676C102.873 34.4839 103.124 34.7752 103.36 35.0765L103.365 35.0715Z" fill="#F4CF51"/>
<path d="M50.7434 81.4745C51.2958 81.2335 51.8482 80.9874 52.4106 80.7614C53.435 80.3447 54.4594 79.9329 55.4889 79.5311C55.971 79.3453 56.4631 79.1746 56.9652 79.0441C57.0707 79.0189 57.2716 79.1545 57.3519 79.27C58.0097 80.2141 58.6475 81.1732 59.3003 82.1173C59.9832 83.1116 60.6561 84.1109 61.3692 85.08C61.6655 85.4818 62.1576 85.763 62.3786 86.1898C62.71 86.8326 62.9309 87.5457 63.1167 88.2537C63.3327 89.0622 63.4733 89.8908 63.6189 90.7143C63.649 90.875 63.5586 91.0558 63.5235 91.2215C63.3076 91.1211 63.0263 91.0708 62.8807 90.9051C62.474 90.4381 62.1325 89.9209 61.7458 89.4338C61.5851 89.2329 61.3943 89.0572 61.1985 88.8915C60.9022 88.6354 60.5808 88.4044 60.2896 88.1432C60.0887 87.9625 59.6618 87.847 60.1439 87.3398C59.6618 87.1992 59.2601 87.0284 58.8433 86.9732C58.3763 86.9129 58.0399 86.7322 57.7034 86.3907C57.2264 85.9036 56.6489 85.5119 56.0915 85.1102C55.0922 84.3971 54.0778 83.7041 53.0534 83.0262C52.737 82.8153 52.3704 82.6897 52.044 82.4989C51.8683 82.3935 51.7327 82.2177 51.567 82.0821C51.4766 82.0068 51.3661 81.9616 51.2607 81.9013C51.0849 81.8059 50.9092 81.7105 50.7334 81.6151L50.7485 81.4745H50.7434Z" fill="#CD782D"/>
<path d="M39.0984 72.6272C38.8976 71.2513 39.1838 69.79 38.3502 68.5245C37.7928 67.6809 37.366 66.7318 36.7031 65.9836C35.7842 64.9441 35.6837 63.7439 35.6536 62.4785C35.6385 61.7705 35.5783 61.0674 35.5833 60.3644C35.5883 59.3048 35.6335 58.2453 35.6586 57.1907C35.6586 57.1003 35.6888 56.9999 35.6586 56.9296C35.4427 56.4576 35.4427 56.4074 35.9298 56.4274C37.0546 56.4726 38.1745 56.568 39.2993 56.6484C39.5705 56.6685 39.8467 56.6936 40.1078 56.7639C40.3538 56.8342 40.4493 56.9095 40.3538 57.2811C40.0927 58.2503 39.8617 59.2546 39.8467 60.2489C39.8215 62.1973 39.9119 64.1557 40.0375 66.0991C40.0777 66.7619 40.3689 67.4097 40.5246 68.0676C40.5748 68.2735 40.5848 68.4994 40.5497 68.7053C40.3538 69.9205 40.1429 71.1358 39.917 72.341C39.8567 72.6674 39.7261 72.9837 39.5956 73.2901C39.5504 73.3905 39.4048 73.4508 39.3043 73.5261C39.239 73.4056 39.1386 73.2951 39.1185 73.1695C39.0884 72.9938 39.1085 72.803 39.1085 72.6222L39.0984 72.6272Z" fill="#EFAE2D"/>
<path d="M38.1697 18.2734C38.2299 18.6049 38.2852 18.8409 38.3103 19.0819C38.3203 19.1723 38.2701 19.2828 38.2199 19.3682C37.8031 20.0561 37.3813 20.7391 36.9645 21.427C36.7084 21.8438 36.5628 22.4313 36.1912 22.6523C35.2973 23.1896 34.7951 24.1035 33.9616 24.7011C32.9422 25.4293 32.0433 26.3231 31.0892 27.1416C31.0088 27.2119 30.9335 27.2822 30.8482 27.3525C30.6473 26.9809 30.6523 26.991 30.9185 26.765C31.0038 26.6897 31.0942 26.5893 31.1193 26.4838C31.506 24.8166 32.1588 23.2599 33.0928 21.8288C33.2836 21.5325 33.4795 21.2362 33.6352 20.9249C34.0118 20.1616 34.8152 20.1465 35.463 19.8753C36.0907 19.6142 36.7686 19.4636 37.4014 19.2125C37.5771 19.1422 37.6876 18.8861 37.8131 18.7103C37.9337 18.5346 37.9487 18.2333 38.1697 18.2785V18.2734Z" fill="#F4CF51"/>
<path d="M48.7351 56.1663C48.6799 56.1562 48.5543 56.3119 48.5292 56.4123C48.4438 56.7387 48.258 56.9396 47.9517 57.0802C47.6956 57.1957 47.4445 57.3614 47.2437 57.5623C47.0328 57.7682 46.862 58.0343 46.9876 58.3708C47.098 58.6671 47.2186 58.9633 47.314 59.2646C47.4596 59.7166 47.6102 60.1735 47.7509 60.6255L49.3477 56.0859C49.177 56.1663 48.9812 56.2115 48.7401 56.1663H48.7351Z" fill="#EFAE2D"/>
<path d="M53.7617 69.866C53.8571 70.1271 53.9475 70.3933 54.0128 70.6745C54.2187 71.5985 54.6054 72.4823 54.9167 73.4012C55.0573 73.361 55.1879 73.3309 55.3134 73.2958C55.3887 73.2054 55.5394 73.0196 55.675 72.8488C55.7252 72.6932 55.7704 72.5325 55.8557 72.4019C55.921 72.2965 56.0817 72.2563 56.2022 72.186C56.2776 72.1358 56.4232 72.0755 56.4182 72.0303C56.3529 71.3373 56.8601 70.9356 57.307 70.6695C58.4218 70.0166 59.5818 69.404 60.787 68.937C62.3085 68.3444 63.8903 67.9025 65.447 67.4154C65.6379 67.3552 65.8689 67.4255 66.0848 67.4355C66.0948 67.4857 66.0999 67.541 66.1099 67.5912C66.3258 67.4255 66.5418 67.2497 66.7627 67.089C68.3546 65.9341 70.0569 64.9247 71.4328 63.4835C72.1208 62.7604 72.869 62.0925 73.572 61.3845C73.788 61.1685 73.9687 60.9827 74.3253 61.2087C74.2751 61.0882 74.2299 60.9677 74.1596 60.7819C74.4759 60.6162 74.8074 60.4655 75.1137 60.2747C75.2242 60.2094 75.3246 60.0537 75.3346 59.9282C75.3397 59.8629 75.1488 59.7524 75.0283 59.7123C74.5061 59.5415 73.9687 59.4009 73.4515 59.2201C72.8791 59.0193 72.3317 58.7381 71.7492 58.5673C70.8654 58.3062 69.9715 58.0752 69.0727 57.8944C68.4902 57.7789 67.993 57.5178 67.5059 57.2266H58.0753L53.7718 69.8509L53.7617 69.866Z" fill="#EFAE2D"/>
<path d="M37.8683 28.1311C37.4113 27.0012 37.3209 25.8111 37.2406 24.6159L37.1 24.1891C36.5124 23.933 36.1358 24.0987 35.8345 24.4402C35.1415 25.2286 34.4536 26.032 33.7807 26.8405C33.4492 27.2372 33.158 27.664 32.8466 28.0758C32.2842 28.819 31.8021 29.6375 31.1393 30.2753C30.6572 30.7373 30.5015 31.2445 30.381 31.8219C30.3157 32.1333 30.2505 32.4497 30.1751 32.761C29.7081 34.6742 29.2311 36.5774 28.7791 38.4957C28.6636 38.9878 28.6486 39.5 28.5732 40.1026C29.1558 39.7863 29.6177 39.5352 30.0747 39.2791C30.1199 39.254 30.14 39.1786 30.1701 39.1334C30.2906 38.9627 30.4011 38.7769 30.5467 38.6263C31.5009 37.647 32.5855 36.7984 33.4794 35.7489C33.7656 35.4124 34.1673 35.1864 34.4937 34.8801C35.4027 34.0365 36.2764 33.1477 37.2205 32.3442C37.7779 31.8671 38.2499 31.4654 38.1696 30.6117C38.0942 29.7781 38.1947 28.9194 37.8733 28.121L37.8683 28.1311Z" fill="#DB892B"/>
<path d="M57.0559 32.3086L55.4188 36.9636C55.3134 35.8288 55.2029 34.6989 55.0974 33.564C55.0723 33.2677 55.0824 32.9664 55.1175 32.6752C55.1276 32.5948 55.3033 32.4492 55.3435 32.4693C55.931 32.7103 56.4784 32.4191 57.0207 32.3186H57.0559V32.3086Z" fill="#CD782D"/>
<path d="M76.2534 56.7734L76.8911 58.6465C75.4599 58.3502 74.0187 58.0941 72.5926 57.7727C71.9046 57.6171 71.2418 57.3308 70.5639 57.1249C70.1621 57.0044 69.7554 56.8889 69.3486 56.7734H76.2534Z" fill="#CD782D"/>
<path d="M66.2705 31.334C66.7526 31.4595 67.2347 31.5951 67.7117 31.7206L73.4012 48.4125H60.4404L66.2655 31.334H66.2705Z" fill="#CD782D"/>
<path d="M90.9113 49.5477C90.9666 49.5477 91.0921 49.5628 91.2227 49.5728C91.1925 49.7235 91.1775 49.8842 91.1273 50.0298C91.067 50.2106 90.9766 50.3863 90.8963 50.5621C90.4092 51.6317 89.9572 52.7214 89.4249 53.7659C88.8876 54.8154 88.285 55.8298 87.6774 56.8391C87.0949 57.8033 86.7785 58.8528 86.4823 59.9174L77.2324 33.584C77.4283 33.6191 77.6241 33.6442 77.82 33.6442C78.4477 33.6442 78.9649 33.9054 79.5273 34.046C80.0395 34.1765 80.5467 34.4276 80.9886 34.7189C81.4556 35.0252 81.8875 35.4119 82.2691 35.8287C82.7211 36.3208 83.0927 36.8882 83.5245 37.4004C83.9062 37.8524 84.328 38.2692 84.7297 38.701C84.7699 38.6759 84.8101 38.6458 84.8502 38.6207C84.6695 38.2742 84.4887 37.9277 84.3079 37.5812C84.3581 37.546 84.4083 37.5109 84.4585 37.4757C84.6845 37.762 84.9356 38.0281 85.1214 38.3395C85.3474 38.7111 85.4779 39.1479 85.719 39.5045C86.6681 40.9156 87.7377 42.2262 88.8926 43.4766C89.7664 44.4207 90.5297 45.4601 91.3332 46.4645C91.3884 46.5297 91.3783 46.6452 91.4286 46.8561C91.2026 46.6804 91.077 46.585 90.8963 46.4444V49.5578L90.9113 49.5477Z" fill="#CD782D"/>
<path d="M91.2733 70.8286C91.3235 70.8437 91.3788 70.8588 91.429 70.8738C91.419 71.0044 91.4491 71.15 91.3938 71.2555C90.8264 72.3552 90.2539 73.4449 89.6714 74.5396C89.35 75.1422 89.0186 75.7398 88.637 76.4378C88.9332 76.2319 89.1341 76.0863 89.34 75.9406C89.3701 75.9758 89.4003 76.0109 89.4304 76.0461C89.1391 76.3072 88.8529 76.5784 88.5466 76.8194C86.7288 78.2657 84.9009 79.7069 83.0831 81.1531C82.9274 81.2786 82.7717 81.4142 82.6562 81.5749C82.2344 82.1524 81.7975 82.7249 81.4259 83.3375C81.2451 83.6388 81.1899 84.0154 81.0794 84.3619C81.0342 84.5025 80.9991 84.6431 80.9288 84.8842C80.7831 84.7134 80.6727 84.6381 80.6526 84.5427C80.4869 83.7744 80.1705 83.0864 79.7437 82.4185C79.2415 81.6402 78.8699 80.7815 78.3979 79.9831C78.2522 79.732 77.9961 79.5211 77.7451 79.3654C77.2881 79.0892 76.796 78.8783 76.329 78.6272C75.7766 78.3309 75.2292 78.0296 74.6869 77.7233C73.7378 77.196 72.8088 76.6286 71.8346 76.1415C71.0211 75.7348 70.1574 75.4335 69.3288 75.0568C68.7262 74.7857 68.1337 74.4844 67.5512 74.163C67.3704 74.0626 67.2097 73.8868 67.1042 73.711C66.7226 73.0884 66.3811 72.4355 65.9894 71.8179C65.7183 71.386 65.4069 70.9742 65.0705 70.5876C64.8445 70.3265 64.8897 69.9549 65.3366 69.6385C66.0246 69.1514 66.7226 68.6693 67.4507 68.2525C68.1789 67.8357 68.9572 67.5093 69.7004 67.1227C70.1976 66.8666 70.6847 66.5803 71.1667 66.2891C71.2421 66.2439 71.2722 66.1234 71.3274 66.033C71.458 65.9376 71.6488 65.8472 71.7794 65.6965C72.5678 64.8027 73.3511 63.8988 74.1195 62.9899C74.7773 62.2115 75.4201 61.4231 76.0779 60.6448C76.2185 60.474 76.3641 60.3686 76.5298 60.3184L79.7437 69.7389H89.0086L86.5982 62.8794C86.6434 62.7338 86.6886 62.5881 86.7338 62.4425C86.9346 63.0903 87.0652 63.7331 87.3314 64.3206C87.6427 65.0136 88.0645 65.6564 88.4411 66.3242C89.109 67.5194 89.792 68.7045 90.4397 69.9097C90.5402 70.1005 90.505 70.3616 90.5301 70.5976C90.8766 70.3365 90.7762 69.7138 91.4541 69.7088C90.8816 70.9893 90.3042 72.2698 89.7317 73.5554C89.7769 73.5755 89.8171 73.5905 89.8622 73.6106C90.3393 72.6766 90.8113 71.7476 91.2884 70.8136L91.2733 70.8286Z" fill="#DB892B"/>
<path d="M59.8833 22.1649L56.8954 30.6766C56.6092 30.6917 56.3179 30.7017 56.0317 30.7118C55.8409 30.7218 55.6501 30.7921 55.4592 30.8222C55.1479 30.8674 54.8315 30.9327 54.5202 30.9327C53.6715 30.9327 52.8128 30.8323 51.9692 30.8925C50.9297 30.9679 49.8953 31.1587 48.8608 31.3244C47.7912 31.4951 46.7367 31.7462 45.6621 31.8617C44.6879 31.9672 43.8995 32.3789 43.2065 33.0217C42.7495 33.4435 42.3176 33.8904 41.8557 34.3022C41.695 34.4478 41.4891 34.7592 41.3033 34.4278C40.4245 34.6236 40.1684 35.3668 39.9274 36.12C39.8872 36.115 39.852 36.105 39.8119 36.1C39.7767 35.9845 39.7064 35.869 39.7164 35.7585C39.8319 34.3725 39.9675 32.9916 40.068 31.6056C40.1182 30.9478 40.0579 30.3201 39.7365 29.6924C39.3197 28.8688 39.0385 27.975 38.7121 27.1112C38.3455 26.1521 37.994 25.193 37.6325 24.2339L37.1855 22.9333V22.8228C37.296 22.8479 37.4015 22.878 37.5421 22.9081C38.7623 20.4978 39.9876 18.0824 41.2079 15.6619C41.1526 15.6519 41.1024 15.6419 41.0522 15.6318C40.9819 15.4711 40.8413 15.3004 40.8614 15.1598C40.8764 15.0644 41.1225 14.9941 41.2732 14.9338C42.177 14.5572 43.086 14.1906 43.9898 13.819C44.959 13.4173 45.9232 13.0105 46.8923 12.6088C47.731 12.2623 48.5595 11.8957 49.4082 11.5894C50.6485 11.1375 51.914 10.7407 53.1543 10.2938C53.8825 10.0327 54.5805 9.6862 55.3036 9.41503C56.0568 9.13382 56.8101 8.83755 57.5934 8.66681C57.955 8.58646 58.3768 8.79235 58.7735 8.84759C60.049 9.02335 61.3245 9.17902 62.595 9.36482C63.1222 9.44014 63.6947 9.36482 64.1366 9.78663C64.2069 9.85192 64.3626 9.83183 64.4831 9.85191C64.468 9.87702 64.458 9.9423 64.4279 9.95737C63.4788 10.4043 62.6201 11.037 61.5655 11.273C61.4149 11.3082 61.2642 11.5442 61.1889 11.72C60.5863 13.1361 60.0038 14.5672 59.4012 15.9883C59.3209 16.1842 59.2305 16.4152 59.0748 16.5307C58.7233 16.7818 58.7484 17.0931 58.8237 17.4346C59.1752 19.0063 59.5217 20.5831 59.8733 22.1549L59.8833 22.1649Z" fill="#EFAE2D"/>
<path d="M60.7267 30.5209C60.9526 30.4707 61.1886 30.4355 61.3996 30.3401C61.7963 30.1644 62.1679 29.9434 62.5596 29.7526C62.7755 29.6471 63.0165 29.5869 63.2274 29.4714C63.5689 29.2856 63.5639 29.1299 63.2626 28.8989C62.5847 28.3767 61.9519 27.7992 61.5201 27.056C61.3594 26.7798 61.2338 26.7045 60.9376 26.8802C60.817 26.3479 60.7015 25.8558 60.5911 25.3687C60.3551 24.3041 60.119 23.2345 59.878 22.1699L56.8901 30.6816C58.0752 30.6314 59.2654 30.5811 60.4505 30.5309C60.5409 30.5309 60.6363 30.541 60.7267 30.5209Z" fill="url(#paint0_linear_3966_133091)"/>
<path d="M60.7267 30.5209C60.9526 30.4707 61.1886 30.4355 61.3996 30.3401C61.7963 30.1644 62.1679 29.9434 62.5596 29.7526C62.7755 29.6471 63.0165 29.5869 63.2274 29.4714C63.5689 29.2856 63.5639 29.1299 63.2626 28.8989C62.5847 28.3767 61.9519 27.7992 61.5201 27.056C61.3594 26.7798 61.2338 26.7045 60.9376 26.8802C60.817 26.3479 60.7015 25.8558 60.5911 25.3687C60.3551 24.3041 60.119 23.2345 59.878 22.1699L56.8901 30.6816C58.0752 30.6314 59.2654 30.5811 60.4505 30.5309C60.5409 30.5309 60.6363 30.541 60.7267 30.5209Z" fill="#F4CF51"/>
<path d="M77.574 82.338C77.1321 81.8158 76.6801 81.3036 76.2231 80.7863C76.188 80.7462 76.1277 80.716 76.0775 80.6909C75.8766 80.5855 75.6607 80.5001 75.4799 80.3696C74.6212 79.7318 73.7726 79.079 72.9189 78.4312C72.8938 78.4111 72.8687 78.391 72.8436 78.381C72.3766 78.145 71.8794 77.9491 71.4476 77.6579C70.4784 77.0101 69.5494 76.3071 68.5903 75.6392C68.4396 75.5337 68.1383 75.3881 68.0781 75.4484C67.8019 75.7095 67.6512 75.4484 67.4905 75.3429C66.7875 74.906 66.1146 74.429 65.4015 74.0071C65.2057 73.8916 64.8843 73.8314 64.6885 73.9117C64.3621 74.0473 64.0758 74.2984 63.7896 74.5244C62.5693 75.5136 61.3742 76.5431 60.1238 77.4871C59.5965 77.8889 59.1647 78.4864 58.3863 78.5216C58.1855 78.5316 58.1704 78.7576 58.3361 78.9484C58.6424 79.305 58.9186 79.6916 59.2099 80.0632C59.7572 80.7763 60.2945 81.4994 60.857 82.2075C61.6052 83.1515 62.3634 84.0906 63.1368 85.0146C63.7645 85.7628 64.3821 86.5311 65.0902 87.199C65.6777 87.7513 66.426 88.138 67.0336 88.6703C67.7567 89.303 68.7761 89.6445 69.0623 90.7241C69.1678 91.1259 69.4188 91.0054 69.6398 90.7794C70.0265 90.3877 70.4181 89.996 70.8149 89.6093C72.1155 88.3539 73.4211 87.1036 74.7267 85.8582C75.7109 84.9242 76.7002 84.0002 77.6844 83.0712C77.7447 83.0109 77.7748 82.9155 77.8301 82.8151C77.7397 82.6544 77.6744 82.4786 77.5589 82.3431L77.574 82.338Z" fill="#EFAE2D"/>
<path d="M48.1577 55.6228L48.0925 55.8036C47.9719 55.7835 47.8564 55.7634 47.7359 55.7584C47.4798 55.7584 47.2137 55.8939 46.9576 55.9944C46.6211 56.13 46.2947 56.2907 45.8277 56.5016C45.8779 56.2053 45.9131 56.0245 45.9532 55.7734C45.4812 55.7734 44.964 55.7383 44.4568 55.7785C42.7193 55.9191 41.0019 55.8538 39.2845 55.5223C38.2099 55.3165 37.1152 55.211 36.0255 55.0804C35.8698 55.0604 35.6991 55.1407 35.5434 55.1959C34.0922 55.7584 32.6409 56.3258 31.1897 56.8882C31.0942 56.9234 30.9336 56.9786 30.9034 56.9435C30.8381 56.8631 30.808 56.7275 30.813 56.6171C30.8783 55.1005 30.9285 53.584 31.029 52.0725C31.0993 51.0531 31.2499 50.0387 31.3403 49.0193C31.4608 47.6836 31.6014 46.3478 31.6466 45.0071C31.6868 43.8672 31.6065 42.7172 31.5813 41.5723C31.5763 41.3162 31.5813 41.0601 31.5813 40.804C31.6316 40.804 31.6868 40.7989 31.737 40.7939L31.8977 42.908C31.9228 42.908 31.9479 42.908 31.9781 42.908V39.2221C32.5807 39.6088 32.7213 39.177 32.9322 38.8807C33.8511 37.6102 34.7751 36.3498 35.689 35.0743C35.92 34.7529 36.0958 34.3964 36.3067 34.0649C36.4322 33.8691 36.5678 33.6883 36.8641 33.8038C36.9344 33.8339 37.0951 33.7586 37.1503 33.6833C37.542 33.1711 38.0944 32.7945 38.3756 32.1919C38.4459 32.0462 38.5212 31.9006 38.6166 31.7701C38.6869 31.6696 38.7924 31.5943 38.8778 31.5039C38.9732 31.6043 39.1339 31.6947 39.154 31.8102C39.1941 32.0814 39.1891 32.3626 39.164 32.6338C39.0585 33.8088 38.9431 34.9839 38.8225 36.159C38.7773 36.5958 38.702 37.0327 38.6518 37.4696C38.6317 37.6253 38.6518 37.786 38.6518 37.9416L38.7874 37.9215C38.7673 37.8613 38.7422 37.796 38.7573 37.8412C39.0184 37.6855 39.2895 37.57 39.5005 37.3893C40.1784 36.8118 40.8412 36.2142 41.5041 35.6216C41.6196 35.5212 41.6899 35.3655 41.8154 35.2852C42.0364 35.1496 42.2724 35.0341 42.5134 34.9538C42.875 34.8332 43.3219 34.8784 43.4073 34.3411C43.4223 34.2608 43.5529 34.1503 43.6433 34.1302C45.2151 33.8339 46.7868 33.5527 48.3586 33.2665C49.2374 33.1058 50.1112 32.91 50.995 32.7844C51.5976 32.6991 52.2152 32.6991 52.8982 32.6589C52.8881 32.6739 52.9433 32.5685 53.0086 32.443C53.089 32.4932 53.1693 32.5384 53.2396 32.5886C53.33 32.6589 53.4154 32.8095 53.5058 32.8045C54.1033 32.7894 54.0481 33.2565 54.028 33.5829C53.9426 35.0693 53.8523 36.5557 53.6815 38.032C53.6263 38.5141 53.7317 38.9008 53.8774 39.3176L48.3486 55.0604C48.2331 55.1307 48.1226 55.201 48.0071 55.2713C47.9217 55.3215 47.8514 55.3968 47.6957 55.5223C47.8615 55.5525 48.0071 55.5826 48.1577 55.6127V55.6228Z" fill="#F4CF51"/>
<path d="M96.6058 23.375C95.9329 24.3341 95.2399 25.2832 94.5469 26.2223C93.9996 26.9655 93.4522 27.7137 92.8697 28.4268C92.2822 29.1448 92.247 30.0387 92.016 30.8673C91.7248 31.8967 91.4385 32.9261 91.1071 33.9405C90.9916 34.287 90.7506 34.5983 90.5397 34.98C89.9622 34.528 89.3947 34.061 88.8022 33.6241C88.0289 33.0466 87.2455 32.4892 86.4621 31.9318C86.0202 31.6155 85.513 31.5653 84.9757 31.5803C83.9011 31.6105 82.8265 31.6105 81.7518 31.6155C80.4814 31.6205 79.2109 31.5954 77.9354 31.6205C77.6943 31.6205 77.4583 31.6306 77.2173 31.6306L72.6727 18.6948H62.514L61.138 22.6067C60.6961 21.2408 60.2542 19.8699 59.7973 18.504C59.5663 17.811 59.7772 17.1984 60.0082 16.5858C60.5857 15.0542 61.1732 13.5276 61.7758 12.006C61.8963 11.7047 62.0419 11.4637 62.4838 11.4687C63.3978 11.4788 64.3167 11.3834 65.2357 11.3482C65.4918 11.3382 65.7479 11.3783 66.004 11.3934C66.8727 11.4386 67.7415 11.5189 68.6102 11.5089C69.2279 11.5039 69.8405 11.3683 70.4582 11.298C70.8197 11.2578 71.1813 11.2126 71.5429 11.1825C71.8893 11.1574 72.2559 11.2126 72.5823 11.1172C73.6519 10.8109 74.7165 10.4795 75.766 10.1028C76.4992 9.84171 77.1821 9.445 77.9153 9.17886C78.553 8.95288 79.231 8.85245 79.8788 8.65661C80.6521 8.42561 81.4204 8.16449 82.1837 7.89332C82.4649 7.79289 82.6155 7.82804 82.8566 8.04899C83.2483 8.41557 83.6048 8.92275 84.2677 8.85245C84.343 8.84241 84.4384 8.91271 84.5137 8.96293C86.0604 9.98232 87.607 11.0067 89.1537 12.0311C90.4794 12.9099 91.8051 13.7988 93.1359 14.6775C93.2463 14.7529 93.3769 14.7981 93.5677 14.8884C93.5828 14.6173 93.5928 14.4214 93.6029 14.2055C93.6732 14.2457 93.7435 14.2658 93.7435 14.2859C93.7736 15.1496 94.3913 15.6316 94.9537 16.1489C95.024 16.2091 95.1194 16.2543 95.1596 16.3297C95.2299 16.4652 95.265 16.6159 95.3152 16.7565C95.1646 16.7314 95.0039 16.7163 94.8583 16.6761C94.793 16.6561 94.7428 16.5807 94.6273 16.4753C94.8884 17.4344 95.1144 18.3182 95.3755 19.192C95.6919 20.2465 96.0333 21.291 96.3698 22.3405C96.3999 22.441 96.43 22.6067 96.4903 22.6218C97.113 22.7774 96.7916 23.1088 96.6158 23.3599L96.6058 23.375Z" fill="#DB892B"/>
<path d="M65.0451 55.986C64.8794 56.7041 65.6176 56.4832 65.7381 56.8699C65.5272 56.8096 65.3564 56.7594 65.1757 56.7142C64.0358 56.438 63.0365 55.9258 62.2681 55.0018C61.9518 54.6151 61.6003 54.2586 61.2337 53.9121C60.38 53.1036 59.4962 52.3253 58.6526 51.5068C57.8993 50.7736 57.6784 50.7535 56.8347 51.2657C55.8806 51.8432 54.9366 52.4408 53.9875 53.0233C53.4351 53.3648 52.7923 53.6158 52.3404 54.0628C51.788 54.6151 51.1402 54.9164 50.4573 55.2077C50.392 55.2328 50.3568 55.3182 50.2966 55.3583C49.9652 55.5642 49.699 55.9107 49.3425 56.0764L47.7456 60.616C47.8511 60.9575 47.9565 61.2939 48.0318 61.6404C48.1624 62.238 48.3181 62.8004 48.7098 63.2674C49.8195 64.5881 50.9042 65.9339 52.0692 67.1993C52.8074 68.0028 53.3949 68.8565 53.7615 69.8558L58.065 57.2314H67.4957C67.104 57.0004 66.7173 56.7544 66.3106 56.5585C65.8988 56.3627 65.482 56.1769 65.0401 55.976L65.0451 55.986Z" fill="#CD782D"/>
<path d="M63.1022 70.1774C63.0119 69.9966 62.6453 69.8359 62.4293 69.861C61.882 69.9163 61.3346 70.0619 60.7973 70.1975C59.7227 70.4787 58.5778 70.5188 57.7542 71.483C57.3073 72.0053 56.6495 72.3517 56.077 72.7635C56.0368 72.7936 55.9866 72.8087 55.9364 72.8288L55.4844 73.3812C55.0174 73.7779 54.5554 74.1696 54.0382 74.6065C53.9428 74.4207 53.8524 74.2951 53.8122 74.1595C53.6264 73.5368 53.4959 72.8991 53.2699 72.2915C52.9586 71.4529 52.5719 70.6444 52.2254 69.8158C52.2154 69.7907 52.2053 69.7656 52.1953 69.7455H43.8995L46.8523 61.3443C46.6715 60.8271 46.5058 60.3049 46.3451 59.7826C46.1894 59.2604 46.089 58.7231 45.9634 58.1908L46.094 58.1405C46.2145 58.2108 46.335 58.2811 46.4556 58.3464C46.4957 58.3163 46.5359 58.2811 46.5761 58.251C46.4656 58.0953 46.3702 57.9246 46.2446 57.789C46.0086 57.5329 45.7274 57.317 45.5165 57.0458C45.2604 56.7194 45.175 56.6993 44.9189 57.0207C44.2109 56.8098 43.5179 56.5838 42.8099 56.4081C42.6793 56.3779 42.4433 56.5336 42.3579 56.6692C42.2625 56.8148 42.2976 57.0358 42.2625 57.2266C41.9461 58.934 41.8206 60.6564 41.7503 62.3838C41.7503 62.4993 41.6549 62.6098 41.6097 62.7253C41.5444 62.891 41.4189 63.0668 41.4339 63.2274C41.5645 64.7038 41.4841 66.1802 41.2029 67.6164C41.0171 68.5604 41.2732 69.3789 41.5846 70.1824C41.9411 71.1014 42.5387 71.9199 42.9253 72.8288C43.6886 74.6265 44.3615 76.4594 45.1098 78.2622C45.5768 79.3921 45.9534 80.5119 45.853 81.7673C45.8078 82.3046 45.7023 82.6863 45.175 82.8821C45.0947 82.9122 45.0595 83.0579 45.0043 83.1533C45.0395 83.1784 45.0746 83.2035 45.1047 83.2286C45.396 83.0679 45.637 82.6059 45.9433 83.0026C46.7568 82.1841 47.5603 81.3857 48.3588 80.5822C48.6299 80.311 48.886 80.0248 49.338 80.1905C49.3982 80.2156 49.4836 80.1754 49.589 80.1604C49.5288 80.0499 49.4786 79.9696 49.3781 79.7938C49.9707 79.6783 50.5231 79.618 51.0403 79.4573C52.5769 78.9652 54.0884 78.4078 55.625 77.9308C56.4586 77.6747 57.3324 77.5341 58.2011 77.3432C58.2463 78.0212 58.2614 78.0312 58.7435 77.7148C58.9845 77.5592 59.2256 77.4085 59.4766 77.2629C59.557 77.2177 59.6825 77.2127 59.7327 77.1474C60.2098 76.4745 60.8726 76.0226 61.5405 75.5606C62.5047 74.8977 63.4186 74.1696 64.3426 73.4565C64.4179 73.3962 64.4731 73.2054 64.433 73.1201C64.0061 72.1258 63.5793 71.1315 63.0972 70.1673L63.1022 70.1774Z" fill="#DB892B"/>
<path d="M52.1998 69.7508C51.9789 69.2085 51.8383 68.6109 51.5068 68.1439C50.4021 66.5721 49.222 65.0606 48.0771 63.519C47.7607 63.0921 47.3791 62.6854 47.1681 62.2033C47.0476 61.9271 46.9472 61.6358 46.8468 61.3496L43.894 69.7508H52.1898H52.1998Z" fill="#F4CF51"/>
<path d="M75.6261 33.1923C74.8377 33.0467 74.0393 32.9613 73.2509 32.8107C72.2466 32.6199 71.2523 32.2734 70.2429 32.2031C69.3692 32.1428 68.5356 31.942 67.712 31.721L73.4015 48.4129H60.4407L66.2658 31.3343C66.2106 31.3193 66.1503 31.3042 66.0951 31.2891C65.0907 31.033 64.1567 30.7669 63.0771 31.0481C61.0935 31.5603 59.0698 31.9319 57.0511 32.3136L55.4141 36.9686C55.5245 38.1135 55.63 39.2534 55.7405 40.3984C55.8861 41.9199 56.0267 43.4465 56.2125 44.963C56.3029 45.6962 56.2376 46.4745 56.6393 47.1474C56.6845 47.1424 56.7247 47.1324 56.7699 47.1274C56.6544 46.5248 56.5339 45.9272 56.4184 45.3246C56.4686 45.3045 56.5238 45.2844 56.5741 45.2643C56.9909 45.7012 57.4127 46.1381 57.8295 46.58C58.7836 47.5944 59.6774 48.664 60.6968 49.608C61.8618 50.6827 62.9817 51.8025 64.2622 52.7516C65.5829 53.7258 66.8483 54.7753 68.1338 55.7947C68.164 55.8198 68.169 55.87 68.2041 55.9504C67.9983 55.9252 67.8225 55.9001 67.4911 55.86C67.6216 56.0809 67.6719 56.2868 67.7773 56.322C68.2945 56.4826 68.8168 56.6333 69.339 56.7789H76.2438L76.8815 58.652C77.8708 58.8579 78.85 59.1542 79.8543 59.2696C80.7783 59.3751 81.5014 59.827 82.2245 60.3091C82.6765 60.6104 83.1485 60.9368 83.4598 61.3637C83.8716 61.9261 84.1277 62.599 84.4491 63.2267C84.5345 63.3974 84.5646 63.6134 84.6801 63.7489C84.8006 63.8895 85.0065 63.9649 85.2224 64.1005C85.2576 63.985 85.3128 63.8243 85.348 63.6535C85.4283 63.2367 85.4585 62.8049 85.589 62.4031C85.7497 61.911 86.041 61.4591 86.1866 60.9619C86.287 60.6154 86.3824 60.269 86.4779 59.9174L77.228 33.584C76.6907 33.4886 76.1584 33.2978 75.6161 33.1974L75.6261 33.1923Z" fill="#EFAE2D"/>
<path d="M88.9988 69.7487L86.5884 62.8891C86.3624 63.6072 86.1364 64.3303 85.8904 65.1137C85.6292 64.9128 85.4585 64.8124 85.3179 64.6768C84.3889 63.7428 83.4499 62.8138 82.546 61.8496C82.2397 61.5232 81.9233 61.2772 81.4764 61.2169C81.1901 61.1767 80.9039 61.1416 80.6177 61.0813C79.9799 60.9457 79.3522 60.785 78.7094 60.6595C78.1872 60.5591 77.6248 60.5942 77.1477 60.4034C76.8966 60.303 76.6958 60.2829 76.52 60.3331L79.7339 69.7537H88.9988V69.7487Z" fill="#F4CF51"/>
<path d="M50.3168 53.8808C51.4618 53.228 52.6318 52.6053 53.7868 51.9676C54.3191 51.6713 54.8514 51.365 55.3837 51.0687C55.6347 50.9281 55.8908 50.7975 56.1419 50.6569C55.931 50.3606 55.8306 50.1698 55.7954 49.969C55.7653 49.7831 55.8306 49.5823 55.8055 49.3965C55.695 48.6232 55.5895 47.8448 55.4439 47.0765C55.1024 45.2888 54.7359 43.5011 54.3844 41.7134C54.2387 40.9802 54.2036 40.2069 53.9525 39.5139C53.9274 39.4486 53.9073 39.3884 53.8872 39.3281L48.3584 55.0709C49.0112 54.6642 49.659 54.2574 50.3219 53.8758L50.3168 53.8808Z" fill="#EFAE2D"/>
<path d="M71.2568 18.7003H62.5141L61.1382 22.6122C61.5198 23.7973 61.9065 24.9774 62.2932 26.1575C62.3484 26.3232 62.5442 26.514 62.7049 26.5542C63.8499 26.8454 64.9546 27.2019 65.974 27.8347C67.0235 28.4925 68.1383 29.0399 69.218 29.6475C69.68 29.9086 70.0968 30.2501 70.5738 30.471C71.4175 30.8577 72.3113 31.1439 72.9942 31.8269C73.0645 31.8972 73.2252 31.8721 73.3458 31.8871C73.9232 31.9775 74.4706 31.8871 75.0481 31.7917C75.7561 31.6662 76.4843 31.6411 77.2124 31.631L72.6678 18.6953H71.2517L71.2568 18.7003Z" fill="#F4CF51"/>
<path d="M5.69502 129.935C3.21434 129.935 1.65763 129.272 1.08015 128.961C0.547855 128.398 0.136082 126.555 0.0708008 124.813C0.246558 124.482 0.869239 124.456 1.09019 124.738C1.68776 126.4 3.5759 128.755 5.86576 128.755C7.85934 128.755 8.72809 127.449 8.68791 126.169C8.61761 124.095 6.52359 122.865 4.88152 122.101C2.90802 121.182 0.723612 119.646 0.638245 117.11C0.512704 114.217 2.81261 112.219 6.71943 112.219C7.60826 112.219 8.71804 112.319 9.80774 112.631C10.1643 112.731 10.4053 112.786 10.7317 112.836C10.9677 113.399 11.2841 114.78 11.3444 116.497C11.2188 116.803 10.5459 116.829 10.2948 116.572C9.79267 115.267 8.56739 113.399 6.62402 113.399C4.84637 113.399 3.91235 114.499 3.95754 115.779C3.99771 116.959 5.14264 118.034 6.51355 118.697L8.32133 119.59C10.0237 120.434 12.2031 121.921 12.3035 124.738C12.414 127.886 9.76254 129.935 5.69502 129.935Z" fill="#2F363F"/>
<path d="M35.5181 121.002C35.5181 126.581 31.5811 129.936 25.7912 129.936C20.3729 129.936 16.4409 126.556 16.4409 121.208C16.4409 116.141 20.4281 112.225 26.0624 112.225C31.6966 112.225 35.5231 115.81 35.5231 121.002H35.5181ZM25.8414 113.4C22.5271 113.4 20.7495 116.342 20.7495 120.616C20.7495 123.739 21.9095 128.756 26.3034 128.756C29.8336 128.756 31.2095 125.482 31.2095 121.334C31.2095 116.955 29.1858 113.4 25.8464 113.4H25.8414Z" fill="#2F363F"/>
<path d="M39.6815 129.603C39.4655 129.447 39.4655 128.835 39.6815 128.709L40.4096 128.578C41.6249 128.373 41.7855 128.197 41.7855 125.842V116.783C41.7855 114.222 41.7303 113.94 40.6004 113.79L39.8723 113.689C39.6011 113.559 39.6011 112.921 39.9275 112.795C41.9462 112.67 44.0503 112.564 46.6113 112.564C48.9012 112.564 50.8697 112.896 51.8941 113.488C53.4558 114.357 54.2643 115.638 54.2643 117.275C54.2643 119.555 52.6473 120.524 51.407 121.116C51.1358 121.242 51.1408 121.518 51.2463 121.814C52.6624 125.41 53.4709 126.971 54.6811 128.116C55.3389 128.704 56.0269 128.91 56.4286 128.97C56.6596 129.116 56.6295 129.497 56.4838 129.643C56.0419 129.789 55.1782 129.774 54.3446 129.713C51.874 129.522 50.2319 128.458 49.4234 126.73C48.9514 125.726 48.0324 123.537 47.7613 122.819C47.4901 122.106 47.1537 122.146 46.4808 122.146C45.5367 122.146 45.4815 122.196 45.4815 122.708V125.857C45.4815 128.212 45.6422 128.393 46.8574 128.593L47.5855 128.724C47.7763 128.855 47.7763 129.467 47.5855 129.618H39.6865L39.6815 129.603ZM45.4764 120.032C45.4764 120.925 45.5568 121.006 47.1486 121.006C48.1178 121.006 48.6853 120.775 49.1975 120.288C49.6544 119.851 50.1666 119.032 50.1666 117.521C50.1666 115.216 48.7355 113.734 46.6364 113.734C45.5317 113.734 45.4764 113.81 45.4764 115.04V120.032Z" fill="#2F363F"/>
<path d="M58.0452 129.603C57.7489 129.448 57.774 128.91 57.9649 128.709L58.693 128.634C59.3408 128.559 60.0287 128.343 60.4104 127.313C60.787 126.284 63.6996 118.31 63.9908 117.501C64.4679 116.191 64.9851 114.84 64.9047 114.097L67.5712 112.229C67.9227 112.229 68.0834 112.359 68.1939 112.741C68.4098 113.484 68.7312 114.428 69.4041 116.246L73.0699 126.279C73.6374 127.816 73.8784 128.403 74.8777 128.559L75.9021 128.715C76.0628 128.845 76.118 129.458 75.877 129.608H68.0885C67.7922 129.453 67.7369 128.915 68.0332 128.715L68.8969 128.584C69.5146 128.484 69.6251 128.303 69.6251 128.147C69.6251 127.966 69.4343 127.354 69.1129 126.405L68.3847 124.205C68.2491 123.793 68.0332 123.743 67.0892 123.743H63.8803C63.2325 123.743 63.1522 123.768 62.9915 124.255L61.942 127.223C61.7813 127.735 61.7512 127.941 61.7512 128.147C61.7512 128.303 62.1027 128.453 62.8559 128.584L63.6644 128.715C63.8251 128.895 63.8803 129.483 63.6092 129.608H58.0452V129.603ZM66.9485 122.387C67.5662 122.387 67.7018 122.312 67.4859 121.644L66.7828 119.57C66.4062 118.47 65.9191 117.089 65.6781 116.552C65.4621 117.14 64.9248 118.521 64.5181 119.701L63.8452 121.619C63.6041 122.312 63.7397 122.387 64.4126 122.387H66.9435H66.9485Z" fill="#2F363F"/>
<path d="M94.3071 112.891C94.4678 114.292 94.6034 115.824 94.6285 116.884C94.523 117.19 93.7949 117.295 93.6041 117.064C92.8759 114.684 91.1535 113.404 88.5373 113.404C85.5444 113.404 82.3406 115.834 82.3406 120.931C82.3406 126.028 85.4389 128.765 88.6728 128.765C91.9068 128.765 93.4434 126.54 94.1715 124.798C94.3875 124.592 95.0352 124.672 95.1959 124.978C95.0051 126.872 94.5481 128.408 94.1715 128.996C92.7153 129.377 90.802 129.945 88.698 129.945C86.0566 129.945 83.36 129.357 81.4467 128.001C79.5084 126.595 78.022 124.471 78.022 121.293C78.022 118.114 79.423 115.97 81.281 114.508C83.1943 112.997 85.9461 112.229 88.7482 112.229C91.5502 112.229 93.4936 112.841 94.3021 112.896L94.3071 112.891Z" fill="#2F363F"/>
<path d="M111.807 129.603C111.591 129.447 111.591 128.86 111.807 128.709L112.4 128.634C113.64 128.478 113.775 128.222 113.775 125.842V122.156C113.775 121.438 113.775 121.413 112.646 121.413H107.041C105.937 121.413 105.912 121.438 105.912 122.156V125.842C105.912 128.222 106.072 128.453 107.288 128.604L108.151 128.704C108.367 128.86 108.367 129.447 108.151 129.598H100.041C99.8254 129.442 99.8254 128.855 100.041 128.704L100.689 128.629C101.929 128.473 102.065 128.217 102.065 125.837V116.316C102.065 113.936 101.929 113.68 100.689 113.524L100.041 113.449C99.8254 113.293 99.8254 112.705 100.041 112.555H107.805C108.021 112.71 108.021 113.298 107.805 113.449L107.237 113.524C106.077 113.68 105.917 113.936 105.917 116.316V119.284C105.917 120.027 105.942 120.052 107.047 120.052H112.651C113.781 120.052 113.781 120.027 113.781 119.284V116.316C113.781 113.936 113.645 113.73 112.405 113.549L111.676 113.449C111.461 113.293 111.461 112.705 111.676 112.555H119.575C119.791 112.71 119.791 113.298 119.575 113.449L119.038 113.524C117.798 113.705 117.637 113.936 117.637 116.316V125.837C117.637 128.217 117.798 128.398 119.038 128.599L119.686 128.699C119.902 128.855 119.902 129.442 119.686 129.593H111.817L111.807 129.603Z" fill="#2F363F"/>
<path d="M130.613 125.793C130.613 128.198 130.774 128.379 132.014 128.585L132.768 128.715C132.983 128.871 132.958 129.458 132.742 129.609H124.602C124.386 129.453 124.386 128.866 124.602 128.715L125.356 128.585C126.596 128.379 126.757 128.203 126.757 125.793V116.372C126.757 113.967 126.596 113.786 125.356 113.58L124.602 113.454C124.386 113.299 124.386 112.711 124.602 112.561H132.768C132.983 112.716 132.983 113.304 132.768 113.454L132.014 113.58C130.774 113.786 130.613 113.962 130.613 116.372V125.793Z" fill="#2F363F"/>
<path d="M38.1896 151.431C37.9185 151.356 37.8934 150.688 38.1344 150.537L39.2391 150.462C40.5598 150.362 40.7205 150.106 40.7205 148.057V139.791C40.7205 138.104 40.6151 137.717 39.4249 137.567L38.1846 137.411C37.9436 137.285 37.9134 136.668 38.1294 136.517C39.2341 136.361 40.4996 136.08 41.5792 135.799C42.7643 135.468 43.7887 134.98 43.9796 134.98C44.1151 134.98 44.3009 135.056 44.3562 135.262C44.3009 135.849 44.2758 137.029 44.2758 138.31V148.062C44.2758 150.111 44.4365 150.367 45.7572 150.467L46.862 150.542C47.103 150.698 47.0779 151.361 46.8067 151.436H38.1846L38.1896 151.431Z" fill="#2F363F"/>
<path d="M62.3987 141.549C62.3987 144.647 60.9676 147.334 58.6777 149.332C56.4431 151.306 52.8577 152.812 50.5929 152.893C50.2715 152.767 50.2414 152.23 50.4874 152.049C55.7401 150.819 58.4668 146.52 58.4668 141.81C58.4668 139.867 57.8743 136.156 55.6095 136.156C54.3441 136.156 53.6159 137.612 53.6159 139.148C53.6159 141.247 54.5047 143.447 56.3376 143.758C56.6892 143.808 56.8498 143.808 57.0909 143.808C57.2265 143.884 57.2817 144.14 57.2516 144.346C56.7946 144.808 55.6899 145.139 54.5851 145.139C52.0542 145.139 50.0054 143.166 50.0054 140.585C50.0054 137.311 52.6467 134.98 55.9861 134.98C60.1089 134.98 62.3987 137.998 62.3987 141.559V141.549Z" fill="#2F363F"/>
<path d="M67.0386 147.565C67.0386 145.647 68.4647 144.341 70.5939 143.317C68.9217 142.448 67.7366 141.193 67.7366 139.375C67.7366 136.864 69.921 134.971 73.2604 134.971C76.3035 134.971 78.4628 136.532 78.4628 138.963C78.4628 140.781 76.9513 141.73 75.5251 142.493C77.5488 143.467 79.1357 144.823 79.1357 147.279C79.1357 149.734 77.1672 151.708 72.939 151.708C69.7854 151.708 67.0386 150.352 67.0386 147.56V147.565ZM75.6105 148.127C75.6105 146.104 74.1291 145.029 71.8895 144.03C70.9203 144.949 70.5135 146.053 70.5135 147.279C70.5135 149.071 71.6183 150.528 73.3708 150.528C74.556 150.528 75.6055 149.659 75.6055 148.122L75.6105 148.127ZM71.0308 138.526C71.0308 139.731 71.9447 140.806 74.1592 141.7C74.9928 141.213 75.4548 140.138 75.4548 138.908C75.4548 137.14 74.2948 136.141 73.2202 136.141C71.9799 136.141 71.0358 137.14 71.0358 138.521L71.0308 138.526Z" fill="#2F363F"/>
<path d="M86.4473 151.432C86.1761 151.357 86.151 150.689 86.3921 150.538L87.4968 150.463C88.8175 150.363 88.9782 150.157 88.9782 148.058V147.34C88.9782 146.672 88.923 146.596 88.3606 146.596H82.8468C82.5254 146.471 82.4451 146.109 82.5505 145.778L90.0077 134.499C90.3039 134.088 90.5199 133.887 90.8965 133.887H91.484C91.941 133.887 92.1569 134.067 91.7552 134.73L85.1668 144.779C84.9258 144.979 85.0463 145.165 85.3777 145.165H88.3656C88.933 145.165 88.9832 145.09 88.9832 144.422V141.379C88.9832 140.791 89.1439 140.611 89.5758 140.455C90.2788 140.174 91.7301 139.662 92.1921 139.662C92.4331 139.662 92.5436 139.842 92.5436 140.098V144.422C92.5436 145.09 92.5988 145.165 93.1612 145.165H94.9389C95.3456 145.371 95.3456 146.37 94.9389 146.596H93.1612C92.5938 146.596 92.5436 146.672 92.5436 147.34V148.058C92.5436 150.157 92.7043 150.388 93.8894 150.488L94.4568 150.538C94.6979 150.694 94.6727 151.357 94.4016 151.432H86.4523H86.4473Z" fill="#2F363F"/>
<defs>
<linearGradient id="paint0_linear_3966_133091" x1="37.1903" y1="26.4232" x2="64.4879" y2="26.4232" gradientUnits="userSpaceOnUse">
<stop stop-color="#FFD25E"/>
<stop offset="0.12" stop-color="#DFAE47"/>
<stop offset="0.3" stop-color="#B68029"/>
<stop offset="0.45" stop-color="#985E13"/>
<stop offset="0.58" stop-color="#854A05"/>
<stop offset="0.67" stop-color="#7F4301"/>
<stop offset="0.78" stop-color="#814502"/>
<stop offset="0.84" stop-color="#894E08"/>
<stop offset="0.9" stop-color="#965C11"/>
<stop offset="0.95" stop-color="#A9711F"/>
<stop offset="0.99" stop-color="#C28C30"/>
<stop offset="1" stop-color="#C69033"/>
</linearGradient>
</defs>
</svg>
