<svg width="25" height="24" viewBox="0 0 25 24" fill="none" xmlns="http://www.w3.org/2000/svg">
<path d="M3.48669 13.9746H2.15573C1.79976 13.9746 1.51172 14.2627 1.51172 14.6186V22.3468C1.51172 22.7027 1.79976 22.9908 2.15573 22.9908H3.48669C4.55205 22.9908 5.41872 22.1241 5.41872 21.0587V15.9066C5.41872 14.8413 4.55205 13.9746 3.48669 13.9746Z" fill="#868196"/>
<path d="M20.057 13.3078H13.4178C13.1588 13.3078 12.9105 13.1606 12.7274 12.8984C12.5443 12.6363 12.4414 12.2808 12.4414 11.9101V2.40554C12.4414 2.03484 12.5443 1.67932 12.7274 1.4172C12.9105 1.15507 13.1588 1.00781 13.4178 1.00781H20.057C20.316 1.00781 20.5643 1.15507 20.7474 1.4172C20.9305 1.67932 21.0334 2.03484 21.0334 2.40554V11.9101C21.0334 12.2808 20.9305 12.6363 20.7474 12.8984C20.5643 13.1606 20.316 13.3078 20.057 13.3078Z" fill="#868196"/>
<path d="M23.3011 15.2239C23.2237 15.0952 23.1208 14.9921 23.0048 14.9019C22.5306 14.487 21.7316 14.5263 21.266 15.0308L18.3422 18.4054L18.252 18.5083C17.8914 18.9076 17.3762 19.1266 16.8352 19.1266H11.7947C11.434 19.1266 11.1507 18.8432 11.1507 18.4826C11.1507 18.1219 11.434 17.8386 11.7947 17.8386H15.7661C16.4745 17.8386 17.0541 17.259 17.0541 16.5506V16.5377C17.0413 15.8293 16.4745 15.2626 15.7661 15.2626H13.3919C13.0056 15.2626 12.5917 15.1208 12.2584 14.8375C10.6871 13.4593 8.39434 13.3691 6.70703 14.5413V22.4626C7.98217 22.8104 9.29596 22.9907 10.6226 22.9907H16.4101C17.8269 22.9907 19.1665 22.3209 20.0166 21.1875L23.1079 17.0658C23.5589 16.4738 23.5929 15.6619 23.3011 15.2239Z" fill="#868196"/>
</svg>
