<svg width="24" height="24" viewBox="0 0 24 24" fill="none" xmlns="http://www.w3.org/2000/svg">
<g id="Spot">
<g id="Group">
<g id="Vector (Stroke)">
<path fill-rule="evenodd" clip-rule="evenodd" d="M6.31603 2.32031C5.74922 2.32031 5.28972 2.79774 5.28972 3.38672V20.6133C5.28972 21.2023 5.74922 21.6797 6.31603 21.6797H17.6845C18.2513 21.6797 18.7108 21.2023 18.7108 20.6133V3.38672C18.7108 2.79774 18.2513 2.32031 17.6845 2.32031H6.31603ZM4.50024 3.38672C4.50024 2.34467 5.31322 1.5 6.31603 1.5H17.6845C18.6873 1.5 19.5002 2.34467 19.5002 3.38672V20.6133C19.5002 21.6553 18.6873 22.5 17.6845 22.5H6.31603C5.31322 22.5 4.50024 21.6553 4.50024 20.6133V3.38672Z" fill="white"/>
<path d="M5.28972 3.38672C5.28972 2.79774 5.74922 2.32031 6.31603 2.32031H17.6845C18.2513 2.32031 18.7108 2.79774 18.7108 3.38672V20.6133C18.7108 21.2023 18.2513 21.6797 17.6845 21.6797H6.31603C5.74922 21.6797 5.28972 21.2023 5.28972 20.6133V3.38672Z" fill="white"/>
</g>
<path id="Vector (Stroke)_2" fill-rule="evenodd" clip-rule="evenodd" d="M6.08008 3.55743C6.08008 3.33091 6.25681 3.14728 6.47481 3.14728H14.3696C14.5876 3.14728 14.7643 3.33091 14.7643 3.55743V17.1478C14.7643 17.3744 14.5876 17.558 14.3696 17.558H6.47481C6.25681 17.558 6.08008 17.3744 6.08008 17.1478V3.55743ZM6.86955 8.49773V12.2075H13.9748V8.49773H6.86955ZM13.9748 7.67741H6.86955V3.96759H13.9748V7.67741ZM13.9748 13.0279H6.86955V16.7377H13.9748V13.0279ZM15.5538 3.55743C15.5538 3.33091 15.7305 3.14728 15.9485 3.14728H17.5274C17.7455 3.14728 17.9222 3.33091 17.9222 3.55743V6.44026C17.9222 6.66678 17.7455 6.85041 17.5274 6.85041H15.9485C15.7305 6.85041 15.5538 6.66678 15.5538 6.44026V3.55743ZM16.3432 3.96759V6.0301H17.1327V3.96759H16.3432ZM15.5538 13.0296C15.5538 12.8031 15.7305 12.6194 15.9485 12.6194H17.5274C17.7455 12.6194 17.9222 12.8031 17.9222 13.0296V17.1478C17.9222 17.3744 17.7455 17.558 17.5274 17.558H15.9485C15.7305 17.558 15.5538 17.3744 15.5538 17.1478V13.0296ZM16.3432 13.4397V16.7377H17.1327V13.4397H16.3432Z" fill="#FF3875"/>
</g>
</g>
</svg>
