<svg width="28" height="24" viewBox="0 0 28 24" fill="none" xmlns="http://www.w3.org/2000/svg">
<g id="Frame" clip-path="url(#clip0_262_136142)">
<g id="Group">
<path id="Vector" d="M22.5917 10.8343C22.7317 11.1943 22.8192 11.5886 22.8192 12C22.8192 13.8857 21.2442 15.4286 19.3017 15.4286C17.3592 15.4286 15.7667 13.8857 15.7667 12C15.7667 10.4743 16.7817 9.20571 18.1992 8.76L13.9992 0L9.81675 8.76C11.2167 9.20571 12.2317 10.4743 12.2317 12C12.2317 13.8857 10.6567 15.4286 8.71425 15.4286C6.77175 15.4286 5.17925 13.8857 5.17925 12C5.17925 11.5886 5.26675 11.1943 5.40675 10.8343L0.489245 8.81143C0.226745 8.70857 -0.0357546 8.91429 -0.000754621 9.18857L2.46675 23.7086C2.50175 23.88 2.64175 24 2.81675 24H25.1642C25.3392 24 25.4792 23.88 25.5142 23.7086L27.9992 9.18857C28.0517 8.91429 27.7717 8.70857 27.5092 8.81143L22.5917 10.8343Z" fill="url(#paint0_linear_262_136142)"/>
</g>
</g>
<defs>
<linearGradient id="paint0_linear_262_136142" x1="-0.875488" y1="14.1429" x2="27.5395" y2="18.1592" gradientUnits="userSpaceOnUse">
<stop stop-color="#EDC843"/>
<stop offset="0.608147" stop-color="#FFEDAC" stop-opacity="0.87"/>
<stop offset="0.953213" stop-color="#EDC947"/>
</linearGradient>
<clipPath id="clip0_262_136142">
<rect width="28" height="24" fill="white"/>
</clipPath>
</defs>
</svg>
