<svg width="101" height="100" viewBox="0 0 101 100" fill="none" xmlns="http://www.w3.org/2000/svg">
<g id="metamask-fox 1">
<path id="Vector" d="M86.5331 11.1426L55.3027 34.3378L61.078 20.6529L86.5331 11.1426Z" fill="#E2761B" stroke="#E2761B" stroke-linecap="round" stroke-linejoin="round"/>
<g id="Group">
<path id="Vector_2" d="M14.4355 11.1426L45.4148 34.5575L39.922 20.6529L14.4355 11.1426Z" fill="#E4761B" stroke="#E4761B" stroke-linecap="round" stroke-linejoin="round"/>
<path id="Vector_3" d="M75.2962 64.9082L66.9785 77.6515L84.7751 82.5479L89.8913 65.1907L75.2962 64.9082Z" fill="#E4761B" stroke="#E4761B" stroke-linecap="round" stroke-linejoin="round"/>
<path id="Vector_4" d="M11.1406 65.1907L16.2254 82.5479L34.022 77.6515L25.7043 64.9082L11.1406 65.1907Z" fill="#E4761B" stroke="#E4761B" stroke-linecap="round" stroke-linejoin="round"/>
<path id="Vector_5" d="M33.0178 43.3769L28.0586 50.8785L45.7297 51.6632L45.1019 32.6738L33.0178 43.3769Z" fill="#E4761B" stroke="#E4761B" stroke-linecap="round" stroke-linejoin="round"/>
<path id="Vector_6" d="M67.9518 43.3779L55.7108 32.4551L55.3027 51.6641L72.9424 50.8794L67.9518 43.3779Z" fill="#E4761B" stroke="#E4761B" stroke-linecap="round" stroke-linejoin="round"/>
<path id="Vector_7" d="M34.0215 77.6516L44.6304 72.4727L35.4653 65.3164L34.0215 77.6516Z" fill="#E4761B" stroke="#E4761B" stroke-linecap="round" stroke-linejoin="round"/>
<path id="Vector_8" d="M56.3379 72.4727L66.9782 77.6516L65.503 65.3164L56.3379 72.4727Z" fill="#E4761B" stroke="#E4761B" stroke-linecap="round" stroke-linejoin="round"/>
</g>
<g id="Group_2">
<path id="Vector_9" d="M66.9782 77.6516L56.3379 72.4727L57.1854 79.4093L57.0912 82.3283L66.9782 77.6516Z" fill="#D7C1B3" stroke="#D7C1B3" stroke-linecap="round" stroke-linejoin="round"/>
<path id="Vector_10" d="M34.0215 77.6516L43.9085 82.3283L43.8457 79.4093L44.6304 72.4727L34.0215 77.6516Z" fill="#D7C1B3" stroke="#D7C1B3" stroke-linecap="round" stroke-linejoin="round"/>
</g>
<path id="Vector_11" d="M44.0661 60.7348L35.2148 58.1297L41.4609 55.2734L44.0661 60.7348Z" fill="#233447" stroke="#233447" stroke-linecap="round" stroke-linejoin="round"/>
<path id="Vector_12" d="M56.9023 60.7348L59.5075 55.2734L65.785 58.1297L56.9023 60.7348Z" fill="#233447" stroke="#233447" stroke-linecap="round" stroke-linejoin="round"/>
<g id="Group_3">
<path id="Vector_13" d="M34.0208 77.6515L35.5274 64.9082L25.7031 65.1907L34.0208 77.6515Z" fill="#CD6116" stroke="#CD6116" stroke-linecap="round" stroke-linejoin="round"/>
<path id="Vector_14" d="M65.4707 64.9082L66.9773 77.6515L75.2949 65.1907L65.4707 64.9082Z" fill="#CD6116" stroke="#CD6116" stroke-linecap="round" stroke-linejoin="round"/>
<path id="Vector_15" d="M72.9405 50.8789L55.3008 51.6636L56.9329 60.7345L59.5381 55.2731L65.8155 58.1294L72.9405 50.8789Z" fill="#CD6116" stroke="#CD6116" stroke-linecap="round" stroke-linejoin="round"/>
<path id="Vector_16" d="M35.2129 58.1294L41.4904 55.2731L44.0642 60.7345L45.7277 51.6636L28.0566 50.8789L35.2129 58.1294Z" fill="#CD6116" stroke="#CD6116" stroke-linecap="round" stroke-linejoin="round"/>
</g>
<g id="Group_4">
<path id="Vector_17" d="M28.0586 50.8789L35.466 65.3171L35.2149 58.1294L28.0586 50.8789Z" fill="#E4751F" stroke="#E4751F" stroke-linecap="round" stroke-linejoin="round"/>
<path id="Vector_18" d="M65.8178 58.1294L65.5039 65.3171L72.9427 50.8789L65.8178 58.1294Z" fill="#E4751F" stroke="#E4751F" stroke-linecap="round" stroke-linejoin="round"/>
<path id="Vector_19" d="M45.7299 51.6641L44.0664 60.735L46.138 71.4381L46.6088 57.3452L45.7299 51.6641Z" fill="#E4751F" stroke="#E4751F" stroke-linecap="round" stroke-linejoin="round"/>
<path id="Vector_20" d="M55.3025 51.6641L54.4551 57.3138L54.8317 71.4381L56.9347 60.735L55.3025 51.6641Z" fill="#E4751F" stroke="#E4751F" stroke-linecap="round" stroke-linejoin="round"/>
</g>
<path id="Vector_21" d="M56.935 60.7341L54.832 71.4371L56.3386 72.4729L65.5037 65.3166L65.8176 58.1289L56.935 60.7341Z" fill="#F6851B" stroke="#F6851B" stroke-linecap="round" stroke-linejoin="round"/>
<path id="Vector_22" d="M35.2148 58.1289L35.4659 65.3166L44.631 72.4729L46.1376 71.4371L44.0661 60.7341L35.2148 58.1289Z" fill="#F6851B" stroke="#F6851B" stroke-linecap="round" stroke-linejoin="round"/>
<path id="Vector_23" d="M57.0912 82.3291L57.1853 79.41L56.4006 78.7195H44.5676L43.8457 79.41L43.9085 82.3291L34.0215 77.6523L37.4741 80.4772L44.4735 85.3422H56.4948L63.5256 80.4772L66.9782 77.6523L57.0912 82.3291Z" fill="#C0AD9E" stroke="#C0AD9E" stroke-linecap="round" stroke-linejoin="round"/>
<path id="Vector_24" d="M56.3379 72.4733L54.8313 71.4375H46.137L44.6304 72.4733L43.8457 79.4099L44.5676 78.7194H56.4006L57.1853 79.4099L56.3379 72.4733Z" fill="#161616" stroke="#161616" stroke-linecap="round" stroke-linejoin="round"/>
<g id="Group_5">
<path id="Vector_25" d="M87.8508 35.8444L90.5187 23.0384L86.5325 11.1426L56.3379 33.5531L67.9512 43.3774L84.3668 48.1796L88.0077 43.9423L86.4383 42.8124L88.9493 40.5211L87.0033 39.0145L89.5143 37.0999L87.8508 35.8444Z" fill="#763D16" stroke="#763D16" stroke-linecap="round" stroke-linejoin="round"/>
<path id="Vector_26" d="M10.4805 23.0384L13.1484 35.8444L11.4535 37.0999L13.9645 39.0145L12.0498 40.5211L14.5608 42.8124L12.9915 43.9423L16.601 48.1796L33.0166 43.3774L44.6299 33.5531L14.4353 11.1426L10.4805 23.0384Z" fill="#763D16" stroke="#763D16" stroke-linecap="round" stroke-linejoin="round"/>
</g>
<path id="Vector_27" d="M84.3677 48.1792L67.9521 43.377L72.9427 50.8785L65.5039 65.3167L75.2967 65.1911H89.8918L84.3677 48.1792Z" fill="#F6851B" stroke="#F6851B" stroke-linecap="round" stroke-linejoin="round"/>
<path id="Vector_28" d="M33.0176 43.377L16.602 48.1792L11.1406 65.1911H25.7043L35.4658 65.3167L28.0584 50.8785L33.0176 43.377Z" fill="#F6851B" stroke="#F6851B" stroke-linecap="round" stroke-linejoin="round"/>
<path id="Vector_29" d="M55.3017 51.663L56.3374 33.5525L61.1083 20.6523H39.9219L44.63 33.5525L45.7285 51.663L46.1052 57.3755L46.1366 71.437H54.8309L54.8936 57.3755L55.3017 51.663Z" fill="#F6851B" stroke="#F6851B" stroke-linecap="round" stroke-linejoin="round"/>
</g>
</svg>
