<svg width="16" height="17" viewBox="0 0 16 17" fill="none" xmlns="http://www.w3.org/2000/svg">
<g id="add heart">
<g id="Vector">
<path d="M12.5787 9.85519C11.1624 9.85519 10.0101 11.0075 10.0101 12.4238C10.0101 13.8401 11.1624 14.9924 12.5787 14.9924C13.9951 14.9924 15.1474 13.8402 15.1474 12.4238C15.1474 11.0075 13.9951 9.85519 12.5787 9.85519ZM14.0253 12.8426H12.9975V13.8704H12.16V12.8426H11.1322V12.005H12.16V10.9773H12.9975V12.005H14.0253V12.8426Z" fill="#565C6A"/>
<path d="M12.5656 9.01761C12.8815 9.01738 13.1959 9.06123 13.4997 9.14788L14.0066 8.64106C14.7422 7.90544 15.1473 6.92742 15.1473 5.88711C15.1473 4.84681 14.7422 3.86879 14.0066 3.13317C13.271 2.39757 12.293 1.99243 11.2527 1.99243C10.2123 1.99243 9.23433 2.39754 8.4987 3.13317L7.98507 3.6468L7.50114 3.1629C5.98263 1.64439 3.51181 1.64439 1.99327 3.1629C1.25765 3.89852 0.852539 4.87657 0.852539 5.91685C0.852539 6.95713 1.25765 7.9352 1.99324 8.67077L7.98504 14.6626L9.28963 13.358C9.203 13.0542 9.15916 12.7397 9.15939 12.4238C9.15939 10.5456 10.6874 9.01761 12.5656 9.01761Z" fill="#565C6A"/>
</g>
</g>
</svg>
