<svg width="81" height="80" viewBox="0 0 81 80" fill="none" xmlns="http://www.w3.org/2000/svg">
<g id="chat 1" opacity="0.4" clip-path="url(#clip0_3181_98335)">
<path id="Vector" d="M73.5435 67.0129C78.0431 62.1852 80.496 56.2171 80.496 49.999C80.496 42.2185 76.6526 35.1723 70.497 30.1729C70.3564 47.9992 53.5924 62.4977 33.0008 62.4977H19.0647C24.4548 71.3874 35.4068 77.4962 47.9993 77.4962H77.9962C79.0117 77.4962 79.9179 76.8869 80.3085 75.9495C80.6991 75.012 80.4803 73.934 79.7617 73.231L73.5435 67.0129Z" fill="#67647D"/>
<path id="Vector_2" d="M33.0008 2.50378C15.0807 2.50378 0.504066 14.8307 0.504066 30.001C0.504066 36.2191 2.95694 42.1716 7.45649 47.0149L1.23837 53.233C0.51969 53.9517 0.300962 55.0297 0.691547 55.9515C1.08213 56.8889 1.98829 57.4982 3.00381 57.4982H33.0008C50.9208 57.4982 65.4975 45.1713 65.4975 30.001C65.4975 14.8307 50.9208 2.50378 33.0008 2.50378Z" fill="#19024A"/>
<g id="Group">
<path id="Vector_3" d="M47.9991 22.5018H18.0022C16.6273 22.5018 15.5024 23.6267 15.5024 25.0016C15.5024 26.3764 16.6273 27.5013 18.0022 27.5013H47.9991C49.374 27.5013 50.4989 26.3764 50.4989 25.0016C50.4989 23.6267 49.374 22.5018 47.9991 22.5018Z" fill="#FAFAFA"/>
<path id="Vector_4" d="M38.0002 32.5009H18.0022C16.6273 32.5009 15.5024 33.6257 15.5024 35.0006C15.5024 36.3755 16.6273 37.5003 18.0022 37.5003H38.0002C39.375 37.5003 40.4999 36.3755 40.4999 35.0006C40.4999 33.6257 39.375 32.5009 38.0002 32.5009Z" fill="#FAFAFA"/>
</g>
</g>
<defs>
<clipPath id="clip0_3181_98335">
<rect width="80" height="80" fill="white" transform="translate(0.5)"/>
</clipPath>
</defs>
</svg>
