<svg width="14" height="14" viewBox="0 0 14 14" fill="none" xmlns="http://www.w3.org/2000/svg">
<path fill-rule="evenodd" clip-rule="evenodd" d="M7.95151 4.57235C8.06439 4.46937 8.2474 4.46937 8.36028 4.57235L9.22741 5.36341C9.34029 5.46639 9.34029 5.63335 9.22741 5.73632L8.36028 6.52738C8.2474 6.63036 8.06439 6.63036 7.95151 6.52738C7.83864 6.42441 7.83864 6.25745 7.95151 6.15447L8.32522 5.81355H4.97689C4.67045 5.81449 4.37686 5.92595 4.16017 6.12364C3.94348 6.32132 3.82129 6.58916 3.82027 6.86872V7.13199C3.82027 7.27762 3.69086 7.39568 3.53123 7.39568C3.3716 7.39568 3.24219 7.27762 3.24219 7.13199V6.8683L3.24219 6.86752C3.24356 6.4485 3.42663 6.04701 3.7514 5.75073C4.07618 5.45444 4.51627 5.28743 4.97558 5.28618L4.97644 5.28618H8.32522L7.95151 4.94526C7.83864 4.84228 7.83864 4.67533 7.95151 4.57235ZM10.4682 6.60462C10.6279 6.60462 10.7573 6.72267 10.7573 6.8683V7.13199L10.7573 7.13278C10.7559 7.55179 10.5728 7.95328 10.2481 8.24957C9.92329 8.54586 9.48319 8.71286 9.02389 8.71411L9.02302 8.71411H5.67425L6.04795 9.05503C6.16083 9.15801 6.16083 9.32497 6.04795 9.42794C5.93507 9.53092 5.75206 9.53092 5.63918 9.42794L4.77206 8.63688C4.65918 8.53391 4.65918 8.36695 4.77206 8.26397L5.63918 7.47291C5.75206 7.36993 5.93507 7.36993 6.04795 7.47291C6.16083 7.57589 6.16083 7.74284 6.04795 7.84582L5.67425 8.18674H9.02259C9.32902 8.1858 9.62261 8.07434 9.83929 7.87666C10.056 7.67896 10.1782 7.4111 10.1792 7.13152V6.8683C10.1792 6.72267 10.3086 6.60462 10.4682 6.60462Z" fill="#868196"/>
<path fill-rule="evenodd" clip-rule="evenodd" d="M4.09266 3.16463C4.90035 2.55142 5.90768 2.1875 7 2.1875C9.65787 2.1875 11.8125 4.34213 11.8125 7C11.8125 8.09232 11.4486 9.09965 10.8354 9.90734L4.09266 3.16463ZM3.16459 4.09272C2.5514 4.9004 2.1875 5.9077 2.1875 7C2.1875 9.65787 4.34213 11.8125 7 11.8125C8.0923 11.8125 9.0996 11.4486 9.90728 10.8354L3.16459 4.09272ZM7 0.875C3.61726 0.875 0.875 3.61726 0.875 7C0.875 10.3827 3.61726 13.125 7 13.125C10.3827 13.125 13.125 10.3827 13.125 7C13.125 3.61726 10.3827 0.875 7 0.875Z" fill="#868196"/>
</svg>
