<svg width="170" height="150" viewBox="0 0 170 150" fill="none" xmlns="http://www.w3.org/2000/svg">
<g id="Frame 1000004297">
<g id="box">
<ellipse id="Ellipse 3208" cx="85.3552" cy="115.519" rx="74.821" ry="18.2052" fill="#EDEDED"/>
<path id="Vector" fill-rule="evenodd" clip-rule="evenodd" d="M77.8739 22.2439L25.5376 36.1566L78.6583 69.2495L77.8739 22.2439Z" fill="#F7B764"/>
<path id="Vector_2" fill-rule="evenodd" clip-rule="evenodd" d="M143.636 36.6375L77.8735 22.244L78.6579 69.2497L91.7521 77.3979L143.636 36.6375Z" fill="#F19250"/>
<path id="Vector_3" fill-rule="evenodd" clip-rule="evenodd" d="M91.3 50.5572L143.637 36.6375L144.93 113.835L92.5936 127.755L91.3 50.5572Z" fill="#F7B764"/>
<path id="Vector_4" fill-rule="evenodd" clip-rule="evenodd" d="M91.3 50.5572L25.5376 36.1567L26.8312 113.355L92.5935 127.755L91.3 50.5572Z" fill="#FBD974"/>
<path id="Vector_5" fill-rule="evenodd" clip-rule="evenodd" d="M56.0694 96.9119L55.9853 92.0589C55.9344 89.1053 55.6924 84.6958 56.7339 82.2079C57.3388 80.76 58.5012 79.9537 59.8153 79.4986L62.3091 78.6429C64.2983 77.9579 65.8557 76.4997 65.8112 73.7975C65.7857 72.387 65.3369 71.0686 64.455 69.9254C63.5791 68.7826 62.5028 68.0946 61.2848 67.886C58.5521 67.4155 57.1366 69.0431 56.6817 71.9303C56.5969 72.476 56.1867 72.8061 55.6877 72.7192L47.3765 71.2866C47.0736 71.2328 46.8123 71.0561 46.61 70.7645C46.4018 70.4725 46.3089 70.1458 46.3307 69.7984C46.5495 66.5756 47.2987 63.5394 48.9344 61.1513C50.3516 59.0915 52.1893 57.6577 54.3623 56.7471C56.5473 55.8372 58.8779 55.5432 61.3489 55.9765C65.5372 56.6983 69.2051 58.8524 72.289 62.7836C75.3223 66.6419 76.7843 70.9531 76.8649 75.7501C76.9596 81.2873 75.2972 85.3128 70.9526 87.0992C69.9092 87.5293 68.3562 88.2345 67.7665 89.3486C67.1834 90.4492 67.1715 92.5479 67.193 93.9164L67.2786 98.8671C67.2905 99.5235 66.8325 99.9832 66.2681 99.8852L57.1017 98.3016C56.5373 98.2036 56.0625 97.588 56.0508 96.9247L56.0694 96.9119ZM62.2461 116.263C58.664 115.642 55.6973 111.767 55.6236 107.605C55.556 103.443 58.4055 100.566 61.9936 101.188C65.5817 101.809 68.5424 105.684 68.6098 109.852C68.6775 114.014 65.8279 116.891 62.2458 116.27L62.2461 116.263Z" fill="#F7B764"/>
<path id="Vector_6" fill-rule="evenodd" clip-rule="evenodd" d="M52.2226 94.8792L52.1445 90.0266C52.0936 87.073 51.8516 82.6635 52.8931 80.1756C53.498 78.7277 54.6604 77.9214 55.9744 77.4663L58.4683 76.6106C60.4575 75.9257 62.0208 74.4678 61.9704 71.7653C61.9449 70.3547 61.4961 69.0363 60.6202 67.8935C59.7442 66.7507 58.6679 66.0627 57.4503 65.8472C54.7175 65.3767 53.3024 66.9972 52.8471 69.8914C52.7624 70.4372 52.3521 70.7673 51.8532 70.6803L43.5423 69.2408C43.2394 69.187 42.978 69.0103 42.7698 68.7183C42.5616 68.4263 42.4687 68.0996 42.4906 67.7522C42.7094 64.5294 43.4585 61.4932 45.0939 59.1121C46.5111 57.0522 48.3488 55.6185 50.5218 54.7078C52.7069 53.798 55.0374 53.504 57.5088 53.9303C61.6967 54.6591 65.3646 56.8132 68.4485 60.7444C71.4818 64.6027 72.9438 68.9139 73.0247 73.7039C73.1195 79.2411 71.451 83.2662 67.1125 85.0531C66.063 85.4828 64.516 86.1883 63.9263 87.3024C63.3433 88.403 63.3314 90.5018 63.3528 91.8702L63.4384 96.8209C63.4504 97.4774 62.9983 97.9374 62.428 97.839L53.2675 96.2558C52.6972 96.1574 52.2283 95.5422 52.2166 94.8789L52.2226 94.8792ZM58.3994 114.23C54.8113 113.609 51.8505 109.734 51.7832 105.566C51.7155 101.404 54.565 98.527 58.1471 99.1482C61.7352 99.7697 64.6959 103.644 64.7636 107.806C64.8373 111.968 61.9818 114.844 58.3997 114.223L58.3994 114.23Z" fill="white"/>
<path id="Vector 410" d="M77.8758 22.2448C61.6187 26.8428 25.5743 36.1386 25.5743 36.1386L91.3098 50.5884L143.642 36.6368L77.8758 22.2448Z" fill="#FFE38F"/>
</g>
</g>
</svg>
