<svg width="113" height="112" viewBox="0 0 113 112" fill="none" xmlns="http://www.w3.org/2000/svg">
<rect x="0.5" width="112" height="112" rx="56" fill="#F4B5C9"/>
<g clip-path="url(#clip0_3917_85652)">
<path d="M88.5 35.875V82.375C88.5 85.4762 85.9762 88 82.875 88H30.125C27.0238 88 24.5 85.4762 24.5 82.375V35.875C24.5 35.875 37.6362 32.125 56.5 32.125C75.3638 32.125 88.5 35.875 88.5 35.875Z" fill="#F9F9F9"/>
<path d="M88.5 35.875V82.375C88.5 85.4762 85.9762 88 82.875 88H56.5V32.125C75.3638 32.125 88.5 35.875 88.5 35.875Z" fill="#E2DFF4"/>
<path d="M61.375 80C61.375 81.035 60.535 81.875 59.5 81.875H49.5C48.465 81.875 47.625 81.035 47.625 80C47.625 78.965 48.465 78.125 49.5 78.125H59.5C60.535 78.125 61.375 78.965 61.375 80Z" fill="#756E78"/>
<path d="M61.375 80C61.375 81.035 60.535 81.875 59.5 81.875H56.5V78.125H59.5C60.535 78.125 61.375 78.965 61.375 80Z" fill="#544F57"/>
<path d="M71.5 81.875H67.5C66.4645 81.875 65.625 81.0355 65.625 80C65.625 78.9645 66.4645 78.125 67.5 78.125H71.5C72.5355 78.125 73.375 78.9645 73.375 80C73.375 81.0355 72.5355 81.875 71.5 81.875Z" fill="#544F57"/>
<path d="M39.5 82.875C39.0201 82.875 38.5402 82.6919 38.1742 82.3257L36.1742 80.3257C35.442 79.5936 35.442 78.4064 36.1742 77.6741C36.9064 76.942 38.0936 76.942 38.8259 77.6741L39.5001 78.3484L40.1744 77.6741C40.9065 76.942 42.0938 76.942 42.826 77.6741C43.5582 78.4062 43.5582 79.5935 42.826 80.3257L40.826 82.3257C40.4597 82.6919 39.9799 82.875 39.5 82.875Z" fill="#FF6A4E"/>
<path d="M37.5 43H75.5V71H37.5V43Z" fill="#98F9FF"/>
<path d="M56.5 43H75.5V71H56.5V43Z" fill="#7DD5F4"/>
<path d="M75.5 57.1775V71H37.5V62.4663L47.2388 53.6125C47.9438 52.9713 49.0175 52.9613 49.735 53.5888L56.415 59.4338L56.5 59.3488L66.1738 49.6738C66.5388 49.3088 67.0363 49.1075 67.555 49.1263C68.0713 49.1413 68.5587 49.3688 68.9012 49.7538L75.5 57.1775Z" fill="#00A763"/>
<path d="M75.5 57.1775V71H56.5V59.3488L66.1738 49.6738C66.5388 49.3088 67.0363 49.1075 67.555 49.1263C68.0712 49.1413 68.5587 49.3688 68.9012 49.7538L75.5 57.1775Z" fill="#008475"/>
<path d="M75.5 41.125H37.5C36.465 41.125 35.625 41.965 35.625 43V71C35.625 72.035 36.465 72.875 37.5 72.875H75.5C76.535 72.875 77.375 72.035 77.375 71V43C77.375 41.965 76.535 41.125 75.5 41.125ZM73.625 69.125H39.375V44.875H73.625V69.125Z" fill="#756E78"/>
<path d="M77.375 43V71C77.375 72.035 76.535 72.875 75.5 72.875H56.5V69.125H73.625V44.875H56.5V41.125H75.5C76.535 41.125 77.375 41.965 77.375 43Z" fill="#544F57"/>
<path d="M88.5 29.625V35.875H24.5V29.625C24.5 26.5187 27.0187 24 30.125 24H82.875C85.9813 24 88.5 26.5187 88.5 29.625Z" fill="#70D840"/>
<path d="M88.5 29.625V35.875H56.5V24H82.875C85.9813 24 88.5 26.5187 88.5 29.625Z" fill="#00A763"/>
</g>
<defs>
<clipPath id="clip0_3917_85652">
<rect width="64" height="64" fill="white" transform="translate(24.5 24)"/>
</clipPath>
</defs>
</svg>
