<svg width="23" height="26" viewBox="0 0 23 26" fill="none" xmlns="http://www.w3.org/2000/svg">
<path d="M21.9833 21.6064C21.8757 21.6176 21.7682 21.6176 21.6606 21.6288C21.3702 21.5841 21.0798 21.5617 20.8109 21.6847C20.6711 21.6959 20.5205 21.6959 20.3807 21.7071C20.3484 21.6959 20.3162 21.6847 20.2732 21.6847C19.4235 21.7294 18.5738 21.763 17.7241 21.8188C17.638 21.8188 17.5627 21.8747 17.4767 21.9083C17.4875 21.6959 17.4014 21.517 17.3046 21.327C16.9389 20.6115 16.5732 19.8849 16.2075 19.1695C16.0355 18.8229 15.8741 18.4764 15.702 18.1298C15.218 17.1685 14.7233 16.2071 14.2285 15.2457C14.3683 15.2345 14.5082 15.2234 14.648 15.2122C15.0675 15.1898 15.4009 14.9998 15.6267 14.6309C15.7343 14.4632 15.8311 14.2843 15.9064 14.0943C16.0139 13.8595 16.1107 13.6248 16.2075 13.39C16.4657 12.7752 16.9067 12.3839 17.5305 12.2051C18.1436 13.4571 18.7459 14.7203 19.3589 15.9723C19.4557 16.1735 19.574 16.3524 19.6924 16.5425C20.0365 17.2579 20.37 17.9733 20.7141 18.6776C20.7464 18.7335 20.8217 18.767 20.8755 18.8117C20.8432 19.013 20.9615 19.1695 21.0368 19.326C21.1981 19.6613 21.3595 19.9855 21.5316 20.3097C21.7252 20.6898 21.9188 21.0587 22.1124 21.4276C22.0801 21.4947 22.0371 21.5506 21.9833 21.6064Z" fill="white"/>
<path d="M2.74303 21.7954C2.60107 21.7842 2.4482 21.7842 2.30625 21.7729C2.02234 21.6826 1.72752 21.6601 1.43269 21.7165C1.29074 21.7052 1.13787 21.6939 0.995913 21.6939C0.963155 21.6375 0.919477 21.5811 0.886719 21.5247C1.14879 21.0282 1.41085 20.5431 1.662 20.0353C1.84763 19.6743 2.0005 19.2907 2.17521 18.9183C2.22981 18.8281 2.30625 18.7378 2.34993 18.6475C2.66659 18.027 2.98325 17.3952 3.289 16.7633C3.33268 16.6618 3.36544 16.5602 3.39819 16.4587C3.42003 16.4361 3.46371 16.4136 3.47463 16.3797C4.16256 14.9919 4.85048 13.5929 5.53841 12.2051C6.17174 12.3743 6.60851 12.7805 6.8815 13.3898C7.00161 13.6606 7.11081 13.9313 7.23092 14.2021C7.41655 14.6196 7.67862 14.9694 8.08264 15.1725C8.13724 15.2966 8.19183 15.353 8.30103 15.2289C8.4539 15.2401 8.60678 15.2401 8.77057 15.2514C8.77057 15.4884 8.68321 15.6915 8.58494 15.8833C8.21367 16.6054 7.84241 17.3387 7.47115 18.0721C7.03437 18.9296 6.59759 19.7984 6.16082 20.6559C6.10622 20.7574 6.0407 20.8477 5.9861 20.938C5.82231 21.2539 5.62576 21.5472 5.57116 21.9083C4.92692 21.8631 4.29359 21.818 3.64934 21.7842C3.3436 21.7842 3.03785 21.7954 2.74303 21.7954Z" fill="#4DA656"/>
<path d="M10.6774 15.9349C10.9964 15.7253 11.304 15.5275 11.623 15.318C11.7939 15.2016 11.9534 15.0735 12.1357 14.9572C12.5116 14.7127 12.9218 14.5963 13.3661 14.6429C13.7193 14.6778 14.0725 14.7244 14.4256 14.7709C14.9497 15.7719 15.4624 16.7729 15.9865 17.7739C16.1687 18.1347 16.3396 18.4955 16.5219 18.8563C16.9093 19.6129 17.2966 20.3578 17.684 21.1027C17.7865 21.2889 17.8663 21.4868 17.8663 21.7079C17.3992 22.3132 16.9321 22.9068 16.4536 23.512C16.0548 24.0242 15.6447 24.5246 15.2345 25.0368C15.1092 25.1997 14.9611 25.351 14.8016 25.5489C14.7105 25.4325 14.6307 25.351 14.5851 25.2579C14.3801 24.8738 14.1864 24.4781 13.9813 24.0824C13.9243 23.966 13.8446 23.8612 13.7648 23.7448C13.4003 23.0115 13.0357 22.2783 12.6597 21.545C12.6142 21.417 12.5686 21.2889 12.5116 21.1725C11.9306 20.0086 11.3496 18.8563 10.7571 17.704C10.7116 17.6226 10.6546 17.5527 10.5976 17.4712C10.5065 17.2501 10.4153 17.0289 10.3014 16.8194C10.2672 16.7496 10.1647 16.7147 10.0964 16.6681C10.0622 16.4586 10.0166 16.2375 9.98242 16.028C10.0964 16.028 10.2217 16.028 10.3356 16.028C10.5407 16.1211 10.5407 16.1211 10.6774 15.9349Z" fill="#4DA656"/>
<path d="M12.3 16.0472C12.3325 16.2573 12.3758 16.4791 12.4083 16.6892C12.3 16.9577 12.1917 17.2379 12.0725 17.5063C12.0509 17.5297 12.0184 17.553 11.9967 17.588C11.4011 18.837 10.7947 20.0744 10.199 21.3233C10.1774 21.37 10.1666 21.4284 10.1557 21.4868C9.79836 22.2105 9.44098 22.9459 9.08361 23.6696C9.07278 23.7046 9.07278 23.7396 9.06195 23.7863C8.87785 24.1365 8.68292 24.4867 8.50965 24.8485C8.39053 25.082 8.28223 25.3271 8.16311 25.5489C7.94652 25.5022 7.87071 25.3271 7.77325 25.1987C7.10182 24.3116 6.4304 23.4245 5.75897 22.5373C5.54238 22.2572 5.33662 21.9537 5.13086 21.6619C5.18501 21.2883 5.37994 20.9848 5.54238 20.658C5.59653 20.5529 5.6615 20.4596 5.71565 20.3662C6.14883 19.479 6.58201 18.5802 7.01519 17.6931C7.38339 16.9344 7.75159 16.1873 8.11979 15.4286C8.21726 15.2185 8.31472 15.0083 8.30389 14.7749C8.66126 14.7282 9.00781 14.6815 9.36518 14.6465C9.86333 14.5881 10.3182 14.7165 10.7297 15.0317C10.8488 15.1251 10.9679 15.2068 11.0762 15.3002C11.4553 15.6153 11.856 15.8721 12.3 16.0472Z" fill="white"/>
<path d="M6.36928 17.3188C6.07659 17.0611 5.7839 16.8151 5.49121 16.5574C3.99264 15.222 3.03261 13.5586 2.62285 11.5907C2.50577 11.005 2.42382 10.3959 2.41211 9.79848C2.41211 8.09996 2.82188 6.48344 3.69995 5.0192C4.0863 4.38665 4.53119 3.80095 5.05803 3.27383C5.11657 3.22697 5.15169 3.15669 5.19852 3.09812C5.50292 2.84041 5.80731 2.58271 6.11171 2.325C6.46294 2.09072 6.81417 1.85644 7.1654 1.63388C7.3293 1.57531 7.49321 1.51674 7.64541 1.43474C10.2445 0.263351 12.8553 0.251637 15.4544 1.41131C15.6183 1.4816 15.7822 1.54017 15.9344 1.61045C16.3207 1.86816 16.6954 2.11415 17.0817 2.37186C17.3861 2.62956 17.7022 2.88727 18.0066 3.14497C18.2408 3.42611 18.4749 3.70724 18.7091 4.00009C19.7628 5.32376 20.3833 6.82314 20.6291 8.50994C21.0975 11.7313 19.6574 15.1634 16.9764 17.1197C16.8827 17.19 16.8008 17.272 16.7071 17.3422C16.391 17.5414 16.0632 17.7288 15.7471 17.9279C15.6417 17.9748 15.548 18.0216 15.4427 18.0685C15.3373 18.1154 15.2202 18.1739 15.1149 18.2208C15.0329 18.2559 14.9392 18.2794 14.8573 18.3145C14.7519 18.3613 14.6348 18.4082 14.5295 18.4433C14.0143 18.5722 13.4992 18.6893 12.9841 18.8182C12.9021 18.8299 12.8319 18.8416 12.7499 18.8533C11.9304 18.8533 11.1109 18.8533 10.2913 18.8416C10.2094 18.8299 10.1391 18.8065 10.0572 18.7948C9.96352 18.7713 9.86986 18.7362 9.7762 18.7128C8.68739 18.4902 7.68053 18.0919 6.73222 17.5179C6.65026 17.4477 6.50977 17.3891 6.36928 17.3188ZM11.5323 17.3188C11.7665 17.3188 12.0006 17.3071 12.2348 17.3188C12.668 17.3422 13.0894 17.2368 13.4992 17.1314C14.2134 16.944 14.9041 16.6628 15.548 16.288C16.0046 16.0303 16.4261 15.714 16.8125 15.3509C17.5618 14.648 18.1471 13.8398 18.5803 12.9027C18.9198 12.1764 19.154 11.4033 19.2125 10.6067C19.2828 9.84533 19.2828 9.0605 19.1306 8.27567C18.8262 6.74114 18.1705 5.40576 17.07 4.30465C16.7773 4.0118 16.4729 3.7541 16.1451 3.49639C15.2671 2.81698 14.2836 2.39528 13.2065 2.16101C12.7148 2.05558 12.1997 2.12586 11.708 1.96187C11.5909 1.92673 11.4387 1.97358 11.3099 1.99701C11.1928 2.00872 11.0757 2.06729 10.9704 2.05558C10.2913 2.03215 9.67083 2.23129 9.03861 2.43042C7.52833 2.9107 6.41611 3.91809 5.43267 5.1012C5.28047 5.27691 5.15169 5.47604 5.03461 5.67518C4.56631 6.46001 4.20337 7.30341 4.06288 8.2171C3.99264 8.69737 3.86385 9.16593 3.89898 9.65791C3.92239 10.0093 3.95751 10.349 3.99264 10.7004C4.098 11.579 4.37899 12.399 4.76534 13.1955C5.25706 14.2029 6.00635 14.9877 6.83759 15.6906C7.39955 16.1708 8.03176 16.5457 8.74592 16.8034C9.54204 17.0845 10.3265 17.3305 11.1811 17.2954C11.2982 17.3188 11.4153 17.3188 11.5323 17.3188Z" fill="url(#paint0_linear_4950_100542)"/>
<path d="M6.36928 17.3188C6.07659 17.0611 5.7839 16.8151 5.49121 16.5574C3.99264 15.222 3.03261 13.5586 2.62285 11.5907C2.50577 11.005 2.42382 10.3959 2.41211 9.79848C2.41211 8.09996 2.82188 6.48344 3.69995 5.0192C4.0863 4.38665 4.53119 3.80095 5.05803 3.27383C5.11657 3.22697 5.15169 3.15669 5.19852 3.09812C5.50292 2.84041 5.80731 2.58271 6.11171 2.325C6.46294 2.09072 6.81417 1.85644 7.1654 1.63388C7.3293 1.57531 7.49321 1.51674 7.64541 1.43474C10.2445 0.263351 12.8553 0.251637 15.4544 1.41131C15.6183 1.4816 15.7822 1.54017 15.9344 1.61045C16.3207 1.86816 16.6954 2.11415 17.0817 2.37186C17.3861 2.62956 17.7022 2.88727 18.0066 3.14497C18.2408 3.42611 18.4749 3.70724 18.7091 4.00009C19.7628 5.32376 20.3833 6.82314 20.6291 8.50994C21.0975 11.7313 19.6574 15.1634 16.9764 17.1197C16.8827 17.19 16.8008 17.272 16.7071 17.3422C16.391 17.5414 16.0632 17.7288 15.7471 17.9279C15.6417 17.9748 15.548 18.0216 15.4427 18.0685C15.3373 18.1154 15.2202 18.1739 15.1149 18.2208C15.0329 18.2559 14.9392 18.2794 14.8573 18.3145C14.7519 18.3613 14.6348 18.4082 14.5295 18.4433C14.0143 18.5722 13.4992 18.6893 12.9841 18.8182C12.9021 18.8299 12.8319 18.8416 12.7499 18.8533C11.9304 18.8533 11.1109 18.8533 10.2913 18.8416C10.2094 18.8299 10.1391 18.8065 10.0572 18.7948C9.96352 18.7713 9.86986 18.7362 9.7762 18.7128C8.68739 18.4902 7.68053 18.0919 6.73222 17.5179C6.65026 17.4477 6.50977 17.3891 6.36928 17.3188ZM11.5323 17.3188C11.7665 17.3188 12.0006 17.3071 12.2348 17.3188C12.668 17.3422 13.0894 17.2368 13.4992 17.1314C14.2134 16.944 14.9041 16.6628 15.548 16.288C16.0046 16.0303 16.4261 15.714 16.8125 15.3509C17.5618 14.648 18.1471 13.8398 18.5803 12.9027C18.9198 12.1764 19.154 11.4033 19.2125 10.6067C19.2828 9.84533 19.2828 9.0605 19.1306 8.27567C18.8262 6.74114 18.1705 5.40576 17.07 4.30465C16.7773 4.0118 16.4729 3.7541 16.1451 3.49639C15.2671 2.81698 14.2836 2.39528 13.2065 2.16101C12.7148 2.05558 12.1997 2.12586 11.708 1.96187C11.5909 1.92673 11.4387 1.97358 11.3099 1.99701C11.1928 2.00872 11.0757 2.06729 10.9704 2.05558C10.2913 2.03215 9.67083 2.23129 9.03861 2.43042C7.52833 2.9107 6.41611 3.91809 5.43267 5.1012C5.28047 5.27691 5.15169 5.47604 5.03461 5.67518C4.56631 6.46001 4.20337 7.30341 4.06288 8.2171C3.99264 8.69737 3.86385 9.16593 3.89898 9.65791C3.92239 10.0093 3.95751 10.349 3.99264 10.7004C4.098 11.579 4.37899 12.399 4.76534 13.1955C5.25706 14.2029 6.00635 14.9877 6.83759 15.6906C7.39955 16.1708 8.03176 16.5457 8.74592 16.8034C9.54204 17.0845 10.3265 17.3305 11.1811 17.2954C11.2982 17.3188 11.4153 17.3188 11.5323 17.3188Z" fill="url(#paint1_linear_4950_100542)"/>
<path d="M11.5251 17.398C11.4074 17.398 11.2897 17.398 11.172 17.398C10.3126 17.4333 9.52389 17.1862 8.72338 16.9038C8.01706 16.6449 7.36959 16.2683 6.80453 15.7858C5.96871 15.0797 5.2153 14.2912 4.72087 13.2791C4.33239 12.4788 4.04986 11.6668 3.94391 10.7724C3.89682 10.4194 3.87328 10.0781 3.84974 9.72502C3.81442 9.23075 3.94391 8.74824 4.01454 8.27751C4.15581 7.35957 4.50897 6.51224 4.99163 5.72376C5.10935 5.52369 5.25062 5.32363 5.39188 5.1471C6.38074 3.95849 7.49908 2.94641 9.01768 2.4639C9.65338 2.26384 10.2891 2.06377 10.9601 2.08731C11.0778 2.08731 11.1837 2.04024 11.3015 2.02847C11.431 2.00493 11.584 1.95786 11.7017 1.99316C12.1962 2.15792 12.7024 2.08731 13.2086 2.19323C14.3034 2.42859 15.2922 2.85226 16.1633 3.53483C16.493 3.78197 16.799 4.05264 17.0933 4.34685C18.2117 5.45308 18.8592 6.79468 19.1652 8.33635C19.3183 9.11307 19.3065 9.90155 19.2476 10.6783C19.177 11.4668 18.9533 12.2435 18.6119 12.9849C18.1764 13.9146 17.5878 14.7384 16.8344 15.4445C16.4459 15.8093 16.0221 16.1153 15.563 16.386C14.9155 16.7625 14.2327 17.045 13.5029 17.2333C13.0908 17.3392 12.667 17.4451 12.2315 17.4216C11.996 17.3863 11.7606 17.398 11.5251 17.398ZM5.15644 9.68972C5.15644 10.0075 5.12112 10.3134 5.16821 10.5959C5.33302 11.5609 5.60378 12.5024 6.19238 13.3144C6.8163 14.1735 7.55795 14.9267 8.51149 15.4327C9.4768 15.9505 10.501 16.2094 11.5958 16.233C12.0549 16.2447 12.4905 16.1741 12.926 16.08C13.4087 15.9858 13.8796 15.8446 14.3034 15.5975C14.4917 15.4916 14.6918 15.3974 14.8802 15.3033C15.5865 14.962 16.1398 14.4324 16.6225 13.844C17.0933 13.2673 17.423 12.5965 17.7173 11.9022C17.9645 11.3255 17.9998 10.69 18.0822 10.0781C18.1646 9.47789 18.0233 8.8777 17.8821 8.28928C17.8232 8.00683 17.7173 7.72439 17.6113 7.45372C17.3288 6.74761 16.9756 6.06504 16.4577 5.48839C15.6689 4.61752 14.7272 3.95849 13.6088 3.59367C13.1497 3.44068 12.667 3.33477 12.1844 3.29946C11.584 3.25239 10.9836 3.27592 10.3715 3.39361C9.40616 3.5819 8.55857 4.00557 7.7463 4.52338C7.67567 4.57045 7.62858 4.62929 7.56972 4.67637C7.2401 5.00588 6.89871 5.32363 6.58086 5.67668C6.20416 6.07681 5.88631 6.53578 5.68618 7.04182C5.35656 7.88915 5.06226 8.76001 5.15644 9.68972Z" fill="url(#paint2_linear_4950_100542)"/>
<path d="M11.5251 17.398C11.4074 17.398 11.2897 17.398 11.172 17.398C10.3126 17.4333 9.52389 17.1862 8.72338 16.9038C8.01706 16.6449 7.36959 16.2683 6.80453 15.7858C5.96871 15.0797 5.2153 14.2912 4.72087 13.2791C4.33239 12.4788 4.04986 11.6668 3.94391 10.7724C3.89682 10.4194 3.87328 10.0781 3.84974 9.72502C3.81442 9.23075 3.94391 8.74824 4.01454 8.27751C4.15581 7.35957 4.50897 6.51224 4.99163 5.72376C5.10935 5.52369 5.25062 5.32363 5.39188 5.1471C6.38074 3.95849 7.49908 2.94641 9.01768 2.4639C9.65338 2.26384 10.2891 2.06377 10.9601 2.08731C11.0778 2.08731 11.1837 2.04024 11.3015 2.02847C11.431 2.00493 11.584 1.95786 11.7017 1.99316C12.1962 2.15792 12.7024 2.08731 13.2086 2.19323C14.3034 2.42859 15.2922 2.85226 16.1633 3.53483C16.493 3.78197 16.799 4.05264 17.0933 4.34685C18.2117 5.45308 18.8592 6.79468 19.1652 8.33635C19.3183 9.11307 19.3065 9.90155 19.2476 10.6783C19.177 11.4668 18.9533 12.2435 18.6119 12.9849C18.1764 13.9146 17.5878 14.7384 16.8344 15.4445C16.4459 15.8093 16.0221 16.1153 15.563 16.386C14.9155 16.7625 14.2327 17.045 13.5029 17.2333C13.0908 17.3392 12.667 17.4451 12.2315 17.4216C11.996 17.3863 11.7606 17.398 11.5251 17.398ZM5.15644 9.68972C5.15644 10.0075 5.12112 10.3134 5.16821 10.5959C5.33302 11.5609 5.60378 12.5024 6.19238 13.3144C6.8163 14.1735 7.55795 14.9267 8.51149 15.4327C9.4768 15.9505 10.501 16.2094 11.5958 16.233C12.0549 16.2447 12.4905 16.1741 12.926 16.08C13.4087 15.9858 13.8796 15.8446 14.3034 15.5975C14.4917 15.4916 14.6918 15.3974 14.8802 15.3033C15.5865 14.962 16.1398 14.4324 16.6225 13.844C17.0933 13.2673 17.423 12.5965 17.7173 11.9022C17.9645 11.3255 17.9998 10.69 18.0822 10.0781C18.1646 9.47789 18.0233 8.8777 17.8821 8.28928C17.8232 8.00683 17.7173 7.72439 17.6113 7.45372C17.3288 6.74761 16.9756 6.06504 16.4577 5.48839C15.6689 4.61752 14.7272 3.95849 13.6088 3.59367C13.1497 3.44068 12.667 3.33477 12.1844 3.29946C11.584 3.25239 10.9836 3.27592 10.3715 3.39361C9.40616 3.5819 8.55857 4.00557 7.7463 4.52338C7.67567 4.57045 7.62858 4.62929 7.56972 4.67637C7.2401 5.00588 6.89871 5.32363 6.58086 5.67668C6.20416 6.07681 5.88631 6.53578 5.68618 7.04182C5.35656 7.88915 5.06226 8.76001 5.15644 9.68972Z" fill="#363636" fill-opacity="0.2"/>
<g filter="url(#filter0_d_4950_100542)">
<path d="M10.9953 3.12386C15.2437 3.06518 18.2715 6.1752 18.2246 9.76639C18.2011 11.6089 17.5439 13.1698 16.2177 14.4725C14.9268 15.7517 13.3659 16.3854 11.5821 16.362C9.72779 16.3385 8.0965 15.6695 6.79382 14.2847C5.59676 12.9938 4.97476 11.4446 4.98649 9.71944C4.99823 7.8417 5.72585 6.19867 7.12242 4.88425C8.37816 3.69892 9.89209 3.18254 10.9953 3.12386Z" fill="url(#paint3_linear_4950_100542)"/>
<path d="M10.9953 3.12386C15.2437 3.06518 18.2715 6.1752 18.2246 9.76639C18.2011 11.6089 17.5439 13.1698 16.2177 14.4725C14.9268 15.7517 13.3659 16.3854 11.5821 16.362C9.72779 16.3385 8.0965 15.6695 6.79382 14.2847C5.59676 12.9938 4.97476 11.4446 4.98649 9.71944C4.99823 7.8417 5.72585 6.19867 7.12242 4.88425C8.37816 3.69892 9.89209 3.18254 10.9953 3.12386Z" fill="url(#paint4_linear_4950_100542)"/>
</g>
<g filter="url(#filter1_i_4950_100542)">
<path d="M10.3778 8.69775C9.93326 8.74042 9.48876 8.59819 9.00258 8.5413C9.00258 8.37063 8.9748 8.2284 9.00258 8.11461C9.25261 7.19013 9.83602 6.59277 10.7389 6.36521C11.2807 6.22298 11.8363 6.2372 12.378 6.4221C13.6699 6.84878 14.2255 8.21418 13.5865 9.45156C13.4476 9.7218 13.2531 9.96358 13.0448 10.1769C12.6003 10.6321 12.1419 11.0445 11.6835 11.4996C11.5724 11.5992 11.489 11.7414 11.3501 11.9263C12.1974 12.0686 12.9892 11.9121 13.781 12.0401C13.8782 12.4668 13.8366 12.8935 13.8088 13.3344C13.7254 13.3628 13.6421 13.4197 13.5448 13.4197C12.1558 13.4197 10.7667 13.4197 9.39153 13.4197C9.30818 13.4197 9.22484 13.3913 9.11371 13.3628C9.00259 12.9788 9.05815 12.5948 9.05815 12.225C9.05815 12.0117 9.21094 11.8837 9.34985 11.7557C10.0166 11.1299 10.6695 10.5041 11.3362 9.87825C11.5029 9.7218 11.6835 9.55112 11.8224 9.36623C11.9474 9.19555 12.0585 9.01066 12.128 8.81154C12.253 8.42752 12.0863 8.00083 11.7668 7.83016C11.4196 7.64526 10.9473 7.7306 10.7111 8.07195C10.5861 8.24262 10.5028 8.47019 10.3778 8.69775Z" fill="#A8A8A8"/>
</g>
<defs>
<filter id="filter0_d_4950_100542" x="1.98633" y="1.12305" width="19.2383" height="19.2402" filterUnits="userSpaceOnUse" color-interpolation-filters="sRGB">
<feFlood flood-opacity="0" result="BackgroundImageFix"/>
<feColorMatrix in="SourceAlpha" type="matrix" values="0 0 0 0 0 0 0 0 0 0 0 0 0 0 0 0 0 0 127 0" result="hardAlpha"/>
<feOffset dy="1"/>
<feGaussianBlur stdDeviation="1.5"/>
<feComposite in2="hardAlpha" operator="out"/>
<feColorMatrix type="matrix" values="0 0 0 0 0.354167 0 0 0 0 0.354167 0 0 0 0 0.354167 0 0 0 0.25 0"/>
<feBlend mode="normal" in2="BackgroundImageFix" result="effect1_dropShadow_4950_100542"/>
<feBlend mode="normal" in="SourceGraphic" in2="effect1_dropShadow_4950_100542" result="shape"/>
</filter>
<filter id="filter1_i_4950_100542" x="8.99023" y="6.26953" width="4.86133" height="8.15039" filterUnits="userSpaceOnUse" color-interpolation-filters="sRGB">
<feFlood flood-opacity="0" result="BackgroundImageFix"/>
<feBlend mode="normal" in="SourceGraphic" in2="BackgroundImageFix" result="shape"/>
<feColorMatrix in="SourceAlpha" type="matrix" values="0 0 0 0 0 0 0 0 0 0 0 0 0 0 0 0 0 0 127 0" result="hardAlpha"/>
<feOffset dy="1"/>
<feGaussianBlur stdDeviation="2"/>
<feComposite in2="hardAlpha" operator="arithmetic" k2="-1" k3="1"/>
<feColorMatrix type="matrix" values="0 0 0 0 0.304167 0 0 0 0 0.304167 0 0 0 0 0.304167 0 0 0 0.4 0"/>
<feBlend mode="normal" in2="shape" result="effect1_innerShadow_4950_100542"/>
</filter>
<linearGradient id="paint0_linear_4950_100542" x1="19.2866" y1="2.97989" x2="3.84215" y2="16.1363" gradientUnits="userSpaceOnUse">
<stop stop-color="#9E9E9E"/>
<stop offset="0.5" stop-color="#FDFDFC" stop-opacity="0.104167"/>
<stop offset="1" stop-color="#FFD748"/>
</linearGradient>
<linearGradient id="paint1_linear_4950_100542" x1="6.84523" y1="1.69286" x2="16.7125" y2="17.7093" gradientUnits="userSpaceOnUse">
<stop stop-color="#A2A2A2"/>
<stop offset="0.5" stop-color="#FDFDFC"/>
<stop offset="1" stop-color="#A1A1A1"/>
</linearGradient>
<linearGradient id="paint2_linear_4950_100542" x1="7.5842" y1="2.94575" x2="15.9097" y2="16.4596" gradientUnits="userSpaceOnUse">
<stop stop-color="#A2A2A2"/>
<stop offset="0.5" stop-color="#FDFDFC"/>
<stop offset="1" stop-color="#A1A1A1"/>
</linearGradient>
<linearGradient id="paint3_linear_4950_100542" x1="17.1908" y1="4.88142" x2="6.02007" y2="14.3967" gradientUnits="userSpaceOnUse">
<stop stop-color="#FFD43C"/>
<stop offset="0.5" stop-color="#FDFDFC" stop-opacity="0.104167"/>
<stop offset="1" stop-color="#FFD748"/>
</linearGradient>
<linearGradient id="paint4_linear_4950_100542" x1="8.1926" y1="3.95052" x2="15.3297" y2="15.5348" gradientUnits="userSpaceOnUse">
<stop stop-color="#A2A2A2"/>
<stop offset="0.5" stop-color="#FDFDFC"/>
<stop offset="1" stop-color="#A1A1A1"/>
</linearGradient>
</defs>
</svg>
