<svg width="81" height="80" viewBox="0 0 81 80" fill="none" xmlns="http://www.w3.org/2000/svg">
<g id="Icon" clip-path="url(#clip0_3168_123148)">
<g id="Layer_2_00000065075017556049499070000000165513497331853238_">
<g id="celebration_firework">
<path id="Vector" d="M8.28124 73.4692L40.5312 60.2036C41.4219 59.8442 41.7187 58.7661 41.1875 57.8598C39.6875 55.3286 36.5312 50.4067 32.5312 46.4067C28.6562 42.5317 23.9531 39.5629 21.5 38.1411C20.6094 37.6254 19.5469 37.9379 19.1875 38.8129L5.90624 71.0942C5.32812 72.5005 6.89062 74.0473 8.28124 73.4692Z" fill="#FFC655"/>
<path id="Vector_2" d="M41.3438 59.2496C40.3907 60.2027 34.7032 56.5621 28.7657 50.6246C22.8282 44.6871 19.1875 38.984 20.125 38.0309C21.0782 37.0777 26.7969 40.6871 32.75 46.6402C38.7032 52.5934 42.2813 58.3121 41.3438 59.2496Z" fill="#D67909"/>
<path id="Vector_3" d="M21.6875 67.9531L14.1563 71.0625L8.32812 65.2187L11.4219 57.6875L21.6875 67.9531Z" fill="#D5582D"/>
<path id="Vector_4" d="M35.3438 62.3438L27.8125 65.4375L13.9375 51.5625L17.0313 44.0312L35.3438 62.3438Z" fill="#D5582D"/>
<g id="Group">
<path id="Vector_5" d="M17.5 20.5469C18.7772 20.5469 19.8125 19.5115 19.8125 18.2344C19.8125 16.9572 18.7772 15.9219 17.5 15.9219C16.2228 15.9219 15.1875 16.9572 15.1875 18.2344C15.1875 19.5115 16.2228 20.5469 17.5 20.5469Z" fill="#FFC655"/>
<path id="Vector_6" d="M17.5 6.09375C18.7812 6.09375 19.8125 7.125 19.8125 8.40625V12.6563C19.8125 13.9375 18.7812 14.9688 17.5 14.9688C16.2344 14.9688 15.1875 13.9375 15.1875 12.6563V8.40625C15.1875 7.125 16.2344 6.09375 17.5 6.09375Z" fill="#FFC655"/>
<path id="Vector_7" d="M7.67188 15.9219H11.9219C13.2031 15.9219 14.2344 16.9531 14.2344 18.2344C14.2344 19.5156 13.2031 20.5469 11.9219 20.5469H7.67188C6.39063 20.5469 5.35938 19.5156 5.35938 18.2344C5.35938 16.9531 6.39063 15.9219 7.67188 15.9219Z" fill="#FFC655"/>
<path id="Vector_8" d="M17.5 21.5C18.7812 21.5 19.8125 22.5312 19.8125 23.8125V28.0625C19.8125 29.3438 18.7812 30.375 17.5 30.375C16.2188 30.375 15.1875 29.3438 15.1875 28.0625V23.8125C15.1875 22.5312 16.2344 21.5 17.5 21.5Z" fill="#FFC655"/>
<path id="Vector_9" d="M23.0781 15.9219H27.3281C28.6094 15.9219 29.6406 16.9531 29.6406 18.2344C29.6406 19.5156 28.6094 20.5469 27.3281 20.5469H23.0781C21.7969 20.5469 20.7656 19.5156 20.7656 18.2344C20.7656 16.9531 21.7969 15.9219 23.0781 15.9219Z" fill="#FFC655"/>
</g>
<path id="Vector_10" d="M66.9062 62.8438C68.1834 62.8438 69.2187 61.8084 69.2187 60.5312C69.2187 59.2541 68.1834 58.2188 66.9062 58.2188C65.6291 58.2188 64.5938 59.2541 64.5938 60.5312C64.5938 61.8084 65.6291 62.8438 66.9062 62.8438Z" fill="#6CE49E"/>
<path id="Vector_11" d="M66.9062 48.3906C68.1875 48.3906 69.2187 49.4219 69.2187 50.7031V54.9531C69.2187 56.2344 68.1875 57.2656 66.9062 57.2656C65.625 57.2656 64.5938 56.2344 64.5938 54.9531V50.7031C64.5938 49.4219 65.625 48.3906 66.9062 48.3906Z" fill="#6CE49E"/>
<path id="Vector_12" d="M57.0781 58.2188H61.3281C62.6094 58.2188 63.6406 59.25 63.6406 60.5312C63.6406 61.8125 62.6094 62.8438 61.3281 62.8438H57.0781C55.7969 62.8438 54.7656 61.8125 54.7656 60.5312C54.7656 59.25 55.7969 58.2188 57.0781 58.2188Z" fill="#6CE49E"/>
<path id="Vector_13" d="M66.9062 63.7969C68.1875 63.7969 69.2187 64.8281 69.2187 66.1094V70.3594C69.2187 71.6406 68.1875 72.6719 66.9062 72.6719C65.625 72.6719 64.5938 71.6406 64.5938 70.3594V66.1094C64.5938 64.8281 65.625 63.7969 66.9062 63.7969Z" fill="#6CE49E"/>
<path id="Vector_14" d="M72.4844 58.2188H76.7344C78.0156 58.2188 79.0469 59.25 79.0469 60.5312C79.0469 61.8125 78.0156 62.8438 76.7344 62.8438H72.4844C71.2031 62.8438 70.1719 61.8125 70.1719 60.5312C70.1719 59.25 71.2031 58.2188 72.4844 58.2188Z" fill="#6CE49E"/>
<path id="Vector_15" d="M63.6406 17.2812C64.9178 17.2812 65.9531 16.2459 65.9531 14.9688C65.9531 13.6916 64.9178 12.6562 63.6406 12.6562C62.3635 12.6562 61.3281 13.6916 61.3281 14.9688C61.3281 16.2459 62.3635 17.2812 63.6406 17.2812Z" fill="#74D2EF"/>
<path id="Vector_16" d="M63.6406 2.82812C64.9219 2.82812 65.9531 3.85938 65.9531 5.14063V9.39063C65.9531 10.6719 64.9219 11.7031 63.6406 11.7031C62.3594 11.7031 61.3281 10.6719 61.3281 9.39063V5.14063C61.3281 3.85938 62.375 2.82812 63.6406 2.82812Z" fill="#74D2EF"/>
<path id="Vector_17" d="M51.5 14.9688C51.5 13.6875 52.5313 12.6562 53.8125 12.6562H58.0625C59.3438 12.6562 60.375 13.6875 60.375 14.9688C60.375 16.25 59.3438 17.2812 58.0625 17.2812H53.8125C52.5469 17.2812 51.5 16.25 51.5 14.9688Z" fill="#74D2EF"/>
<path id="Vector_18" d="M63.6406 27.1094C62.3594 27.1094 61.3281 26.0781 61.3281 24.7969V20.5469C61.3281 19.2656 62.3594 18.2344 63.6406 18.2344C64.9219 18.2344 65.9531 19.2656 65.9531 20.5469V24.7969C65.9688 26.0781 64.9219 27.1094 63.6406 27.1094Z" fill="#74D2EF"/>
<path id="Vector_19" d="M75.7969 14.9688C75.7969 16.25 74.7656 17.2812 73.4844 17.2812H69.2344C67.9531 17.2812 66.9219 16.25 66.9219 14.9688C66.9219 13.6875 67.9531 12.6562 69.2344 12.6562H73.4844C74.75 12.6562 75.7969 13.6875 75.7969 14.9688Z" fill="#74D2EF"/>
<path id="Vector_20" d="M26.7031 47.4528C25.5156 46.9997 24.9062 45.6716 25.3594 44.4684C25.5781 43.9059 25.9844 43.4528 26.5312 43.2028C28.5469 42.2497 31.0156 40.6872 31.3281 38.6403C31.625 36.7497 30.0156 34.7497 29.3281 34.1091C28.5937 33.4997 24.5 29.7965 25.4531 25.6715C26.0937 22.9215 28.6875 20.9684 33.1719 19.8903C36.1406 19.1715 37.3594 18.234 37.5 17.5778C37.7187 16.609 36.2656 14.7966 35.1562 13.8903C34.1719 13.0778 34.0312 11.6247 34.8437 10.6403C35.6406 9.67155 37.0781 9.5153 38.0625 10.2966C38.5625 10.7028 42.9375 14.3903 42 18.5778C41.375 21.3278 38.7812 23.2653 34.25 24.359C31.3125 25.0622 30.0937 26.0309 29.9375 26.6872C29.7031 27.7028 31.2031 29.6403 32.3281 30.5934L32.4062 30.6559C32.5781 30.8122 36.5937 34.5465 35.875 39.2965C35.3906 42.5622 32.8906 45.2653 28.4844 47.3591C27.9375 47.6559 27.2812 47.6716 26.7031 47.4528Z" fill="#6CE49E"/>
<path id="Vector_21" d="M55.7812 79.8437C55.2344 80.0468 54.6406 80.0624 54.0781 79.8749C52.9531 79.4843 52.5156 78.3124 53.0937 77.2812C54.0937 75.4843 55.0781 73.0156 54.1094 71.5468C53.2031 70.1874 50.75 69.8906 49.8281 69.8906C48.8906 69.9374 43.4687 70.0624 41.7344 66.9062C40.5781 64.7968 41.4375 62.0156 44.2812 58.6562C46.1562 56.4374 46.5469 55.1093 46.2812 54.6249C45.875 53.8906 43.6406 53.6093 42.25 53.7031C41 53.7968 40 52.9687 40.0312 51.8749C40.0625 50.7812 41.1094 49.8124 42.3594 49.7187C43 49.6718 48.6094 49.3749 50.4062 52.5624C51.5781 54.6562 50.7031 57.4374 47.8281 60.8281C45.9687 63.0312 45.5937 64.3593 45.875 64.8593C46.2969 65.6406 48.625 65.9531 50.0781 65.8749H50.1875C50.4219 65.8749 55.7812 65.8124 58.0781 69.2187C59.6562 71.5624 59.3437 74.7499 57.1562 78.7031C56.8281 79.2499 56.3437 79.6406 55.7812 79.8437Z" fill="#FFC655"/>
<path id="Vector_22" d="M43.2188 46.5469C41.9844 46.5 41.0313 45.4531 41.0782 44.2188C41.0938 43.6875 41.3126 43.1719 41.6719 42.7812C41.7969 42.6406 44.8438 39.4063 50.5001 36.5625C53.8126 34.9063 57.3282 33.7188 60.9688 33.0313C65.6407 32.1719 70.4219 32.0937 75.1094 32.7969C76.3282 32.9688 77.1719 34.1094 77.0001 35.3281C76.8282 36.5469 75.6876 37.3906 74.4688 37.2188C66.6563 36.0781 59.3282 37.1719 52.6876 40.4688C47.6876 42.9375 44.9844 45.7969 44.9532 45.8125C44.5157 46.3281 43.8751 46.5781 43.2188 46.5469Z" fill="#AC7EEA"/>
<path id="Vector_23" d="M11.5 50.6248C11.2813 50.6248 11.0625 50.5936 10.8594 50.5311C9.67189 50.1717 9.00001 48.9373 9.35939 47.7498C10.1563 44.9686 10.75 42.1248 11.1719 39.2498C11.9844 33.3748 11.2188 30.4373 10.25 29.6404C9.46876 28.9998 7.64064 29.3748 5.26564 30.6561C4.17189 31.2498 2.81252 30.8436 2.23439 29.7498C1.64064 28.6561 2.04689 27.2967 3.14064 26.7186C7.37502 24.4217 10.7188 24.2342 13.0781 26.1561C15.75 28.3279 16.5781 32.8279 15.5938 39.9061C15.1563 42.9842 14.5 46.0311 13.6406 49.0154C13.3594 49.9686 12.4844 50.6248 11.5 50.6248Z" fill="#AC7EEA"/>
<path id="Vector_24" d="M48.6719 31.5156C50.2338 31.5156 51.5 30.2494 51.5 28.6875C51.5 27.1256 50.2338 25.8594 48.6719 25.8594C47.1099 25.8594 45.8438 27.1256 45.8438 28.6875C45.8438 30.2494 47.1099 31.5156 48.6719 31.5156Z" fill="#FFC655"/>
<path id="Vector_25" d="M45.8438 5.65625C47.4057 5.65625 48.6719 4.39006 48.6719 2.82812C48.6719 1.26619 47.4057 0 45.8438 0C44.2818 0 43.0156 1.26619 43.0156 2.82812C43.0156 4.39006 44.2818 5.65625 45.8438 5.65625Z" fill="#D5582D"/>
<path id="Vector_26" d="M33.6719 74.25C35.4323 74.25 36.8594 72.8229 36.8594 71.0625C36.8594 69.3021 35.4323 67.875 33.6719 67.875C31.9115 67.875 30.4844 69.3021 30.4844 71.0625C30.4844 72.8229 31.9115 74.25 33.6719 74.25Z" fill="#AC7EEA"/>
<path id="Vector_27" d="M60.3906 47.6094C61.616 47.6094 62.6094 46.616 62.6094 45.3906C62.6094 44.1652 61.616 43.1719 60.3906 43.1719C59.1652 43.1719 58.1719 44.1652 58.1719 45.3906C58.1719 46.616 59.1652 47.6094 60.3906 47.6094Z" fill="#74D2EF"/>
<path id="Vector_28" d="M74.6094 8.07812C75.9469 8.07812 77.0312 6.99381 77.0312 5.65625C77.0312 4.31869 75.9469 3.23438 74.6094 3.23438C73.2718 3.23438 72.1875 4.31869 72.1875 5.65625C72.1875 6.99381 73.2718 8.07812 74.6094 8.07812Z" fill="#AC7EEA"/>
</g>
</g>
</g>
<defs>
<clipPath id="clip0_3168_123148">
<rect width="80" height="80" fill="white" transform="translate(0.5)"/>
</clipPath>
</defs>
</svg>
