<svg width="28" height="25" viewBox="0 0 28 25" fill="none" xmlns="http://www.w3.org/2000/svg">
<path d="M0.666504 8.20001C0.66634 7.24317 0.856898 6.29589 1.22704 5.41354C1.59718 4.53119 2.13949 3.73147 2.82226 3.06112C3.50502 2.39076 4.31456 1.86323 5.20355 1.50933C6.09254 1.15544 7.04316 0.982295 7.99984 1.00001C9.13179 0.994003 10.2521 1.22864 11.2865 1.68837C12.3209 2.14811 13.2458 2.82244 13.9998 3.66668C14.7539 2.82244 15.6788 2.14811 16.7132 1.68837C17.7476 1.22864 18.8679 0.994003 19.9998 1.00001C20.9565 0.982295 21.9071 1.15544 22.7961 1.50933C23.6851 1.86323 24.4947 2.39076 25.1774 3.06112C25.8602 3.73147 26.4025 4.53119 26.7726 5.41354C27.1428 6.29589 27.3333 7.24317 27.3332 8.20001C27.3332 15.3413 18.8278 20.7333 13.9998 25C9.1825 20.6973 0.666504 15.3467 0.666504 8.20001Z" fill="#FF3875"/>
</svg>
