<svg width="25" height="24" viewBox="0 0 25 24" fill="none" xmlns="http://www.w3.org/2000/svg">
<g id="Group">
<path id="Vector" d="M9.41851 18.8777C9.1654 18.8778 8.91448 18.8308 8.6786 18.739L2.92334 16.5049V20.2558C2.92334 20.4022 2.96852 20.545 3.0527 20.6648C3.13688 20.7846 3.25596 20.8755 3.39371 20.9251L11.9135 23.9937V16.6095L11.1872 17.8596C10.8225 18.4876 10.1447 18.8777 9.41851 18.8777ZM15.6967 18.8777C14.9705 18.8777 14.2928 18.4876 13.928 17.8596L13.3364 16.8412V24.001L21.8764 20.9251C22.0142 20.8754 22.1332 20.7845 22.2174 20.6648C22.3016 20.545 22.3468 20.4021 22.3468 20.2557V16.4447L16.4366 18.7389C16.2008 18.8308 15.9498 18.8778 15.6967 18.8777ZM7.71918 8.84951C7.29153 8.32897 6.9507 7.74283 6.70981 7.11369L4.81363 7.7966L7.71918 8.84951ZM20.314 7.79219L18.4125 7.09534C18.1712 7.73141 17.8279 8.32391 17.3961 8.84955L20.314 7.79219Z" fill="#868196"/>
<path id="Vector_2" d="M24.6112 13.2644L22.2501 9.14356C22.1717 9.00674 22.0476 8.90197 21.8995 8.84769C21.7515 8.79342 21.589 8.79311 21.4408 8.84683L12.5576 12.0651L3.67445 8.84683C3.5262 8.79311 3.36375 8.79342 3.2157 8.84769C3.06765 8.90197 2.9435 9.00674 2.8651 9.14356L0.511744 13.2509C0.44667 13.3645 0.409769 13.4937 0.41565 13.6245C0.421051 13.7548 0.464336 13.8807 0.540206 13.9868C0.616075 14.0929 0.721236 14.1745 0.842809 14.2217L9.17629 17.4566C9.2556 17.4874 9.33756 17.5021 9.41847 17.5021C9.65126 17.5021 9.87494 17.3803 9.99784 17.1686L12.5576 12.5889L15.1173 17.1686C15.1762 17.2701 15.2607 17.3543 15.3624 17.4128C15.4641 17.4713 15.5793 17.5021 15.6967 17.5021C15.7776 17.5021 15.8595 17.4874 15.9388 17.4566L24.2723 14.2217C24.3622 14.1869 24.4435 14.133 24.5106 14.0638C24.5778 13.9946 24.6292 13.9117 24.6614 13.8208C24.6935 13.7299 24.7057 13.6332 24.697 13.5371C24.6884 13.4411 24.6591 13.3481 24.6112 13.2644Z" fill="#868196"/>
<path id="Vector_3" d="M12.5574 9.76724C15.25 9.76724 17.4406 7.57666 17.4406 4.88408C17.4406 2.1915 15.25 0.000976562 12.5574 0.000976562C9.86484 0.000976562 7.67432 2.19155 7.67432 4.88413C7.67432 7.57671 9.86484 9.76724 12.5574 9.76724ZM10.5366 5.63173C10.2588 5.35388 10.2588 4.90344 10.5366 4.62559C10.8144 4.34774 11.2649 4.34774 11.5427 4.62559L11.9441 5.0269L13.5962 3.3748C13.874 3.09695 14.3244 3.09695 14.6023 3.3748C14.8801 3.65265 14.8801 4.10309 14.6023 4.38094L12.4471 6.53609C12.3082 6.67501 12.1261 6.7445 11.9441 6.7445C11.7621 6.7445 11.5799 6.67506 11.4411 6.53613L10.5366 5.63173Z" fill="#868196"/>
</g>
</svg>
