<svg width="31" height="37" viewBox="0 0 31 37" fill="none" xmlns="http://www.w3.org/2000/svg">
<g id="Frame" clip-path="url(#clip0_6226_86610)">
<g id="Group">
<g id="Calque 2">
<g id="40- Gift">
<path id="Vector" d="M29.0972 17.337V29.5145C29.0972 29.6821 29.0503 29.8464 28.9619 29.9884C28.8735 30.1303 28.7471 30.2442 28.5973 30.3169L26.0415 31.5577L21.7308 33.6506L16.0419 36.4119C15.9237 36.4693 15.7944 36.4994 15.6633 36.5C15.5321 36.5006 15.4025 36.4718 15.2838 36.4155L8.89932 33.3897L4.58802 31.3467L2.41091 30.3149C2.25918 30.243 2.13087 30.129 2.04099 29.9863C1.9511 29.8436 1.90335 29.678 1.90332 29.5089V18.1353L4.58779 18.057L8.89909 17.9305L21.7308 17.5534L26.0412 17.427L29.0972 17.337Z" fill="#8267DA"/>
<path id="Vector_2" d="M31 14.2638V16.5696C31.0001 17.0726 30.8593 17.5653 30.594 17.9911C30.3287 18.4168 29.9496 18.7584 29.5003 18.9763L16.8205 25.132C16.466 25.3041 16.0779 25.3943 15.6846 25.396C15.2912 25.3978 14.9023 25.311 14.5463 25.1421L1.52201 18.9702C1.06692 18.7544 0.682129 18.4124 0.412607 17.9842C0.143085 17.5559 -2.74886e-05 17.0591 3.96033e-09 16.5519L3.96033e-09 14.2468C0.000184186 13.7438 0.141006 13.2511 0.40629 12.8252C0.671573 12.3994 1.05056 12.0576 1.4997 11.8393L14.1795 5.68438C14.5339 5.51221 14.922 5.42189 15.3154 5.42001C15.7088 5.41813 16.0976 5.50474 16.4537 5.67352L29.478 11.8463C29.933 12.062 30.3177 12.4039 30.5872 12.832C30.8567 13.2601 30.9999 13.7567 31 14.2638V14.2638Z" fill="#644CB1"/>
<path id="Vector_3" d="M30.5556 12.7827L16.8206 19.4505C16.4662 19.6227 16.0781 19.713 15.6847 19.7148C15.2912 19.7165 14.9024 19.6297 14.5464 19.4606L0.438477 12.775C0.701631 12.3718 1.06849 12.0484 1.4998 11.8393L14.1796 5.68438C14.534 5.51221 14.9221 5.42189 15.3155 5.42001C15.7089 5.41813 16.0977 5.50474 16.4538 5.67352L29.4781 11.8463C29.9153 12.0533 30.288 12.3771 30.5556 12.7827Z" fill="#8267DA"/>
<g id="Group_2">
<path id="Vector_4" d="M16.5746 12.18L9.69772 16.3056C9.45434 16.4516 9.25276 16.659 9.11277 16.9073C8.97278 17.1556 8.89918 17.4364 8.89919 17.7221V33.3896L4.58789 31.3467V15.6675C4.58793 15.3847 4.66011 15.1067 4.7975 14.8602C4.93489 14.6136 5.13285 14.4069 5.37235 14.2599L13.2099 9.44604L16.5746 12.18Z" fill="#FFAFC8"/>
<path id="Vector_5" d="M26.0417 15.8799V31.5577L21.731 33.6506V17.9758C21.731 17.6975 21.6612 17.4237 21.528 17.18C21.3947 16.9363 21.2025 16.7306 20.9692 16.5821L14.0547 12.18L17.4197 9.44604L25.2842 14.4891C25.5163 14.6379 25.7074 14.8434 25.8398 15.0865C25.9722 15.3296 26.0417 15.6025 26.0417 15.8799Z" fill="#FFAFC8"/>
<path id="Vector_6" d="M28.9002 7.62712C28.8618 7.77764 28.8187 7.92428 28.7726 8.06704C27.0506 13.3553 20.0704 13.1225 17.1172 12.7711C16.2966 12.6741 15.7867 12.567 15.7867 12.567L15.3145 8.88092C18.8176 -4.36069 30.7683 0.332485 28.9002 7.62712Z" fill="#FFAFC8"/>
</g>
<path id="Vector_7" d="M28.7723 8.06705C27.0503 13.3553 20.0702 13.1226 17.1169 12.7711C16.6139 12.4126 16.3132 12.1822 16.3132 12.1822L15.8779 10.7399C16.2742 9.96902 16.7388 9.23595 17.2661 8.54963C19.0635 6.19179 22.492 3.17214 26.8827 6.28334C27.4252 6.67218 27.9346 7.10611 28.4054 7.58058L28.7723 8.06705Z" fill="#FF3875" fill-opacity="0.5"/>
<path id="Vector_8" d="M26.8822 6.28334V6.28412C26.0062 7.30981 22.8884 10.2736 17.2656 8.54963C19.063 6.19179 22.4915 3.17214 26.8822 6.28334Z" fill="#FF3875"/>
<path id="Vector_9" d="M15.1344 8.88092L14.663 12.567C14.663 12.567 14.4961 12.6019 14.1985 12.65C12.1058 12.9899 3.56828 13.9876 1.66481 8.0298C1.62328 7.89945 1.58483 7.76445 1.54945 7.62712C-0.31864 0.332485 11.6321 -4.36069 15.1344 8.88092Z" fill="#FFAFC8"/>
<path id="Vector_10" d="M14.5717 10.7399L14.1987 12.6501C12.106 12.9899 3.56851 13.9877 1.66504 8.02983L2.04419 7.5806C2.51497 7.10657 3.02406 6.67292 3.5662 6.28414C7.95764 3.17139 11.3862 6.19181 13.1835 8.54965C13.7108 9.23597 14.1755 9.96905 14.5717 10.7399Z" fill="#FF3875" fill-opacity="0.5"/>
<path id="Vector_11" d="M13.1837 8.54965C7.561 10.2736 4.44316 7.30983 3.56641 6.28414C7.95784 3.17139 11.3864 6.19181 13.1837 8.54965Z" fill="#FF3875"/>
<path id="Vector_12" d="M16.1704 13.7134C16.5347 13.7141 16.8866 13.5797 17.1591 13.3358C17.4317 13.0918 17.6058 12.7553 17.6485 12.3903C17.8503 10.6145 17.7778 7.68085 15.0959 7.68085C12.3964 7.68085 12.4088 10.6528 12.6559 12.4248C12.7064 12.7828 12.8833 13.1103 13.1541 13.3471C13.4249 13.5839 13.7713 13.7141 14.1297 13.7137L16.1704 13.7134Z" fill="#FF3875"/>
</g>
</g>
</g>
</g>
<defs>
<clipPath id="clip0_6226_86610">
<rect width="31" height="36" fill="white" transform="translate(0 0.5)"/>
</clipPath>
</defs>
</svg>
