<svg width="15" height="15" viewBox="0 0 15 15" fill="none" xmlns="http://www.w3.org/2000/svg">
<path d="M5.91667 2.75V4.33333H1.95833V13.0417H10.6667V9.08333H12.25V13.8333C12.25 14.0433 12.1666 14.2447 12.0181 14.3931C11.8697 14.5416 11.6683 14.625 11.4583 14.625H1.16667C0.956704 14.625 0.75534 14.5416 0.606874 14.3931C0.458407 14.2447 0.375 14.0433 0.375 13.8333V3.54167C0.375 3.3317 0.458407 3.13034 0.606874 2.98187C0.75534 2.83341 0.956704 2.75 1.16667 2.75H5.91667ZM14.625 0.375V7.5L11.6214 4.49721L6.87221 9.24721L5.75279 8.12779L10.502 3.37779L7.5 0.375H14.625Z" fill="#2F80ED"/>
</svg>
