<svg width="90" height="91" viewBox="0 0 90 91" fill="none" xmlns="http://www.w3.org/2000/svg">
<path d="M69.3405 81.5C65.8485 70.7045 59.094 64.0175 50.1435 56.291C58.9022 49.289 69.7865 45.4826 81 45.5V9.5H85.536C88.002 9.5 90 11.5025 90 13.9685V86.0315C89.9918 87.2133 89.519 88.3444 88.6837 89.1805C87.8484 90.0166 86.7178 90.4906 85.536 90.5H4.464C3.27966 90.4988 2.14424 90.0275 1.3072 89.1896C0.470169 88.3517 -6.00548e-07 87.2158 0 86.0315V13.9685C0.0082352 12.7867 0.481051 11.6556 1.31631 10.8195C2.15156 9.98338 3.28221 9.50943 4.464 9.5H18V0.5H27V18.5H9V50C32.49 50 52.479 61.079 59.9085 81.5H69.3405ZM72 0.5V18.5H36V9.5H63V0.5H72ZM65.25 41C63.4598 41 61.7429 40.2888 60.477 39.023C59.2112 37.7571 58.5 36.0402 58.5 34.25C58.5 32.4598 59.2112 30.7429 60.477 29.477C61.7429 28.2112 63.4598 27.5 65.25 27.5C67.0402 27.5 68.7571 28.2112 70.023 29.477C71.2888 30.7429 72 32.4598 72 34.25C72 36.0402 71.2888 37.7571 70.023 39.023C68.7571 40.2888 67.0402 41 65.25 41Z" fill="#222222"/>
</svg>
