<svg width="107" height="34" viewBox="0 0 107 34" fill="none" xmlns="http://www.w3.org/2000/svg">
<g id="Group">
<g id="Group_2">
<g id="Group_3">
<path id="Vector" d="M49.3359 28.7617H52.6025V29.2518H49.9892V30.7221H52.4392V31.2122H49.9892V32.8459H52.6025V33.336H49.3359V28.7617Z" fill="white"/>
<path id="Vector_2" d="M54.7265 31.702L53.5016 30.0684H54.2366L55.0532 31.2936L55.8698 30.0684H56.5232L55.3799 31.6203L56.6865 33.4991H56.0332L55.0532 32.1104L54.0732 33.4991H53.4199L54.7265 31.702Z" fill="white"/>
<path id="Vector_3" d="M60.1156 31.1299C60.0339 30.7215 59.7072 30.4764 59.2989 30.4764C58.4823 30.4764 58.2373 31.1299 58.2373 31.7834C58.2373 32.4368 58.4823 33.0086 59.2173 33.0086C59.7889 33.0086 60.1156 32.6819 60.1156 32.1918H60.6872C60.5239 33.0086 60.0339 33.4987 59.2173 33.4987C58.1556 33.4987 57.584 32.7636 57.584 31.7834C57.584 30.7215 58.074 29.9863 59.2173 29.9863C59.9522 29.9863 60.6055 30.3131 60.6872 31.1299H60.1156Z" fill="white"/>
<path id="Vector_4" d="M62.4838 29.4152H61.9121V28.7617H62.4838V29.4152ZM61.9121 30.0687H62.4838V33.4993H61.9121V30.0687Z" fill="white"/>
<path id="Vector_5" d="M64.6062 30.0677H65.2595V30.5578H64.6062V32.6816C64.6062 32.9267 64.6879 33.0083 65.0145 33.0083H65.2595V33.4984H64.8512C64.2795 33.4984 64.0345 33.4167 64.0345 32.7633V30.5578H63.4629V30.0677H64.0345V29.0059H64.6062V30.0677Z" fill="white"/>
<path id="Vector_6" d="M69.3435 32.3567C69.1801 33.0919 68.6902 33.5003 67.8735 33.5003C66.8119 33.5003 66.2402 32.7652 66.2402 31.7033C66.2402 30.6414 66.8935 29.9062 67.8735 29.9062C69.0985 29.9062 69.4251 31.0498 69.4251 31.8666H66.8935C66.8935 32.4384 67.2202 33.0102 67.9552 33.0102C68.4452 33.0102 68.7718 32.7652 68.8535 32.3567H69.3435ZM68.8535 31.4582C68.8535 30.8864 68.4452 30.478 67.8735 30.478C67.3019 30.478 66.9752 30.8864 66.8935 31.4582H68.8535Z" fill="white"/>
<path id="Vector_7" d="M73.6726 30.0677H74.3259V30.5578H73.6726V32.6816C73.6726 32.9267 73.7543 33.0083 74.0809 33.0083H74.3259V33.4984H73.9176C73.3459 33.4984 73.1009 33.4167 73.1009 32.7633V30.5578H72.5293V30.0677H73.1009V29.0059H73.6726V30.0677Z" fill="white"/>
<path id="Vector_8" d="M75.5508 28.7617H76.1224V30.5587C76.2858 30.1503 76.7757 29.987 77.1841 29.987C78.0824 29.987 78.3274 30.4771 78.3274 31.2122V33.4993H77.7557V31.2122C77.7557 30.8038 77.5107 30.5587 77.1024 30.5587C76.4491 30.5587 76.1224 31.0488 76.1224 31.6206V33.581H75.5508V28.7617Z" fill="white"/>
<path id="Vector_9" d="M82.654 32.3567C82.4907 33.0919 82.0007 33.5003 81.1841 33.5003C80.1224 33.5003 79.5508 32.7652 79.5508 31.7033C79.5508 30.6414 80.2041 29.9062 81.1841 29.9062C82.409 29.9062 82.7357 31.0498 82.7357 31.8666H80.2041C80.2041 32.4384 80.5307 33.0102 81.2657 33.0102C81.7557 33.0102 82.0824 32.7652 82.164 32.3567H82.654ZM82.0824 31.4582C82.0824 30.8864 81.674 30.478 81.1024 30.478C80.5307 30.478 80.2041 30.8864 80.1224 31.4582H82.0824Z" fill="white"/>
<path id="Vector_10" d="M89.5155 33.4991H88.9438L88.2905 30.8035L87.6372 33.4991H87.0655L86.0039 30.0684H86.6572L87.3922 32.8456L88.0455 30.0684H88.6988L89.4338 32.8456L90.1688 30.0684H90.7404L89.5155 33.4991Z" fill="white"/>
<path id="Vector_11" d="M93.1899 29.9863C94.2516 29.9863 94.8232 30.8032 94.8232 31.7834C94.8232 32.7636 94.2516 33.5804 93.1899 33.5804C92.1283 33.5804 91.5566 32.7636 91.5566 31.7834C91.5566 30.7215 92.1283 29.9863 93.1899 29.9863ZM93.1899 33.0086C93.7616 33.0086 94.2516 32.5185 94.2516 31.7017C94.2516 30.8848 93.7616 30.3947 93.1899 30.3947C92.6183 30.3947 92.1283 30.8848 92.1283 31.7017C92.1283 32.6002 92.6183 33.0086 93.1899 33.0086Z" fill="white"/>
<path id="Vector_12" d="M95.9664 30.068H96.4564V30.8032C96.7014 30.2314 97.1097 29.9863 97.6814 29.9863V30.5581C96.7831 30.5581 96.4564 31.0482 96.4564 31.9467V33.4987H95.8848V30.068H95.9664Z" fill="white"/>
<path id="Vector_13" d="M98.8242 28.7617H99.3959V33.4993H98.8242V28.7617Z" fill="white"/>
<path id="Vector_14" d="M103.806 33.4993H103.234V33.0092C103.071 33.4177 102.581 33.581 102.173 33.581C101.111 33.581 100.621 32.7642 100.621 31.784C100.621 30.8038 101.111 29.987 102.173 29.987C102.499 29.987 102.989 30.1503 103.316 30.5587V28.7617H103.888V33.4993H103.806ZM102.254 33.0092C102.989 33.0092 103.316 32.3558 103.316 31.7023C103.316 31.0488 102.989 30.3954 102.254 30.3954C101.519 30.3954 101.193 31.0488 101.193 31.7023C101.193 32.4375 101.519 33.0092 102.254 33.0092Z" fill="white"/>
</g>
</g>
<g id="Group_4">
<path id="Vector_15" d="M0.5 5.97269H9.40139V10.3019H0.5V23.6163H13.8112V19.2054H5.07319V14.7128H13.8112V1.39844H0.5V5.97269Z" fill="white"/>
<path id="Vector_16" d="M25.8975 10.3019H21.5693V1.39844H16.9961V14.7128H25.8975V23.6163H30.389V1.39844H25.8975V10.3019Z" fill="white"/>
<g id="Group_5">
<path id="Vector_17" d="M39.2895 12.9981H37.1662V1.5625H33.7363V23.2902H37.1662V17.164H39.2895L44.516 23.2902H47.7826V21.2481L42.556 15.0402L47.7826 8.91398V6.87191H44.6793L39.2895 12.9981Z" fill="white"/>
<path id="Vector_18" d="M47.9467 23.5346H44.4352L44.3535 23.4529L39.2087 17.4083H37.3304V23.5346H33.4922V1.39844H37.3304V12.8341H39.2087L44.5985 6.70784H47.9467V8.99497L47.8651 9.07666L42.7202 15.0395L47.8651 21.2474V23.5346H47.9467ZM44.5985 23.1262H47.5384V21.3291L42.2302 15.0395L47.5384 8.91329V7.03458H44.6802L39.372 13.1608H37.0037V1.72517H33.9005V23.1262H37.0037V16.9999H39.372L39.4537 17.0816L44.5985 23.1262Z" fill="white"/>
</g>
<path id="Vector_19" d="M50.3145 10.8729H58.6442V12.915H50.3145V23.3704H62.8091V6.70703H50.3145V10.8729ZM58.6442 19.2046H54.4793V17.1625H58.6442V19.2046Z" fill="white"/>
<path id="Vector_20" d="M64.8516 23.3704H69.0164V10.8729H77.3462V6.70703H64.8516V23.3704Z" fill="white"/>
<path id="Vector_21" d="M79.4688 10.8729H87.7985V12.915H79.4688V23.3704H91.9634V6.70703H79.4688V10.8729ZM87.7985 19.2046H83.6336V17.1625H87.7985V19.2046Z" fill="white"/>
<path id="Vector_22" d="M106.5 10.8738V6.70792H102.336V0.5H98.1707V6.70792H94.0059V10.8738H98.1707V23.3713H102.336H105.112V19.2054H102.336V10.8738H106.5Z" fill="white"/>
</g>
</g>
</svg>
