<svg width="97" height="97" viewBox="0 0 97 97" fill="none" xmlns="http://www.w3.org/2000/svg">
<path d="M86.7797 93.5922L79.0834 85.8959C80.9363 83.4292 81.9366 80.4267 81.9332 77.3416C81.9332 69.4613 75.5219 63.05 67.6416 63.05C59.7613 63.05 53.35 69.4613 53.35 77.3416C53.35 85.2219 59.7613 91.6332 67.6416 91.6332C70.7267 91.6366 73.7292 90.6363 76.1959 88.7834L83.8922 96.4797C84.2818 96.8279 84.7899 97.0138 85.3123 96.9992C85.8346 96.9846 86.3316 96.7706 86.7011 96.4011C87.0706 96.0316 87.2846 95.5346 87.2992 95.0123C87.3138 94.4899 87.1279 93.9818 86.7797 93.5922ZM57.4333 77.3416C57.4333 75.3226 58.032 73.3489 59.1537 71.6702C60.2754 69.9914 61.8697 68.683 63.7351 67.9104C65.6004 67.1377 67.6529 66.9356 69.6331 67.3295C71.6133 67.7234 73.4323 68.6956 74.8599 70.1233C76.2876 71.5509 77.2598 73.3699 77.6537 75.3501C78.0476 77.3303 77.8455 79.3828 77.0728 81.2481C76.3002 83.1135 74.9918 84.7078 73.313 85.8295C71.6343 86.9512 69.6606 87.5499 67.6416 87.5499C64.9352 87.5466 62.3406 86.4701 60.4268 84.5564C58.5131 82.6426 57.4366 80.048 57.4333 77.3416Z" fill="#B3B1BB"/>
<path fill-rule="evenodd" clip-rule="evenodd" d="M54.5625 42.4375H81.0859C81.2869 42.4375 81.4797 42.5173 81.6218 42.6595C81.7639 42.8016 81.8438 42.9943 81.8438 43.1953V64.6422C78.3488 60.6928 73.2437 58.2 67.5649 58.2C60.9594 58.2 55.1302 61.5728 51.7082 66.6875H33.3438C32.5398 66.6875 31.7688 67.0069 31.2003 67.5753C30.6319 68.1438 30.3125 68.9148 30.3125 69.7188C30.3125 70.5227 30.6319 71.2937 31.2003 71.8622C31.7688 72.4306 32.5398 72.75 33.3438 72.75H49.0395C48.6869 74.1978 48.5 75.7098 48.5 77.2649C48.5 82.6236 50.7197 87.4713 54.2883 90.9375H27.2813C24.0655 90.9375 20.9815 89.66 18.7076 87.3862C16.4337 85.1123 15.1562 82.0283 15.1562 78.8125V18.1875C15.1562 14.9718 16.4337 11.8877 18.7076 9.61383C20.9815 7.33995 24.0655 6.0625 27.2813 6.0625H44.7109C44.9119 6.0625 45.1047 6.14234 45.2468 6.28446C45.3889 6.42658 45.4688 6.61933 45.4688 6.82031V33.3438C45.4688 35.7556 46.4268 38.0686 48.1322 39.774C49.8377 41.4794 52.1507 42.4375 54.5625 42.4375ZM33.3438 57.5938H63.6563C64.4602 57.5938 65.2312 57.2744 65.7997 56.7059C66.3681 56.1375 66.6875 55.3664 66.6875 54.5625C66.6875 53.7586 66.3681 52.9876 65.7997 52.4191C65.2312 51.8506 64.4602 51.5313 63.6563 51.5313H33.3438C32.5398 51.5313 31.7688 51.8506 31.2003 52.4191C30.6319 52.9876 30.3125 53.7586 30.3125 54.5625C30.3125 55.3664 30.6319 56.1375 31.2003 56.7059C31.7688 57.2744 32.5398 57.5938 33.3438 57.5938Z" fill="#938AA7"/>
<path d="M52.1773 8.48371L79.4225 35.729C79.4752 35.7819 79.5111 35.8493 79.5255 35.9226C79.54 35.9959 79.5325 36.0718 79.504 36.1409C79.4754 36.2099 79.4271 36.269 79.3651 36.3106C79.3031 36.3523 79.2301 36.3747 79.1554 36.375H54.5625C53.7586 36.375 52.9876 36.0556 52.4191 35.4872C51.8506 34.9187 51.5313 34.1477 51.5313 33.3438V8.75084C51.5316 8.67613 51.554 8.60318 51.5956 8.54116C51.6373 8.47915 51.6963 8.43082 51.7654 8.40228C51.8344 8.37373 51.9104 8.36623 51.9836 8.38072C52.0569 8.39521 52.1243 8.43104 52.1773 8.48371Z" fill="#938AA7"/>
</svg>
