<svg width="25" height="24" viewBox="0 0 25 24" fill="none" xmlns="http://www.w3.org/2000/svg">
<g id="Scan-qr code">
<g id="Vector">
<path d="M17.7615 14.5722H15.7044C15.5623 14.5722 15.4472 14.6873 15.4472 14.8294V16.8865C15.4472 17.0285 15.5623 17.1436 15.7044 17.1436H17.7615C17.9035 17.1436 18.0186 17.0285 18.0186 16.8865V14.8294C18.0186 14.6873 17.9035 14.5722 17.7615 14.5722Z" fill="#868196"/>
<path d="M15.1901 12.5151H13.6472C13.5052 12.5151 13.3901 12.6302 13.3901 12.7722V14.3151C13.3901 14.4571 13.5052 14.5722 13.6472 14.5722H15.1901C15.3321 14.5722 15.4472 14.4571 15.4472 14.3151V12.7722C15.4472 12.6302 15.3321 12.5151 15.1901 12.5151Z" fill="#868196"/>
<path d="M19.8186 17.1436H18.2758C18.1338 17.1436 18.0186 17.2588 18.0186 17.4008V18.9436C18.0186 19.0857 18.1338 19.2008 18.2758 19.2008H19.8186C19.9607 19.2008 20.0758 19.0857 20.0758 18.9436V17.4008C20.0758 17.2588 19.9607 17.1436 19.8186 17.1436Z" fill="#868196"/>
<path d="M19.8186 12.5151H18.7901C18.6481 12.5151 18.5329 12.6302 18.5329 12.7722V13.8008C18.5329 13.9428 18.6481 14.0579 18.7901 14.0579H19.8186C19.9607 14.0579 20.0758 13.9428 20.0758 13.8008V12.7722C20.0758 12.6302 19.9607 12.5151 19.8186 12.5151Z" fill="#868196"/>
<path d="M14.6758 17.6579H13.6472C13.5052 17.6579 13.3901 17.7731 13.3901 17.9151V18.9436C13.3901 19.0857 13.5052 19.2008 13.6472 19.2008H14.6758C14.8178 19.2008 14.9329 19.0857 14.9329 18.9436V17.9151C14.9329 17.7731 14.8178 17.6579 14.6758 17.6579Z" fill="#868196"/>
<path d="M19.0472 4.80078H14.4186C14.1458 4.80078 13.8842 4.90915 13.6913 5.10204C13.4984 5.29494 13.3901 5.55656 13.3901 5.82935V10.4579C13.3901 10.7307 13.4984 10.9923 13.6913 11.1852C13.8842 11.3781 14.1458 11.4865 14.4186 11.4865H19.0472C19.32 11.4865 19.5816 11.3781 19.7745 11.1852C19.9674 10.9923 20.0758 10.7307 20.0758 10.4579V5.82935C20.0758 5.55656 19.9674 5.29494 19.7745 5.10204C19.5816 4.90915 19.32 4.80078 19.0472 4.80078ZM18.0186 9.17221C18.0186 9.24041 17.9915 9.30581 17.9433 9.35404C17.8951 9.40226 17.8297 9.42935 17.7615 9.42935H15.7044C15.6362 9.42935 15.5707 9.40226 15.5225 9.35404C15.4743 9.30581 15.4472 9.24041 15.4472 9.17221V7.11507C15.4472 7.04687 15.4743 6.98146 15.5225 6.93324C15.5707 6.88502 15.6362 6.85792 15.7044 6.85792H17.7615C17.8297 6.85792 17.8951 6.88502 17.9433 6.93324C17.9915 6.98146 18.0186 7.04687 18.0186 7.11507V9.17221Z" fill="#868196"/>
<path d="M11.3329 4.80078H6.70435C6.43156 4.80078 6.16994 4.90915 5.97704 5.10204C5.78415 5.29494 5.67578 5.55656 5.67578 5.82935V10.4579C5.67578 10.7307 5.78415 10.9923 5.97704 11.1852C6.16994 11.3781 6.43156 11.4865 6.70435 11.4865H11.3329C11.6057 11.4865 11.8673 11.3781 12.0602 11.1852C12.2531 10.9923 12.3615 10.7307 12.3615 10.4579V5.82935C12.3615 5.55656 12.2531 5.29494 12.0602 5.10204C11.8673 4.90915 11.6057 4.80078 11.3329 4.80078ZM10.3044 9.17221C10.3044 9.24041 10.2773 9.30581 10.229 9.35404C10.1808 9.40226 10.1154 9.42935 10.0472 9.42935H7.99007C7.92187 9.42935 7.85646 9.40226 7.80824 9.35404C7.76002 9.30581 7.73292 9.24041 7.73292 9.17221V7.11507C7.73292 7.04687 7.76002 6.98146 7.80824 6.93324C7.85646 6.88502 7.92187 6.85792 7.99007 6.85792H10.0472C10.1154 6.85792 10.1808 6.88502 10.229 6.93324C10.2773 6.98146 10.3044 7.04687 10.3044 7.11507V9.17221Z" fill="#868196"/>
<path d="M11.3329 12.5151H6.70435C6.43156 12.5151 6.16994 12.6234 5.97704 12.8163C5.78415 13.0092 5.67578 13.2708 5.67578 13.5436V18.1722C5.67578 18.445 5.78415 18.7066 5.97704 18.8995C6.16994 19.0924 6.43156 19.2008 6.70435 19.2008H11.3329C11.6057 19.2008 11.8673 19.0924 12.0602 18.8995C12.2531 18.7066 12.3615 18.445 12.3615 18.1722V13.5436C12.3615 13.2708 12.2531 13.0092 12.0602 12.8163C11.8673 12.6234 11.6057 12.5151 11.3329 12.5151ZM10.3044 16.8865C10.3044 16.9547 10.2773 17.0201 10.229 17.0683C10.1808 17.1165 10.1154 17.1436 10.0472 17.1436H7.99007C7.92187 17.1436 7.85646 17.1165 7.80824 17.0683C7.76002 17.0201 7.73292 16.9547 7.73292 16.8865V14.8294C7.73292 14.7612 7.76002 14.6957 7.80824 14.6475C7.85646 14.5993 7.92187 14.5722 7.99007 14.5722H10.0472C10.1154 14.5722 10.1808 14.5993 10.229 14.6475C10.2773 14.6957 10.3044 14.7612 10.3044 14.8294V16.8865Z" fill="#868196"/>
</g>
<g id="Vector_2">
<path fill-rule="evenodd" clip-rule="evenodd" d="M22.5428 15.2906C23.1677 15.2906 23.6742 15.7972 23.6742 16.4221V18.7878C23.6742 19.8517 23.2516 20.872 22.4993 21.6243C21.747 22.3766 20.7267 22.7992 19.6628 22.7992H17.2971C16.6722 22.7992 16.1656 22.2927 16.1656 21.6678C16.1656 21.0429 16.6722 20.5364 17.2971 20.5364H19.6628C20.1265 20.5364 20.5713 20.3521 20.8992 20.0242C21.2271 19.6963 21.4114 19.2515 21.4114 18.7878V16.4221C21.4114 15.7972 21.9179 15.2906 22.5428 15.2906Z" fill="#868196"/>
<path fill-rule="evenodd" clip-rule="evenodd" d="M16.1656 2.33065C16.1656 1.70578 16.6722 1.19922 17.2971 1.19922H19.6628C20.7267 1.19922 21.747 1.62185 22.4993 2.37414C23.2516 3.12643 23.6742 4.14675 23.6742 5.21065V7.57636C23.6742 8.20123 23.1677 8.70779 22.5428 8.70779C21.9179 8.70779 21.4114 8.20123 21.4114 7.57636V5.21065C21.4114 4.7469 21.2271 4.30214 20.8992 3.97422C20.5713 3.6463 20.1265 3.46208 19.6628 3.46208H17.2971C16.6722 3.46208 16.1656 2.95552 16.1656 2.33065Z" fill="#868196"/>
<path fill-rule="evenodd" clip-rule="evenodd" d="M3.20565 15.2906C3.83052 15.2906 4.33708 15.7972 4.33708 16.4221V18.7878C4.33708 19.2515 4.5213 19.6963 4.84922 20.0242C5.17714 20.3521 5.6219 20.5364 6.08565 20.5364H8.45136C9.07623 20.5364 9.58279 21.0429 9.58279 21.6678C9.58279 22.2927 9.07623 22.7992 8.45136 22.7992H6.08565C5.02175 22.7992 4.00143 22.3766 3.24914 21.6243C2.49685 20.872 2.07422 19.8517 2.07422 18.7878V16.4221C2.07422 15.7972 2.58078 15.2906 3.20565 15.2906Z" fill="#868196"/>
<path fill-rule="evenodd" clip-rule="evenodd" d="M6.08565 3.46208C5.6219 3.46208 5.17714 3.6463 4.84922 3.97422C4.5213 4.30214 4.33708 4.7469 4.33708 5.21065V7.57636C4.33708 8.20123 3.83052 8.70779 3.20565 8.70779C2.58078 8.70779 2.07422 8.20123 2.07422 7.57636V5.21065C2.07422 4.14675 2.49685 3.12643 3.24914 2.37414C4.00143 1.62185 5.02175 1.19922 6.08565 1.19922H8.45136C9.07623 1.19922 9.58279 1.70578 9.58279 2.33065C9.58279 2.95552 9.07623 3.46208 8.45136 3.46208H6.08565Z" fill="#868196"/>
</g>
</g>
</svg>
