<svg width="33" height="32" viewBox="0 0 33 32" fill="none" xmlns="http://www.w3.org/2000/svg">
<path d="M29.1687 0H4.02586C2.133 0 0.59729 1.53571 0.59729 3.42857V28.5714C0.59729 30.4643 2.133 32 4.02586 32H29.1687C31.0616 32 32.5973 30.4643 32.5973 28.5714V3.42857C32.5973 1.53571 31.0616 0 29.1687 0ZM25.6759 11.3429C25.6901 11.5429 25.6901 11.75 25.6901 11.95C25.6901 18.1429 20.9759 25.2786 12.3616 25.2786C9.70443 25.2786 7.24015 24.5071 5.16872 23.1786C5.54729 23.2214 5.91158 23.2357 6.29729 23.2357C8.49015 23.2357 10.5044 22.4929 12.1116 21.2357C10.0544 21.1929 8.32586 19.8429 7.733 17.9857C8.45443 18.0929 9.10443 18.0929 9.84729 17.9C7.70443 17.4643 6.09729 15.5786 6.09729 13.3V13.2429C6.71872 13.5929 7.44729 13.8071 8.21158 13.8357C7.56902 13.4083 7.04228 12.8285 6.67834 12.148C6.3144 11.4675 6.1246 10.7074 6.12586 9.93571C6.12586 9.06429 6.35443 8.26429 6.76158 7.57143C9.06872 10.4143 12.533 12.2714 16.4187 12.4714C15.7544 9.29286 18.133 6.71429 20.9901 6.71429C22.3401 6.71429 23.5544 7.27857 24.4116 8.19286C25.4687 7.99286 26.483 7.6 27.383 7.06429C27.033 8.15 26.2973 9.06429 25.3259 9.64286C26.2687 9.54286 27.183 9.27857 28.0259 8.91429C27.3901 9.85 26.5901 10.6786 25.6759 11.3429Z" fill="#4F4F4F"/>
</svg>
