<svg width="196" height="196" viewBox="0 0 196 196" fill="none" xmlns="http://www.w3.org/2000/svg">
<g id="Logo">
<g clip-path="url(#clip0_1374_159501)">
<g id="Group">
<g id="Group_2">
<path id="Vector" d="M178 178H18L18 18H178V178Z" fill="#423381"/>
</g>
<g id="Group_3">
<path id="Vector_2" d="M50.6387 73.2215H86.2618V64.3252H50.6387V55.429H97.8574L84.9122 82.1178H59.554V91.0141H89.5504L85.7486 99.9104H50.6387V73.2215Z" fill="white"/>
<path id="Vector_3" d="M119.338 73.2215H137.548V55.4099H146.445V99.9293H137.548V82.1178H111.639" fill="white"/>
</g>
<g id="Group_4">
<path id="Vector_4" d="M58.6795 122.379H55.9042V107.343H51.323V135.933H55.9042V127.892H58.6795L65.5038 135.933H69.7619V133.233L62.8996 125.041L69.7619 117.038V114.338H65.6939L58.6795 122.379Z" fill="white" stroke="white" stroke-width="0.3812" stroke-miterlimit="10"/>
<path id="Vector_5" d="M73.0505 119.642H83.9808V122.379H73.0505V136.047H89.4554V114.167H73.0505V119.642ZM83.9808 130.572H78.5062V127.835H83.9808V130.572Z" fill="white"/>
<path id="Vector_6" d="M92.1736 136.028H97.6482V119.642H108.578V114.167H92.1736V136.028Z" fill="white"/>
<path id="Vector_7" d="M111.316 119.642H122.246V122.379H111.316V136.047H127.721V114.167H111.316V119.642ZM122.246 130.572H116.772V127.835H122.246V130.572Z" fill="white"/>
<path id="Vector_8" d="M146.863 119.642V114.167H141.388V105.974H135.914V114.167H130.458V119.642H135.914V136.028H141.388H146.217V130.534H141.388V119.642H146.863Z" fill="white"/>
</g>
<path id="Vector_9" d="M115.403 73.1454C115.403 73.1454 110.765 73.1264 108.521 73.1264H105.404C105.366 73.1264 105.328 73.1264 105.29 73.1074H102.629L106.507 66.3212V66.3402L107.704 64.4393C109.605 61.4358 111.506 58.4134 113.407 55.4099H100.956C97.7623 61.835 94.5688 68.2601 91.3562 74.6662L88.4478 80.464L88.3718 80.6351L88.2957 80.7871C88.2767 80.8442 88.2767 80.8632 88.2387 80.9012L87.8965 81.6425L87.6874 82.0988H87.8015L93.2191 82.1178H96.1465L92.5538 90.3487C90.6909 94.7398 88.847 99.131 87.0031 103.522L83.8096 110.993L84.5509 110.061C84.5509 110.08 84.5509 110.118 84.5699 110.137C84.5699 110.099 84.608 110.023 84.665 109.947L85.1972 109.282C87.0982 107.039 88.942 104.853 90.7669 102.686L92.991 100.062C100.728 90.881 116.125 73.2595 116.22 73.1645C115.954 73.1645 115.403 73.1454 115.403 73.1454Z" fill="#E73D6F"/>
</g>
</g>
<rect x="9" y="9" width="178" height="178" rx="25" stroke="white" stroke-width="18"/>
</g>
<defs>
<clipPath id="clip0_1374_159501">
<rect x="18" y="18" width="160" height="160" rx="16" fill="white"/>
</clipPath>
</defs>
</svg>
