<svg width="55" height="61" viewBox="0 0 55 61" fill="none" xmlns="http://www.w3.org/2000/svg">
<path d="M50.9987 49.8169C49.18 49.8225 47.5943 51.0761 47.1408 52.8668H42.9983V49.8169H40.9983V53.8833C40.9988 54.1528 41.1042 54.4111 41.2916 54.6017C41.479 54.7923 41.7331 54.8996 41.9981 54.9002H47.1402C48.4054 59.4695 54.8758 58.666 54.9981 53.8833C54.9956 51.6387 53.2065 49.8197 50.9987 49.8169ZM50.9987 55.9167C49.8946 55.9156 48.9997 55.0059 48.9987 53.8833C49.107 51.1857 52.8897 51.1857 52.9988 53.8833C52.9976 55.0059 52.1029 55.9156 50.9987 55.9167ZM20.999 55.9167H15.8569C15.4034 54.126 13.8177 52.8725 11.999 52.8668C6.69224 53.0903 6.69388 60.7775 11.999 61.0002C13.8178 60.9946 15.4035 59.7409 15.8569 57.9501H21.9988C22.2639 57.9496 22.5179 57.8423 22.7054 57.6518C22.8929 57.4613 22.9984 57.203 22.999 56.9335V49.8169H20.999V55.9167ZM11.999 58.9668C10.8948 58.9657 9.99997 58.056 9.99892 56.9334C10.1072 54.2358 13.8895 54.2358 13.9986 56.9334C13.9978 58.056 13.1031 58.9657 11.999 58.9668ZM31.9989 53.011V49.818H29.9978V53.011C28.2362 53.472 27.0032 55.0841 26.9977 56.9334C27.2175 62.3286 34.7787 62.3266 34.9977 56.9334C34.9923 55.0846 33.7599 53.4725 31.9989 53.011ZM30.9996 58.9668C29.8955 58.9657 29.0006 58.056 28.9996 56.9334C29.1093 54.2358 32.8906 54.2358 32.9997 56.9334C32.9986 58.056 32.1038 58.9657 30.9996 58.9668ZM48.9987 47.7835C51.7589 47.7803 53.9957 45.5063 53.9988 42.7001V18.3001C53.9956 15.4939 51.7588 13.22 48.9987 13.2168H12.9989C11.7524 13.2169 10.5514 13.693 9.63376 14.5507C9.44085 14.7335 9.32674 14.9863 9.31627 15.2542C9.30579 15.5221 9.3998 15.7833 9.57783 15.9811C9.75586 16.1789 10.0035 16.2972 10.2669 16.3102C10.5303 16.3233 10.7881 16.2301 10.9842 16.0509C11.5333 15.5365 12.2523 15.2506 12.9989 15.2496H48.9987C50.6549 15.2512 51.997 16.6158 51.9988 18.2995V24.4002H39.9987C36.685 24.4005 33.9989 27.1318 33.9991 30.5008C33.9995 33.8694 36.6853 36.5999 39.9987 36.6003H51.9988V42.7001C51.997 44.3839 50.6549 45.7484 48.9987 45.7502H12.9989C12.3935 45.7494 11.8025 45.5623 11.3037 45.2134C10.8049 44.8646 10.4217 44.3703 10.2046 43.7958C10.1104 43.5443 9.92197 43.3411 9.68062 43.2306C9.43928 43.1201 9.16469 43.1114 8.91705 43.2064C8.66941 43.3014 8.46892 43.4923 8.35952 43.7374C8.25013 43.9824 8.24075 44.2616 8.33345 44.5136C8.6951 45.4741 9.33447 46.3007 10.1673 46.8845C11.0002 47.4683 11.9874 47.7819 12.999 47.784L48.9987 47.7835ZM39.9987 34.5669C34.692 34.3432 34.694 26.6562 39.9987 26.4335H51.9988V34.5669H39.9987Z" fill="white" fill-opacity="0.8"/>
<path d="M41 27.4499C39.3443 27.4519 38.0024 28.8156 37.9999 30.4989C38.1648 34.5453 43.8359 34.5439 43.9999 30.4989C43.9975 28.8156 42.6557 27.4518 41 27.4499ZM41 31.5165C40.8022 31.5166 40.6089 31.457 40.4444 31.3453C40.2799 31.2336 40.1517 31.0749 40.076 30.8891C40.0002 30.7033 39.9804 30.4989 40.0189 30.3017C40.0574 30.1044 40.1526 29.9233 40.2924 29.781C40.4323 29.6388 40.6104 29.5419 40.8044 29.5026C40.9984 29.4633 41.1995 29.4834 41.3822 29.5603C41.565 29.6372 41.7212 29.7674 41.8312 29.9346C41.9411 30.1018 41.9998 30.2983 41.9999 30.4994V30.5C41.9996 30.7696 41.8942 31.0281 41.7068 31.2188C41.5194 31.4095 41.2652 31.5168 41 31.5173V31.5165ZM12.0001 11.1833C13.8189 11.1775 15.4044 9.92406 15.858 8.13337H19.0001V11.1833H21.0001V7.11663C20.9996 6.84713 20.8941 6.58881 20.7066 6.39828C20.5191 6.20774 20.265 6.10053 19.9999 6.10012H15.8575C14.5934 1.53048 8.1225 2.33432 8.00004 7.11663C8.00262 9.36147 9.79207 11.1808 12.0001 11.1833ZM12.0001 5.08325C13.1043 5.08433 13.999 5.99408 13.9999 7.11663C13.8916 9.81421 10.1093 9.81421 10.0002 7.11663C10.0011 5.99408 10.896 5.08433 12.0001 5.08325ZM41 5.08325H46.1421C46.5955 6.87406 48.1812 8.12777 50 8.13337C55.3068 7.90986 55.3048 0.222674 50 0C48.1813 0.00559961 46.5956 1.2592 46.1421 3.04988H40C39.7349 3.05038 39.4808 3.15769 39.2934 3.34829C39.106 3.53889 39.0005 3.79724 39.0001 4.06675V11.1834H41.0002V5.08325H41ZM49.9999 2.03337C51.1041 2.03445 51.9989 2.9442 52 4.06675C51.8903 6.76433 48.109 6.76433 47.9999 4.06675C48.0009 2.9442 48.8958 2.03445 49.9999 2.03337ZM29.9989 7.98886V11.1833H31.999V7.99029C33.7603 7.52921 34.9932 5.91712 34.9989 4.06806C34.779 -1.32711 27.2179 -1.32544 26.9988 4.06806C27.005 5.91676 28.238 7.52814 29.9989 7.98886ZM31.0008 2.03337C32.1049 2.03445 32.9998 2.9442 33.0008 4.06675C32.8925 6.76433 29.1098 6.76433 29.0007 4.06675C29.0018 2.9442 29.8966 2.03445 31.0008 2.03337ZM9 40.6665C9.17052 40.6667 9.33828 40.6227 9.48738 40.5386L14.0321 37.9718C15.2275 37.3048 16.2257 36.3251 16.9236 35.1341C17.6214 33.9431 17.9935 32.5842 18.0013 31.1979V21.5759C18.0011 21.4008 17.9565 21.2288 17.8717 21.0765C17.787 20.9241 17.6649 20.7966 17.5174 20.7063C11.6587 17.05 4.76191 18.0002 0.482461 20.7063C0.335227 20.7968 0.213458 20.9243 0.128936 21.0767C0.0444149 21.229 3.72527e-06 21.401 0 21.5759V31.1979C0.00787698 32.5842 0.379989 33.9431 1.07783 35.134C1.77566 36.325 2.77387 37.3047 3.96914 37.9718L8.51414 40.5386C8.66283 40.6223 8.83001 40.6663 9 40.6665ZM2.00004 31.1976V22.1622C4.14465 20.9632 6.55246 20.3345 8.99994 20.3345C11.4474 20.3345 13.8552 20.9632 15.9998 22.1622V31.1984C15.992 32.2221 15.7153 33.2251 15.1982 34.1035C14.6812 34.982 13.9427 35.704 13.059 36.1949L9 38.4872L4.94098 36.1949C4.05727 35.704 3.31867 34.9818 2.80163 34.1033C2.28458 33.2247 2.00788 32.2216 2.00016 31.1978L2.00004 31.1976Z" fill="white" fill-opacity="0.8"/>
<path d="M8.00165 32.5339C7.8703 32.5339 7.74024 32.5077 7.61889 32.4565C7.49754 32.4054 7.38728 32.3305 7.29443 32.2361L5.29439 30.2027C5.10963 30.0115 5.00664 29.7538 5.00782 29.4858C5.009 29.2177 5.11426 28.961 5.30069 28.7714C5.48713 28.5819 5.73964 28.4749 6.00329 28.4737C6.26695 28.4725 6.5204 28.5772 6.70849 28.765L7.84568 29.9212L11.1693 24.8533C11.3179 24.6323 11.5463 24.4797 11.8048 24.4288C12.0633 24.3778 12.3312 24.4325 12.5502 24.5811C12.7693 24.7296 12.9219 24.96 12.975 25.2222C13.028 25.4845 12.9773 25.7574 12.8336 25.9818L8.83357 32.0811C8.74217 32.2202 8.61845 32.3343 8.47335 32.4133C8.32825 32.4923 8.16624 32.5337 8.00165 32.5339Z" fill="white" fill-opacity="0.8"/>
</svg>
