<svg xmlns="http://www.w3.org/2000/svg" width="24" height="24" viewBox="0 0 24 24" fill="none">
  <path d="M16.8865 14.5712H14.8294C14.6873 14.5712 14.5722 14.6864 14.5722 14.8284V16.8855C14.5722 17.0275 14.6873 17.1427 14.8294 17.1427H16.8865C17.0285 17.1427 17.1436 17.0275 17.1436 16.8855V14.8284C17.1436 14.6864 17.0285 14.5712 16.8865 14.5712Z" fill="#222222"/>
  <path d="M14.3151 12.5141H12.7722C12.6302 12.5141 12.5151 12.6292 12.5151 12.7712V14.3141C12.5151 14.4561 12.6302 14.5712 12.7722 14.5712H14.3151C14.4571 14.5712 14.5722 14.4561 14.5722 14.3141V12.7712C14.5722 12.6292 14.4571 12.5141 14.3151 12.5141Z" fill="#222222"/>
  <path d="M18.9436 17.1427H17.4008C17.2588 17.1427 17.1436 17.2578 17.1436 17.3998V18.9427C17.1436 19.0847 17.2588 19.1998 17.4008 19.1998H18.9436C19.0857 19.1998 19.2008 19.0847 19.2008 18.9427V17.3998C19.2008 17.2578 19.0857 17.1427 18.9436 17.1427Z" fill="#222222"/>
  <path d="M18.9436 12.5141H17.9151C17.7731 12.5141 17.6579 12.6292 17.6579 12.7712V13.7998C17.6579 13.9418 17.7731 14.0569 17.9151 14.0569H18.9436C19.0857 14.0569 19.2008 13.9418 19.2008 13.7998V12.7712C19.2008 12.6292 19.0857 12.5141 18.9436 12.5141Z" fill="#222222"/>
  <path d="M13.8008 17.6569H12.7722C12.6302 17.6569 12.5151 17.7721 12.5151 17.9141V18.9427C12.5151 19.0847 12.6302 19.1998 12.7722 19.1998H13.8008C13.9428 19.1998 14.0579 19.0847 14.0579 18.9427V17.9141C14.0579 17.7721 13.9428 17.6569 13.8008 17.6569Z" fill="#222222"/>
  <path d="M16.8865 6.85695H14.8294C14.6873 6.85695 14.5722 6.97207 14.5722 7.11409V9.17123C14.5722 9.31325 14.6873 9.42838 14.8294 9.42838H16.8865C17.0285 9.42838 17.1436 9.31325 17.1436 9.17123V7.11409C17.1436 6.97207 17.0285 6.85695 16.8865 6.85695Z" fill="#222222"/>
  <path fill-rule="evenodd" clip-rule="evenodd" d="M12.5151 5.82838C12.5151 5.26031 12.9756 4.7998 13.5436 4.7998H18.1722C18.7403 4.7998 19.2008 5.26031 19.2008 5.82838V10.4569C19.2008 11.025 18.7403 11.4855 18.1722 11.4855H13.5436C12.9756 11.4855 12.5151 11.025 12.5151 10.4569V5.82838ZM18.1722 5.82838H13.5436V10.4569H18.1722V5.82838Z" fill="#222222"/>
  <path d="M9.17221 6.85695H7.11507C6.97305 6.85695 6.85792 6.97207 6.85792 7.11409V9.17123C6.85792 9.31325 6.97305 9.42838 7.11507 9.42838H9.17221C9.31423 9.42838 9.42935 9.31325 9.42935 9.17123V7.11409C9.42935 6.97207 9.31423 6.85695 9.17221 6.85695Z" fill="#222222"/>
  <path fill-rule="evenodd" clip-rule="evenodd" d="M4.80078 5.82838C4.80078 5.26031 5.26129 4.7998 5.82935 4.7998H10.4579C11.026 4.7998 11.4865 5.26031 11.4865 5.82838V10.4569C11.4865 11.025 11.026 11.4855 10.4579 11.4855H5.82935C5.26129 11.4855 4.80078 11.025 4.80078 10.4569V5.82838ZM10.4579 5.82838H5.82935V10.4569H10.4579V5.82838Z" fill="#222222"/>
  <path d="M9.17221 14.5712H7.11507C6.97305 14.5712 6.85792 14.6864 6.85792 14.8284V16.8855C6.85792 17.0275 6.97305 17.1427 7.11507 17.1427H9.17221C9.31423 17.1427 9.42935 17.0275 9.42935 16.8855V14.8284C9.42935 14.6864 9.31423 14.5712 9.17221 14.5712Z" fill="#222222"/>
  <path fill-rule="evenodd" clip-rule="evenodd" d="M4.80078 13.5427C4.80078 12.9746 5.26129 12.5141 5.82935 12.5141H10.4579C11.026 12.5141 11.4865 12.9746 11.4865 13.5427V18.1712C11.4865 18.7393 11.026 19.1998 10.4579 19.1998H5.82935C5.26129 19.1998 4.80078 18.7393 4.80078 18.1712V13.5427ZM10.4579 13.5427H5.82935V18.1712H10.4579V13.5427Z" fill="#222222"/>
  <path fill-rule="evenodd" clip-rule="evenodd" d="M21.9684 15.3233C22.4273 15.3233 22.7992 15.6952 22.7992 16.154V19.0617C22.7992 20.0532 22.4053 21.0041 21.7042 21.7052C21.0031 22.4063 20.0523 22.8002 19.0608 22.8002H16.1531C15.6942 22.8002 15.3223 22.4282 15.3223 21.9694C15.3223 21.5106 15.6942 21.1387 16.1531 21.1387H19.0608C19.6116 21.1387 20.1399 20.9198 20.5294 20.5303C20.9189 20.1408 21.1377 19.6126 21.1377 19.0617V16.154C21.1377 15.6952 21.5096 15.3233 21.9684 15.3233Z" fill="#222222"/>
  <path fill-rule="evenodd" clip-rule="evenodd" d="M15.3223 2.03096C15.3223 1.57214 15.6942 1.2002 16.1531 1.2002H19.0608C20.0523 1.2002 21.0031 1.59407 21.7042 2.29517C22.4053 2.99626 22.7992 3.94716 22.7992 4.93866V7.84635C22.7992 8.30517 22.4273 8.67712 21.9684 8.67712C21.5096 8.67712 21.1377 8.30517 21.1377 7.84635V4.93866C21.1377 4.38782 20.9189 3.85955 20.5294 3.47005C20.1399 3.08055 19.6116 2.86173 19.0608 2.86173H16.1531C15.6942 2.86173 15.3223 2.48979 15.3223 2.03096Z" fill="#222222"/>
  <path fill-rule="evenodd" clip-rule="evenodd" d="M2.02999 15.3233C2.48881 15.3233 2.86076 15.6952 2.86076 16.154V19.0617C2.86076 19.6126 3.07958 20.1408 3.46907 20.5303C3.85857 20.9198 4.38685 21.1387 4.93768 21.1387H7.84537C8.30419 21.1387 8.67614 21.5106 8.67614 21.9694C8.67614 22.4282 8.30419 22.8002 7.84537 22.8002H4.93768C3.94618 22.8002 2.99529 22.4063 2.29419 21.7052C1.59309 21.0041 1.19922 20.0532 1.19922 19.0617V16.154C1.19922 15.6952 1.57117 15.3233 2.02999 15.3233Z" fill="#222222"/>
  <path fill-rule="evenodd" clip-rule="evenodd" d="M4.93768 2.86173C4.38685 2.86173 3.85857 3.08055 3.46907 3.47005C3.07958 3.85955 2.86076 4.38782 2.86076 4.93866V7.84635C2.86076 8.30517 2.48881 8.67712 2.02999 8.67712C1.57117 8.67712 1.19922 8.30517 1.19922 7.84635V4.93866C1.19922 3.94715 1.59309 2.99626 2.29419 2.29517C2.99529 1.59407 3.94618 1.2002 4.93768 1.2002H7.84537C8.30419 1.2002 8.67614 1.57214 8.67614 2.03096C8.67614 2.48979 8.30419 2.86173 7.84537 2.86173H4.93768Z" fill="#222222"/>
</svg>