<svg width="33" height="32" viewBox="0 0 33 32" fill="none" xmlns="http://www.w3.org/2000/svg">
<path fill-rule="evenodd" clip-rule="evenodd" d="M8.08301 11.333C8.08301 9.12387 9.87387 7.33301 12.083 7.33301C14.2922 7.33301 16.083 9.12387 16.083 11.333C16.083 13.5422 14.2922 15.333 12.083 15.333C9.87387 15.333 8.08301 13.5422 8.08301 11.333Z" fill="#868196"/>
<path fill-rule="evenodd" clip-rule="evenodd" d="M17.414 4.00879H11.0923C10.019 4.00878 9.13321 4.00877 8.41162 4.06178C7.66216 4.11686 6.97321 4.23505 6.32611 4.5316C5.32258 4.99146 4.50669 5.72525 3.99537 6.6278C3.66564 7.20979 3.53422 7.82941 3.47298 8.50346C3.41404 9.15243 3.41405 9.94909 3.41406 10.9144V21.0864C3.41405 22.0517 3.41404 22.8483 3.47298 23.4973C3.53422 24.1713 3.66564 24.7909 3.99537 25.373C4.50669 26.2755 5.32258 27.0093 6.32611 27.4691C6.97321 27.7657 7.66216 27.8839 8.41162 27.939C8.64546 27.9561 8.89655 27.9678 9.1657 27.9757C9.44478 27.9923 9.77858 27.9922 10.1226 27.9922C14.5531 27.9922 18.9835 27.992 23.414 27.992C23.476 27.992 23.5372 27.992 23.5975 27.992C24.658 27.9926 25.4455 27.9929 26.1277 27.8285C27.9681 27.385 29.4057 26.092 29.8989 24.4368C30.1327 23.6522 30.0809 22.8122 30.0807 22.0076C30.0831 21.7806 30.0808 21.5535 30.0808 21.3265C30.0815 20.7642 30.0821 20.2687 29.9371 19.7954C29.8099 19.3799 29.6005 18.9883 29.3193 18.6394C28.9989 18.2419 28.5684 17.9327 28.0797 17.582L24.3051 14.8661C24.0785 14.7031 23.8545 14.542 23.6512 14.4171C23.4251 14.2783 23.1467 14.134 22.7983 14.0537C22.3085 13.9407 21.7931 13.9553 21.3123 14.0959C20.9701 14.1958 20.7024 14.3555 20.4864 14.5068C20.2922 14.6431 20.08 14.8166 19.8654 14.9921L8.52133 24.2672C8.23669 24.4998 7.96153 24.7248 7.75925 24.9215C7.67814 25.0006 7.55494 25.1232 7.43977 25.2855C6.98241 25.0542 6.61036 24.706 6.37137 24.2842C6.26512 24.0966 6.17855 23.8278 6.13079 23.3021C6.08176 22.7623 6.08072 22.0641 6.08072 21.0369V10.9639C6.08072 9.93674 6.08176 9.23848 6.13079 8.69875C6.17855 8.17301 6.26512 7.90416 6.37137 7.71661C6.62703 7.26535 7.03499 6.89844 7.53675 6.66851C7.74528 6.57295 8.04421 6.49509 8.62877 6.45214C9.22889 6.40804 10.0053 6.40711 11.1474 6.40711H17.414C18.1504 6.40711 18.7474 5.87023 18.7474 5.20795C18.7474 4.54568 18.1504 4.00879 17.414 4.00879Z" fill="#868196"/>
<path fill-rule="evenodd" clip-rule="evenodd" d="M25.2618 1.1377C23.7181 1.1377 22.366 2.31873 22.366 3.91279V4.9987C21.854 4.9987 21.363 5.20209 21.001 5.56413C20.6389 5.92617 20.4355 6.4172 20.4355 6.9292V9.82495C20.4355 10.337 20.6389 10.828 21.001 11.19C21.363 11.5521 21.854 11.7555 22.366 11.7555H28.1576C28.6696 11.7555 29.1606 11.5521 29.5226 11.19C29.8847 10.828 30.0881 10.337 30.0881 9.82495V6.9292C30.0881 6.4172 29.8847 5.92617 29.5226 5.56413C29.1606 5.20209 28.6696 4.9987 28.1576 4.9987V3.91279C28.1576 2.31873 26.8055 1.1377 25.2618 1.1377ZM26.2271 4.9987V3.91279C26.2271 3.50034 25.8585 3.0682 25.2618 3.0682C24.6651 3.0682 24.2966 3.50034 24.2966 3.91279V4.9987H26.2271Z" fill="#868196"/>
</svg>
