<svg width="17" height="16" viewBox="0 0 17 16" fill="none" xmlns="http://www.w3.org/2000/svg">
<g id="Writting">
<g id="Vector">
<path d="M3.78098 12.392H3.70817C3.48973 12.392 3.28453 12.3059 3.12566 12.147C2.95356 11.9683 2.86751 11.73 2.88737 11.4851L3.06609 9.54563C3.08595 9.27423 3.2051 9.0227 3.39706 8.83073L9.47005 2.75774L12.5117 5.79934L6.43536 11.8757C6.24339 12.0676 5.99186 12.1868 5.72046 12.2132L3.78098 12.392Z" fill="#FF3875"/>
<path d="M13.1612 5.14983L13.7564 4.55461C14.1006 4.2104 14.2926 3.75366 14.2926 3.27045C14.2926 2.78723 14.1006 2.3305 13.7564 1.98629L13.2864 1.51631C12.598 0.827896 11.3999 0.827896 10.7115 1.51631L10.1196 2.10824L13.1612 5.14983Z" fill="#FF3875"/>
<path d="M15.12 15C15.3914 15 15.6164 14.7749 15.6164 14.5035C15.6164 14.2322 15.3914 14.0071 15.12 14.0071H1.88122C1.60982 14.0071 1.38477 14.2322 1.38477 14.5035C1.38477 14.7749 1.60982 15 1.88122 15H15.12Z" fill="#FF3875"/>
</g>
</g>
</svg>
