<svg width="17" height="16" viewBox="0 0 17 16" fill="none" xmlns="http://www.w3.org/2000/svg">
<g id="smiling" clip-path="url(#clip0_3266_52990)">
<path id="Vector" d="M8.5 16C12.9183 16 16.5 12.4183 16.5 8C16.5 3.58172 12.9183 0 8.5 0C4.08172 0 0.5 3.58172 0.5 8C0.5 12.4183 4.08172 16 8.5 16Z" fill="#FFCA28"/>
<g id="Group">
<path id="Vector_2" d="M12.99 6.50977C12.714 6.50977 12.49 6.28577 12.49 6.00977C12.49 5.45877 12.042 5.00977 11.49 5.00977C10.938 5.00977 10.49 5.45877 10.49 6.00977C10.49 6.28577 10.266 6.50977 9.98999 6.50977C9.71399 6.50977 9.48999 6.28577 9.48999 6.00977C9.48999 4.90677 10.387 4.00977 11.49 4.00977C12.593 4.00977 13.49 4.90677 13.49 6.00977C13.49 6.28677 13.266 6.50977 12.99 6.50977Z" fill="#6D4C41"/>
<path id="Vector_3" d="M6.98999 6.50977C6.71399 6.50977 6.48999 6.28577 6.48999 6.00977C6.48999 5.45877 6.04099 5.00977 5.48999 5.00977C4.93899 5.00977 4.48999 5.45877 4.48999 6.00977C4.48999 6.28577 4.26599 6.50977 3.98999 6.50977C3.71399 6.50977 3.48999 6.28577 3.48999 6.00977C3.48999 4.90677 4.38699 4.00977 5.48999 4.00977C6.59299 4.00977 7.48999 4.90677 7.48999 6.00977C7.48999 6.28677 7.26599 6.50977 6.98999 6.50977Z" fill="#6D4C41"/>
</g>
<path id="Vector_4" d="M14.178 9.20877C14.083 9.08377 13.936 9.00977 13.78 9.00977H3.19999C3.04299 9.00977 2.89599 9.08277 2.80199 9.20777C2.70599 9.33377 2.67599 9.49477 2.71799 9.64577C3.44099 12.2148 5.81499 14.0098 8.48899 14.0098C11.163 14.0098 13.537 12.2148 14.26 9.64577C14.303 9.49477 14.273 9.33377 14.178 9.20877Z" fill="#FAFAFA"/>
</g>
<defs>
<clipPath id="clip0_3266_52990">
<rect width="16" height="16" fill="white" transform="translate(0.5)"/>
</clipPath>
</defs>
</svg>
