<svg width="17" height="16" viewBox="0 0 17 16" fill="none" xmlns="http://www.w3.org/2000/svg">
<g id="kiss" clip-path="url(#clip0_3266_53006)">
<path id="Vector" d="M8.5 16C12.9183 16 16.5 12.4183 16.5 8C16.5 3.58172 12.9183 0 8.5 0C4.08172 0 0.5 3.58172 0.5 8C0.5 12.4183 4.08172 16 8.5 16Z" fill="#FFCA28"/>
<g id="Group">
<path id="Vector_2" d="M5.5 7C6.05228 7 6.5 6.55228 6.5 6C6.5 5.44772 6.05228 5 5.5 5C4.94772 5 4.5 5.44772 4.5 6C4.5 6.55228 4.94772 7 5.5 7Z" fill="#6D4C41"/>
<path id="Vector_3" d="M11.5 7C12.0523 7 12.5 6.55228 12.5 6C12.5 5.44772 12.0523 5 11.5 5C10.9477 5 10.5 5.44772 10.5 6C10.5 6.55228 10.9477 7 11.5 7Z" fill="#6D4C41"/>
<path id="Vector_4" d="M7.99988 14C7.74288 14 7.52388 13.803 7.50188 13.542C7.47888 13.267 7.68288 13.024 7.95888 13.002C8.37288 12.967 8.79988 12.793 9.23188 12.483C8.86488 12.217 8.44288 12.06 7.93688 11.996C7.68688 11.964 7.49888 11.75 7.49988 11.497C7.50088 11.244 7.69088 11.032 7.94188 11.003C8.55588 10.933 9.00488 10.783 9.29788 10.55C8.86788 10.221 8.45188 10.08 8.05088 10.122C7.76988 10.148 7.52988 9.95096 7.50188 9.67696C7.47388 9.40196 7.67388 9.15596 7.94788 9.12796C8.76388 9.04096 9.57488 9.38396 10.3489 10.143C10.5139 10.304 10.5469 10.558 10.4289 10.756C10.2369 11.078 9.96788 11.339 9.61688 11.539C9.88688 11.707 10.1359 11.913 10.3639 12.159C10.4549 12.256 10.5039 12.386 10.4989 12.519C10.4929 12.652 10.4359 12.778 10.3369 12.868C9.59088 13.554 8.81788 13.933 8.04088 13.998C8.02688 13.999 8.01288 14 7.99988 14Z" fill="#6D4C41"/>
</g>
</g>
<defs>
<clipPath id="clip0_3266_53006">
<rect width="16" height="16" fill="white" transform="translate(0.5)"/>
</clipPath>
</defs>
</svg>
