<svg width="16" height="17" viewBox="0 0 16 17" fill="none" xmlns="http://www.w3.org/2000/svg">
<path d="M9.87333 1.5L11.0177 3.26933L13.1223 3.37467L13.2287 5.479L14.999 6.62233L14.0387 8.49833L15 10.3733L13.2307 11.5177L13.1253 13.6223L11.021 13.7287L9.87767 15.499L8.00167 14.5387L6.12667 15.5L4.98233 13.7307L2.87767 13.6253L2.77133 11.521L1.001 10.3777L1.96133 8.50167L1 6.62667L2.76933 5.48233L2.87467 3.37767L4.979 3.27133L6.12233 1.501L7.99833 2.46133L9.87333 1.5Z" fill="#FF3875"/>
<path d="M7.13246 10.9182L4.9668 8.75316L5.67413 8.04616L7.14313 9.51516L10.3325 6.42383L11.0285 7.14183L7.13246 10.9182Z" fill="white"/>
</svg>
