<svg width="81" height="80" viewBox="0 0 81 80" fill="none" xmlns="http://www.w3.org/2000/svg">
<g id="contract 1">
<g id="Group">
<path id="Vector" d="M30.8161 73.9602C34.6061 73.9602 40.8692 73.9203 48.1983 73.3506C54.3964 72.8689 59.2638 67.83 59.5114 61.6181C59.8088 54.1563 59.9605 46.6955 59.9605 39.9999C59.9605 33.3042 59.8088 25.8435 59.5114 18.3816C59.2639 12.1697 54.3966 7.1308 48.1983 6.64908C40.8692 6.07955 34.6061 6.03955 30.8161 6.03955C27.0262 6.03955 20.7631 6.07939 13.4339 6.64908C7.23578 7.1308 2.36844 12.1697 2.12078 18.3816C1.82359 25.8435 1.67188 33.3042 1.67188 39.9999C1.67188 46.6955 1.82359 54.1563 2.12094 61.6181C2.36844 67.83 7.23578 72.8689 13.4341 73.3506C20.7631 73.9202 27.0262 73.9602 30.8161 73.9602Z" fill="#EEECFF"/>
<path id="Vector_2" d="M59.5382 60.9076C59.8171 53.6835 59.9598 46.4829 59.9598 39.9999C59.9598 34.5653 59.8598 28.6265 59.6632 22.5923C59.479 22.7378 59.2984 22.8888 59.1243 23.0492C57.6979 24.3629 56.2354 25.8223 54.8846 27.289C53.1632 29.1579 52.3195 31.5971 52.4473 34.0318C49.2312 37.792 46.6036 42.0195 44.6207 46.6293C44.0678 47.9149 43.8236 49.297 43.8861 50.6693L43.1293 51.426C40.05 54.5054 40.05 59.5162 43.1295 62.596C46.2164 65.6828 51.2123 65.6826 54.2993 62.596L55.0554 61.8399C56.4376 61.9046 57.8123 61.6568 59.0962 61.1046C59.2454 61.0401 59.3904 60.9729 59.5382 60.9076Z" fill="#D3D3FF"/>
<path id="Vector_3" d="M30.8161 73.9601C33.8086 73.9601 38.3439 73.935 43.7277 73.6442C13.1167 64.2112 18.3131 28.2073 20.6559 6.22559C18.418 6.31621 15.9913 6.45027 13.4341 6.64902C7.23594 7.13074 2.36859 12.1696 2.12094 18.3815C1.82359 25.8434 1.67188 33.3042 1.67188 39.9998C1.67188 46.6954 1.82359 54.1562 2.12094 61.6181C2.36844 67.83 7.23578 72.8689 13.4341 73.3506C20.7631 73.9201 27.0262 73.9601 30.8161 73.9601Z" fill="#D3D3FF"/>
<path id="Vector_4" d="M56.8975 53.3684L52.3567 48.8276L46.4441 54.7403C45.1902 55.9942 45.1902 58.0272 46.4441 59.2811C47.698 60.535 49.731 60.535 50.9849 59.2811L56.8975 53.3684Z" fill="#4677D4"/>
<path id="Vector_5" d="M78.5103 37.7722C74.5905 44.618 67.8868 52.2203 57.2436 56.7983C55.5418 57.5303 53.563 57.1381 52.253 55.828L49.8968 53.4717C48.5868 52.1617 48.1944 50.183 48.9264 48.4811C53.5044 37.838 61.1068 31.1342 67.9525 27.2144C70.3838 25.8223 73.4472 26.2422 75.4283 28.2231L77.5016 30.2964C79.4825 32.2775 79.9024 35.3409 78.5103 37.7722Z" fill="#C5C5C5"/>
<path id="Vector_6" d="M73.6772 26.9918C71.8841 26.1476 69.7472 26.1874 67.9538 27.2143C61.108 31.1342 53.5057 37.8379 48.9277 48.481C48.1957 50.1829 48.5879 52.1617 49.898 53.4717L52.2543 55.8279C53.5643 57.1379 55.5429 57.5303 57.2449 56.7982C60.4696 55.4112 63.3304 53.7454 65.8638 51.9082C63.5925 49.679 62.4372 46.1384 62.1019 42.2942C64.088 42.1934 66.0472 41.4215 67.6079 39.984C69.0449 38.6606 70.4991 37.206 71.8205 35.7713C74.0788 33.3195 74.6882 29.9349 73.6772 26.9918Z" fill="#96A2B1"/>
<path id="Vector_7" d="M60.2773 28.4408C59.5745 29.1436 58.9176 29.8305 58.3336 30.4646C56.6965 32.2419 56.7215 34.9982 58.4231 36.7139C58.4359 36.7269 58.4489 36.7399 58.4618 36.7529C58.4748 36.7658 58.4878 36.7786 58.5007 36.7916C60.2165 38.493 62.9728 38.5182 64.7501 36.8811C65.3842 36.2971 66.071 35.6402 66.7739 34.9374C67.4767 34.2346 68.1335 33.5477 68.7176 32.9136C70.3546 31.1363 70.3295 28.38 68.6281 26.6643C68.6153 26.6513 68.6023 26.6383 68.5893 26.6253C68.5764 26.6124 68.5634 26.5996 68.5504 26.5866C66.8346 24.8852 64.0784 24.86 62.3011 26.4971C61.667 27.0811 60.9801 27.738 60.2773 28.4408Z" fill="#4677D4"/>
<g id="Group_2">
<g id="Group_3">
<path id="Vector_8" d="M18.3713 26.3974C20.9072 26.3974 22.963 24.7603 22.963 22.7407C22.963 20.7212 20.9072 19.084 18.3713 19.084C15.8353 19.084 13.7795 20.7212 13.7795 22.7407C13.7795 24.7603 15.8353 26.3974 18.3713 26.3974Z" fill="#FFA1AC"/>
<path id="Vector_9" d="M43.2602 26.3974C45.7961 26.3974 47.8519 24.7603 47.8519 22.7407C47.8519 20.7212 45.7961 19.084 43.2602 19.084C40.7242 19.084 38.6685 20.7212 38.6685 22.7407C38.6685 24.7603 40.7242 26.3974 43.2602 26.3974Z" fill="#FFA1AC"/>
<path id="Vector_10" d="M34.5175 19.9312C34.5175 17.6432 32.86 17.4282 30.8153 17.4282C28.7708 17.4282 27.1133 17.6432 27.1133 19.9312C27.1133 22.2192 28.7708 24.0738 30.8153 24.0738C32.86 24.0738 34.5175 22.2192 34.5175 19.9312Z" fill="#425460"/>
</g>
</g>
<g id="Group_4">
<path id="Vector_11" d="M34.518 19.9312C34.518 17.6432 32.8605 17.4282 30.8158 17.4282C28.7713 17.4282 27.1138 17.6432 27.1138 19.9312C27.1138 22.2192 28.7713 24.0738 30.8158 24.0738C32.8605 24.0738 34.518 22.2192 34.518 19.9312Z" stroke="black" stroke-miterlimit="10" stroke-linecap="round" stroke-linejoin="round"/>
<path id="Vector_12" d="M19.1389 16.5005V18.3755" stroke="black" stroke-miterlimit="10" stroke-linecap="round" stroke-linejoin="round"/>
<path id="Vector_13" d="M42.4934 16.5V18.375" stroke="black" stroke-miterlimit="10" stroke-linecap="round" stroke-linejoin="round"/>
<path id="Vector_14" d="M14.6968 60.7736C19.0705 57.6495 22.9444 57.0247 25.0688 60.2737C27.1932 63.5228 31.6919 62.114 36.9404 59.4444" stroke="black" stroke-miterlimit="10" stroke-linecap="round" stroke-linejoin="round"/>
<g id="Group_5">
<path id="Vector_15" d="M16.7905 41.2798H44.8405" stroke="black" stroke-miterlimit="10" stroke-linecap="round" stroke-linejoin="round"/>
<path id="Vector_16" d="M16.7905 34.1289H44.8405" stroke="black" stroke-miterlimit="10" stroke-linecap="round" stroke-linejoin="round"/>
<path id="Vector_17" d="M16.7905 48.4307H25.8183" stroke="black" stroke-miterlimit="10" stroke-linecap="round" stroke-linejoin="round"/>
</g>
</g>
</g>
</g>
</svg>
