<svg width="17" height="16" viewBox="0 0 17 16" fill="none" xmlns="http://www.w3.org/2000/svg">
<g id="sad" clip-path="url(#clip0_3266_52998)">
<path id="Vector" d="M8.5 16C12.9183 16 16.5 12.4183 16.5 8C16.5 3.58172 12.9183 0 8.5 0C4.08172 0 0.5 3.58172 0.5 8C0.5 12.4183 4.08172 16 8.5 16Z" fill="#FFCA28"/>
<g id="Group">
<path id="Vector_2" d="M11.6821 12.318C11.5541 12.318 11.4261 12.269 11.3281 12.172C9.81612 10.66 7.18212 10.66 5.67112 12.172C5.47612 12.367 5.15912 12.367 4.96412 12.172C4.76912 11.977 4.76912 11.66 4.96412 11.465C5.90912 10.521 7.16412 10 8.50012 10C9.83612 10 11.0911 10.521 12.0351 11.465C12.2301 11.66 12.2301 11.977 12.0351 12.172C11.9381 12.27 11.8101 12.318 11.6821 12.318Z" fill="#6D4C41"/>
<path id="Vector_3" d="M5.5 7C6.05228 7 6.5 6.55228 6.5 6C6.5 5.44772 6.05228 5 5.5 5C4.94772 5 4.5 5.44772 4.5 6C4.5 6.55228 4.94772 7 5.5 7Z" fill="#6D4C41"/>
<path id="Vector_4" d="M11.5 7C12.0523 7 12.5 6.55228 12.5 6C12.5 5.44772 12.0523 5 11.5 5C10.9477 5 10.5 5.44772 10.5 6C10.5 6.55228 10.9477 7 11.5 7Z" fill="#6D4C41"/>
</g>
</g>
<defs>
<clipPath id="clip0_3266_52998">
<rect width="16" height="16" fill="white" transform="translate(0.5)"/>
</clipPath>
</defs>
</svg>
