<svg width="20" height="20" viewBox="0 0 20 20" fill="none" xmlns="http://www.w3.org/2000/svg">
<g id="added heart">
<g id="Vector">
<path d="M15.7797 11.8211C14.0417 11.8211 12.6278 13.235 12.6278 14.9731C12.6278 16.7111 14.0417 18.125 15.7797 18.125C17.5178 18.125 18.9667 16.7111 18.9667 14.9731C18.9667 13.235 17.5178 11.8211 15.7797 11.8211ZM15.2544 16.7665L13.8324 15.3445L14.5752 14.6017L15.2544 15.2809L16.9843 13.551L17.7271 14.2938L15.2544 16.7665Z" fill="#FF3875"/>
<path d="M14.2033 1.875C12.0794 1.875 10.7148 3.22974 10.0007 4.4784C9.28655 3.22974 7.92197 1.875 5.79809 1.875C3.10272 1.875 1.03516 3.90432 1.03516 6.64227C1.03516 9.61109 3.62549 11.6328 7.49359 14.694C9.38762 16.1915 9.50932 16.3054 10.0007 16.7004C10.3258 16.439 10.5486 16.2498 11.6196 15.3982C11.6051 15.2564 11.5766 15.1186 11.5766 14.9731C11.5766 12.6558 13.462 10.7705 15.7792 10.7705C16.1646 10.7705 16.5309 10.8395 16.8857 10.9371C18.1807 9.57316 18.9662 8.2457 18.9662 6.64227C18.9662 3.90432 16.8986 1.875 14.2033 1.875Z" fill="#FF3875"/>
</g>
</g>
</svg>
