<svg width="24" height="24" viewBox="0 0 24 24" fill="none" xmlns="http://www.w3.org/2000/svg">
<path fill-rule="evenodd" clip-rule="evenodd" d="M12.0276 6.16797H6.06774C5.04944 6.16797 4.13193 6.72627 3.73018 7.59016L2.19611 11.1104C1.87443 11.8042 2.29941 12.5165 2.29977 12.5169L2.30977 12.533C2.32172 12.552 2.33998 12.5783 2.3564 12.602L2.35642 12.602L2.35644 12.6021L2.37733 12.6324C2.37844 12.6337 2.37942 12.6352 2.38043 12.6367L2.38233 12.6395L2.56104 12.8557C2.56773 12.8639 2.57489 12.8717 2.58249 12.879L2.7612 13.0516L2.77621 13.0645C2.88117 13.1544 2.99343 13.2355 3.11184 13.3068V13.3086C3.50082 13.5442 3.944 13.6756 4.39856 13.69H4.48685C5.17463 13.6913 5.83735 13.4319 6.34153 12.964L6.35332 12.953C6.40598 12.9033 6.47559 12.8757 6.54794 12.8757C6.62028 12.8757 6.6899 12.9033 6.74256 12.953L6.75435 12.964C7.2639 13.4311 7.92999 13.6901 8.62118 13.6901C9.31237 13.6901 9.97846 13.4311 10.488 12.964C10.5409 12.9151 10.6102 12.8879 10.6823 12.8879C10.7543 12.8879 10.8237 12.9151 10.8765 12.964C11.3846 13.4296 12.0482 13.6885 12.7373 13.69C13.4264 13.6916 14.0912 13.4356 14.6013 12.9723C14.6533 12.924 14.7217 12.8972 14.7927 12.8972C14.8636 12.8972 14.932 12.924 14.9841 12.9723C15.4947 13.4384 16.1624 13.6947 16.8537 13.69H16.9427C17.3859 13.6734 17.8171 13.5416 18.1937 13.3075C18.2241 13.2893 18.2533 13.2702 18.2827 13.251L18.2828 13.251L18.2931 13.2443C18.5471 13.073 18.7682 12.8574 18.9457 12.6077L19.0079 12.5137C19.0141 12.5042 19.0199 12.4941 19.0251 12.4837L19.0288 12.4762C19.0831 12.366 19.2877 11.951 19.2169 11.471C18.6985 11.6312 18.1478 11.7174 17.5769 11.7174C14.5121 11.7174 12.0276 9.23289 12.0276 6.16812C12.0276 6.16807 12.0276 6.16802 12.0276 6.16797ZM18.2309 21.0368H18.6598C18.7371 21.0369 18.8135 21.0525 18.8846 21.0829C18.9556 21.1133 19.0197 21.1577 19.0731 21.2136C19.1265 21.2694 19.168 21.3355 19.1951 21.4079C19.2223 21.4802 19.2345 21.5573 19.231 21.6344C19.2174 21.9433 18.9508 22.1806 18.6419 22.1806H2.64718C2.56993 22.1806 2.49348 22.1649 2.42244 22.1345C2.35141 22.1041 2.28727 22.0597 2.23389 22.0038C2.18052 21.948 2.13901 21.8819 2.11187 21.8096C2.08474 21.7372 2.07254 21.6602 2.07602 21.583C2.0896 21.2742 2.35624 21.0368 2.66505 21.0368H3.07609C3.11401 21.0368 3.15038 21.0218 3.17719 20.995C3.204 20.9681 3.21906 20.9318 3.21906 20.8939V14.7873C3.2191 14.7647 3.22445 14.7425 3.2347 14.7225C3.24494 14.7024 3.25977 14.6851 3.27799 14.6718C3.29622 14.6586 3.31731 14.6498 3.33955 14.6463C3.3618 14.6428 3.38456 14.6445 3.406 14.6514C3.74444 14.7614 4.09682 14.8227 4.45254 14.8334H4.45468C4.49686 14.8352 4.53617 14.8352 4.57513 14.8352C5.23671 14.8356 5.88691 14.6631 6.46126 14.3348C6.5057 14.3095 6.55596 14.2962 6.60709 14.2962C6.65822 14.2962 6.70848 14.3095 6.75292 14.3348C7.32728 14.6631 7.97748 14.8356 8.63905 14.8352C9.3043 14.837 9.95877 14.6671 10.5391 14.3419C10.5832 14.3169 10.633 14.3038 10.6837 14.3038C10.7344 14.3038 10.7842 14.3169 10.8283 14.3419C11.4 14.6659 12.0462 14.8357 12.7033 14.8348C13.3642 14.8364 14.0144 14.6685 14.592 14.3473C14.6357 14.323 14.6849 14.3102 14.7349 14.3102C14.785 14.3102 14.8342 14.323 14.8779 14.3473C15.4556 14.6685 16.1059 14.8364 16.7669 14.8348C16.7862 14.8348 16.8057 14.8344 16.8255 14.8339C16.8461 14.8335 16.867 14.833 16.8884 14.833C17.2321 14.8227 17.5727 14.7652 17.9006 14.6622C17.9223 14.6551 17.9453 14.6533 17.9677 14.6569C17.9902 14.6606 18.0115 14.6695 18.0298 14.683C18.0481 14.6965 18.0629 14.7141 18.073 14.7345C18.0831 14.7549 18.0883 14.7774 18.0879 14.8001V20.8939C18.0879 20.9318 18.103 20.9681 18.1298 20.995C18.1566 21.0218 18.193 21.0368 18.2309 21.0368ZM9.46786 18.7074C9.49468 18.6806 9.50974 18.6443 9.50974 18.6063V16.3188C9.50974 16.2051 9.46455 16.096 9.38411 16.0155C9.30368 15.9351 9.19458 15.8899 9.08083 15.8899H6.50737C6.39362 15.8899 6.28452 15.9351 6.20409 16.0155C6.12365 16.096 6.07846 16.2051 6.07846 16.3188V18.6063C6.07846 18.6443 6.09352 18.6806 6.12034 18.7074C6.14715 18.7343 6.18351 18.7493 6.22143 18.7493H9.36677C9.40469 18.7493 9.44105 18.7343 9.46786 18.7074ZM12.5121 21.0368H15.0856C15.1235 21.0368 15.1598 21.0218 15.1867 20.995C15.2135 20.9681 15.2285 20.9318 15.2285 20.8939V16.3188C15.2285 16.2051 15.1833 16.096 15.1029 16.0155C15.0225 15.9351 14.9134 15.8899 14.7996 15.8899H12.798C12.6843 15.8899 12.5752 15.9351 12.4948 16.0155C12.4143 16.096 12.3691 16.2051 12.3691 16.3188V20.8939C12.3691 20.9318 12.3842 20.9681 12.411 20.995C12.4378 21.0218 12.4742 21.0368 12.5121 21.0368Z" fill="white"/>
<path fill-rule="evenodd" clip-rule="evenodd" d="M13.2268 6.16836C13.2268 3.76979 15.1782 1.81836 17.5768 1.81836C19.9754 1.81836 21.9268 3.76979 21.9268 6.16836C21.9268 8.56692 19.9754 10.5184 17.5768 10.5184C15.1782 10.5184 13.2268 8.56692 13.2268 6.16836ZM18.2236 4.0487C18.2236 3.71353 17.9422 3.43878 17.5512 3.43878C17.1603 3.43878 16.8864 3.71265 16.8864 4.0644V5.50251L15.3857 5.48681C15.0637 5.48681 14.8456 5.75819 14.8456 6.15693C14.8456 6.55566 15.0658 6.82576 15.3857 6.82576L16.8864 6.84146V8.26584C16.8864 8.61902 17.1225 8.89782 17.5512 8.89782C17.9799 8.89782 18.2236 8.61637 18.2236 8.25013V6.82576H19.7177C20.0742 6.82576 20.3077 6.53299 20.3077 6.15693C20.3077 5.78086 20.0742 5.48681 19.7177 5.48681L18.2236 5.48681V4.0487Z" fill="white"/>
</svg>
