<svg width="32" height="32" viewBox="0 0 32 32" fill="none" xmlns="http://www.w3.org/2000/svg">
<path d="M14 4C10.146 4 7 7.146 7 11C7 13.41 8.23 15.552 10.094 16.813C6.527 18.343 4 21.88 4 26H6C6 21.57 9.57 18 14 18C15.376 18 16.654 18.358 17.78 18.97C16.628 20.3933 15.9997 22.1689 16 24C16 28.406 19.594 32 24 32C28.406 32 32 28.406 32 24C32 19.594 28.406 16 24 16C22.315 16.0023 20.6739 16.5378 19.312 17.53C18.87 17.253 18.392 17.02 17.906 16.812C18.8577 16.1702 19.6375 15.3047 20.1769 14.2914C20.7163 13.2781 20.9989 12.1479 21 11C21 7.146 17.854 4 14 4ZM14 6C16.773 6 19 8.227 19 11C19 13.773 16.773 16 14 16C11.227 16 9 13.773 9 11C9 8.227 11.227 6 14 6ZM24 18C27.326 18 30 20.674 30 24C30 27.326 27.326 30 24 30C20.674 30 18 27.326 18 24C18 20.674 20.674 18 24 18ZM23 20V23H20V25H23V28H25V25H28V23H25V20H23Z" fill="#828282"/>
</svg>
