<svg width="29" height="34" viewBox="0 0 29 34" fill="none" xmlns="http://www.w3.org/2000/svg">
<path d="M28.2459 27.897C28.1048 27.9116 27.9638 27.9116 27.8228 27.9263C27.442 27.8677 27.0613 27.8384 26.7087 27.9996C26.5254 28.0142 26.3279 28.0142 26.1446 28.0289C26.1023 28.0142 26.06 27.9996 26.0036 27.9996C24.8895 28.0582 23.7754 28.1022 22.6614 28.1755C22.5485 28.1755 22.4498 28.2488 22.337 28.2927C22.3511 28.0142 22.2383 27.7797 22.1114 27.5305C21.6319 26.5925 21.1524 25.6398 20.6729 24.7017C20.4473 24.2473 20.2358 23.793 20.0101 23.3386C19.3755 22.0781 18.7268 20.8176 18.0781 19.5571C18.2615 19.5424 18.4448 19.5277 18.6281 19.5131C19.1781 19.4838 19.6153 19.2346 19.9114 18.7509C20.0524 18.5311 20.1794 18.2965 20.2781 18.0474C20.4191 17.7396 20.546 17.4318 20.6729 17.124C21.0114 16.3178 21.5896 15.8048 22.4075 15.5703C23.2113 17.2119 24.0011 18.8682 24.8049 20.5098C24.9318 20.7736 25.0869 21.0081 25.2421 21.2573C25.6933 22.1953 26.1305 23.1334 26.5818 24.0568C26.6241 24.1301 26.7228 24.1741 26.7933 24.2327C26.751 24.4965 26.9061 24.7017 27.0049 24.9069C27.2164 25.3466 27.4279 25.7717 27.6536 26.1968C27.9074 26.6951 28.1612 27.1788 28.4151 27.6625C28.3728 27.7504 28.3164 27.8237 28.2459 27.897Z" fill="white"/>
<path d="M3.01985 28.1448C2.83372 28.13 2.63328 28.13 2.44716 28.1152C2.07492 27.9969 1.68836 27.9673 1.30179 28.0412C1.11567 28.0264 0.915231 28.0116 0.729109 28.0116C0.686157 27.9377 0.628889 27.8637 0.585938 27.7897C0.929548 27.1388 1.27316 26.5027 1.60245 25.837C1.84584 25.3636 2.04628 24.8606 2.27536 24.3724C2.34694 24.2541 2.44716 24.1357 2.50443 24.0174C2.91963 23.2038 3.33482 22.3753 3.7357 21.5469C3.79297 21.4137 3.83592 21.2806 3.87887 21.1475C3.90751 21.1179 3.96478 21.0883 3.97909 21.0439C4.88107 19.2243 5.78305 17.3899 6.68503 15.5703C7.51542 15.7922 8.0881 16.3248 8.44603 17.1236C8.60352 17.4787 8.74669 17.8337 8.90418 18.1888C9.14757 18.7361 9.49118 19.1947 10.0209 19.461C10.0925 19.6237 10.1641 19.6977 10.3073 19.535C10.5077 19.5498 10.7081 19.5498 10.9229 19.5646C10.9229 19.8752 10.8084 20.1415 10.6795 20.393C10.1927 21.3398 9.70594 22.3014 9.21916 23.2629C8.64647 24.3872 8.07379 25.5263 7.5011 26.6506C7.42952 26.7838 7.34361 26.9021 7.27203 27.0205C7.05727 27.4347 6.79956 27.8193 6.72798 28.2927C5.88327 28.2335 5.05288 28.1744 4.20817 28.13C3.80729 28.13 3.40641 28.1448 3.01985 28.1448Z" fill="#C54139"/>
<path d="M13.4249 20.4591C13.8431 20.1844 14.2465 19.925 14.6647 19.6503C14.8888 19.4977 15.0979 19.3298 15.3369 19.1772C15.8299 18.8567 16.3676 18.7041 16.9502 18.7652C17.4133 18.811 17.8763 18.872 18.3394 18.933C19.0266 20.2455 19.6988 21.5579 20.3859 22.8704C20.6249 23.3435 20.849 23.8165 21.088 24.2896C21.5959 25.2816 22.1037 26.2583 22.6116 27.235C22.7461 27.4792 22.8506 27.7386 22.8506 28.0286C22.2382 28.8221 21.6257 29.6004 20.9983 30.394C20.4755 31.0655 19.9378 31.7217 19.4 32.3932C19.2357 32.6068 19.0415 32.8052 18.8324 33.0647C18.7129 32.9121 18.6083 32.8052 18.5485 32.6831C18.2797 32.1795 18.0257 31.6607 17.7568 31.1418C17.6822 30.9892 17.5776 30.8518 17.473 30.6992C16.995 29.7378 16.517 28.7763 16.0241 27.8149C15.9643 27.647 15.9046 27.4792 15.8299 27.3265C15.068 25.8005 14.3062 24.2896 13.5294 22.7788C13.4697 22.672 13.395 22.5804 13.3203 22.4736C13.2008 22.1836 13.0813 21.8937 12.9319 21.619C12.8871 21.5274 12.7527 21.4816 12.663 21.4206C12.6182 21.1459 12.5585 20.8559 12.5137 20.5812C12.663 20.5812 12.8274 20.5812 12.9767 20.5812C13.2456 20.7033 13.2456 20.7033 13.4249 20.4591Z" fill="#C54139"/>
<path d="M15.5522 20.6065C15.5948 20.882 15.6516 21.1728 15.6942 21.4482C15.5522 21.8003 15.4102 22.1676 15.254 22.5196C15.2256 22.5502 15.183 22.5808 15.1546 22.6267C14.3736 24.2643 13.5785 25.8867 12.7975 27.5243C12.7691 27.5855 12.7549 27.662 12.7407 27.7386C12.2722 28.6875 11.8036 29.6517 11.335 30.6006C11.3208 30.6465 11.3208 30.6924 11.3066 30.7536C11.0652 31.2128 10.8097 31.6719 10.5825 32.1464C10.4263 32.4525 10.2843 32.7739 10.1281 33.0647C9.84411 33.0034 9.74472 32.7739 9.61693 32.6055C8.73658 31.4423 7.85624 30.2792 6.97589 29.116C6.69191 28.7487 6.42213 28.3508 6.15234 27.9681C6.22334 27.4784 6.47892 27.0805 6.69191 26.6519C6.76291 26.5142 6.8481 26.3917 6.9191 26.2693C7.48706 25.1061 8.05503 23.9276 8.62299 22.7645C9.10576 21.7696 9.58853 20.7901 10.0713 19.7953C10.1991 19.5198 10.3269 19.2443 10.3127 18.9382C10.7813 18.877 11.2356 18.8158 11.7042 18.7699C12.3574 18.6934 12.9537 18.8617 13.4933 19.2749C13.6495 19.3974 13.8057 19.5045 13.9477 19.627C14.4446 20.0402 14.97 20.3769 15.5522 20.6065Z" fill="white"/>
<path d="M7.37099 22.3018C6.98673 21.9634 6.60247 21.6405 6.2182 21.3021C4.25079 19.549 2.99041 17.3652 2.45245 14.7816C2.29875 14.0126 2.19115 13.2129 2.17578 12.4286C2.17578 10.1987 2.71375 8.07646 3.86653 6.15412C4.37375 5.32367 4.95783 4.55474 5.6495 3.86269C5.72635 3.80118 5.77246 3.70891 5.83394 3.63201C6.23358 3.29368 6.6332 2.95535 7.03284 2.61702C7.49395 2.30944 7.95506 2.00187 8.41617 1.70968C8.63136 1.63278 8.84655 1.55589 9.04636 1.44824C12.4586 -0.0896347 15.8862 -0.105013 19.2984 1.41748C19.5136 1.50975 19.7288 1.58664 19.9286 1.67892C20.4359 2.01725 20.9277 2.3402 21.4349 2.67853C21.8346 3.01686 22.2496 3.3552 22.6492 3.69353C22.9566 4.06262 23.264 4.4317 23.5714 4.81617C24.9548 6.55397 25.7694 8.52244 26.0922 10.737C26.707 14.9661 24.8164 19.4721 21.2966 22.0403C21.1736 22.1326 21.066 22.2402 20.9431 22.3325C20.5281 22.594 20.0977 22.84 19.6827 23.1015C19.5444 23.163 19.4214 23.2245 19.2831 23.286C19.1447 23.3475 18.991 23.4244 18.8527 23.4859C18.7451 23.5321 18.6221 23.5628 18.5145 23.609C18.3762 23.6705 18.2225 23.732 18.0842 23.7781C17.4079 23.9473 16.7316 24.1011 16.0553 24.2702C15.9477 24.2856 15.8555 24.301 15.7479 24.3164C14.6719 24.3164 13.596 24.3164 12.5201 24.301C12.4125 24.2856 12.3203 24.2549 12.2127 24.2395C12.0897 24.2087 11.9667 24.1626 11.8438 24.1318C10.4143 23.8396 9.09248 23.3168 7.84747 22.5632C7.73988 22.4709 7.55543 22.394 7.37099 22.3018ZM14.1493 22.3018C14.4568 22.3018 14.7642 22.2864 15.0716 22.3018C15.6403 22.3325 16.1936 22.1941 16.7316 22.0557C17.6692 21.8096 18.576 21.4406 19.4214 20.9484C20.0208 20.6101 20.5742 20.1949 21.0814 19.7181C22.0651 18.7954 22.8336 17.7343 23.4023 16.504C23.8481 15.5505 24.1555 14.5355 24.2323 13.4898C24.3246 12.4901 24.3246 11.4598 24.1248 10.4294C23.7251 8.41479 22.8644 6.66162 21.4196 5.21602C21.0353 4.83155 20.6357 4.49322 20.2053 4.15489C19.0525 3.26292 17.7614 2.70929 16.3473 2.40172C15.7018 2.26331 15.0255 2.35558 14.3799 2.14028C14.2262 2.09414 14.0264 2.15566 13.8573 2.18641C13.7036 2.20179 13.5499 2.27869 13.4116 2.26331C12.5201 2.23255 11.7054 2.49399 10.8754 2.75543C8.89266 3.38595 7.43247 4.70852 6.14135 6.26177C5.94154 6.49245 5.77246 6.75389 5.61876 7.01533C5.00394 8.0457 4.52746 9.15297 4.34301 10.3525C4.25079 10.983 4.08171 11.5982 4.12783 12.2441C4.15857 12.7055 4.20468 13.1514 4.25079 13.6128C4.38912 14.7662 4.75801 15.8427 5.26524 16.8885C5.91079 18.211 6.8945 19.2414 7.9858 20.1641C8.72359 20.7947 9.55359 21.2868 10.4912 21.6251C11.5364 21.9942 12.5662 22.3171 13.6882 22.271C13.8419 22.3018 13.9956 22.3018 14.1493 22.3018Z" fill="url(#paint0_linear_4950_100529)"/>
<path d="M14.1393 22.4032C13.9847 22.4032 13.8302 22.4032 13.6756 22.4032C12.5474 22.4495 11.5119 22.1251 10.461 21.7543C9.53365 21.4144 8.68362 20.92 7.94178 20.2865C6.84446 19.3595 5.85534 18.3243 5.20622 16.9956C4.6962 15.945 4.32528 14.8789 4.18619 13.7047C4.12437 13.2412 4.09346 12.7931 4.06255 12.3296C4.01618 11.6807 4.18619 11.0472 4.27892 10.4292C4.46438 9.2241 4.92803 8.11168 5.56169 7.07651C5.71624 6.81386 5.9017 6.55121 6.08716 6.31945C7.38539 4.75897 8.85362 3.43025 10.8473 2.79679C11.6819 2.53413 12.5165 2.27148 13.3974 2.30238C13.552 2.30238 13.6911 2.24058 13.8456 2.22513C14.0156 2.19422 14.2165 2.13243 14.3711 2.17878C15.0202 2.39508 15.6848 2.30238 16.3493 2.44143C17.7867 2.75043 19.0849 3.30665 20.2286 4.20276C20.6613 4.52722 21.0631 4.88258 21.4495 5.26883C22.9178 6.72116 23.7678 8.48249 24.1696 10.5065C24.3705 11.5262 24.3551 12.5614 24.2778 13.5811C24.1851 14.6163 23.8914 15.636 23.4432 16.6093C22.8714 17.8299 22.0986 18.9114 21.1095 19.8384C20.5995 20.3174 20.0431 20.7191 19.4404 21.0745C18.5903 21.5689 17.6939 21.9397 16.7357 22.1869C16.1948 22.3259 15.6384 22.465 15.0666 22.4341C14.7575 22.3877 14.4484 22.4032 14.1393 22.4032ZM5.77806 12.2833C5.77806 12.7004 5.7317 13.1021 5.79352 13.4729C6.00989 14.7399 6.36535 15.9759 7.13811 17.0419C7.95723 18.1698 8.9309 19.1586 10.1828 19.823C11.4501 20.5028 12.7947 20.8427 14.232 20.8736C14.8347 20.8891 15.4066 20.7964 15.9784 20.6728C16.6121 20.5492 17.2303 20.3638 17.7867 20.0393C18.0339 19.9003 18.2967 19.7767 18.544 19.653C19.4713 19.205 20.1977 18.5097 20.8313 17.7372C21.4495 16.9801 21.8823 16.0995 22.2686 15.1879C22.5932 14.4308 22.6396 13.5965 22.7478 12.7931C22.8559 12.0052 22.6705 11.2172 22.485 10.4447C22.4077 10.0739 22.2686 9.70306 22.1295 9.34771C21.7586 8.42069 21.295 7.52457 20.615 6.76751C19.5795 5.62419 18.3431 4.75898 16.8748 4.28002C16.2721 4.07916 15.6384 3.94011 15.0047 3.89376C14.2165 3.83196 13.4283 3.86286 12.6247 4.01736C11.3573 4.26456 10.2446 4.82078 9.17818 5.50059C9.08545 5.56239 9.02363 5.63964 8.94636 5.70144C8.51361 6.13405 8.06542 6.55121 7.64813 7.01471C7.15357 7.54002 6.73628 8.14259 6.47354 8.80695C6.0408 9.91937 5.65442 11.0627 5.77806 12.2833Z" fill="#EFEFF3"/>
<path d="M14.1393 22.4032C13.9847 22.4032 13.8302 22.4032 13.6756 22.4032C12.5474 22.4495 11.5119 22.1251 10.461 21.7543C9.53365 21.4144 8.68362 20.92 7.94178 20.2865C6.84446 19.3595 5.85534 18.3243 5.20622 16.9956C4.6962 15.945 4.32528 14.8789 4.18619 13.7047C4.12437 13.2412 4.09346 12.7931 4.06255 12.3296C4.01618 11.6807 4.18619 11.0472 4.27892 10.4292C4.46438 9.2241 4.92803 8.11168 5.56169 7.07651C5.71624 6.81386 5.9017 6.55121 6.08716 6.31945C7.38539 4.75897 8.85362 3.43025 10.8473 2.79679C11.6819 2.53413 12.5165 2.27148 13.3974 2.30238C13.552 2.30238 13.6911 2.24058 13.8456 2.22513C14.0156 2.19422 14.2165 2.13243 14.3711 2.17878C15.0202 2.39508 15.6848 2.30238 16.3493 2.44143C17.7867 2.75043 19.0849 3.30665 20.2286 4.20276C20.6613 4.52722 21.0631 4.88258 21.4495 5.26883C22.9178 6.72116 23.7678 8.48249 24.1696 10.5065C24.3705 11.5262 24.3551 12.5614 24.2778 13.5811C24.1851 14.6163 23.8914 15.636 23.4432 16.6093C22.8714 17.8299 22.0986 18.9114 21.1095 19.8384C20.5995 20.3174 20.0431 20.7191 19.4404 21.0745C18.5903 21.5689 17.6939 21.9397 16.7357 22.1869C16.1948 22.3259 15.6384 22.465 15.0666 22.4341C14.7575 22.3877 14.4484 22.4032 14.1393 22.4032ZM5.77806 12.2833C5.77806 12.7004 5.7317 13.1021 5.79352 13.4729C6.00989 14.7399 6.36535 15.9759 7.13811 17.0419C7.95723 18.1698 8.9309 19.1586 10.1828 19.823C11.4501 20.5028 12.7947 20.8427 14.232 20.8736C14.8347 20.8891 15.4066 20.7964 15.9784 20.6728C16.6121 20.5492 17.2303 20.3638 17.7867 20.0393C18.0339 19.9003 18.2967 19.7767 18.544 19.653C19.4713 19.205 20.1977 18.5097 20.8313 17.7372C21.4495 16.9801 21.8823 16.0995 22.2686 15.1879C22.5932 14.4308 22.6396 13.5965 22.7478 12.7931C22.8559 12.0052 22.6705 11.2172 22.485 10.4447C22.4077 10.0739 22.2686 9.70306 22.1295 9.34771C21.7586 8.42069 21.295 7.52457 20.615 6.76751C19.5795 5.62419 18.3431 4.75898 16.8748 4.28002C16.2721 4.07916 15.6384 3.94011 15.0047 3.89376C14.2165 3.83196 13.4283 3.86286 12.6247 4.01736C11.3573 4.26456 10.2446 4.82078 9.17818 5.50059C9.08545 5.56239 9.02363 5.63964 8.94636 5.70144C8.51361 6.13405 8.06542 6.55121 7.64813 7.01471C7.15357 7.54002 6.73628 8.14259 6.47354 8.80695C6.0408 9.91937 5.65442 11.0627 5.77806 12.2833Z" fill="url(#paint1_linear_4950_100529)"/>
<path d="M14.1393 22.4032C13.9847 22.4032 13.8302 22.4032 13.6756 22.4032C12.5474 22.4495 11.5119 22.1251 10.461 21.7543C9.53365 21.4144 8.68362 20.92 7.94178 20.2865C6.84446 19.3595 5.85534 18.3243 5.20622 16.9956C4.6962 15.945 4.32528 14.8789 4.18619 13.7047C4.12437 13.2412 4.09346 12.7931 4.06255 12.3296C4.01618 11.6807 4.18619 11.0472 4.27892 10.4292C4.46438 9.2241 4.92803 8.11168 5.56169 7.07651C5.71624 6.81386 5.9017 6.55121 6.08716 6.31945C7.38539 4.75897 8.85362 3.43025 10.8473 2.79679C11.6819 2.53413 12.5165 2.27148 13.3974 2.30238C13.552 2.30238 13.6911 2.24058 13.8456 2.22513C14.0156 2.19422 14.2165 2.13243 14.3711 2.17878C15.0202 2.39508 15.6848 2.30238 16.3493 2.44143C17.7867 2.75043 19.0849 3.30665 20.2286 4.20276C20.6613 4.52722 21.0631 4.88258 21.4495 5.26883C22.9178 6.72116 23.7678 8.48249 24.1696 10.5065C24.3705 11.5262 24.3551 12.5614 24.2778 13.5811C24.1851 14.6163 23.8914 15.636 23.4432 16.6093C22.8714 17.8299 22.0986 18.9114 21.1095 19.8384C20.5995 20.3174 20.0431 20.7191 19.4404 21.0745C18.5903 21.5689 17.6939 21.9397 16.7357 22.1869C16.1948 22.3259 15.6384 22.465 15.0666 22.4341C14.7575 22.3877 14.4484 22.4032 14.1393 22.4032ZM5.77806 12.2833C5.77806 12.7004 5.7317 13.1021 5.79352 13.4729C6.00989 14.7399 6.36535 15.9759 7.13811 17.0419C7.95723 18.1698 8.9309 19.1586 10.1828 19.823C11.4501 20.5028 12.7947 20.8427 14.232 20.8736C14.8347 20.8891 15.4066 20.7964 15.9784 20.6728C16.6121 20.5492 17.2303 20.3638 17.7867 20.0393C18.0339 19.9003 18.2967 19.7767 18.544 19.653C19.4713 19.205 20.1977 18.5097 20.8313 17.7372C21.4495 16.9801 21.8823 16.0995 22.2686 15.1879C22.5932 14.4308 22.6396 13.5965 22.7478 12.7931C22.8559 12.0052 22.6705 11.2172 22.485 10.4447C22.4077 10.0739 22.2686 9.70306 22.1295 9.34771C21.7586 8.42069 21.295 7.52457 20.615 6.76751C19.5795 5.62419 18.3431 4.75898 16.8748 4.28002C16.2721 4.07916 15.6384 3.94011 15.0047 3.89376C14.2165 3.83196 13.4283 3.86286 12.6247 4.01736C11.3573 4.26456 10.2446 4.82078 9.17818 5.50059C9.08545 5.56239 9.02363 5.63964 8.94636 5.70144C8.51361 6.13405 8.06542 6.55121 7.64813 7.01471C7.15357 7.54002 6.73628 8.14259 6.47354 8.80695C6.0408 9.91937 5.65442 11.0627 5.77806 12.2833Z" fill="url(#paint2_linear_4950_100529)"/>
<path d="M14.1393 22.4032C13.9847 22.4032 13.8302 22.4032 13.6756 22.4032C12.5474 22.4495 11.5119 22.1251 10.461 21.7543C9.53365 21.4144 8.68362 20.92 7.94178 20.2865C6.84446 19.3595 5.85534 18.3243 5.20622 16.9956C4.6962 15.945 4.32528 14.8789 4.18619 13.7047C4.12437 13.2412 4.09346 12.7931 4.06255 12.3296C4.01618 11.6807 4.18619 11.0472 4.27892 10.4292C4.46438 9.2241 4.92803 8.11168 5.56169 7.07651C5.71624 6.81386 5.9017 6.55121 6.08716 6.31945C7.38539 4.75897 8.85362 3.43025 10.8473 2.79679C11.6819 2.53413 12.5165 2.27148 13.3974 2.30238C13.552 2.30238 13.6911 2.24058 13.8456 2.22513C14.0156 2.19422 14.2165 2.13243 14.3711 2.17878C15.0202 2.39508 15.6848 2.30238 16.3493 2.44143C17.7867 2.75043 19.0849 3.30665 20.2286 4.20276C20.6613 4.52722 21.0631 4.88258 21.4495 5.26883C22.9178 6.72116 23.7678 8.48249 24.1696 10.5065C24.3705 11.5262 24.3551 12.5614 24.2778 13.5811C24.1851 14.6163 23.8914 15.636 23.4432 16.6093C22.8714 17.8299 22.0986 18.9114 21.1095 19.8384C20.5995 20.3174 20.0431 20.7191 19.4404 21.0745C18.5903 21.5689 17.6939 21.9397 16.7357 22.1869C16.1948 22.3259 15.6384 22.465 15.0666 22.4341C14.7575 22.3877 14.4484 22.4032 14.1393 22.4032ZM5.77806 12.2833C5.77806 12.7004 5.7317 13.1021 5.79352 13.4729C6.00989 14.7399 6.36535 15.9759 7.13811 17.0419C7.95723 18.1698 8.9309 19.1586 10.1828 19.823C11.4501 20.5028 12.7947 20.8427 14.232 20.8736C14.8347 20.8891 15.4066 20.7964 15.9784 20.6728C16.6121 20.5492 17.2303 20.3638 17.7867 20.0393C18.0339 19.9003 18.2967 19.7767 18.544 19.653C19.4713 19.205 20.1977 18.5097 20.8313 17.7372C21.4495 16.9801 21.8823 16.0995 22.2686 15.1879C22.5932 14.4308 22.6396 13.5965 22.7478 12.7931C22.8559 12.0052 22.6705 11.2172 22.485 10.4447C22.4077 10.0739 22.2686 9.70306 22.1295 9.34771C21.7586 8.42069 21.295 7.52457 20.615 6.76751C19.5795 5.62419 18.3431 4.75898 16.8748 4.28002C16.2721 4.07916 15.6384 3.94011 15.0047 3.89376C14.2165 3.83196 13.4283 3.86286 12.6247 4.01736C11.3573 4.26456 10.2446 4.82078 9.17818 5.50059C9.08545 5.56239 9.02363 5.63964 8.94636 5.70144C8.51361 6.13405 8.06542 6.55121 7.64813 7.01471C7.15357 7.54002 6.73628 8.14259 6.47354 8.80695C6.0408 9.91937 5.65442 11.0627 5.77806 12.2833Z" fill="#944214" fill-opacity="0.2"/>
<g filter="url(#filter0_d_4950_100529)">
<path d="M13.4436 3.66514C19.0211 3.5881 22.9963 7.67111 22.9346 12.3858C22.9038 14.8048 22.041 16.854 20.2999 18.5643C18.6051 20.2437 16.5559 21.0757 14.214 21.0449C11.7796 21.0141 9.63791 20.1358 7.92767 18.3177C6.35609 16.6229 5.53949 14.5891 5.5549 12.3242C5.57031 9.85898 6.52558 7.70192 8.35908 5.97627C10.0077 4.42011 11.9953 3.74217 13.4436 3.66514Z" fill="url(#paint3_linear_4950_100529)"/>
</g>
<g filter="url(#filter1_i_4950_100529)">
<path d="M15.6934 16.9759C15.0001 17.0712 14.4109 17.0712 13.7524 16.9759C13.735 16.7093 13.683 16.4807 13.683 16.2331C13.683 14.6523 13.683 13.0524 13.683 11.4715C13.683 11.1668 13.6657 10.862 13.6484 10.5954C13.4231 10.443 13.3191 10.5763 13.2151 10.6525C12.9032 10.9192 12.5739 11.1858 12.262 11.4525C11.9327 11.3001 11.8287 10.9763 11.6554 10.7287C11.4994 10.5001 11.3608 10.2716 11.1875 9.98588C11.3088 9.8335 11.4301 9.70018 11.5514 9.5859C12.1927 9.0526 12.8339 8.5193 13.4751 7.96695C13.7177 7.75744 13.9603 7.64316 14.2723 7.66221C14.7055 7.68126 15.1388 7.68125 15.5027 7.68125C15.5894 7.77649 15.6067 7.79553 15.624 7.81458C15.6414 7.83363 15.6587 7.87172 15.6587 7.90981C15.676 10.5763 15.676 13.2428 15.6934 15.9093C15.6934 16.2141 15.6934 16.5379 15.6934 16.9759Z" fill="#DDB240"/>
</g>
<defs>
<filter id="filter0_d_4950_100529" x="2.55469" y="1.66406" width="23.3809" height="23.3809" filterUnits="userSpaceOnUse" color-interpolation-filters="sRGB">
<feFlood flood-opacity="0" result="BackgroundImageFix"/>
<feColorMatrix in="SourceAlpha" type="matrix" values="0 0 0 0 0 0 0 0 0 0 0 0 0 0 0 0 0 0 127 0" result="hardAlpha"/>
<feOffset dy="1"/>
<feGaussianBlur stdDeviation="1.5"/>
<feComposite in2="hardAlpha" operator="out"/>
<feColorMatrix type="matrix" values="0 0 0 0 0.354167 0 0 0 0 0.354167 0 0 0 0 0.354167 0 0 0 0.25 0"/>
<feBlend mode="normal" in2="BackgroundImageFix" result="effect1_dropShadow_4950_100529"/>
<feBlend mode="normal" in="SourceGraphic" in2="effect1_dropShadow_4950_100529" result="shape"/>
</filter>
<filter id="filter1_i_4950_100529" x="11.1875" y="7.66016" width="4.50586" height="10.3867" filterUnits="userSpaceOnUse" color-interpolation-filters="sRGB">
<feFlood flood-opacity="0" result="BackgroundImageFix"/>
<feBlend mode="normal" in="SourceGraphic" in2="BackgroundImageFix" result="shape"/>
<feColorMatrix in="SourceAlpha" type="matrix" values="0 0 0 0 0 0 0 0 0 0 0 0 0 0 0 0 0 0 127 0" result="hardAlpha"/>
<feOffset dy="1"/>
<feGaussianBlur stdDeviation="2"/>
<feComposite in2="hardAlpha" operator="arithmetic" k2="-1" k3="1"/>
<feColorMatrix type="matrix" values="0 0 0 0 0.633333 0 0 0 0 0.494 0 0 0 0 0 0 0 0 0.4 0"/>
<feBlend mode="normal" in2="shape" result="effect1_innerShadow_4950_100529"/>
</filter>
<linearGradient id="paint0_linear_4950_100529" x1="7.99584" y1="1.78711" x2="20.9502" y2="22.8144" gradientUnits="userSpaceOnUse">
<stop stop-color="#F0AF06"/>
<stop offset="0.5" stop-color="#FDFDFC"/>
<stop offset="1" stop-color="#F0AF06"/>
</linearGradient>
<linearGradient id="paint1_linear_4950_100529" x1="22.7469" y1="4.85506" x2="5.63878" y2="19.4287" gradientUnits="userSpaceOnUse">
<stop stop-color="#FFD43C"/>
<stop offset="0.5" stop-color="#FDFDFC" stop-opacity="0.104167"/>
<stop offset="1" stop-color="#FFD748"/>
</linearGradient>
<linearGradient id="paint2_linear_4950_100529" x1="8.96536" y1="3.42938" x2="19.8956" y2="21.1712" gradientUnits="userSpaceOnUse">
<stop stop-color="#F0AF06"/>
<stop offset="0.5" stop-color="#FDFDFC" stop-opacity="0.104167"/>
<stop offset="1" stop-color="#F0AF06"/>
</linearGradient>
<linearGradient id="paint3_linear_4950_100529" x1="9.76407" y1="4.75042" x2="19.1341" y2="19.9589" gradientUnits="userSpaceOnUse">
<stop stop-color="#F0AF06"/>
<stop offset="0.5" stop-color="#FDEFC0"/>
<stop offset="1" stop-color="#F0AF06"/>
</linearGradient>
</defs>
</svg>
