<svg width="22" height="26" viewBox="0 0 22 26" fill="none" xmlns="http://www.w3.org/2000/svg">
<g id="3rd medal">
<g id="Group 9690">
<path id="Vector" d="M21.8156 21.261C21.708 21.2722 21.6005 21.2722 21.4929 21.2834C21.2025 21.2387 20.9121 21.2163 20.6432 21.3393C20.5034 21.3505 20.3528 21.3505 20.2129 21.3617C20.1807 21.3505 20.1484 21.3393 20.1054 21.3393C19.2557 21.384 18.4059 21.4176 17.5562 21.4735C17.4702 21.4735 17.3949 21.5294 17.3088 21.5629C17.3196 21.3505 17.2335 21.1716 17.1367 20.9816C16.771 20.2661 16.4053 19.5395 16.0396 18.824C15.8675 18.4774 15.7062 18.1309 15.5341 17.7843C15.0501 16.8229 14.5553 15.8615 14.0605 14.9001C14.2004 14.8889 14.3402 14.8777 14.48 14.8666C14.8995 14.8442 15.2329 14.6542 15.4588 14.2852C15.5664 14.1176 15.6632 13.9387 15.7385 13.7486C15.846 13.5139 15.9428 13.2791 16.0396 13.0444C16.2978 12.4295 16.7388 12.0382 17.3626 11.8594C17.9757 13.1114 18.578 14.3747 19.1911 15.6267C19.2879 15.828 19.4062 16.0068 19.5246 16.1969C19.8688 16.9124 20.2022 17.6278 20.5464 18.3321C20.5786 18.388 20.6539 18.4215 20.7077 18.4663C20.6754 18.6675 20.7938 18.824 20.8691 18.9805C21.0304 19.3159 21.1917 19.6401 21.3638 19.9643C21.5574 20.3444 21.751 20.7133 21.9447 21.0822C21.9124 21.1493 21.8694 21.2052 21.8156 21.261Z" fill="white"/>
<path id="Vector_2" d="M2.57512 21.4501C2.43316 21.4388 2.28028 21.4388 2.13833 21.4275C1.85441 21.3372 1.55958 21.3147 1.26474 21.3711C1.12278 21.3598 0.969906 21.3485 0.827948 21.3485C0.795189 21.2921 0.751509 21.2357 0.71875 21.1793C0.980825 20.6828 1.2429 20.1976 1.49406 19.6899C1.67969 19.3288 1.83257 18.9452 2.00729 18.5729C2.06189 18.4826 2.13832 18.3923 2.182 18.3021C2.49868 17.6815 2.81535 17.0496 3.12111 16.4178C3.16479 16.3162 3.19755 16.2147 3.23031 16.1131C3.25215 16.0906 3.29582 16.068 3.30674 16.0341C3.99469 14.6463 4.68264 13.2472 5.37059 11.8594C6.00394 12.0286 6.44073 12.4348 6.71372 13.0441C6.83384 13.3149 6.94304 13.5857 7.06316 13.8565C7.2488 14.274 7.51087 14.6237 7.9149 14.8268C7.9695 14.951 8.0241 15.0074 8.1333 14.8833C8.28618 14.8945 8.43906 14.8945 8.60285 14.9058C8.60285 15.1428 8.51549 15.3459 8.41722 15.5377C8.04594 16.2598 7.67467 16.9932 7.30339 17.7266C6.8666 18.5841 6.42981 19.4529 5.99302 20.3105C5.93842 20.412 5.8729 20.5023 5.8183 20.5925C5.6545 20.9085 5.45795 21.2018 5.40335 21.5629C4.75908 21.5178 4.12573 21.4726 3.48146 21.4388C3.17571 21.4388 2.86995 21.4501 2.57512 21.4501Z" fill="#4C85DB"/>
<path id="Vector_3" d="M10.5114 15.5872C10.8304 15.3777 11.138 15.1799 11.457 14.9703C11.6279 14.8539 11.7874 14.7259 11.9697 14.6095C12.3457 14.3651 12.7559 14.2487 13.2002 14.2952C13.5534 14.3302 13.9066 14.3767 14.2598 14.4233C14.7838 15.4243 15.2965 16.4253 15.8206 17.4263C16.0029 17.7871 16.1738 18.148 16.3561 18.5088C16.7435 19.2654 17.1308 20.0103 17.5182 20.7553C17.6208 20.9415 17.7005 21.1394 17.7005 21.3605C17.2334 21.9658 16.7663 22.5594 16.2877 23.1647C15.889 23.6768 15.4788 24.1773 15.0687 24.6895C14.9434 24.8524 14.7952 25.0037 14.6357 25.2016C14.5446 25.0852 14.4648 25.0037 14.4193 24.9106C14.2142 24.5265 14.0205 24.1308 13.8154 23.735C13.7585 23.6186 13.6787 23.5139 13.599 23.3975C13.2344 22.6642 12.8698 21.9309 12.4938 21.1976C12.4482 21.0695 12.4027 20.9415 12.3457 20.8251C11.7646 19.6611 11.1836 18.5088 10.5911 17.3565C10.5456 17.275 10.4886 17.2052 10.4316 17.1237C10.3405 16.9025 10.2493 16.6814 10.1354 16.4719C10.1012 16.402 9.9987 16.3671 9.93034 16.3205C9.89616 16.111 9.85059 15.8899 9.81641 15.6804C9.93034 15.6804 10.0557 15.6804 10.1696 15.6804C10.3747 15.7735 10.3747 15.7735 10.5114 15.5872Z" fill="#4C85DB"/>
<path id="Vector_4" d="M12.1342 15.6996C12.1667 15.9097 12.21 16.1315 12.2425 16.3416C12.1342 16.6101 12.0259 16.8903 11.9068 17.1588C11.8851 17.1821 11.8526 17.2055 11.8309 17.2405C11.2353 18.4895 10.6288 19.7269 10.0332 20.9759C10.0115 21.0226 10.0007 21.081 9.98988 21.1393C9.63249 21.8631 9.27511 22.5985 8.91772 23.3222C8.90689 23.3572 8.9069 23.3923 8.89607 23.439C8.71196 23.7892 8.51702 24.1393 8.34374 24.5012C8.22462 24.7347 8.11632 24.9798 7.99719 25.2016C7.78059 25.1549 7.70479 24.9798 7.60732 24.8514C6.93587 23.9642 6.26442 23.0771 5.59297 22.1899C5.37638 21.9098 5.17061 21.6063 4.96484 21.3144C5.01899 20.9409 5.21393 20.6374 5.37638 20.3105C5.43053 20.2055 5.4955 20.1121 5.54965 20.0187C5.98285 19.1315 6.41604 18.2327 6.84923 17.3455C7.21745 16.5868 7.58566 15.8397 7.95387 15.0809C8.05134 14.8708 8.14881 14.6607 8.13798 14.4272C8.49536 14.3805 8.84192 14.3339 9.1993 14.2988C9.69747 14.2405 10.1523 14.3689 10.5639 14.6841C10.683 14.7774 10.8021 14.8591 10.9104 14.9525C11.2895 15.2677 11.6902 15.5245 12.1342 15.6996Z" fill="white"/>
</g>
<g id="Group 9689">
<path id="Vector_5" d="M6.20144 16.9717C5.90874 16.714 5.61604 16.468 5.32334 16.2103C3.82472 14.8748 2.86466 13.2114 2.45488 11.2434C2.3378 10.6577 2.25585 10.0485 2.24414 9.45112C2.24414 7.75254 2.65392 6.13597 3.53202 4.67169C3.91838 4.03912 4.36329 3.4534 4.89014 2.92626C4.94868 2.8794 4.98381 2.80912 5.03064 2.75055C5.33505 2.49283 5.63946 2.23512 5.94386 1.9774C6.2951 1.74312 6.64634 1.50883 6.99758 1.28626C7.16149 1.22769 7.32541 1.16911 7.47761 1.08711C10.0768 -0.0843145 12.6877 -0.0960284 15.2868 1.06369C15.4508 1.13397 15.6147 1.19254 15.7669 1.26283C16.1532 1.52054 16.5279 1.76654 16.9142 2.02426C17.2187 2.28197 17.5348 2.53969 17.8392 2.7974C18.0733 3.07854 18.3075 3.35969 18.5417 3.65254C19.5954 4.97626 20.2159 6.47569 20.4618 8.16255C20.9301 11.384 19.49 14.8163 16.8089 16.7726C16.7152 16.8428 16.6333 16.9248 16.5396 16.9951C16.2235 17.1943 15.8957 17.3817 15.5795 17.5808C15.4742 17.6277 15.3805 17.6746 15.2751 17.7214C15.1698 17.7683 15.0527 17.8268 14.9473 17.8737C14.8653 17.9088 14.7717 17.9323 14.6897 17.9674C14.5844 18.0143 14.4673 18.0611 14.3619 18.0963C13.8468 18.2251 13.3316 18.3423 12.8165 18.4711C12.7345 18.4828 12.6642 18.4946 12.5823 18.5063C11.7627 18.5063 10.9432 18.5063 10.1236 18.4946C10.0417 18.4828 9.97141 18.4594 9.88946 18.4477C9.79579 18.4243 9.70213 18.3891 9.60847 18.3657C8.51962 18.1431 7.51274 17.7448 6.56439 17.1708C6.48243 17.1006 6.34194 17.042 6.20144 16.9717ZM11.3647 16.9717C11.5988 16.9717 11.833 16.96 12.0671 16.9717C12.5003 16.9951 12.9218 16.8897 13.3316 16.7843C14.0458 16.5968 14.7366 16.3157 15.3805 15.9408C15.8371 15.6831 16.2586 15.3668 16.645 15.0037C17.3943 14.3008 17.9797 13.4925 18.4129 12.5554C18.7524 11.8291 18.9866 11.056 19.0451 10.2594C19.1153 9.49798 19.1154 8.71312 18.9631 7.92826C18.6587 6.39369 18.0031 5.05826 16.9025 3.95712C16.6098 3.66426 16.3054 3.40654 15.9776 3.14883C15.0995 2.4694 14.116 2.04769 13.0389 1.8134C12.5472 1.70797 12.032 1.77826 11.5403 1.61426C11.4232 1.57911 11.271 1.62597 11.1422 1.6494C11.0251 1.66112 10.908 1.71969 10.8027 1.70797C10.1236 1.68454 9.50309 1.88369 8.87086 2.08283C7.36053 2.56312 6.24827 3.57055 5.2648 4.75369C5.1126 4.9294 4.98381 5.12855 4.86673 5.32769C4.39841 6.11255 4.03546 6.95597 3.89497 7.86969C3.82472 8.34997 3.69593 8.81855 3.73105 9.31055C3.75447 9.66198 3.78959 10.0017 3.82472 10.3531C3.93009 11.2317 4.21108 12.0517 4.59745 12.8483C5.08918 13.8557 5.83849 14.6406 6.66976 15.3434C7.23174 15.8237 7.86397 16.1986 8.57816 16.4563C9.3743 16.7374 10.1587 16.9834 11.0134 16.9483C11.1305 16.9717 11.2476 16.9717 11.3647 16.9717Z" fill="url(#paint0_linear_4950_100558)"/>
<g id="Vector_6">
<path d="M11.3555 17.0489C11.2377 17.0489 11.12 17.0489 11.0023 17.0489C10.1429 17.0842 9.35415 16.8371 8.55362 16.5546C7.84727 16.2957 7.19979 15.9191 6.63471 15.4366C5.79886 14.7305 5.04542 13.942 4.55098 12.9298C4.16249 12.1296 3.87995 11.3175 3.77399 10.4231C3.7269 10.07 3.70336 9.72873 3.67981 9.37566C3.6445 8.88137 3.77399 8.39885 3.84463 7.9281C3.9859 7.01013 4.33907 6.16278 4.82175 5.37427C4.93947 5.1742 5.08074 4.97413 5.22201 4.7976C6.2109 3.60895 7.32928 2.59683 8.84793 2.11431C9.48364 1.91424 10.1194 1.71417 10.7904 1.7377C10.9081 1.7377 11.0141 1.69063 11.1318 1.67886C11.2613 1.65532 11.4143 1.60825 11.5321 1.64356C12.0265 1.80832 12.5327 1.7377 13.0389 1.84362C14.1338 2.079 15.1227 2.50268 15.9938 3.18527C16.3235 3.43242 16.6295 3.7031 16.9238 3.99732C18.0422 5.10359 18.6897 6.44523 18.9958 7.98694C19.1488 8.76369 19.1371 9.5522 19.0782 10.3289C19.0076 11.1174 18.7839 11.8942 18.4425 12.6356C18.0069 13.5654 17.4183 14.3892 16.6649 15.0953C16.2764 15.4601 15.8526 15.7661 15.3934 16.0368C14.7459 16.4134 14.0631 16.6959 13.3332 16.8842C12.9212 16.9901 12.4974 17.096 12.0618 17.0725C11.8264 17.0372 11.5909 17.0489 11.3555 17.0489ZM4.98656 9.34036C4.98656 9.65812 4.95124 9.96411 4.99833 10.2466C5.16315 11.2116 5.43391 12.1531 6.02254 12.9652C6.64648 13.8243 7.38814 14.5775 8.34171 15.0835C9.30706 15.6014 10.3313 15.8603 11.4261 15.8838C11.8852 15.8956 12.3208 15.825 12.7564 15.7308C13.2391 15.6367 13.71 15.4955 14.1338 15.2483C14.3221 15.1424 14.5223 15.0482 14.7106 14.9541C15.417 14.6128 15.9703 14.0832 16.4529 13.4947C16.9238 12.9181 17.2535 12.2473 17.5478 11.5529C17.795 10.9762 17.8303 10.3407 17.9127 9.72873C17.9951 9.12852 17.8539 8.52831 17.7126 7.93987C17.6537 7.65742 17.5478 7.37497 17.4418 7.10428C17.1593 6.39816 16.8061 5.71556 16.2881 5.13889C15.4994 4.268 14.5576 3.60895 13.4392 3.24411C12.9801 3.09112 12.4974 2.9852 12.0147 2.94989C11.4143 2.90282 10.8139 2.92636 10.2018 3.04404C9.23642 3.23234 8.3888 3.65602 7.5765 4.17385C7.50587 4.22093 7.45878 4.27977 7.39992 4.32684C7.07029 4.65637 6.72889 4.97413 6.41103 5.32719C6.03431 5.72733 5.71645 6.18632 5.51632 6.69238C5.18669 7.53973 4.89238 8.41062 4.98656 9.34036Z" fill="url(#paint1_linear_4950_100558)"/>
<path d="M11.3555 17.0489C11.2377 17.0489 11.12 17.0489 11.0023 17.0489C10.1429 17.0842 9.35415 16.8371 8.55362 16.5546C7.84727 16.2957 7.19979 15.9191 6.63471 15.4366C5.79886 14.7305 5.04542 13.942 4.55098 12.9298C4.16249 12.1296 3.87995 11.3175 3.77399 10.4231C3.7269 10.07 3.70336 9.72873 3.67981 9.37566C3.6445 8.88137 3.77399 8.39885 3.84463 7.9281C3.9859 7.01013 4.33907 6.16278 4.82175 5.37427C4.93947 5.1742 5.08074 4.97413 5.22201 4.7976C6.2109 3.60895 7.32928 2.59683 8.84793 2.11431C9.48364 1.91424 10.1194 1.71417 10.7904 1.7377C10.9081 1.7377 11.0141 1.69063 11.1318 1.67886C11.2613 1.65532 11.4143 1.60825 11.5321 1.64356C12.0265 1.80832 12.5327 1.7377 13.0389 1.84362C14.1338 2.079 15.1227 2.50268 15.9938 3.18527C16.3235 3.43242 16.6295 3.7031 16.9238 3.99732C18.0422 5.10359 18.6897 6.44523 18.9958 7.98694C19.1488 8.76369 19.1371 9.5522 19.0782 10.3289C19.0076 11.1174 18.7839 11.8942 18.4425 12.6356C18.0069 13.5654 17.4183 14.3892 16.6649 15.0953C16.2764 15.4601 15.8526 15.7661 15.3934 16.0368C14.7459 16.4134 14.0631 16.6959 13.3332 16.8842C12.9212 16.9901 12.4974 17.096 12.0618 17.0725C11.8264 17.0372 11.5909 17.0489 11.3555 17.0489ZM4.98656 9.34036C4.98656 9.65812 4.95124 9.96411 4.99833 10.2466C5.16315 11.2116 5.43391 12.1531 6.02254 12.9652C6.64648 13.8243 7.38814 14.5775 8.34171 15.0835C9.30706 15.6014 10.3313 15.8603 11.4261 15.8838C11.8852 15.8956 12.3208 15.825 12.7564 15.7308C13.2391 15.6367 13.71 15.4955 14.1338 15.2483C14.3221 15.1424 14.5223 15.0482 14.7106 14.9541C15.417 14.6128 15.9703 14.0832 16.4529 13.4947C16.9238 12.9181 17.2535 12.2473 17.5478 11.5529C17.795 10.9762 17.8303 10.3407 17.9127 9.72873C17.9951 9.12852 17.8539 8.52831 17.7126 7.93987C17.6537 7.65742 17.5478 7.37497 17.4418 7.10428C17.1593 6.39816 16.8061 5.71556 16.2881 5.13889C15.4994 4.268 14.5576 3.60895 13.4392 3.24411C12.9801 3.09112 12.4974 2.9852 12.0147 2.94989C11.4143 2.90282 10.8139 2.92636 10.2018 3.04404C9.23642 3.23234 8.3888 3.65602 7.5765 4.17385C7.50587 4.22093 7.45878 4.27977 7.39992 4.32684C7.07029 4.65637 6.72889 4.97413 6.41103 5.32719C6.03431 5.72733 5.71645 6.18632 5.51632 6.69238C5.18669 7.53973 4.89238 8.41062 4.98656 9.34036Z" fill="#7E2F02" fill-opacity="0.2"/>
</g>
<g id="Vector_7" filter="url(#filter0_d_4950_100558)">
<path d="M10.8275 2.77621C15.076 2.71753 18.104 5.82764 18.057 9.41895C18.0336 11.2615 17.3763 12.8225 16.0501 14.1252C14.7591 15.4044 13.1982 16.0382 11.4143 16.0147C9.55998 15.9913 7.92864 15.3223 6.62591 13.9374C5.42881 12.6464 4.80679 11.0972 4.81852 9.372C4.83026 7.49419 5.55791 5.85111 6.95452 4.53665C8.2103 3.35129 9.72428 2.83489 10.8275 2.77621Z" fill="url(#paint2_linear_4950_100558)"/>
</g>
<g id="Vector_8" filter="url(#filter1_i_4950_100558)">
<path d="M8.82227 11.23C9.23784 11.0211 9.63536 10.9451 10.0509 10.8502C10.1955 11.0211 10.322 11.192 10.4846 11.344C10.8098 11.6479 11.1893 11.6858 11.5868 11.5529C11.8939 11.4579 12.0927 11.192 12.1108 10.8502C12.1288 10.5083 11.9843 10.2044 11.6771 10.0905C11.3157 9.97651 10.9182 9.91953 10.5026 9.82457C10.4123 9.5017 10.4304 9.17882 10.5207 8.81797C10.8098 8.77998 11.0808 8.77998 11.3338 8.723C11.6048 8.66602 11.8397 8.53307 11.9301 8.2102C12.0204 7.94431 11.9662 7.71639 11.7855 7.50747C11.5506 7.24158 11.1712 7.16561 10.8821 7.35554C10.6653 7.48848 10.4665 7.7164 10.2316 7.94431C9.87025 7.94431 9.47273 7.81136 9.02101 7.64042C9.05715 7.46949 9.07524 7.31755 9.12944 7.2036C9.6715 6.04505 11.3699 5.49426 12.6889 6.31095C13.6827 6.9377 13.8092 8.17221 12.9961 9.02688C12.9238 9.10285 12.8335 9.17882 12.707 9.29278C12.8696 9.44472 12.978 9.53968 13.0864 9.63464C14.0079 10.3943 13.8092 11.8948 12.8696 12.5785C12.4179 12.9204 11.8939 13.0723 11.3338 13.0723C10.2678 13.0723 9.38239 12.6925 8.89454 11.6099C8.84034 11.4959 8.84033 11.382 8.82227 11.23Z" fill="#DB7F58"/>
</g>
</g>
</g>
<defs>
<filter id="filter0_d_4950_100558" x="1.81836" y="0.775391" width="19.2383" height="19.2402" filterUnits="userSpaceOnUse" color-interpolation-filters="sRGB">
<feFlood flood-opacity="0" result="BackgroundImageFix"/>
<feColorMatrix in="SourceAlpha" type="matrix" values="0 0 0 0 0 0 0 0 0 0 0 0 0 0 0 0 0 0 127 0" result="hardAlpha"/>
<feOffset dy="1"/>
<feGaussianBlur stdDeviation="1.5"/>
<feComposite in2="hardAlpha" operator="out"/>
<feColorMatrix type="matrix" values="0 0 0 0 0.354167 0 0 0 0 0.354167 0 0 0 0 0.354167 0 0 0 0.25 0"/>
<feBlend mode="normal" in2="BackgroundImageFix" result="effect1_dropShadow_4950_100558"/>
<feBlend mode="normal" in="SourceGraphic" in2="effect1_dropShadow_4950_100558" result="shape"/>
</filter>
<filter id="filter1_i_4950_100558" x="8.82227" y="5.92188" width="4.86133" height="8.15039" filterUnits="userSpaceOnUse" color-interpolation-filters="sRGB">
<feFlood flood-opacity="0" result="BackgroundImageFix"/>
<feBlend mode="normal" in="SourceGraphic" in2="BackgroundImageFix" result="shape"/>
<feColorMatrix in="SourceAlpha" type="matrix" values="0 0 0 0 0 0 0 0 0 0 0 0 0 0 0 0 0 0 127 0" result="hardAlpha"/>
<feOffset dy="1"/>
<feGaussianBlur stdDeviation="2"/>
<feComposite in2="hardAlpha" operator="arithmetic" k2="-1" k3="1"/>
<feColorMatrix type="matrix" values="0 0 0 0 0.145833 0 0 0 0 0.0727141 0 0 0 0 0.0419271 0 0 0 0.4 0"/>
<feBlend mode="normal" in2="shape" result="effect1_innerShadow_4950_100558"/>
</filter>
<linearGradient id="paint0_linear_4950_100558" x1="6.67741" y1="1.34524" x2="16.545" y2="17.3622" gradientUnits="userSpaceOnUse">
<stop stop-color="#CC6114"/>
<stop offset="0.5" stop-color="#FFE7D6"/>
<stop offset="1" stop-color="#CC6114"/>
</linearGradient>
<linearGradient id="paint1_linear_4950_100558" x1="7.4144" y1="2.59617" x2="15.7402" y2="16.1105" gradientUnits="userSpaceOnUse">
<stop stop-color="#A85C26"/>
<stop offset="0.5" stop-color="#ECD0BC"/>
<stop offset="1" stop-color="#A85C26"/>
</linearGradient>
<linearGradient id="paint2_linear_4950_100558" x1="8.02473" y1="3.60289" x2="15.1621" y2="15.1875" gradientUnits="userSpaceOnUse">
<stop stop-color="#CC6114"/>
<stop offset="0.5" stop-color="#FFE7D6"/>
<stop offset="1" stop-color="#CC6114"/>
</linearGradient>
</defs>
</svg>
