<svg width="375" height="257" viewBox="0 0 375 257" fill="none" xmlns="http://www.w3.org/2000/svg">
<path d="M189.456 47.9043C166.596 68.7554 144.66 71.2907 122.266 73.1025C122.266 202.247 189.456 206.05 189.456 206.05C189.456 206.05 256.653 202.253 256.653 73.1025C234.283 71.2907 212.347 68.7554 189.456 47.9043Z" fill="url(#paint0_linear_2581_30867)" fill-opacity="0.5" stroke="url(#paint1_linear_2581_30867)" stroke-width="2.46" stroke-linecap="round" stroke-linejoin="round"/>
<g style="mix-blend-mode:screen" opacity="0.7">
<path d="M68.83 102.06C76.4681 102.06 82.66 95.7786 82.66 88.03C82.66 80.2814 76.4681 74 68.83 74C61.1919 74 55 80.2814 55 88.03C55 95.7786 61.1919 102.06 68.83 102.06Z" fill="url(#paint2_radial_2581_30867)" style="mix-blend-mode:color-dodge"/>
</g>
<g style="mix-blend-mode:screen">
<path d="M97 130C101.971 130 106 125.971 106 121C106 116.029 101.971 112 97 112C92.0294 112 88 116.029 88 121C88 125.971 92.0294 130 97 130Z" fill="url(#paint3_radial_2581_30867)" style="mix-blend-mode:color-dodge"/>
</g>
<path style="mix-blend-mode:color-dodge" d="M71.3297 52.6406C71.3139 53.8574 70.9387 55.0423 70.2512 56.0464C69.5637 57.0505 68.5947 57.8289 67.466 58.2836C66.3373 58.7383 65.0993 58.8492 63.9077 58.6021C62.7162 58.3551 61.6243 57.7613 60.7694 56.8953C59.9145 56.0293 59.3347 54.9298 59.1031 53.7352C58.8714 52.5406 58.9982 51.3041 59.4674 50.1814C59.9367 49.0586 60.7275 48.0996 61.7403 47.4251C62.7532 46.7506 63.9428 46.3907 65.1597 46.3906C65.9752 46.3959 66.7817 46.5617 67.5332 46.8786C68.2846 47.1955 68.9662 47.6574 69.5392 48.2377C70.1121 48.8181 70.5651 49.5056 70.8724 50.2611C71.1796 51.0165 71.335 51.8251 71.3297 52.6406Z" fill="url(#paint4_radial_2581_30867)"/>
<g style="mix-blend-mode:screen" opacity="0.7">
<path d="M308.33 162.56C325.633 162.56 339.66 148.332 339.66 130.78C339.66 113.228 325.633 99 308.33 99C291.027 99 277 113.228 277 130.78C277 148.332 291.027 162.56 308.33 162.56Z" fill="url(#paint5_radial_2581_30867)" style="mix-blend-mode:color-dodge"/>
</g>
<g style="mix-blend-mode:screen">
<path d="M282.08 111.16C289.856 111.16 296.16 104.856 296.16 97.08C296.16 89.3038 289.856 83 282.08 83C274.304 83 268 89.3038 268 97.08C268 104.856 274.304 111.16 282.08 111.16Z" fill="url(#paint6_radial_2581_30867)" style="mix-blend-mode:color-dodge"/>
</g>
<g style="mix-blend-mode:screen">
<path d="M272.65 186.74C281.293 186.74 288.3 179.635 288.3 170.87C288.3 162.105 281.293 155 272.65 155C264.007 155 257 162.105 257 170.87C257 179.635 264.007 186.74 272.65 186.74Z" fill="url(#paint7_radial_2581_30867)" style="mix-blend-mode:color-dodge"/>
</g>
<g style="mix-blend-mode:screen" opacity="0.7">
<path d="M87.28 189.28C101.242 189.28 112.56 177.801 112.56 163.64C112.56 149.479 101.242 138 87.28 138C73.3182 138 62 149.479 62 163.64C62 177.801 73.3182 189.28 87.28 189.28Z" fill="url(#paint8_radial_2581_30867)" style="mix-blend-mode:color-dodge"/>
</g>
<path style="mix-blend-mode:screen" opacity="0.6" d="M144 229C171.062 229 193 207.062 193 180C193 152.938 171.062 131 144 131C116.938 131 95 152.938 95 180C95 207.062 116.938 229 144 229Z" fill="url(#paint9_radial_2581_30867)"/>
<path style="mix-blend-mode:screen" d="M262.69 82.2049C265.443 74.4266 249.684 61.7626 227.49 53.9191C205.296 46.0755 185.072 46.0226 182.318 53.8009C179.564 61.5792 195.324 74.2432 217.518 82.0867C239.712 89.9303 259.936 89.9832 262.69 82.2049Z" fill="url(#paint10_radial_2581_30867)"/>
<path d="M189 99.375C173.768 99.375 161.375 111.768 161.375 127C161.375 142.232 173.768 154.625 189 154.625C204.232 154.625 216.625 142.232 216.625 127C216.625 111.768 204.232 99.375 189 99.375ZM203.377 117.742L185.527 138.992C185.331 139.225 185.088 139.413 184.813 139.544C184.538 139.675 184.238 139.745 183.933 139.75H183.897C183.599 139.75 183.305 139.687 183.033 139.566C182.761 139.445 182.517 139.268 182.318 139.046L174.668 130.546C174.474 130.34 174.323 130.097 174.224 129.832C174.125 129.567 174.08 129.284 174.091 129.001C174.103 128.718 174.171 128.44 174.291 128.184C174.412 127.928 174.582 127.698 174.793 127.509C175.003 127.319 175.25 127.174 175.517 127.081C175.785 126.988 176.068 126.95 176.351 126.968C176.633 126.986 176.91 127.06 177.163 127.187C177.416 127.313 177.642 127.489 177.826 127.704L183.842 134.387L200.123 115.008C200.488 114.586 201.005 114.325 201.561 114.28C202.118 114.236 202.67 114.412 203.097 114.771C203.525 115.13 203.794 115.643 203.846 116.199C203.898 116.755 203.73 117.309 203.377 117.742Z" fill="url(#paint11_linear_2581_30867)"/>
<g style="mix-blend-mode:screen">
<path d="M144.395 187.156C155.658 201.719 167.622 211.332 171.117 208.629C174.612 205.926 168.314 191.93 157.051 177.367C145.787 162.805 133.823 153.191 130.328 155.895C126.833 158.598 133.131 172.594 144.395 187.156Z" fill="url(#paint12_radial_2581_30867)" style="mix-blend-mode:color-dodge"/>
</g>
<g style="mix-blend-mode:screen">
<path d="M254.785 129.948C260.297 105.546 263.019 85.3684 260.864 84.8817C258.709 84.3949 252.494 103.783 246.981 128.186C241.469 152.589 238.747 172.766 240.902 173.252C243.057 173.739 249.272 154.351 254.785 129.948Z" fill="url(#paint13_radial_2581_30867)" style="mix-blend-mode:color-dodge"/>
</g>
<defs>
<linearGradient id="paint0_linear_2581_30867" x1="135.449" y1="59.9871" x2="243.111" y2="168.056" gradientUnits="userSpaceOnUse">
<stop stop-color="#3B86FF" stop-opacity="0.2"/>
<stop offset="0.13" stop-color="#3B86FF" stop-opacity="0.28"/>
<stop offset="0.25" stop-color="#3B86FF" stop-opacity="0.37"/>
<stop offset="0.32" stop-color="#3B86FF" stop-opacity="0.53"/>
<stop offset="0.47" stop-color="#3B86FF" stop-opacity="0.94"/>
<stop offset="0.49" stop-color="#3B86FF"/>
<stop offset="0.51" stop-color="#3B86FF" stop-opacity="0.97"/>
<stop offset="0.67" stop-color="#3B86FF" stop-opacity="0.77"/>
<stop offset="0.81" stop-color="#3B86FF" stop-opacity="0.62"/>
<stop offset="0.93" stop-color="#3B86FF" stop-opacity="0.53"/>
<stop offset="1" stop-color="#3B86FF" stop-opacity="0.5"/>
</linearGradient>
<linearGradient id="paint1_linear_2581_30867" x1="134.909" y1="168.188" x2="243.641" y2="59.0392" gradientUnits="userSpaceOnUse">
<stop stop-color="#FF4FE5"/>
<stop offset="0.11" stop-color="#DE58E9" stop-opacity="0.96"/>
<stop offset="0.36" stop-color="#8B6FF4" stop-opacity="0.85"/>
<stop offset="0.58" stop-color="#3B86FF" stop-opacity="0.74"/>
<stop offset="0.64" stop-color="#3B86FF" stop-opacity="0.76"/>
<stop offset="0.72" stop-color="#3B86FF" stop-opacity="0.82"/>
<stop offset="0.8" stop-color="#3B86FF" stop-opacity="0.91"/>
<stop offset="0.86" stop-color="#3B86FF"/>
<stop offset="0.92" stop-color="#3B86FF" stop-opacity="0.78"/>
<stop offset="0.97" stop-color="#3B86FF" stop-opacity="0.58"/>
<stop offset="1" stop-color="#3B86FF" stop-opacity="0.5"/>
</linearGradient>
<radialGradient id="paint2_radial_2581_30867" cx="0" cy="0" r="1" gradientUnits="userSpaceOnUse" gradientTransform="translate(70.2305 88.0508) rotate(36.6927) scale(17.7346 17.8888)">
<stop stop-color="white"/>
<stop offset="0.15" stop-color="#C5C5C5" stop-opacity="0.77"/>
<stop offset="0.32" stop-color="#8A8A8A" stop-opacity="0.54"/>
<stop offset="0.48" stop-color="#585858" stop-opacity="0.35"/>
<stop offset="0.64" stop-color="#323232" stop-opacity="0.2"/>
<stop offset="0.78" stop-color="#171717" stop-opacity="0.09"/>
<stop offset="0.9" stop-color="#060606" stop-opacity="0.02"/>
<stop offset="1" stop-opacity="0"/>
</radialGradient>
<radialGradient id="paint3_radial_2581_30867" cx="0" cy="0" r="1" gradientUnits="userSpaceOnUse" gradientTransform="translate(97.0086 120.994) scale(9)">
<stop stop-color="white"/>
<stop offset="0.01" stop-color="#F9F9F9" stop-opacity="0.98"/>
<stop offset="0.09" stop-color="#C5C5C5" stop-opacity="0.77"/>
<stop offset="0.17" stop-color="#969696" stop-opacity="0.59"/>
<stop offset="0.26" stop-color="#6E6E6E" stop-opacity="0.43"/>
<stop offset="0.35" stop-color="#4C4C4C" stop-opacity="0.3"/>
<stop offset="0.45" stop-color="#303030" stop-opacity="0.19"/>
<stop offset="0.55" stop-color="#1B1B1B" stop-opacity="0.1"/>
<stop offset="0.66" stop-color="#0C0C0C" stop-opacity="0.05"/>
<stop offset="0.8" stop-color="#030303" stop-opacity="0.01"/>
<stop offset="1" stop-opacity="0"/>
</radialGradient>
<radialGradient id="paint4_radial_2581_30867" cx="0" cy="0" r="1" gradientUnits="userSpaceOnUse" gradientTransform="translate(66.9017 63.3646) scale(6.187 6.24079)">
<stop stop-color="white"/>
<stop offset="0.15" stop-color="#C5C5C5" stop-opacity="0.77"/>
<stop offset="0.32" stop-color="#8A8A8A" stop-opacity="0.54"/>
<stop offset="0.48" stop-color="#585858" stop-opacity="0.35"/>
<stop offset="0.64" stop-color="#323232" stop-opacity="0.2"/>
<stop offset="0.78" stop-color="#171717" stop-opacity="0.09"/>
<stop offset="0.9" stop-color="#060606" stop-opacity="0.02"/>
<stop offset="1" stop-opacity="0"/>
</radialGradient>
<radialGradient id="paint5_radial_2581_30867" cx="0" cy="0" r="1" gradientUnits="userSpaceOnUse" gradientTransform="translate(311.01 130.869) rotate(19.0697) scale(32.3437 32.6249)">
<stop stop-color="white"/>
<stop offset="0.15" stop-color="#C5C5C5" stop-opacity="0.77"/>
<stop offset="0.32" stop-color="#8A8A8A" stop-opacity="0.54"/>
<stop offset="0.48" stop-color="#585858" stop-opacity="0.35"/>
<stop offset="0.64" stop-color="#323232" stop-opacity="0.2"/>
<stop offset="0.78" stop-color="#171717" stop-opacity="0.09"/>
<stop offset="0.9" stop-color="#060606" stop-opacity="0.02"/>
<stop offset="1" stop-opacity="0"/>
</radialGradient>
<radialGradient id="paint6_radial_2581_30867" cx="0" cy="0" r="1" gradientUnits="userSpaceOnUse" gradientTransform="translate(282.084 97.0757) scale(14.076)">
<stop stop-color="white"/>
<stop offset="0.01" stop-color="#F9F9F9" stop-opacity="0.98"/>
<stop offset="0.09" stop-color="#C5C5C5" stop-opacity="0.77"/>
<stop offset="0.17" stop-color="#969696" stop-opacity="0.59"/>
<stop offset="0.26" stop-color="#6E6E6E" stop-opacity="0.43"/>
<stop offset="0.35" stop-color="#4C4C4C" stop-opacity="0.3"/>
<stop offset="0.45" stop-color="#303030" stop-opacity="0.19"/>
<stop offset="0.55" stop-color="#1B1B1B" stop-opacity="0.1"/>
<stop offset="0.66" stop-color="#0C0C0C" stop-opacity="0.05"/>
<stop offset="0.8" stop-color="#030303" stop-opacity="0.01"/>
<stop offset="1" stop-opacity="0"/>
</radialGradient>
<radialGradient id="paint7_radial_2581_30867" cx="0" cy="0" r="1" gradientUnits="userSpaceOnUse" gradientTransform="translate(274 171) rotate(33.3364) scale(19.1326 19.299)">
<stop stop-color="white"/>
<stop offset="0.15" stop-color="#C5C5C5" stop-opacity="0.77"/>
<stop offset="0.32" stop-color="#8A8A8A" stop-opacity="0.54"/>
<stop offset="0.48" stop-color="#585858" stop-opacity="0.35"/>
<stop offset="0.64" stop-color="#323232" stop-opacity="0.2"/>
<stop offset="0.78" stop-color="#171717" stop-opacity="0.09"/>
<stop offset="0.9" stop-color="#060606" stop-opacity="0.02"/>
<stop offset="1" stop-opacity="0"/>
</radialGradient>
<radialGradient id="paint8_radial_2581_30867" cx="0" cy="0" r="1" gradientUnits="userSpaceOnUse" gradientTransform="translate(87.3594 165.68) rotate(17.492) scale(28.3149 28.5612)">
<stop stop-color="white"/>
<stop offset="0.15" stop-color="#C5C5C5" stop-opacity="0.77"/>
<stop offset="0.32" stop-color="#8A8A8A" stop-opacity="0.54"/>
<stop offset="0.48" stop-color="#585858" stop-opacity="0.35"/>
<stop offset="0.64" stop-color="#323232" stop-opacity="0.2"/>
<stop offset="0.78" stop-color="#171717" stop-opacity="0.09"/>
<stop offset="0.9" stop-color="#060606" stop-opacity="0.02"/>
<stop offset="1" stop-opacity="0"/>
</radialGradient>
<radialGradient id="paint9_radial_2581_30867" cx="0" cy="0" r="1" gradientUnits="userSpaceOnUse" gradientTransform="translate(144 180) scale(49)">
<stop stop-color="#BF00D1"/>
<stop offset="1" stop-opacity="0"/>
</radialGradient>
<radialGradient id="paint10_radial_2581_30867" cx="0" cy="0" r="1" gradientUnits="userSpaceOnUse" gradientTransform="translate(222.667 67.4313) rotate(19.4639) scale(42.6213 14.9071)">
<stop stop-color="#9C00AB"/>
<stop offset="1" stop-opacity="0"/>
</radialGradient>
<linearGradient id="paint11_linear_2581_30867" x1="209.537" y1="104.528" x2="154.943" y2="133.14" gradientUnits="userSpaceOnUse">
<stop stop-color="#3BB0FF" stop-opacity="0.5"/>
<stop offset="0.12" stop-color="#3BB0FF" stop-opacity="0.67"/>
<stop offset="0.34" stop-color="#3BB0FF"/>
<stop offset="0.53" stop-color="#3EAFFF"/>
<stop offset="0.64" stop-color="#46AAFD"/>
<stop offset="0.74" stop-color="#54A1FB"/>
<stop offset="0.82" stop-color="#6896F8"/>
<stop offset="0.89" stop-color="#8387F4"/>
<stop offset="0.96" stop-color="#A274EF"/>
<stop offset="1" stop-color="#B868EC"/>
</linearGradient>
<radialGradient id="paint12_radial_2581_30867" cx="0" cy="0" r="1" gradientUnits="userSpaceOnUse" gradientTransform="translate(150.283 182.734) rotate(56.5435) scale(35.7085 9.31762)">
<stop stop-color="white"/>
<stop offset="0.15" stop-color="#C5C5C5" stop-opacity="0.77"/>
<stop offset="0.32" stop-color="#8A8A8A" stop-opacity="0.54"/>
<stop offset="0.48" stop-color="#585858" stop-opacity="0.35"/>
<stop offset="0.64" stop-color="#323232" stop-opacity="0.2"/>
<stop offset="0.78" stop-color="#171717" stop-opacity="0.09"/>
<stop offset="0.9" stop-color="#060606" stop-opacity="0.02"/>
<stop offset="1" stop-opacity="0"/>
</radialGradient>
<radialGradient id="paint13_radial_2581_30867" cx="0" cy="0" r="1" gradientUnits="userSpaceOnUse" gradientTransform="translate(251.225 128.998) rotate(-75.6991) scale(48.4091 4.66999)">
<stop stop-color="white"/>
<stop offset="0.15" stop-color="#C5C5C5" stop-opacity="0.77"/>
<stop offset="0.32" stop-color="#8A8A8A" stop-opacity="0.54"/>
<stop offset="0.48" stop-color="#585858" stop-opacity="0.35"/>
<stop offset="0.64" stop-color="#323232" stop-opacity="0.2"/>
<stop offset="0.78" stop-color="#171717" stop-opacity="0.09"/>
<stop offset="0.9" stop-color="#060606" stop-opacity="0.02"/>
<stop offset="1" stop-opacity="0"/>
</radialGradient>
</defs>
</svg>
