<svg width="324" height="322" viewBox="0 0 324 322" fill="none" xmlns="http://www.w3.org/2000/svg">
<g clip-path="url(#clip0_2164_39763)">
<g style="mix-blend-mode:overlay" opacity="0.75">
<path d="M337.85 236.495L314.739 234.592L314.596 249.895L337.85 236.495Z" fill="white" fill-opacity="0.5"/>
<path d="M293.365 216.741L270.843 220.729L278.934 233.486L293.365 216.741Z" fill="white" fill-opacity="0.5"/>
<path d="M95.4497 42.7818L89.7248 75.0661L72.94 58.7597L95.4497 42.7818Z" fill="white" fill-opacity="0.5"/>
</g>
<g style="mix-blend-mode:overlay">
<path d="M278.035 188.164L451.499 175.942L452.638 176.278L452.327 175.888L452.865 175.833L451.796 175.208L345.505 39.2588L346.096 37.9524L345.168 38.7101L253.118 -121.976L253.124 -122.509L253.005 -122.497L252.972 -122.815L252.487 -122.253L76.7661 -42.2455L84.806 -39.7859L81.3988 -38.1027L81.7765 -37.7491L150.406 101.777L150.002 102.149L248.096 116.605L277.748 188.796L278.035 188.164ZM303.064 131L293.848 82.4535L318.449 97.0407L303.064 131ZM319.166 97.4704L448.592 174.247L303.569 131.914L319.166 97.4704ZM249.58 74.7301L291.178 81.6996L248.777 115.39L249.58 74.7301ZM292.647 80.535L292.024 81.0306L249.586 73.9051L250.79 10.981L280.594 20.094L292.647 80.535ZM281.505 20.3532L344.207 39.5415L293.363 79.9597L281.505 20.3532ZM250.833 10.1221L250.849 9.58781L250.747 9.66858L253.078 -118.122L280.422 19.1868L250.833 10.1221ZM249.941 9.85096L249.862 9.85905L249.839 9.63025L249.105 9.63441L213.836 -1.13453L252.241 -119.133L249.941 9.85096ZM246.503 9.64758L210.146 10.3273L213.631 -0.379921L246.503 9.64758ZM249.002 10.3988L249.708 10.6185L193.134 62.6053L209.877 11.1487L249.002 10.3988ZM293.677 81.3652L293.667 81.2658L293.622 80.828L299.975 75.7898L344.085 40.7198L318.884 96.2828L293.677 81.3652ZM281.351 19.4341L253.59 -119.511L344.201 38.6977L281.351 19.4341ZM251.76 -120.109L213.074 -1.4089L162.481 -16.8725L251.76 -120.109ZM161.707 -17.1658L87.0774 -39.9865L251.172 -120.652L161.707 -17.1658ZM212.861 -0.633423L209.291 10.3237L137.895 11.6095L161.946 -16.205L212.861 -0.633423ZM137.149 12.4794L208.999 11.2078L191.993 63.4351L137.149 12.4794ZM192.748 64.0418L249.913 11.5525L248.788 73.7652L193.17 64.4411L192.748 64.0418ZM248.771 74.5811L248.027 115.325L194.258 65.4463L248.771 74.5811ZM292.291 81.8779L292.977 81.9992L302.387 131.562L249.287 116.061L292.291 81.8779ZM303.429 132.712L449.291 175.282L278.452 187.318L303.08 132.939L303.428 132.903L303.429 132.712ZM319.543 96.7286L345.194 40.1549L449.893 174.085L319.543 96.7286ZM79.0535 -42.3875L228.098 -110.226L85.8689 -40.306L79.0535 -42.3875ZM161.095 -16.4702L136.549 11.9172L82.8359 -37.907L85.9758 -39.4524L161.095 -16.4702ZM83.4606 -36.2115L191.552 64.0428L151.102 101.203L83.4606 -36.2115ZM191.651 65.0177L192.756 65.207L247.135 115.647L151.795 101.595L191.651 65.0177ZM249.078 116.867L302.415 132.433L277.781 186.753L249.078 116.867Z" fill="white" fill-opacity="0.5"/>
</g>
<path d="M251.38 120.222C250.597 120.778 249.667 121.089 248.708 121.116C247.749 121.144 246.803 120.885 245.99 120.375C245.177 119.864 244.535 119.123 244.143 118.247C243.751 117.371 243.629 116.398 243.79 115.452C243.952 114.506 244.391 113.629 245.051 112.932C245.711 112.235 246.563 111.75 247.499 111.538C248.436 111.326 249.414 111.397 250.31 111.741C251.206 112.085 251.979 112.687 252.533 113.471C253.274 114.52 253.568 115.82 253.352 117.085C253.136 118.351 252.426 119.479 251.38 120.222Z" fill="white" fill-opacity="0.5"/>
<path d="M251.379 77.0095C250.771 77.4409 250.048 77.6822 249.303 77.7031C248.558 77.7239 247.823 77.5233 247.192 77.1266C246.56 76.7299 246.061 76.1549 245.756 75.4744C245.452 74.7938 245.356 74.0382 245.481 73.3032C245.606 72.5681 245.946 71.8866 246.458 71.3448C246.97 70.803 247.631 70.4252 248.358 70.2592C249.085 70.0931 249.845 70.1464 250.541 70.4122C251.238 70.6779 251.84 71.1443 252.272 71.7522C252.558 72.156 252.763 72.6124 252.873 73.0951C252.983 73.5779 252.997 74.0776 252.914 74.5658C252.831 75.054 252.653 75.5212 252.39 75.9404C252.126 76.3597 251.783 76.723 251.379 77.0095Z" fill="white" fill-opacity="0.5"/>
<path d="M196.319 68.0223C195.511 68.5882 194.553 68.9022 193.567 68.925C192.58 68.9477 191.609 68.6782 190.776 68.1502C189.942 67.6223 189.283 66.8595 188.883 65.958C188.482 65.0564 188.356 64.0565 188.523 63.0839C188.689 62.1114 189.139 61.2098 189.817 60.4926C190.494 59.7754 191.369 59.2747 192.33 59.0536C193.292 58.8324 194.297 58.9007 195.22 59.2497C196.143 59.5988 196.942 60.2131 197.516 61.0153C197.901 61.5528 198.176 62.1612 198.324 62.8055C198.472 63.4498 198.491 64.117 198.38 64.7687C198.268 65.4203 198.029 66.0434 197.675 66.6019C197.321 67.1604 196.86 67.6432 196.319 68.0223Z" fill="white" fill-opacity="0.5"/>
<path d="M282.128 191.135C281.13 191.841 279.945 192.235 278.723 192.268C277.501 192.3 276.297 191.97 275.263 191.318C274.229 190.666 273.412 189.722 272.914 188.606C272.416 187.49 272.261 186.251 272.467 185.046C272.674 183.841 273.233 182.725 274.074 181.838C274.915 180.951 276.001 180.333 277.193 180.063C278.385 179.793 279.63 179.882 280.771 180.32C281.913 180.758 282.899 181.524 283.604 182.522C284.551 183.86 284.927 185.519 284.65 187.134C284.373 188.75 283.466 190.189 282.128 191.135Z" fill="white" fill-opacity="0.5"/>
<path d="M152.962 105.166C152.153 105.733 151.195 106.048 150.209 106.071C149.222 106.095 148.25 105.826 147.416 105.298C146.581 104.769 145.922 104.006 145.521 103.104C145.12 102.202 144.995 101.202 145.162 100.229C145.328 99.2555 145.779 98.3536 146.458 97.6365C147.136 96.9193 148.012 96.4191 148.974 96.1989C149.937 95.9786 150.943 96.0481 151.866 96.3987C152.788 96.7493 153.587 97.3652 154.16 98.1688C154.543 98.7061 154.817 99.3139 154.964 99.9572C155.111 100.6 155.13 101.267 155.018 101.917C154.907 102.567 154.668 103.189 154.315 103.747C153.962 104.305 153.502 104.787 152.962 105.166Z" fill="white" fill-opacity="0.5"/>
<path d="M295.346 85.7187C294.538 86.2857 293.58 86.6007 292.593 86.6241C291.606 86.6475 290.635 86.3783 289.8 85.8502C288.966 85.3222 288.307 84.5591 287.906 83.657C287.505 82.755 287.38 81.7543 287.546 80.7813C287.713 79.8082 288.164 78.9063 288.843 78.1892C289.521 77.4721 290.397 76.9719 291.359 76.7516C292.321 76.5313 293.327 76.6008 294.25 76.9514C295.173 77.302 295.972 77.9179 296.545 78.7216C296.928 79.2588 297.201 79.8666 297.349 80.5099C297.496 81.1532 297.514 81.8193 297.403 82.4698C297.291 83.1202 297.052 83.7422 296.699 84.2998C296.346 84.8574 295.887 85.3396 295.346 85.7187Z" fill="white" fill-opacity="0.5"/>
<path d="M138.611 15.387C137.915 15.8799 137.089 16.1553 136.237 16.1784C135.384 16.2016 134.544 15.9714 133.823 15.5171C133.101 15.0627 132.531 14.4046 132.184 13.626C131.836 12.8473 131.728 11.9831 131.872 11.1427C132.015 10.3023 132.405 9.5235 132.992 8.90475C133.579 8.286 134.336 7.85514 135.167 7.66669C135.999 7.47823 136.867 7.54059 137.663 7.84597C138.459 8.15136 139.147 8.68602 139.639 9.38227C140.296 10.3159 140.556 11.4716 140.364 12.5967C140.171 13.7219 139.541 14.725 138.611 15.387Z" fill="white" fill-opacity="0.5"/>
<path d="M252.067 13.3653C251.487 13.7754 250.799 14.0044 250.089 14.0233C249.379 14.0421 248.68 13.8501 248.079 13.4714C247.478 13.0926 247.004 12.5442 246.715 11.8956C246.426 11.2469 246.335 10.5271 246.455 9.82725C246.576 9.12736 246.901 8.47885 247.389 7.96369C247.878 7.44852 248.509 7.08985 249.201 6.93309C249.894 6.77634 250.617 6.82852 251.28 7.08301C251.943 7.33751 252.516 7.78289 252.926 8.36284C253.475 9.14015 253.693 10.1038 253.532 11.0418C253.371 11.9799 252.844 12.8156 252.067 13.3653Z" fill="white" fill-opacity="0.5"/>
<g style="mix-blend-mode:overlay">
<path d="M18.7378 82.2513L27.0662 110.494L43.4084 92.4791L18.7378 82.2513ZM27.5167 108.498L20.2909 83.9831L41.7185 92.862L27.5167 108.498Z" fill="white" fill-opacity="0.5"/>
<path d="M85.3608 99.7833L89.788 131.277L102.979 91.8512L85.3608 99.7833ZM86.4275 100.389L101.289 93.7117L90.1312 126.94L86.4275 100.389Z" fill="white" fill-opacity="0.5"/>
<path d="M222.129 128.341L229.53 145.872L236.519 135.522L222.129 128.341ZM229.73 143.781L224.092 130.443L235.04 135.904L229.73 143.781Z" fill="white" fill-opacity="0.5"/>
<path d="M288.938 264.282L322.391 292.675L333.336 275.852L288.938 264.282ZM292.928 266.349L331.741 276.477L322.183 291.219L292.928 266.349Z" fill="white" fill-opacity="0.5"/>
</g>
</g>
<defs>
<clipPath id="clip0_2164_39763">
<rect width="420.35" height="425.01" fill="white" transform="translate(43.0117 321.09) rotate(-95.8034)"/>
</clipPath>
</defs>
</svg>
