<svg width="214" height="214" viewBox="0 0 214 214" fill="none" xmlns="http://www.w3.org/2000/svg">
<path d="M182.746 98.7061C167.955 68.6033 149.191 79.8641 144.562 50.7381C140.404 24.58 121.969 9.85196 71.5659 15.7107C53.8316 17.7722 36.264 23.5453 27.6532 44.5131C12.3934 81.6708 49.2787 91.6055 58.6961 116.31C62.8126 127.108 52.867 136.624 47.1728 145.173C-14.6075 237.932 235.035 205.129 182.746 98.7061Z" fill="url(#paint0_linear_5930_182045)"/>
<path d="M134.735 175.175H79.2633C73.4349 175.175 68.71 170.451 68.71 164.622V47.9052C68.71 42.0768 73.4349 37.3518 79.2633 37.3518H134.735C140.564 37.3518 145.289 42.0768 145.289 47.9052V164.622C145.288 170.451 140.563 175.175 134.735 175.175Z" fill="#4D4DFF"/>
<path d="M145.289 129.686C143.035 128.945 140.664 128.933 138.475 129.564C135.797 130.336 133.395 132.076 131.832 134.615L126.45 143.361C125.475 144.946 123.609 145.672 121.87 145.245C121.537 145.163 121.193 145.328 121.042 145.635L120.23 147.285C120.05 147.65 120.201 148.091 120.566 148.271L130.005 152.915L128.889 156.288C128.16 158.49 129.167 160.891 131.247 161.915C133.328 162.939 135.845 162.271 137.144 160.35L139.135 157.407L145.288 160.435V129.686H145.289Z" fill="#2C27FF"/>
<path d="M83.2999 76.8933C83.2999 68.8356 76.768 62.3033 68.71 62.3033V91.4832C76.7676 91.4832 83.2999 84.9509 83.2999 76.8933Z" fill="#2C27FF"/>
<path d="M140.012 113.618L106.999 115.425L73.9868 113.618V47.9056C73.9868 44.9912 76.3491 42.6289 79.2635 42.6289H134.736C137.65 42.6289 140.012 44.9912 140.012 47.9056V113.618H140.012Z" fill="#FFC498"/>
<path d="M73.9868 63.2916V90.4957C79.4356 88.3803 83.3001 83.0899 83.3001 76.8938C83.3001 70.6978 79.4356 65.407 73.9868 63.2916Z" fill="#FFAA66"/>
<path d="M140.012 97.3993V163.103C140.012 166.848 137.644 169.898 134.737 169.898H79.2627C76.3559 169.898 73.9878 166.848 73.9878 163.103V97.3993H140.012Z" fill="#FFE7DB"/>
<path d="M140.011 157.838V129.236C139.493 129.312 138.979 129.419 138.475 129.564C135.797 130.336 133.395 132.076 131.832 134.615L126.45 143.361C125.475 144.946 123.609 145.672 121.87 145.245C121.537 145.163 121.193 145.328 121.042 145.635L120.23 147.285C120.05 147.65 120.201 148.091 120.566 148.271L130.005 152.915L128.889 156.288C128.16 158.49 129.167 160.891 131.247 161.915C133.328 162.939 135.845 162.271 137.144 160.35L139.135 157.408L140.011 157.838Z" fill="#FFD5BA"/>
<path d="M113.722 53.159H100.277C98.4705 53.159 97.0059 51.6944 97.0059 49.8878C97.0059 48.0812 98.4705 46.6166 100.277 46.6166H113.722C115.529 46.6166 116.994 48.0812 116.994 49.8878C116.993 51.6944 115.529 53.159 113.722 53.159Z" fill="#4D4DFF"/>
<path d="M122.903 166.008H91.0963C90.0981 166.008 89.2886 165.199 89.2886 164.2C89.2886 163.202 90.0981 162.393 91.0963 162.393H122.903C123.901 162.393 124.71 163.202 124.71 164.2C124.71 165.199 123.901 166.008 122.903 166.008Z" fill="white"/>
<path d="M111.736 140.855H83.8634C82.8652 140.855 82.0557 140.045 82.0557 139.047V130.401C82.0557 129.403 82.8652 128.594 83.8634 128.594H111.736C112.734 128.594 113.544 129.403 113.544 130.401V139.047C113.544 140.045 112.734 140.855 111.736 140.855Z" fill="#FF6C6C"/>
<path d="M86.5552 132.889V136.791C86.5552 137.226 87.0237 137.5 87.4026 137.286L90.8618 135.335C91.2472 135.118 91.2472 134.562 90.8618 134.345L87.4026 132.393C87.0241 132.18 86.5552 132.454 86.5552 132.889Z" fill="white"/>
<path d="M111.821 109.879H92.6475C91.6493 109.879 90.8398 109.07 90.8398 108.071C90.8398 107.073 91.6493 106.264 92.6475 106.264H111.821C112.819 106.264 113.629 107.073 113.629 108.071C113.629 109.07 112.819 109.879 111.821 109.879Z" fill="#4D4DFF"/>
<path d="M111.821 117.184H84.17C83.1718 117.184 82.3623 116.375 82.3623 115.376C82.3623 114.378 83.1718 113.569 84.17 113.569H111.821C112.82 113.569 113.629 114.378 113.629 115.376C113.629 116.375 112.82 117.184 111.821 117.184Z" fill="#4D4DFF"/>
<path d="M111.821 124.489H84.17C83.1718 124.489 82.3623 123.679 82.3623 122.681C82.3623 121.683 83.1718 120.873 84.17 120.873H111.821C112.82 120.873 113.629 121.683 113.629 122.681C113.629 123.679 112.82 124.489 111.821 124.489Z" fill="#4D4DFF"/>
<path d="M85.2272 109.879H84.17C83.1718 109.879 82.3623 109.07 82.3623 108.071C82.3623 107.073 83.1718 106.264 84.17 106.264H85.2272C86.2254 106.264 87.0348 107.073 87.0348 108.071C87.0348 109.07 86.2254 109.879 85.2272 109.879Z" fill="#FF4D4D"/>
<path d="M131.248 152.515C129.168 151.491 128.161 149.09 128.89 146.888L130.58 141.781L140.159 146.495L137.145 150.95C135.846 152.871 133.329 153.538 131.248 152.515Z" fill="#FF2C2C"/>
<path d="M150.37 150.673L149.561 152.317C149.381 152.682 148.94 152.832 148.575 152.652L120.566 138.871C120.201 138.691 120.05 138.25 120.23 137.885L121.042 136.236C121.193 135.928 121.537 135.763 121.87 135.845C123.609 136.272 125.475 135.546 126.45 133.961L131.832 125.215C133.396 122.677 135.797 120.937 138.475 120.164C141.156 119.391 144.113 119.581 146.789 120.898C152.141 123.531 154.613 129.806 152.496 135.382L148.85 144.982C148.464 145.996 148.496 147.076 148.868 148.02C149.134 148.696 149.577 149.305 150.167 149.772C150.438 149.987 150.523 150.362 150.37 150.673Z" fill="#FF6C6C"/>
<path d="M165.493 134.013C165.434 134.013 165.375 134.011 165.315 134.005C164.321 133.908 163.594 133.024 163.691 132.03C164.102 127.822 162.937 123.639 160.41 120.25C159.814 119.45 159.979 118.318 160.779 117.721C161.579 117.124 162.712 117.289 163.309 118.089C166.374 122.201 167.788 127.276 167.29 132.381C167.199 133.315 166.412 134.013 165.493 134.013Z" fill="#6C6CFF"/>
<path d="M165.493 134.013C165.434 134.013 165.375 134.011 165.315 134.005C164.321 133.908 163.594 133.024 163.691 132.03C164.102 127.822 162.937 123.639 160.41 120.25C159.814 119.45 159.979 118.318 160.779 117.721C161.579 117.124 162.712 117.289 163.309 118.089C166.374 122.201 167.788 127.276 167.29 132.381C167.199 133.315 166.412 134.013 165.493 134.013Z" fill="url(#paint1_linear_5930_182045)"/>
<path d="M159.208 133.896C159.149 133.896 159.089 133.893 159.03 133.887C158.036 133.79 157.309 132.906 157.406 131.912C157.691 128.997 156.884 126.1 155.134 123.754C154.537 122.953 154.702 121.821 155.502 121.224C156.303 120.627 157.435 120.792 158.033 121.592C160.321 124.661 161.377 128.451 161.005 132.263C160.913 133.197 160.127 133.896 159.208 133.896Z" fill="#6C6CFF"/>
<path d="M159.208 133.896C159.149 133.896 159.089 133.893 159.03 133.887C158.036 133.79 157.309 132.906 157.406 131.912C157.691 128.997 156.884 126.1 155.134 123.754C154.537 122.953 154.702 121.821 155.502 121.224C156.303 120.627 157.435 120.792 158.033 121.592C160.321 124.661 161.377 128.451 161.005 132.263C160.913 133.197 160.127 133.896 159.208 133.896Z" fill="url(#paint2_linear_5930_182045)"/>
<path d="M68.7101 82.0833C76.7679 82.0833 83.3 75.5512 83.3 67.4934C83.3 59.4356 76.7679 52.9034 68.7101 52.9034C60.6523 52.9034 54.1201 59.4356 54.1201 67.4934C54.1201 75.5512 60.6523 82.0833 68.7101 82.0833Z" fill="#FF6C6C"/>
<path d="M72.5302 68.9258L69.1184 65.2861H71.0273C72.0255 65.2861 72.835 64.4767 72.835 63.4784C72.835 62.4802 72.0255 61.6707 71.0273 61.6707H70.3538V60.9253C70.3538 59.927 69.5443 59.1176 68.5461 59.1176C67.5478 59.1176 66.7384 59.927 66.7384 60.9253V61.6747C65.7199 61.6953 64.8052 62.3038 64.3988 63.2416C63.9852 64.1957 64.1779 65.3028 64.8891 66.0609L68.3009 69.7005H66.392C65.3938 69.7005 64.5843 70.51 64.5843 71.5082C64.5843 72.5065 65.3938 73.3159 66.392 73.3159H66.7384V74.0614C66.7384 75.0597 67.5478 75.8691 68.5461 75.8691C69.5443 75.8691 70.3538 75.0597 70.3538 74.0614V73.3159H70.6282C71.6679 73.3159 72.6072 72.6995 73.0205 71.7454C73.4337 70.7913 73.2414 69.6843 72.5302 68.9258Z" fill="white"/>
<path d="M167.85 150.682C170.298 144.236 167.44 136.982 161.253 133.938C160.685 133.658 160.105 133.423 159.518 133.23V49.5523C159.518 42.8142 154.056 37.3518 147.318 37.3518H83.1877C76.4497 37.3518 70.9872 42.8142 70.9872 49.5523V55.3307C61.672 55.3307 54.1201 62.8826 54.1201 72.1979C54.1201 81.5131 61.6716 89.065 70.9872 89.065V184.487C70.9872 191.225 76.4497 196.687 83.1877 196.687H147.318C154.056 196.687 159.518 191.225 159.518 184.487V168.779L163.318 170.648C163.74 170.856 164.25 170.682 164.458 170.26L165.393 168.359C165.57 168 165.472 167.567 165.158 167.319C164.476 166.779 163.964 166.075 163.657 165.293C163.226 164.202 163.189 162.953 163.636 161.782L167.85 150.682Z" fill="url(#paint3_linear_5930_182045)"/>
<path d="M57.2761 183.085C56.758 183.085 56.2439 182.863 55.8863 182.434C55.2471 181.667 55.3509 180.527 56.118 179.888L57.6784 178.588L56.118 177.287C55.3509 176.648 55.2475 175.508 55.8863 174.741C56.5251 173.974 57.6654 173.871 58.4323 174.51L61.6594 177.199C62.0715 177.542 62.3098 178.051 62.3098 178.587C62.3098 179.124 62.0715 179.633 61.6594 179.976L58.4323 182.665C58.0942 182.948 57.6839 183.085 57.2761 183.085Z" fill="#6C6CFF"/>
<path d="M149.717 36.1392C149.199 36.1392 148.685 35.918 148.328 35.4888C147.689 34.7216 147.792 33.582 148.559 32.9428L150.12 31.6424L148.559 30.3419C147.792 29.7027 147.689 28.5631 148.328 27.796C148.967 27.0288 150.106 26.925 150.874 27.5646L154.1 30.2537C154.513 30.5972 154.751 31.1059 154.751 31.6424C154.751 32.1789 154.513 32.6876 154.1 33.0311L150.874 35.7202C150.536 36.0018 150.125 36.1392 149.717 36.1392Z" fill="#FFAA66"/>
<path d="M51.5953 99.5041C50.5971 99.5041 49.7876 98.6946 49.7876 97.6964V94.2802C49.7876 93.282 50.5971 92.4725 51.5953 92.4725C52.5935 92.4725 53.403 93.282 53.403 94.2802V97.6964C53.403 98.6946 52.5935 99.5041 51.5953 99.5041Z" fill="#FF6C6C"/>
<path d="M56.6451 99.5041C55.6469 99.5041 54.8374 98.6946 54.8374 97.6964V94.2802C54.8374 93.282 55.6469 92.4725 56.6451 92.4725C57.6433 92.4725 58.4528 93.282 58.4528 94.2802V97.6964C58.4528 98.6946 57.6433 99.5041 56.6451 99.5041Z" fill="#FF6C6C"/>
<path d="M158.553 50.9908C157.555 50.9908 156.746 50.1813 156.746 49.1831V45.7669C156.746 44.7687 157.555 43.9592 158.553 43.9592C159.552 43.9592 160.361 44.7687 160.361 45.7669V49.1831C160.361 50.1813 159.552 50.9908 158.553 50.9908Z" fill="#FF6C6C"/>
<path d="M163.602 50.9908C162.604 50.9908 161.794 50.1813 161.794 49.1831V45.7669C161.794 44.7687 162.604 43.9592 163.602 43.9592C164.6 43.9592 165.41 44.7687 165.41 45.7669V49.1831C165.41 50.1813 164.6 50.9908 163.602 50.9908Z" fill="#FF6C6C"/>
<path d="M43.6461 118.639C42.6479 118.639 41.8384 117.829 41.8384 116.831V113.415C41.8384 112.416 42.6479 111.607 43.6461 111.607C44.6443 111.607 45.4538 112.416 45.4538 113.415V116.831C45.4538 117.829 44.6443 118.639 43.6461 118.639Z" fill="#FFAA66"/>
<path d="M48.6949 118.639C47.6967 118.639 46.8872 117.829 46.8872 116.831V113.415C46.8872 112.416 47.6967 111.607 48.6949 111.607C49.6931 111.607 50.5026 112.416 50.5026 113.415V116.831C50.5026 117.829 49.6931 118.639 48.6949 118.639Z" fill="#FFAA66"/>
<defs>
<linearGradient id="paint0_linear_5930_182045" x1="29.6392" y1="173.348" x2="154.662" y2="48.3252" gradientUnits="userSpaceOnUse">
<stop stop-color="white" stop-opacity="0"/>
<stop offset="0.2698" stop-color="#ECECFF" stop-opacity="0.429"/>
<stop offset="0.629" stop-color="#D7D7FF"/>
</linearGradient>
<linearGradient id="paint1_linear_5930_182045" x1="163.72" y1="136.844" x2="163.72" y2="113.548" gradientUnits="userSpaceOnUse">
<stop stop-color="#FF4D4D" stop-opacity="0.4"/>
<stop offset="0.1463" stop-color="#FF4D4D" stop-opacity="0.342"/>
<stop offset="1" stop-color="#FF4D4D" stop-opacity="0"/>
</linearGradient>
<linearGradient id="paint2_linear_5930_182045" x1="157.927" y1="137.142" x2="157.927" y2="116.688" gradientUnits="userSpaceOnUse">
<stop stop-color="#FF4D4D" stop-opacity="0.4"/>
<stop offset="0.1463" stop-color="#FF4D4D" stop-opacity="0.342"/>
<stop offset="1" stop-color="#FF4D4D" stop-opacity="0"/>
</linearGradient>
<linearGradient id="paint3_linear_5930_182045" x1="111.422" y1="199.643" x2="111.422" y2="33.3794" gradientUnits="userSpaceOnUse">
<stop stop-color="#FF4D4D" stop-opacity="0.4"/>
<stop offset="0.1463" stop-color="#FF4D4D" stop-opacity="0.342"/>
<stop offset="1" stop-color="#FF4D4D" stop-opacity="0"/>
</linearGradient>
</defs>
</svg>
