<svg width="283" height="421" viewBox="0 0 283 421" fill="none" xmlns="http://www.w3.org/2000/svg">
<g clip-path="url(#clip0_2164_39785)">
<g style="mix-blend-mode:overlay" opacity="0.75">
<path d="M9.13086 54.3491L31.9309 58.5791L33.6209 43.3691L9.13086 54.3491Z" fill="white" fill-opacity="0.5"/>
<path d="M51.3906 78.4988L74.1906 76.8088L67.4406 63.2988L51.3906 78.4988Z" fill="white" fill-opacity="0.5"/>
<path d="M230.701 271.579L239.661 240.039L254.711 257.959L230.701 271.579Z" fill="white" fill-opacity="0.5"/>
</g>
<g style="mix-blend-mode:overlay">
<path d="M63.7503 108.48L-110.06 103.1L-111.16 102.65L-110.89 103.07H-111.43L-110.43 103.79L-18.4297 249.79L-19.1797 250.94L-18.1797 250.29L57.2203 419.55L57.1603 420.08H57.2803V420.39L57.8203 419.88L240.7 358.1L232.95 354.84L236.53 353.51L236.19 353.13L181.99 207.33L182.43 207L86.3003 182.7L64.1003 107.88L63.7503 108.48ZM33.0703 162.82L37.3303 212.05L14.3303 195.05L33.0703 162.82ZM13.6603 194.55L-107.34 105.08L32.6603 161.86L13.6603 194.55ZM80.5903 224.21L39.9103 213.07L85.4703 183.84L80.5903 224.21ZM38.3303 214.08L39.0003 213.66L80.5003 225.03L72.9403 287.51L44.2203 275.43L38.3303 214.08ZM43.3303 275.08L-17.1097 249.65L37.5603 214.57L43.3303 275.08ZM72.8103 288.36L72.7403 288.9L72.8503 288.82L57.6403 415.71L44.2903 276.35L72.8103 288.36ZM73.6703 288.73H73.7503V288.97L74.4803 289.03L108.48 303.31L58.3203 416.84L73.6703 288.73ZM77.0703 289.28L113.31 292.28L108.76 302.58L77.0703 289.28ZM74.6603 288.28L73.9803 287.99L135.52 241.99L113.66 291.5L74.6603 288.28ZM37.4203 213.13V213.23L37.4703 213.67L30.6403 218.04L-16.7797 248.47L13.9103 195.74L37.4203 213.13ZM43.4203 275.99L56.9603 417.06L-17.1897 250.49L43.4203 275.99ZM58.7803 417.82L109.22 303.65L157.99 324.16L58.7803 417.82ZM158.78 324.5L230.72 354.75L59.3303 418.41L158.78 324.5ZM109.54 302.94L114.22 292.36L185.38 298.3L158.62 323.55L109.54 302.94ZM186.22 297.52L114.61 291.52L136.81 241.27L186.22 297.52ZM136.12 240.59L73.9403 287.03L81.3503 225.25L135.74 240.15L136.12 240.59ZM81.4203 224.44L86.2703 183.94L134.73 239.01L81.4203 224.44ZM38.8603 212.78L38.1903 212.59L33.8403 162.33L85.1003 183.12L38.8603 212.78ZM32.8603 161.08L-107.89 103.94L63.2903 109.24L33.2203 160.94H32.8703L32.8603 161.08ZM13.2203 195.25L-17.9897 248.94L-108.65 105.11L13.2203 195.25ZM238.4 357.94L83.2203 410.39L231.79 355.21L238.4 357.94ZM159.4 323.86L186.69 298.1L235.09 353.1L231.81 354.32L159.4 323.86ZM234.64 351.36L137.24 240.69L181.24 207.8L234.64 351.36ZM137.22 239.73L136.14 239.43L87.1403 183.75L180.57 207.37L137.22 239.73ZM85.3503 182.34L33.8603 161.46L63.8603 109.91L85.3503 182.34Z" fill="white" fill-opacity="0.5"/>
</g>
<path d="M83.4008 178.769C84.2355 178.295 85.192 178.08 86.1493 178.15C87.1065 178.22 88.0215 178.572 88.7783 179.163C89.5351 179.753 90.0998 180.555 90.4007 181.466C90.7017 182.377 90.7255 183.358 90.469 184.283C90.2125 185.208 89.6874 186.036 88.9601 186.662C88.2327 187.288 87.3359 187.685 86.3831 187.801C85.4304 187.917 84.4645 187.748 83.6079 187.315C82.7512 186.883 82.0422 186.205 81.5708 185.369C80.9401 184.251 80.7786 182.928 81.1217 181.691C81.4647 180.454 82.2843 179.403 83.4008 178.769Z" fill="white" fill-opacity="0.5"/>
<path d="M79.0304 221.76C79.679 221.392 80.4221 221.225 81.1656 221.28C81.9092 221.334 82.6199 221.608 83.2078 222.067C83.7958 222.525 84.2345 223.148 84.4687 223.856C84.7028 224.563 84.7219 225.325 84.5233 226.043C84.3248 226.762 83.9176 227.406 83.3533 227.893C82.789 228.38 82.0928 228.689 81.3529 228.781C80.613 228.873 79.8625 228.743 79.1963 228.408C78.5302 228.073 77.9783 227.548 77.6104 226.9C77.1196 226.029 76.9934 225 77.2595 224.037C77.5256 223.074 78.1623 222.255 79.0304 221.76Z" fill="white" fill-opacity="0.5"/>
<path d="M132.899 236.27C133.76 235.789 134.745 235.573 135.729 235.65C136.712 235.727 137.651 236.093 138.427 236.703C139.203 237.313 139.781 238.138 140.089 239.075C140.396 240.013 140.42 241.02 140.156 241.971C139.892 242.922 139.353 243.773 138.607 244.418C137.86 245.063 136.939 245.473 135.96 245.596C134.981 245.719 133.988 245.549 133.105 245.108C132.222 244.668 131.49 243.976 130.999 243.12C130.671 242.546 130.459 241.913 130.377 241.257C130.294 240.601 130.343 239.935 130.52 239.298C130.697 238.661 130.998 238.066 131.406 237.546C131.815 237.026 132.322 236.592 132.899 236.27Z" fill="white" fill-opacity="0.5"/>
<path d="M59.9798 105.11C61.0439 104.51 62.2621 104.238 63.4804 104.33C64.6987 104.422 65.8625 104.873 66.8247 105.625C67.7868 106.378 68.5043 107.4 68.8863 108.56C69.2684 109.721 69.2978 110.968 68.9711 112.145C68.6443 113.323 67.9759 114.377 67.0504 115.174C66.1248 115.972 64.9837 116.477 63.7711 116.626C62.5584 116.775 61.3288 116.562 60.2375 116.013C59.1462 115.463 58.2423 114.603 57.6398 113.54C56.8332 112.111 56.6266 110.421 57.0654 108.841C57.5041 107.26 58.5524 105.918 59.9798 105.11Z" fill="white" fill-opacity="0.5"/>
<path d="M179.791 203.71C180.652 203.227 181.638 203.009 182.622 203.085C183.607 203.161 184.548 203.527 185.325 204.137C186.102 204.747 186.681 205.573 186.989 206.511C187.297 207.45 187.32 208.459 187.055 209.41C186.791 210.362 186.25 211.214 185.502 211.859C184.753 212.503 183.83 212.912 182.85 213.033C181.87 213.154 180.875 212.981 179.993 212.538C179.11 212.094 178.379 211.399 177.891 210.54C177.565 209.967 177.356 209.336 177.276 208.682C177.195 208.028 177.245 207.365 177.421 206.73C177.598 206.096 177.898 205.502 178.305 204.984C178.711 204.465 179.216 204.033 179.791 203.71Z" fill="white" fill-opacity="0.5"/>
<path d="M36.221 208.6C37.0824 208.118 38.0672 207.901 39.0515 207.978C40.0358 208.054 40.9753 208.421 41.7518 209.03C42.5283 209.64 43.1069 210.466 43.4148 211.404C43.7226 212.342 43.7459 213.35 43.4817 214.301C43.2174 215.252 42.6775 216.104 41.93 216.749C41.1825 217.394 40.2608 217.803 39.2811 217.925C38.3015 218.047 37.3076 217.876 36.425 217.434C35.5423 216.991 34.8102 216.298 34.321 215.44C33.994 214.867 33.7837 214.235 33.7023 213.58C33.6208 212.925 33.6698 212.261 33.8465 211.625C34.0231 210.989 34.3239 210.394 34.7314 209.875C35.139 209.356 35.6452 208.923 36.221 208.6Z" fill="white" fill-opacity="0.5"/>
<path d="M184.99 294.471C185.732 294.052 186.582 293.862 187.432 293.926C188.281 293.99 189.093 294.304 189.764 294.829C190.435 295.354 190.936 296.066 191.203 296.875C191.469 297.684 191.49 298.554 191.262 299.375C191.035 300.197 190.569 300.932 189.924 301.488C189.278 302.045 188.483 302.397 187.637 302.502C186.791 302.606 185.934 302.457 185.173 302.075C184.411 301.692 183.781 301.092 183.36 300.351C182.798 299.355 182.654 298.176 182.96 297.074C183.265 295.972 183.996 295.035 184.99 294.471Z" fill="white" fill-opacity="0.5"/>
<path d="M71.9093 285.01C72.5275 284.66 73.2355 284.502 73.9436 284.555C74.6517 284.608 75.3283 284.87 75.8876 285.307C76.4469 285.745 76.8639 286.338 77.0858 287.013C77.3078 287.687 77.3247 288.413 77.1344 289.097C76.9441 289.781 76.5552 290.393 76.0169 290.856C75.4785 291.32 74.815 291.613 74.1101 291.699C73.4052 291.784 72.6906 291.659 72.0568 291.339C71.423 291.019 70.8983 290.518 70.5493 289.9C70.3163 289.489 70.1667 289.037 70.1089 288.569C70.0512 288.101 70.0866 287.626 70.2129 287.172C70.3393 286.717 70.5542 286.293 70.8454 285.921C71.1365 285.55 71.498 285.24 71.9093 285.01Z" fill="white" fill-opacity="0.5"/>
<g style="mix-blend-mode:overlay">
<path d="M282.679 296.5L277.219 267.57L259.219 283.84L282.679 296.5ZM276.599 269.5L281.309 294.63L260.889 283.63L276.599 269.5Z" fill="white" fill-opacity="0.5"/>
<path d="M164.5 167.78L163.28 136L146.16 173.94L164.5 167.78ZM163.5 167.07L148.05 172.22L162.47 140.28L163.5 167.07Z" fill="white" fill-opacity="0.5"/>
<path d="M113.32 173.651L107.73 155.461L99.7305 165.061L113.32 173.651ZM107.32 157.521L111.58 171.361L101.22 164.821L107.32 157.521Z" fill="white" fill-opacity="0.5"/>
<path d="M60.5996 31.63L30.2196 0L17.5996 15.66L60.5996 31.63ZM56.8396 29.17L19.2196 15.21L30.2196 1.51L56.8396 29.17Z" fill="white" fill-opacity="0.5"/>
</g>
</g>
<defs>
<clipPath id="clip0_2164_39785">
<rect width="396.68" height="420.35" fill="white" transform="translate(-114)"/>
</clipPath>
</defs>
</svg>
