<svg width="263" height="174" viewBox="0 0 263 174" fill="none" xmlns="http://www.w3.org/2000/svg">
<rect y="96" width="263" height="78" fill="#E0DFE2"/>
<path fill-rule="evenodd" clip-rule="evenodd" d="M176.402 115.079L125.928 115.721L114.714 134.827C114.221 135.666 114.887 136.587 115.732 136.587H186.974C187.819 136.587 188.485 135.666 187.992 134.827L176.402 115.079Z" fill="#3A2971"/>
<path fill-rule="evenodd" clip-rule="evenodd" d="M216.415 13.3274C220.587 13.3274 224 16.716 224 20.8586V111.516C224 115.659 220.587 119.047 216.415 119.047H86.2911C82.1196 119.047 78.7061 115.659 78.7061 111.516V20.8584C78.7061 16.716 82.1196 13.3271 86.2911 13.3271L216.415 13.3274Z" fill="#F9F7FF"/>
<path fill-rule="evenodd" clip-rule="evenodd" d="M224 106.437H78.7061V111.516C78.7061 115.659 82.1196 119.048 86.2911 119.048H216.415C220.586 119.048 224 115.659 224 111.516V106.437H224Z" fill="#473388"/>
<path fill-rule="evenodd" clip-rule="evenodd" d="M158.69 7.0025C157.437 7.33511 156.149 6.59543 155.814 5.35083C155.479 4.10595 156.224 2.8272 157.477 2.49458C169.744 -0.769036 182.186 1.21553 192.385 7.06178C202.581 12.9063 210.53 22.6122 213.818 34.7938C214.153 36.0387 213.408 37.3174 212.154 37.65C210.901 37.9827 209.613 37.2433 209.278 35.9984C206.325 25.059 199.187 16.3431 190.032 11.0955C180.881 5.84931 169.711 4.07062 158.69 7.0025ZM164.716 29.3304C169.526 28.0507 174.4 28.8261 178.392 31.1138C182.386 33.4035 185.501 37.207 186.789 41.9807C187.124 43.2256 188.412 43.965 189.666 43.6324C190.92 43.2998 191.665 42.021 191.33 40.7761C189.706 34.7599 185.78 29.9667 180.744 27.0801C175.706 24.1917 169.56 23.2108 163.503 24.8222C162.249 25.1548 161.504 26.4335 161.839 27.6784C162.174 28.9236 163.462 29.663 164.716 29.3304ZM161.703 18.1664C169.623 16.0595 177.648 17.3368 184.221 21.1045C190.789 24.8695 195.912 31.1286 198.033 38.9895C198.368 40.2344 199.656 40.9738 200.91 40.6412C202.164 40.3086 202.909 39.0298 202.574 37.785C200.119 28.6903 194.177 21.44 186.555 17.0711C178.938 12.7048 169.648 11.2222 160.49 13.6585C159.236 13.9911 158.491 15.2702 158.826 16.5148C159.161 17.7597 160.449 18.4991 161.703 18.1664Z" fill="#FF8B1F"/>
<path d="M151.245 90.4425C165.804 90.4425 177.606 78.7241 177.606 64.2688C177.606 49.8134 165.804 38.095 151.245 38.095C136.685 38.095 124.883 49.8134 124.883 64.2688C124.883 78.7241 136.685 90.4425 151.245 90.4425Z" fill="#1CD532"/>
<path fill-rule="evenodd" clip-rule="evenodd" d="M162.468 53.556C163.644 52.3817 165.557 52.3765 166.739 53.5444C167.922 54.7119 167.927 56.611 166.751 57.7849L149.593 74.9804C148.425 76.1468 146.53 76.1596 145.346 75.0153L135.775 65.7524C134.579 64.5977 134.553 62.699 135.716 61.5119C136.879 60.3248 138.791 60.2985 139.987 61.4533L147.415 68.6423L162.468 53.556Z" fill="#EFF4F7"/>
<path d="M89.8819 63.2039H47.529C42.331 63.2039 38.1172 67.3876 38.1172 72.5485V151.978C38.1172 157.139 42.331 161.323 47.529 161.323H89.8819C95.0799 161.323 99.2937 157.139 99.2937 151.978V72.5485C99.2937 67.3876 95.0799 63.2039 89.8819 63.2039Z" fill="#FF3875"/>
<path d="M94.5877 72.5485V149.642C94.5877 150.881 94.0919 152.07 93.2094 152.946C92.3269 153.822 91.1299 154.314 89.8818 154.314H47.5289C46.2808 154.314 45.0838 153.822 44.2013 152.946C43.3188 152.07 42.823 150.881 42.823 149.642V72.5485C42.823 71.3094 43.3188 70.1209 44.2013 69.2447C45.0838 68.3685 46.2808 67.8762 47.5289 67.8762H56.9406C58.823 71.6374 59.0112 72.5485 60.7524 72.5485H76.6583C78.3759 72.5485 78.6348 71.5206 80.4701 67.8762H89.8818C91.1299 67.8762 92.3269 68.3685 93.2094 69.2447C94.0919 70.1209 94.5877 71.3094 94.5877 72.5485Z" fill="#F8F6FF"/>
<path d="M68.7057 142.633C73.9037 142.633 78.1175 138.45 78.1175 133.289C78.1175 128.128 73.9037 123.944 68.7057 123.944C63.5077 123.944 59.2939 128.128 59.2939 133.289C59.2939 138.45 63.5077 142.633 68.7057 142.633Z" fill="#818181"/>
<path d="M68.7057 114.599C73.9037 114.599 78.1175 110.416 78.1175 105.255C78.1175 100.094 73.9037 95.9102 68.7057 95.9102C63.5077 95.9102 59.2939 100.094 59.2939 105.255C59.2939 110.416 63.5077 114.599 68.7057 114.599Z" fill="#FF3875"/>
<path d="M148.999 98.8303V94.1579C148.999 93.5384 149.247 92.9441 149.688 92.506C150.13 92.0679 150.728 91.8218 151.352 91.8218C151.976 91.8218 152.575 92.0679 153.016 92.506C153.457 92.9441 153.705 93.5384 153.705 94.1579V98.8303C153.705 99.4499 153.457 100.044 153.016 100.482C152.575 100.92 151.976 101.166 151.352 101.166C150.728 101.166 150.13 100.92 149.688 100.482C149.247 100.044 148.999 99.4499 148.999 98.8303Z" fill="#FF3875"/>
<path d="M151.352 115.184H146.646C146.022 115.184 145.423 114.937 144.982 114.499C144.541 114.061 144.293 113.467 144.293 112.847C144.293 112.228 144.541 111.634 144.982 111.195C145.423 110.757 146.022 110.511 146.646 110.511H148.999V108.175C148.999 107.555 149.247 106.961 149.688 106.523C150.129 106.085 150.728 105.839 151.352 105.839C151.976 105.839 152.574 106.085 153.016 106.523C153.457 106.961 153.705 107.555 153.705 108.175V112.847C153.705 113.467 153.457 114.061 153.016 114.499C152.574 114.937 151.976 115.184 151.352 115.184Z" fill="#FF3875"/>
<path d="M137.235 115.183H132.529C131.905 115.183 131.306 114.937 130.865 114.499C130.424 114.061 130.176 113.467 130.176 112.847C130.176 112.228 130.424 111.633 130.865 111.195C131.306 110.757 131.905 110.511 132.529 110.511H137.235C137.859 110.511 138.457 110.757 138.898 111.195C139.34 111.633 139.588 112.228 139.588 112.847C139.588 113.467 139.34 114.061 138.898 114.499C138.457 114.937 137.859 115.183 137.235 115.183Z" fill="#FF3875"/>
<path d="M123.116 115.183H118.411C117.787 115.183 117.188 114.937 116.747 114.499C116.306 114.061 116.058 113.467 116.058 112.847C116.058 112.228 116.306 111.633 116.747 111.195C117.188 110.757 117.787 110.511 118.411 110.511H123.116C123.74 110.511 124.339 110.757 124.78 111.195C125.221 111.633 125.469 112.228 125.469 112.847C125.469 113.467 125.221 114.061 124.78 114.499C124.339 114.937 123.74 115.183 123.116 115.183Z" fill="#FF3875"/>
<path d="M108.999 115.183H104.293C103.669 115.183 103.071 114.937 102.63 114.499C102.188 114.061 101.94 113.467 101.94 112.847C101.94 112.228 102.188 111.633 102.63 111.195C103.071 110.757 103.669 110.511 104.293 110.511H108.999C109.623 110.511 110.222 110.757 110.663 111.195C111.104 111.633 111.352 112.228 111.352 112.847C111.352 113.467 111.104 114.061 110.663 114.499C110.222 114.937 109.623 115.183 108.999 115.183Z" fill="#FF3875"/>
</svg>
