<svg width="49" height="48" viewBox="0 0 49 48" fill="none" xmlns="http://www.w3.org/2000/svg">
<g id="person">
<g id="Vector">
<path d="M31.6855 6.05437C29.8612 4.08469 27.313 3 24.5005 3C21.673 3 19.1165 4.07812 17.3005 6.03562C15.4649 8.01469 14.5705 10.7044 14.7805 13.6087C15.1968 19.3387 19.5571 24 24.5005 24C29.444 24 33.7968 19.3397 34.2196 13.6106C34.4324 10.7325 33.5324 8.04844 31.6855 6.05437Z" fill="white"/>
<path d="M41.0005 45H8.00054C7.5686 45.0056 7.14084 44.9149 6.74838 44.7344C6.35592 44.5539 6.00863 44.2882 5.73179 43.9566C5.12241 43.2281 4.87679 42.2334 5.05866 41.2275C5.84991 36.8381 8.31929 33.1509 12.2005 30.5625C15.6487 28.2647 20.0165 27 24.5005 27C28.9846 27 33.3524 28.2656 36.8005 30.5625C40.6818 33.15 43.1512 36.8372 43.9424 41.2266C44.1243 42.2325 43.8787 43.2272 43.2693 43.9556C42.9925 44.2874 42.6453 44.5533 42.2528 44.734C41.8604 44.9146 41.4325 45.0055 41.0005 45Z" fill="white"/>
</g>
</g>
</svg>
